<svg xmlns="http://www.w3.org/2000/svg" width="30" height="34.805" viewBox="0 0 30 34.805">
  <text id="みんな" transform="translate(0 33.805)" font-size="10" font-family="HiraginoSans-W6, Hiragino Sans"><tspan x="0" y="0">みんな</tspan></text>
  <g id="長方形_1475" data-name="長方形 1475" transform="translate(19 8.805)" stroke="#000" stroke-width="1">
    <rect width="6" height="15" stroke="none"/>
    <rect x="0.5" y="0.5" width="5" height="14" fill="none"/>
  </g>
  <g id="パス_650" data-name="パス 650" transform="translate(2.458 -0.02)">
    <path d="M 22.66621780395508 5.711088180541992 L 2.132868051528931 5.669997692108154 L 12.38101863861084 0.5788776874542236 L 22.66621780395508 5.711088180541992 Z" stroke="none"/>
    <path d="M 12.38052654266357 1.137426853179932 L 4.254634857177734 5.174241542816162 L 20.53579330444336 5.206822872161865 L 12.38052654266357 1.137426853179932 M 12.38151073455811 0.02033376693725586 L 24.796630859375 6.215353488922119 L 0.01111030578613281 6.165753841400146 L 12.38151073455811 0.02033376693725586 Z" stroke="none"/>
  </g>
  <g id="パス_651" data-name="パス 651" transform="translate(5.016 12.456) rotate(-90)">
    <path d="M 0.4644221663475037 19.4827938079834 L 0.5133634209632874 0.5035291314125061 L 6.760049343109131 0.485668420791626 L 6.711108207702637 19.46493339538574 L 0.4644221663475037 19.4827938079834 Z" stroke="none"/>
    <path d="M 6.258752822875977 0.9871063232421875 L 1.012081146240234 1.002107620239258 L 0.9657187461853027 18.98135566711426 L 6.212390422821045 18.96635437011719 L 6.258752822875977 0.9871063232421875 M 7.261345863342285 -0.01576805114746094 L 7.209825992584229 19.96351051330566 L -0.03687429428100586 19.98423004150391 L 0.01464557647705078 0.00495147705078125 L 7.261345863342285 -0.01576805114746094 Z" stroke="none"/>
  </g>
  <g id="長方形_1478" data-name="長方形 1478" transform="translate(5 8.805)" stroke="#000" stroke-width="1">
    <rect width="6" height="15" stroke="none"/>
    <rect x="0.5" y="0.5" width="5" height="14" fill="none"/>
  </g>
</svg>
