<svg xmlns="http://www.w3.org/2000/svg" width="40" height="37" viewBox="0 0 40 37">
  <text id="ノウハウ" transform="translate(0 36)" font-size="10" font-family="HiraginoSans-W6, Hiragino Sans"><tspan x="0" y="0">ノウハウ</tspan></text>
  <g id="Web" transform="translate(9)">
    <path id="パス_4" data-name="パス 4" d="M3.3,3.3A9.986,9.986,0,0,1,11,0a9.986,9.986,0,0,1,7.7,3.3A9.986,9.986,0,0,1,22,11a9.986,9.986,0,0,1-3.3,7.7A9.986,9.986,0,0,1,11,22a9.986,9.986,0,0,1-7.7-3.3A10.978,10.978,0,0,1,0,11,9.986,9.986,0,0,1,3.3,3.3Zm9.167,16.5q1.1,0,2.75-1.65A8.007,8.007,0,0,0,16.5,14.3a3.036,3.036,0,0,0-.917-2.2A3.227,3.227,0,0,0,13.2,11H11.367a5.353,5.353,0,0,1-1.65-.367,1.664,1.664,0,0,1-.55-1.283.952.952,0,0,1,.367-.733,1.39,1.39,0,0,1,.733-.367,1.251,1.251,0,0,1,.917.55c.367.183.55.367.733.367a1.1,1.1,0,0,0,.733-.183,1.1,1.1,0,0,0,.183-.733,2.917,2.917,0,0,0-.917-1.833,7.583,7.583,0,0,0,.917-3.483.394.394,0,0,0-.367-.367A5.667,5.667,0,0,0,11,2.2,9.171,9.171,0,0,0,6.233,3.667a4.616,4.616,0,0,0-1.65,3.667A4.694,4.694,0,0,0,6.05,10.817a5.009,5.009,0,0,0,3.483,1.467h0v.733a2.354,2.354,0,0,0,.733,1.833,2.67,2.67,0,0,0,1.65,1.1v3.3c0,.183,0,.183.183.367S12.283,19.8,12.467,19.8Z"/>
  </g>
</svg>
