<?xml version="1.0" encoding="UTF-8"?>
<svg id="_レイヤー_1" data-name="レイヤー 1" xmlns="http://www.w3.org/2000/svg" viewBox="0 0 115 45">
  <defs>
    <style>
      .cls-1 {
        fill: #6e6e6e;
      }

      .cls-2 {
        fill: none;
        stroke: #6e6e6e;
        stroke-miterlimit: 10;
        stroke-width: 1px;
      }
    </style>
  </defs>
  <g>
    <path class="cls-1" d="m30.49,17.72c-.55,0-1.09.05-1.39.05-.41,0-.45-.2-.45-.73v-.96c0-.53.03-.73.45-.73.28,0,.81.05,1.39.05h1.97c.31,0,.63-.03.94-.03.75,0,.94.33.94,1.11,0,.5-.02.98-.02,1.47,0,4.22,2.19,7.73,5.9,9.74.15.08.25.17.25.36,0,.5-1.01,1.9-1.56,1.9-.12,0-.27-.1-.38-.17-1.42-.91-2.7-2.07-3.76-3.39-.55-.68-1.08-1.46-1.47-2.24-.08-.15-.22-.41-.41-.41-.18,0-.31.27-.4.41-1.09,2.09-3.01,4.02-5,5.27-.2.12-.63.4-.84.4-.6,0-1.28-1.46-1.28-1.99,0-.17.13-.22.38-.35,2.87-1.51,5-4.22,5.68-7.39.1-.46.2-1.14.2-1.61,0-.76-.07-.78-.35-.78h-.79Z"/>
    <path class="cls-1" d="m47.48,27.74c0,.6.03,1.19.03,1.77,0,.3-.08.51-.8.51h-.81c-.65,0-.76-.2-.76-.51,0-.6.03-1.18.03-1.77v-2.22c0-.1,0-.3-.15-.3-.05,0-.07.02-.15.1-.08.07-.17.1-.27.1-.22,0-.31-.12-.68-.63-.31-.43-.63-.98-.63-1.28,0-.2.2-.4.33-.53,1.08-1.11,1.84-2.37,2.42-3.86.18-.45.23-.56.41-.56.13,0,.33.05.45.08.05.02.08.03.13.03.12,0,.22-.1.22-.22,0-.17-.12-.23-.26-.23h-.91c-.66,0-1.32.05-1.99.05-.4,0-.43-.17-.43-.61v-.96c0-.48.05-.63.45-.63.66,0,1.32.05,1.97.05h.63c.45,0,.56-.28.56-.46,0-.03-.02-.33-.03-.38,0-.03-.02-.1-.02-.13,0-.18.2-.18.33-.18.36,0,1.56.08,1.99.12.41.03.53.07.53.2,0,.07-.03.1-.17.18-.12.08-.2.17-.2.33,0,.27.23.33.46.33h1.56c.3,0,.6-.08.6-.45,0-.07-.02-.33-.03-.4,0-.03-.02-.1-.02-.13,0-.18.2-.18.35-.18.31,0,1.34.07,1.95.12.46.03.6.07.6.2,0,.07-.03.1-.17.18-.12.08-.2.17-.2.33,0,.27.26.33.48.33h.7c.66,0,1.32-.05,1.97-.05.41,0,.46.15.46.63v.96c0,.45-.03.61-.43.61-.66,0-1.32-.05-2-.05h-.66c-.36,0-.48.23-.48.41v.22c0,.36-.18.4-.81.4h-.96c-.58,0-.78-.03-.78-.36,0-.08.02-.15.02-.22,0-.33-.22-.45-.51-.45h-1.57c-.26,0-.48.12-.48.41v.22c0,.4-.2.4-.76.4h-.08c-.1,0-.13.02-.17.12-.03.13-.17.15-.28.18-.08.02-.18.23-.35.65-.12.28-.41.96-.55,1.21-.08.15-.12.23-.12.28,0,.13.07.15.2.18.1.02.22.07.22.18s-.13.22-.22.28c-.15.12-.17.41-.17.81v4.59Zm.89-3.48c0-.4-.02-.79-.02-1.19,0-.51.2-.68.7-.68s.96.03,1.44.03h1.42c.46,0,.94-.03,1.42-.03.43,0,.73.08.73.68,0,.4-.03.79-.03,1.19v1.04c0,.4.03.79.03,1.19,0,.51-.22.68-.71.68s-.96-.03-1.44-.03h-.91c-.3,0-.4.18-.4.31,0,.03.02.08.02.12,0,.35-.17.38-.68.38h-.96c-.5,0-.66-.03-.66-.38s.05-.96.05-1.59v-1.72Zm8.83,2.55c0,.33.02.66.02.98,0,2.02-1.52,2.2-3.16,2.2-.48,0-.73-.03-.88-.41-.12-.28-.18-.94-.18-1.24s.1-.66.46-.66c.1,0,.23.02.33.03.17.02.41.03.58.03.56,0,.58-.13.58-.89v-4.64c0-.27-.22-.46-.46-.46h-3.69c-.61,0-1.23.03-1.85.03-.41,0-.48-.18-.48-.66v-.94c0-.45.08-.61.48-.61.63,0,1.24.05,1.85.05h5.3c.61,0,1.23-.05,1.84-.05.43,0,.5.18.5.65v.99c0,.46-.1.58-.53.58h-.23c-.23,0-.46.13-.46.55v4.49Zm-5.63-1.57c.23,0,.4-.18.4-.4v-.12c0-.22-.17-.4-.4-.4h-.6c-.22,0-.4.18-.4.4v.12c0,.23.17.4.4.4h.6Z"/>
    <path class="cls-1" d="m69.96,15.8c.08.02.23.03.23.17,0,.08-.05.18-.12.28-.22.33-.26.66-.26,1.04,0,.22.15.38.36.38.3,0,1.9-.36,2.34-.46.26-.07.55-.13.68-.13.23,0,.31.33.35.51.08.41.18.99.18,1.41s-.2.46-.73.56c-.83.15-1.69.28-2.53.4-.4.05-.58.1-.58.45,0,.23.12.41.36.41.23,0,1.47-.27,1.76-.35.13-.03.3-.07.41-.07.13,0,.22.13.28.35.12.35.12,1.14.12,1.59,0,.53-.51.6-2.04.76-.66.07-.79.15-.79.45,0,.91.02,1.04.53,1.21.7.23,2.91,1.18,2.91,1.95,0,.36-.7,1.61-1.23,1.61-.23,0-.66-.33-1.24-.76-.15-.12-.53-.4-.73-.4-.23,0-.3.18-.38.36-.53,1.29-1.85,1.66-3.15,1.66-.63,0-1.44-.12-2.02-.51-.66-.45-1.04-1.19-1.04-1.95,0-.71.36-1.41.94-1.82.71-.51,1.71-.68,2.57-.68h.18c.23,0,.35-.15.35-.36,0-.33-.22-.45-.38-.45-.3,0-1.32.08-2.05.08-.63,0-.8-.02-.89-.46-.1-.41-.23-.96-.23-1.54,0-.25.03-.48.33-.48.48,0,1.19.08,1.99.08h.45c.41,0,.73-.03.73-.4,0-.23-.13-.41-.4-.41-.56,0-1.57.07-2.35.07h-.5c-.66,0-1.19-.02-1.29-.25-.17-.41-.18-1.26-.18-1.74,0-.23.02-.51.33-.51s2.05.15,3.15.15h.36c.4,0,.7-.03.7-.38,0-.15-.08-1.08-.13-1.37-.03-.15-.05-.31-.05-.46,0-.2.12-.25.31-.25.31,0,1.99.22,2.4.28Zm-4.16,10.95c0,.4.61.41.89.41.45,0,.99-.12.99-.68,0-.23-.2-.25-.51-.25-.33,0-1.37.03-1.37.51Z"/>
    <path class="cls-1" d="m84.96,16.45c0,.1-.07.17-.13.25-.25.28-.46.88-.46,1.06s.13.27.3.27c.51,0,2.15-.53,2.7-.73.13-.05.35-.13.48-.13.25,0,.3.22.41.74.08.38.18.99.18,1.37,0,.35-.2.41-.84.55-.93.18-2.4.4-3.36.5-.25.03-.53.07-.66.3-.07.1-.18.58-.18.71s.1.2.23.2c.07,0,.1-.02.17-.05.66-.33,1.44-.51,2.19-.51,2.2,0,3.66,1.51,3.66,3.69,0,3.78-4.04,4.6-7.04,4.6-.7,0-.79-.13-.94-.78-.07-.28-.25-1.11-.25-1.39,0-.23.18-.41.41-.41s.81.15,1.57.15c1.44,0,3.87-.4,3.87-2.25,0-.86-.58-1.34-1.23-1.34-1.14,0-2.5.66-3.28,1.46-.17.18-.36.45-.51.65-.12.17-.27.33-.46.33-.41,0-1.06-.35-1.37-.58-.27-.2-.5-.36-.5-.68,0-.23.13-.48.23-.68.23-.48.94-2.24.94-2.7,0-.18-.15-.3-.31-.3-.08,0-1.28.15-1.87.15-.31,0-.46-.12-.55-.41-.12-.38-.28-1.34-.28-1.74,0-.25.07-.43.35-.43.13,0,1.29.12,2.52.12.75,0,.89-.05,1.14-2.35.05-.4.08-.7.36-.7.31,0,2.52.61,2.52,1.08Z"/>
  </g>
  <rect class="cls-2" x="1.5" y="1.5" width="112" height="42" rx="10.57" ry="10.57"/>
</svg>