<?xml version="1.0" encoding="UTF-8"?>
<svg id="_レイヤー_1" data-name="レイヤー 1" xmlns="http://www.w3.org/2000/svg" viewBox="0 0 60 40">
  <defs>
    <style>
      .cls-1 {
        fill: #d17626;
      }
    </style>
  </defs>
  <path class="cls-1" d="m2.82,32.51c.04-4.65.85-9.18,2.07-13.67.94-3.44,2.13-6.79,3.24-10.17.28-.84.84-1.53,1.41-2.17.95-1.06,2.59-.78,3.14.53,1.19,2.81,1.7,5.79,2.19,8.79.39,2.41.8,4.82,1.68,7.13.26.68.38,1.42.59,2.12.08.28.12.7.53.66.38-.04.43-.44.46-.73.16-1.68.85-3.22,1.24-4.85.6-2.53,1.4-5,2.25-7.46.98-2.84,1.82-5.72,3.27-8.37.15-.27.31-.56.53-.76.45-.43,1-.74,1.63-.43.66.32.9.91.78,1.62-.34,2.01-1.19,3.86-1.89,5.76-.69,1.9-1.32,3.82-1.94,5.75-.53,1.65-1.05,3.31-1.49,4.98-.78,3.01-1.49,6.04-2.25,9.06-.2.8-.47,1.58-.71,2.37-.29.93-.92,1.46-1.89,1.54-.99.08-1.47-.61-1.74-1.39-.48-1.34-1.01-2.69-1.23-4.09-.29-1.84-1.02-3.54-1.45-5.34-.84-3.58-1.67-7.15-2.19-10.79-.04-.27.02-.68-.34-.71-.34-.03-.39.38-.48.64-1.58,4.17-2.71,8.47-3.65,12.82-.63,2.91-.7,5.91-.9,8.88-.02.24-.02.49-.08.73-.17.64-.49,1.19-1.23,1.22-.75.03-1.12-.5-1.31-1.13-.24-.82-.19-1.68-.25-2.53Z"/>
  <path class="cls-1" d="m41.83,21.45c-.02.87-.1,1.97.17,3.04.14.53.21,1.18.86,1.32.65.14.9-.47,1.21-.89,1.36-1.9,1.69-4.19,2.4-6.33.03-.08.04-.17.07-.26.28-.84.53-1.73,1.67-1.68.91.04,1.52.85,1.61,2.07.08,1.04-.23,2.08-.01,3.13.13.64.09,1.52.89,1.62.79.1.94-.78,1.18-1.34.65-1.53.81-3.18,1.04-4.81.13-.9.25-1.81.38-2.71.02-.11.04-.22.09-.32.34-.78.63-1.65,1.72-1.58.71.05,1.51,1.21,1.45,2.16-.2,3.35-.68,6.65-2.32,9.65-1.14,2.08-3.44,3.43-5.88,1.43-.6-.49-1.05-.39-1.38.28-.52,1.06-1.43,1.76-2.33,2.44-1.81,1.38-3.97.72-5.08-1.49-.74-1.47-.83-1.53-1.77-.17-1.25,1.8-2.74,3.27-4.68,4.26-2.11,1.08-5.42.25-6.78-1.66-.32-.45-.69-.8-1.17-1.07-.51-.28-.8-.75-.52-1.28.64-1.23.62-2.58.84-3.89.39-2.26,1.18-4.34,2.82-6.01,1.23-1.24,2.68-1.49,4.29-.81,2.79,1.18,3.31,2.35,2.28,5.22-.87,2.42-2.45,4.31-4.53,5.8-.28.2-.73.35-.51.8.2.42.65.34,1.02.24,2.22-.62,3.65-2.19,4.72-4.09,1.17-2.07,2.21-4.21,3.31-6.32.34-.66.88-1,1.64-.88.74.12,1.08.62,1.23,1.32.19.87-.02,1.73.1,2.82Zm-13.69,2.98c0,.22-.03.46.2.6.25.15.49,0,.68-.13,1.39-.97,2.25-2.32,2.84-3.87.23-.6.33-1.21-.3-1.62-.61-.4-1.11-.03-1.56.37-1.39,1.24-1.7,2.92-1.87,4.65Z"/>
</svg>