<?xml version="1.0" encoding="UTF-8"?>
<svg id="_レイヤー_1" data-name="レイヤー 1" xmlns="http://www.w3.org/2000/svg" viewBox="0 0 130 60">
  <defs>
    <style>
      .cls-1 {
        fill: #0e62a6;
      }
    </style>
  </defs>
  <path class="cls-1" d="m18.03,48.73c-2.14-1.15-3.88-2.85-5.86-4.22-.52-.36-.5-.82-.01-1.19,1.43-1.09,2.54-2.49,3.62-3.9,1.6-2.08,2.99-4.31,3.78-6.83.85-2.7.5-5.79-1.99-7.29-1.01-.61-2.1-.93-3.26-1.04-2.19-.21-4.36.06-6.52.35-1.51.2-2.9.81-4.17,1.67-.58.39-.88.94-.94,1.63-.04.53.03,1.02.56,1.3.53.28,1.01.14,1.45-.24.46-.4.95-.75,1.56-.91.87-.22,1.08-.03.97.85-.15,1.23-.6,2.4-.82,3.61-.63,3.46-1.25,6.92-1.84,10.38-.51,2.97-.97,5.94-1.45,8.91-.03,0-.05,0-.08-.01-.07.35-.17.69-.22,1.04-.14,1.08-.56,2.18.25,3.2.31.39.63.67,1.15.62.54-.05.98-.3,1.16-.83.19-.57.37-1.16.46-1.76.35-2.38.66-4.76,1.01-7.14.21-1.45.81-1.68,2.03-.82,2.53,1.8,5.06,3.59,7.59,5.38.53.38,1.09.71,1.71.92.67.22,1.27.05,1.69-.49.42-.53.32-1.11-.03-1.64-.45-.69-1.1-1.16-1.8-1.54Zm-9.45-6.9c-.21.13-.46.25-.71.09-.25-.17-.22-.43-.18-.69.12-.77.25-1.53.37-2.29l.09.02c.57-3.53,1.16-7.06,1.7-10.59.13-.82.53-1.18,1.33-1.17,1.28.01,2.56.05,3.82.31,1.31.27,2,1.28,1.84,2.63-.17,1.49-.78,2.83-1.53,4.09-1.41,2.4-2.94,4.74-5.11,6.55-.49.41-1.07.72-1.63,1.06Z"/>
  <path class="cls-1" d="m125.76,9.64c.28-1.54.59-3.08.86-4.63.11-.64.13-1.5-.66-1.71-.81-.22-1.19.5-1.49,1.16-.02.04-.03.08-.04.12-.86,2.34-1.34,4.79-1.88,7.22-.8,3.62-1.28,7.3-1.68,10.98-.03.26,0,.61-.33.68-.34.07-.42-.28-.56-.5-.99-1.6-3.22-2.05-4.77-1-1.87,1.26-2.9,3.15-3.39,5.2-.37,1.56-1.09,2.76-2.17,3.83-.66.64-1.11,1.48-1.91,1.98-.54.34-.85.21-.83-.44.02-.84.16-1.67.12-2.51-.04-.99-.17-2.03-1.21-2.52-1.02-.49-1.96-.15-2.81.5-.22.17-.45.31-.65.5-.51.47-.83.43-1.05-.29-.23-.73-.71-1.33-1.55-1.36-.85-.04-1.1.66-1.41,1.3-.7,1.45-1.46,2.88-2.21,4.3-.14.27-.39.63-.71.5-.34-.14-.07-.52-.03-.79.04-.27.13-.53.2-.79.31-1.27-.02-2.14-1.09-2.88-.77-.53-2.13-.52-2.97.07-2.78,1.96-4.06,4.58-3.45,8.02.04.2.05.43-.03.61-.15.39-.46.72-.9.64-.51-.09-.37-.55-.31-.88.17-.98.15-1.96.04-2.94-.12-1.12-.77-1.78-1.88-1.97-1.1-.19-2.17-.14-3.17.43-.55.32-1.09.39-1.6-.12-.23-.24-.56-.23-.89-.21-.82.06-1.47.46-2.05.99-.36.32-.71.41-1.11.06-.92-.81-1.9-.69-2.92-.17-.79.4-1.55.84-2.14,1.51-.52.59-1.03.62-1.61.07-.59-.57-1.3-.62-2.05-.34-.51.2-1.02.41-1.41.8-.58.58-1.08.6-1.73.04-.94-.82-1.85-.8-2.87-.07-.27.19-.51.44-.75.66-.42.38-.72.31-.98-.2-.68-1.33-1.94-1.57-3.09-.6-.63.53-1.15,1.16-1.6,1.85-.43.66-.88.71-1.49.2-.85-.71-1.83-1.07-2.96-.97-.52.05-1.05.13-1.56.06-1.87-.24-2.8.22-3.63,1.95-.8,1.66-1.44,3.38-1.76,5.21-.08.45-.26.81-.77.85-.67.05-1.16.42-1.63.86-1.2,1.12-2.47,2.15-4.12,2.55-1.6.39-2.77-.75-2.39-2.35.35-1.51.73-3.66,2.13-4.54.6-.37,1.42-.62,2.1-.36.61.23,1.2.71,1.76.01.21-.27.24-.64.14-.97-.1-.32-.32-.6-.57-.84-1.43-1.37-3.95-1.4-5.37-.03-1.61,1.55-2.47,3.65-2.98,5.79-.09.37-.08.83-.45.99-1.42.63-2.39,1.89-3.77,2.58-1.18.59-3.36.59-4.15-.1-.28-.25-.61-.52-.48-.95.13-.41.54-.32.86-.36.25-.03.5-.05.75-.08,2.97-.38,5.5-2.63,5.95-5.26.22-1.3-.3-2.36-1.23-3.12-2.2-1.81-5.19-1.37-6.94.88-1.47,1.89-2.21,4.09-2.64,6.38-.32,1.75.17,3.45,1.45,4.68,1.51,1.44,3.43,2.03,5.53,1.49,1.73-.45,3.41-1.05,4.76-2.29.46-.41.87-.47,1.27.07,1.37,1.81,3.91,1.98,5.79,1.3,1.64-.6,3.08-1.5,4.26-2.81.7-.77.95-.72,1.5.13,1.29,2,4.37,2.66,6.38,1.34,2.45-1.6,3.8-3.91,4.21-6.76.16-1.13.73-1.98,1.33-2.86.15-.22.37-.46.68-.35.3.11.32.44.31.7-.06.79-.14,1.58-.23,2.37-.13,1.14-.29,2.28-.39,3.43-.08,1.02.41,1.75,1.19,1.88.77.13,1.5-.4,1.82-1.32.06-.18.1-.36.13-.55.17-.97.3-1.95.5-2.91.2-.94.36-1.9.97-2.7.12-.16.24-.39.5-.28.21.09.19.32.16.5-.11.77-.24,1.53-.34,2.12,0,1.08-.4,1.94-.27,2.85.08.57.34.99.89,1.19.55.2,1.04.06,1.45-.32.44-.4.8-.88.88-1.49.25-1.75.96-3.33,1.65-4.93.18-.42.41-1.11.91-.95.52.17.13.8.06,1.23-.24,1.42-.44,2.86-.47,4.3-.02.79.31,1.46,1.2,1.6.86.14,1.39-.35,1.7-1.09.16-.38.27-.79.36-1.2.42-2.06,1.28-3.94,2.41-5.69.22-.34.46-1,.9-.79.48.22.12.82.04,1.25-.29,1.56-.76,3.09-.76,4.7,0,.67.07,1.39.85,1.58.78.19,1.44-.13,1.82-.89.33-.66.62-1.33.68-2.08.13-1.63.96-2.97,1.72-4.34.11-.2.24-.46.51-.4.33.07.25.4.25.63.03,1.46-.54,2.78-1.01,4.12-.35,1,.04,1.83,1.02,2.15.82.27,1.78-.25,2.03-1.13.46-1.66.88-3.35.87-5.06,0-1.42.84-2,1.82-2.58.25-.15.56-.27.83-.05.25.2.18.49.14.76-.14,1.21-.35,2.41-.4,3.62-.05,1.08.28,2.11,1.31,2.67.98.54,1.82.08,2.6-.52.61-.47,1.27-.89,1.8-1.46.45-.48,1.02-.57,1.61-.26.61.32,1.21.29,1.8-.02,1.23-.63,2.42-1.32,3.35-2.39.27-.31.7-.81.96-.04.3.89.84,1.29,1.76,1.3.96,0,1.29-.65,1.54-1.4.61-1.76,1.56-3.34,2.52-4.9.14-.23.28-.6.64-.47.32.12.22.47.19.73-.1.79.05,1.55.25,2.3.54,1.99,2.57,2.7,4.28,1.55,1.05-.71,2-1.52,2.92-2.37.65-.61,1.06-.6,1.62.1.92,1.14,2.16,1.56,3.63,1.45,1.22-.09,2.01-.86,2.88-1.54.32-.25.64-.44,1.07-.15,1.26.85,2.61.25,2.77-1.31.16-1.54.31-3.08.45-4.62.31-3.48.35-6.98.86-10.44.38-2.62.81-5.24,1.28-7.85ZM25.15,40.25c.47-.39.99-.54,1.58-.39.7.17,1.04.81.7,1.39-.7,1.2-1.72,2.04-3.08,2.4-.6.16-.95-.06-.8-.77.35-.97.76-1.93,1.6-2.63Zm24.22,5.78c-.63.42-1.24.56-1.94.19-.7-.37-.84-.97-.85-1.68,0-.68.11-1.33.22-1.81.04-.22.04-.26.05-.3.35-2.78,1.05-3.36,3.88-3.23,1.02.05,1.51.43,1.39,1.43-.27,2.1-.81,4.11-2.74,5.4Zm43.01-12.24c-.21.31-.42.56-.57.71-.08.08-.95.64-.94.7-.28-1.01-.25-2.1.07-3.1.2-.63.89-1.7,1.72-1.37,1.15.45.41,2.05-.28,3.06Zm24.46-1.77c-.71.58-1.32.4-1.86-.22-.61-.71-.8-1.58-.66-2.48.27-1.65.83-3.2,1.93-4.51.71-.85,1.53-.79,2.06.17.55,1,1.05,2.03.69,3.09-.08,1.77-.95,2.95-2.17,3.94Z"/>
</svg>