<?xml version="1.0" encoding="UTF-8"?>
<svg id="_レイヤー_1" data-name="レイヤー 1" xmlns="http://www.w3.org/2000/svg" viewBox="0 0 115 45">
  <defs>
    <style>
      .cls-1 {
        fill: #6e6e6e;
      }

      .cls-2 {
        fill: none;
        stroke: #6e6e6e;
        stroke-miterlimit: 10;
        stroke-width: 1px;
      }
    </style>
  </defs>
  <g>
    <path class="cls-1" d="m25.44,16.68c.65,0,1.65,1.47,1.65,2.42,0,.48-.28.85-.65.85-.25,0-.42-.12-.7-.47-.85-1.05-1.47-1.47-2.15-1.47s-1.22.47-1.22,1.07c0,.38.23.78.58,1q.28.18,1.92.93c2.2,1,2.87,1.77,2.87,3.29,0,1.13-.48,2.25-1.27,2.94-.77.68-1.77,1.02-3,1.02-1.35,0-2.52-.27-3.42-.78-.4-.23-.6-.43-.6-.63,0-.1.05-.22.2-.45.25-.4.4-.75.53-1.17.25-.85.38-1,.78-1,.37,0,.53.17.77.73.48,1.18,1.07,1.67,1.99,1.67s1.49-.62,1.49-1.5c0-.47-.18-.85-.57-1.13-.32-.25-.52-.37-1.57-.85-1.3-.62-1.92-.97-2.32-1.37-.48-.45-.75-1.12-.75-1.85,0-1.75,1.42-3.22,3.12-3.22.53,0,1.17.15,1.69.4.28-.32.43-.42.63-.42Z"/>
    <path class="cls-1" d="m33.22,16.63c1.35,0,2.7.58,3.69,1.59,1.2,1.2,1.79,2.69,1.79,4.51,0,3.21-2.15,5.54-5.11,5.54s-4.96-2.44-4.96-5.63c0-2,.83-3.39,2.74-4.59.18-1.09.62-1.42,1.85-1.42Zm-1.75,4.93c0,1.02.27,2.22.72,3.17.53,1.15,1.22,1.72,2.1,1.72,1.12,0,1.8-.94,1.8-2.45,0-1.15-.42-2.74-.97-3.67-.5-.82-1.12-1.27-1.79-1.27-1.12,0-1.87,1-1.87,2.5Z"/>
    <path class="cls-1" d="m42.94,24.13c0,1.32,0,1.42.1,1.75.12.47.72.87,1.3.87.82,0,1.55-.67,2.19-2,.17-.33.28-.45.47-.45.58,0,1.07.52,1.07,1.15,0,.68-.27,1.62-.62,2.14-.27.4-.62.58-1.12.58-.17,0-.53-.03-1.07-.08-.95-.1-2.04-.15-2.97-.15-.68,0-1.19.05-1.7.17-.23.05-.37.07-.43.07-.27,0-.58-.42-.58-.77q0-.18.53-.85c.28-.33.32-.55.32-1.84v-4.27c.02-1.57,0-1.62-.55-2.34-.2-.23-.27-.38-.27-.52,0-.38.25-.78.48-.78.05,0,.15.03.37.08.28.08.8.15,1.25.15s.73-.05,1.25-.18c.12-.03.23-.05.3-.05.28,0,.53.38.53.8,0,.17-.1.32-.4.68-.43.52-.45.58-.45,2v3.84Z"/>
    <path class="cls-1" d="m49.35,20.97c0-.87-.12-1.19-.65-1.79-.33-.37-.4-.48-.4-.63s.12-.45.23-.63c.1-.15.18-.18.53-.2.58-.07.94-.22,1.6-.7.17-.1.3-.17.4-.17.32,0,.52.27.8,1.09,1.02-.94,1.67-1.24,2.69-1.24,2.5,0,4.11,2.24,4.11,5.71,0,1.55-.4,2.92-1.17,3.97-.92,1.22-2.12,1.79-3.81,1.79q-.42,0-2-.17c-.35-.05-.7-.07-1.02-.07-.48,0-.88.05-1.25.17-.15.03-.27.07-.35.07-.25,0-.52-.37-.52-.73q0-.17.5-.83c.28-.38.3-.45.3-1.45v-4.17Zm2.54,3.36c0,.88.05,1.07.33,1.54.25.4.67.62,1.2.62,1.45,0,2.37-1.57,2.37-4.07,0-1.04-.23-1.99-.65-2.77-.35-.65-.93-1.02-1.57-1.02-.48,0-1.3.37-1.69.75v4.96Z"/>
    <path class="cls-1" d="m69.87,16.73c1.35,0,2.7.58,3.69,1.59,1.2,1.2,1.79,2.69,1.79,4.51,0,3.21-2.15,5.54-5.11,5.54s-4.96-2.44-4.96-5.63c0-2,.83-3.39,2.74-4.59.18-1.09.62-1.42,1.85-1.42Zm-1.75,4.93c0,1.02.27,2.22.72,3.17.53,1.15,1.22,1.72,2.1,1.72,1.12,0,1.8-.94,1.8-2.45,0-1.15-.42-2.74-.97-3.67-.5-.82-1.12-1.27-1.79-1.27-1.12,0-1.87,1-1.87,2.5Z"/>
    <path class="cls-1" d="m84.76,24.43c0,1.52-.12,2.04-.58,2.67-.62.87-1.69,1.27-3.29,1.27-1.9,0-3.19-.6-3.71-1.74-.25-.55-.28-.88-.28-2.59v-4.27c0-.9-.07-1.09-.65-1.82-.15-.18-.18-.27-.18-.4,0-.32.25-.65.5-.65.05,0,.18.03.33.08.23.07.87.15,1.3.15.32,0,1.19-.12,1.4-.18.1-.03.15-.05.2-.05.18,0,.45.37.45.65,0,.18-.07.32-.28.55-.52.57-.57.73-.57,1.7v4.31c0,1.42,0,1.45.25,1.87.25.42.85.7,1.5.7.55,0,1.1-.18,1.44-.47.23-.2.38-.48.45-.83.05-.18.05-.38.05-1.49v-3.69q0-1.37-.58-2.1c-.2-.23-.28-.42-.28-.53,0-.28.28-.67.5-.67.05,0,.1,0,.18.03.27.05.55.08.97.08.37,0,.7-.03.9-.08.1-.02.18-.03.25-.03.25,0,.58.38.58.68,0,.07-.05.18-.17.32-.63.8-.68.94-.68,2.1v4.42Z"/>
    <path class="cls-1" d="m91.96,24.63c0,.05,0,.33-.02.73v.13c0,.65.1.9.57,1.42.25.3.32.4.32.57,0,.33-.28.78-.48.78q-.05,0-.6-.13c-.28-.07-.67-.1-1.08-.1s-.72.05-1.22.18c-.12.03-.2.05-.27.05-.28,0-.55-.37-.55-.75,0-.15.05-.27.22-.48q.6-.75.6-1.89v-5.04c0-.77-.03-.97-.17-1.2-.12-.2-.4-.35-.7-.35-.42,0-.68.28-1.04,1.08-.12.32-.17.38-.3.38-.57,0-1.37-.63-1.37-1.09,0-.27.18-.7.6-1.45.23-.4.45-.58.7-.58.03,0,.08,0,.13.02,1.62.22,2.74.32,3.47.32q.87,0,2.97-.28c.18-.03.42-.05.53-.05.18,0,.3.08.5.35.4.52.77,1.35.77,1.7s-.22.6-.63.83c-.28.15-.58.25-.73.25s-.23-.13-.5-.77c-.2-.5-.45-.72-.85-.72-.35,0-.67.2-.78.5q-.08.25-.08,1.37v4.21Z"/>
  </g>
  <rect class="cls-2" x="1.5" y="1.5" width="112" height="42" rx="10.57" ry="10.57"/>
</svg>