<svg xmlns="http://www.w3.org/2000/svg" width="430.24" height="334.64" viewBox="0 0 430.24 334.64"><defs><clipPath id="b"><rect width="430.24" height="334.64"/></clipPath></defs><g id="a" clip-path="url(#b)"><rect width="430.24" height="334.64" fill="#fff"/><g><g><path d="M75.031 2.309h3.926V31h-3.926zm10.234 0h4.59l14.492 23.242V2.309h3.691V31h-4.355L88.976 7.777V31h-3.711zm31.426 19.434a7.841 7.841 0 001.152 3.965q1.934 2.852 6.816 2.852a12.065 12.065 0 003.984-.625q3.477-1.211 3.477-4.336a3.743 3.743 0 00-1.465-3.34 14.791 14.791 0 00-4.648-1.7l-3.887-.879a17.6 17.6 0 01-5.391-1.895A6 6 0 01114 10.414a8.271 8.271 0 012.676-6.348q2.676-2.48 7.578-2.48a13.162 13.162 0 017.666 2.178q3.154 2.178 3.154 6.963h-3.652a7.189 7.189 0 00-1.25-3.535q-1.777-2.246-6.035-2.246-3.437 0-4.941 1.445a4.523 4.523 0 00-1.5 3.359 3.281 3.281 0 001.758 3.086 25.8 25.8 0 005.206 1.564l4.023.918a12.327 12.327 0 014.492 1.816 6.8 6.8 0 012.734 5.84q0 4.766-3.467 6.816a15.526 15.526 0 01-8.057 2.051q-5.352 0-8.379-2.734a9.226 9.226 0 01-2.969-7.363zM141.2 2.309h12.91a8.752 8.752 0 016.172 2.158 7.832 7.832 0 012.344 6.064 8.817 8.817 0 01-2.09 5.85q-2.09 2.49-6.426 2.49h-9.02V31h-3.89zm17.5 8.242q0-3.164-2.344-4.3a8.462 8.462 0 00-3.535-.605h-7.731v9.944h7.734a7.392 7.392 0 004.248-1.113q1.628-1.114 1.628-3.926zm9.688-8.242h3.926V31h-3.924zm23.574 13.145a7.532 7.532 0 004.326-1.094q1.592-1.094 1.592-3.945 0-3.066-2.227-4.18a7.276 7.276 0 00-3.184-.586h-9.489v9.8zM179.093 2.309h13.281a13.246 13.246 0 015.41.957q4.043 1.836 4.043 6.777a7.621 7.621 0 01-1.064 4.219 7.691 7.691 0 01-2.979 2.637 5.869 5.869 0 012.529 1.8 6.454 6.454 0 01.947 3.613l.137 3.848a11.828 11.828 0 00.273 2.441 2.4 2.4 0 001.25 1.758V31h-4.766a3.585 3.585 0 01-.312-.957 18.369 18.369 0 01-.2-2.266l-.234-4.785q-.137-2.812-2.09-3.77a8.644 8.644 0 00-3.5-.527h-8.838V31h-3.887zm43.145 16.934l-4.355-12.677-4.629 12.676zm-6.387-16.934h4.395L230.656 31H226.4l-2.91-8.594h-11.35L209.035 31h-3.985zm36.27 0v3.418h-9.668V31h-3.945V5.727h-9.668V2.309zm4.434 0h3.926V31h-3.926zm22.617-.781q7.6 0 11.25 4.883a15.824 15.824 0 012.852 9.746 17.055 17.055 0 01-3.262 10.684q-3.828 5-10.918 5-6.621 0-10.41-4.375A16.52 16.52 0 01265.3 16.8a16.961 16.961 0 012.9-9.96q3.706-5.313 10.972-5.313zm.391 26.836q5.137 0 7.432-3.682a15.671 15.671 0 002.295-8.467 12.077 12.077 0 00-2.646-8.145 9.033 9.033 0 00-7.236-3.086 9.423 9.423 0 00-7.266 3.057q-2.812 3.057-2.812 9.014a13.169 13.169 0 002.412 8.037q2.41 3.271 7.82 3.271zM297.9 2.309h4.59l14.492 23.242V2.309h3.691V31h-4.353L301.613 7.777V31H297.9z" transform="translate(15.696)" fill="#d17626"/><path d="M103.484 19.029a10.829 10.829 0 01-.126-2.163V7.941h3.742c.945 0 1.7.021 2.142.063a23.609 23.609 0 01-.063-1.869V3.657c0-.819.021-1.323.063-1.953a17.724 17.724 0 01-2.058.084h-2.625a18.539 18.539 0 01-2.1-.084 21.688 21.688 0 01.084 2.205v12.957a13.619 13.619 0 01-.126 2.163zm-.126-14.511V2.46h5.061v2.058zm0 .651h5.061v2.1h-5.061zm9.975-3.381A17.553 17.553 0 01111.3 1.7c.042.567.063 1.239.063 1.953v2.482c0 .693-.021 1.344-.063 1.869.42-.042 1.176-.063 2.121-.063h4.137v9.387c0 .483-.168.609-.8.609a16.981 16.981 0 01-2.415-.231 2.564 2.564 0 01.294.882c.735.063 1.512.105 2.142.105 1.218 0 1.6-.315 1.6-1.386V3.909a18.055 18.055 0 01.1-2.205 19.131 19.131 0 01-2.142.084zm4.221 2.73h-5.439V2.46h5.439zm0 .651v2.1h-5.439v-2.1zm-8 3.444a4.913 4.913 0 01.063.882 7.042 7.042 0 01-1.155 3.906 8.25 8.25 0 01-3.864 2.982 2.661 2.661 0 01.546.693c2.289-1.155 3.444-2.184 4.263-3.738a7.331 7.331 0 00.693-2.121 8.082 8.082 0 00.525 1.554 6.526 6.526 0 001.281 1.743 9.958 9.958 0 003.465 2.2 3.165 3.165 0 01.5-.756 8.272 8.272 0 01-3.885-2.5 6.551 6.551 0 01-1.533-3.99 4.984 4.984 0 01.063-.861zm21.819-4.389a10.025 10.025 0 01-.588-2.2.581.581 0 01.021-.189.562.562 0 00.042-.21c0-.084-.084-.147-.252-.147a4.891 4.891 0 00-1.071.147 4.651 4.651 0 01.525 1.407c.084.294.294.945.462 1.386a33.422 33.422 0 01-5.229.567c.063.714.105.861.315.861h.042a37.712 37.712 0 005.145-.609 19.5 19.5 0 001.26 2.709 29.3 29.3 0 01-6.279.756h-.294c.126.882.147.882.4.9a36.948 36.948 0 006.636-.861 20.084 20.084 0 003.276 4.158 13.433 13.433 0 00-4.977-.9c-3.108 0-4.893 1.071-4.893 2.961a2.766 2.766 0 001.533 2.478 11.323 11.323 0 005.649 1.239c.924 0 1.008-.021 1.071-.231a3.7 3.7 0 01.336-.84 19.6 19.6 0 01-1.449.063c-3.654 0-6.174-1.113-6.174-2.73 0-1.407 1.491-2.163 4.284-2.163a11.469 11.469 0 015 1.155c.1.042.168.084.189.084A2.493 2.493 0 00137 12.96a.24.24 0 00-.063-.126 2.5 2.5 0 01-.525-.462 20.559 20.559 0 01-3.045-3.843.711.711 0 01.168-.063 17.6 17.6 0 004.011-1.617c.042-.042.063-.063.063-.084a2.638 2.638 0 00-.273-.777s-.063-.021-.147-.042l-.042.042c-.063.042-.063.042-2.016.987a13.179 13.179 0 01-2.247.756 21.721 21.721 0 01-1.218-2.667 36.021 36.021 0 004.494-1.344c.1-.042.147-.105.147-.168a.077.077 0 00-.021-.063c0-.021-.021-.063-.042-.147-.147-.441-.231-.588-.336-.588a.1.1 0 00-.063.021 21.708 21.708 0 01-4.473 1.449zm16.233 4.1a64.292 64.292 0 013.486 9.723c.126.5.126.5.21.5a2.688 2.688 0 00.714-.21c.147-.063.21-.126.21-.189A.41.41 0 00152.2 18c0-.021-.021-.063-.042-.147-.084-.273-.5-1.47-.966-2.814-.987-2.814-1.47-4.074-2.73-7.119 3.7-1.722 5.838-2.394 7.644-2.394a2.686 2.686 0 012.835 2.667c0 1.7-1.407 2.9-3.4 2.9a6.818 6.818 0 01-2.478-.483 1.5 1.5 0 01.231.735c.021.21.042.273.147.336a6.95 6.95 0 002.163.294c2.583 0 4.347-1.491 4.347-3.7a3.541 3.541 0 00-3.717-3.633 13.34 13.34 0 00-4.534 1.031c-.84.294-1.092.4-3.57 1.47a96.225 96.225 0 00-1.113-2.373 4.372 4.372 0 01-.5-1.449c0-.147-.021-.21-.126-.21a6.333 6.333 0 00-1.239.42c.567.672.882 1.26 2.121 4.011-3.444 1.6-3.444 1.6-4.263 1.806.315.546.693.987.84.987a.392.392 0 00.21-.105 3.85 3.85 0 01.5-.378c.462-.273 1.932-1.008 3.04-1.533zm5.166-3.7a1.505 1.505 0 00.672-.63 9.2 9.2 0 00-2.31-2.289 1.275 1.275 0 00-.609.588c0 .063.021.105.105.147a11.159 11.159 0 011.953 2.016c.083.125.125.167.188.167zm21.987 2.625h-4.179a11.758 11.758 0 01-1.953-.126V8.13a13.252 13.252 0 011.952-.13h4.179v3.822h-3.066a8.368 8.368 0 01-1.407-.084 15.667 15.667 0 01.084 1.785v3.612a11.881 11.881 0 01-.1 1.932h.945v-1.214h8.286v1.218h.966a13.624 13.624 0 01-.105-1.911v-3.57a11.852 11.852 0 01.084-1.848 9.264 9.264 0 01-1.533.084H175.6V8h4.137a13.053 13.053 0 011.953.126V7.122a11.758 11.758 0 01-1.953.126H175.6V3.4a37.844 37.844 0 004.41-1.05 3.568 3.568 0 01.483-.147c.189-.063.21-.063.525-.168l-.672-.819a7.244 7.244 0 01-2.039.784 36.82 36.82 0 01-8.8 1.281 3.466 3.466 0 01.42.84 36.117 36.117 0 004.83-.567zm-3.549 5.334h8.29v4.494h-8.295zm-7.5-5.523a14.425 14.425 0 013.675 2.457l.483-.8a20.523 20.523 0 00-3.7-2.31zm4.809-3a22.1 22.1 0 00-3.419-2.713l-.546.588a19.292 19.292 0 013.465 2.835zm-1.05 8.148a20.679 20.679 0 01-3.024 5.082 7.761 7.761 0 01-.588.588l.756.8c.42-.63.42-.63.441-.672a29.114 29.114 0 003.066-5.208zm26-6.846c.084-1.323.1-1.806.1-2.835a10.56 10.56 0 01.084-1.659h-1.134a9.993 9.993 0 01.105 1.764c0 1.134-.021 1.7-.105 2.73h-4.116a15.757 15.757 0 01-2.478-.126v1.025a15.943 15.943 0 012.478-.126h4.053c-.357 3.507-1.05 5.712-2.394 7.644a11.955 11.955 0 01-5.082 3.99 2.835 2.835 0 01.861.8 13.56 13.56 0 005.586-5.229 17.241 17.241 0 001.974-7.2h6.615a62.621 62.621 0 01-.693 9.723c-.273 1.344-.567 1.659-1.47 1.659a18.547 18.547 0 01-3.969-.567 4.016 4.016 0 01.21 1.092 27.646 27.646 0 003.927.378c1.281 0 1.806-.525 2.142-2.2a68.642 68.642 0 00.735-9.786 9.009 9.009 0 01.084-1.176 13.43 13.43 0 01-2.268.1zm15.981 1.55c-1.428.273-1.428.273-1.554.294a10.185 10.185 0 01-1.512.147c.168.756.315 1.113.42 1.113.063 0 .105-.021.273-.1a17.538 17.538 0 013.948-.945 37.814 37.814 0 01-3.612 8.085c-.882 1.26-.882 1.26-.882 1.323 0 .126.588.546.756.546.063 0 .084-.021.147-.084a24.839 24.839 0 001.848-3.255 52.119 52.119 0 002.541-6.321 4.149 4.149 0 01.147-.462 14.577 14.577 0 012.709-.378c1.05 0 1.575.777 1.575 2.31a15.9 15.9 0 01-.693 4.683c-.63 2.1-1.323 2.982-2.289 2.982a3.626 3.626 0 01-2.121-.777c.084.168.084.168.126.672a.923.923 0 01-.021.189v.1c0 .147.063.21.252.315a4.725 4.725 0 001.932.441 2.29 2.29 0 001.974-1.218 14.431 14.431 0 001.764-7.182c0-2.184-.819-3.255-2.478-3.255a14.89 14.89 0 00-2.478.294c.21-.693.5-1.638.714-2.415a3.562 3.562 0 01.42-1.155.651.651 0 00.105-.231c0-.168-.252-.273-1.323-.546a17.813 17.813 0 01-.861 4.515zm10.92-5.25c0 .063.021.1.1.168a9.274 9.274 0 011.6 1.659c.441.609.441.609.546.609.189 0 .546-.315.546-.483a5.962 5.962 0 00-1.281-1.575c-.714-.693-.84-.8-.987-.8-.167.002-.524.296-.524.422zm2.52 9.114a10.617 10.617 0 00-.777-1.68 14.118 14.118 0 00-1.827-2.5 4.31 4.31 0 00-1.05-.924 1.028 1.028 0 00-.546.525c0 .063.021.084.189.21a9.757 9.757 0 011.659 1.911 10.441 10.441 0 011.428 2.877c.063.168.084.189.168.189.189 0 .777-.42.777-.546zm-3.444-8.337a.743.743 0 00-.5.462c0 .063.021.084.084.126A10.267 10.267 0 01221 5.232c.063.084.1.126.189.126.189 0 .609-.357.609-.525 0-.105-.1-.273-.672-.9a6.018 6.018 0 00-1.68-1.494zM238.43 4.2a23.341 23.341 0 00.735-2.394c.1-.357.168-.567.231-.756l-.966-.228a14.065 14.065 0 01-.567 2.562 13.443 13.443 0 01-2.5 4.7 2.225 2.225 0 01.735.483 18.541 18.541 0 002.016-3.612h5.8a12.6 12.6 0 01-2.166 4.145 2.251 2.251 0 01.714.525 18.75 18.75 0 002.163-4.137 4.523 4.523 0 01.336-.8L244.5 4.1a9.3 9.3 0 01-1.932.105zm-7.35 1.176a14.844 14.844 0 01-3.108 5.061 11.874 11.874 0 01-1.68 1.512 2.479 2.479 0 01.672.651 15.078 15.078 0 001.638-1.638c.021.4.042.8.042 1.3v4.158a14.387 14.387 0 01-.126 2.058h.924V17.2h3.758a10.135 10.135 0 011.407.084 23.04 23.04 0 01-.063-1.848v-3.022c0-.819.021-1.386.063-1.848a9.828 9.828 0 01-1.344.084h-3.381a7.926 7.926 0 01-.987-.042 15.271 15.271 0 002.705-4.473 14.994 14.994 0 004.221 5.355 3.047 3.047 0 01.672-.609c-.63-.5-1.134-.924-1.659-1.428a11.132 11.132 0 01-2.793-4.074zm-1.638 6.006h4.305v5.082h-4.305zm.483-9.786a10.916 10.916 0 01-1.575 2.6 9.589 9.589 0 01-1.764 1.7 3.394 3.394 0 01.714.567 13.1 13.1 0 003.36-4.494zm2.877.336a15.824 15.824 0 002.709 3.843 2.89 2.89 0 01.63-.609 11.6 11.6 0 01-2.583-3.549zm6.342 4.725a6.1 6.1 0 01.084 1.2 12.9 12.9 0 01-2.037 7.413 9.958 9.958 0 01-3.4 3.066 2.54 2.54 0 01.693.651 11.759 11.759 0 004.032-4.431 10.552 10.552 0 001.2-4.116A13.173 13.173 0 00245 18.9a2.334 2.334 0 01.672-.777A12.362 12.362 0 01240.11 7.71a7.007 7.007 0 01.063-1.05zm13.44 6.468a9.112 9.112 0 00.4 3.444 3.192 3.192 0 003.3 1.953 10.166 10.166 0 007.014-3.234c.651-.672 1.008-1.134 1.008-1.3a.28.28 0 00-.063-.189 2.394 2.394 0 01-.294-.924 10.758 10.758 0 01-2.457 2.751 8.39 8.39 0 01-5.187 1.89 2.4 2.4 0 01-2.415-1.3 6.5 6.5 0 01-.336-2.709c0-1.533.168-7.077.273-9.24.084-1.7.084-1.722.231-2.016a.419.419 0 00.063-.168c0-.189-.441-.294-1.344-.336a13.408 13.408 0 01.063 1.743zm33.033-.231a12.625 12.625 0 00-1.47-4.179 9.1 9.1 0 00-1.911-2.457c-.105-.084-.147-.126-.21-.126a2.116 2.116 0 00-.777.336 9.52 9.52 0 012.251 3.174 14.858 14.858 0 011.071 3.843c.021.189.042.231.147.231a2.934 2.934 0 00.651-.189c.252-.084.315-.147.315-.294a.41.41 0 00-.021-.147zm-8.883.106c-.756 2.31-1.7 3.612-2.6 3.612a1.47 1.47 0 01-1.096-.612c-.945-1.05-1.491-3.864-1.491-7.665a17.929 17.929 0 01.21-3.78c.063-.189.063-.189.063-.231 0-.189-.546-.4-1.344-.546a6.288 6.288 0 01.126 1.47v.525c-.021 1.323-.042 2.268-.042 2.457a30.1 30.1 0 00.273 3.717 11.494 11.494 0 001.176 4.242 2.554 2.554 0 002.142 1.428 2.634 2.634 0 002.079-1.365 8.428 8.428 0 001.029-1.995.384.384 0 00.042-.189c0-.063-.021-.1-.105-.21a2.234 2.234 0 01-.462-.858zm28.287-4.977h.8a12.478 12.478 0 011.953.126v-.985a12.112 12.112 0 01-1.953.126h-3.927V4.308h3.171a16.182 16.182 0 011.827.105v-.945a10.451 10.451 0 01-1.827.126h-3.171V2.88a8.075 8.075 0 01.126-1.659h-1.071a10.431 10.431 0 01.126 1.659v.714h-2.352a10.287 10.287 0 01-1.827-.126v.945a15.892 15.892 0 011.827-.105h2.352V7.29h-3a11.933 11.933 0 01-1.953-.126v.987a12.666 12.666 0 011.953-.126h6.111v2.646h-6.116a11.933 11.933 0 01-1.953-.126v.987a12.666 12.666 0 011.953-.126h6.111v6.174c0 .42-.147.5-.861.5a11.967 11.967 0 01-2.415-.294 4.039 4.039 0 01.231.966 21.393 21.393 0 002.163.126c1.3 0 1.722-.315 1.722-1.281v-6.191h.8a12.478 12.478 0 011.953.126v-.987a12.112 12.112 0 01-1.953.126h-.8zm-14.175 7.457a14.388 14.388 0 01-.126 2.016h.945v-1.638h2.982v1.029h.882c-.042-.42-.063-1.029-.063-1.932V4.182a14.619 14.619 0 01.063-2 12.3 12.3 0 01-1.827.063h-1.05a16.206 16.206 0 01-1.89-.063 14.042 14.042 0 01.084 1.89zm.819-12.474h2.982V8.4h-2.982zm0 6.132h2.982V15.1h-2.982zm9.723 6.72a26.818 26.818 0 00-3-3.381l-.651.5a20.7 20.7 0 012.9 3.423zm24.78-11.235A18.35 18.35 0 01322.2 5a17.986 17.986 0 01-2.772-.21c-.063.336-.063.462-.084.567V5.5a.2.2 0 00.147.189 16.571 16.571 0 002.688.189 34.828 34.828 0 004.116-.294c.084-.042.1-.084.1-.189 0-.525-.063-.777-.189-.777zm.714 11.067a18.847 18.847 0 01-3.549.4 6.514 6.514 0 01-2.793-.5 2.924 2.924 0 01-1.491-1.554c-.462.231-.672.378-.672.483v.063a3.778 3.778 0 001.638 1.764 6.79 6.79 0 003.465.693 22.167 22.167 0 003.549-.315c.105-.042.126-.084.126-.168 0-.105-.042-.462-.063-.609-.042-.215-.063-.257-.21-.257zM315.6 12.624c-.273.63-.777 1.785-1.491 3.507a31.525 31.525 0 01-.294-4.032 31.011 31.011 0 011.092-7.56 2.463 2.463 0 01.315-.735.475.475 0 00.105-.21c0-.168-.378-.336-1.344-.567a8.765 8.765 0 01-.231 1.995 34.585 34.585 0 00-.84 7.329 19.037 19.037 0 00.693 5.418c.063.147.147.189.4.189.525 0 .567-.021.63-.357a19.354 19.354 0 01.945-3.066c.378-.945.378-.945.378-1.05a.389.389 0 00-.042-.147 1.56 1.56 0 01-.316-.714z" transform="translate(0 52.897)" fill="#bf7663"/></g><g fill="#be5d1c"><path d="M240 331.269a20.1 20.1 0 01-4.223-1.393 18.559 18.559 0 00-4.4-1.406c-3.255-.464-5.229-1.454-5.689-5.142-.2-1.583-.542-3.168-.875-4.7a29.525 29.525 0 01-1-8.36 1.034 1.034 0 00-.788-1.11.874.874 0 00-.751-.013.9.9 0 00-.329.712v.02a2.318 2.318 0 00-2.384-.688 1.085 1.085 0 00-.821 1.287 1.046 1.046 0 00.357.773 1.337 1.337 0 001.008.242 1.608 1.608 0 011.308.2c.311.3.239.962.163 1.659-.011.094-.022.187-.03.283a1.672 1.672 0 00-1.887.329 3.773 3.773 0 01-.538.322c-.083-.444-.17-.882-.255-1.313-.22-1.1-.429-2.14-.562-3.2-.7-5.612 1.291-8.913 6.083-10.093 2.336-.575 4.672-1.313 6.927-2.027 1.291-.409 2.623-.832 3.943-1.217a1.26 1.26 0 001.014-1.633.659.659 0 00-.3-.427 1.268 1.268 0 00-.951 0c-.758.2-1.515.418-2.273.631a77.687 77.687 0 01-7.82 1.9c-6.329 1.08-9.194 4.371-9.283 10.672a45.868 45.868 0 002.545 14.325 7.308 7.308 0 01-.27 5.649 2.747 2.747 0 01-1.827 1.38 30.266 30.266 0 01-5.948.4c-.6 0-1.2 0-1.8.015-.951.02-1.951-.061-2.913-.135-3.009-.233-6.113-.477-8.73 2.016-.163.155-.231.166-.231.166a.575.575 0 01-.1-.115.915.915 0 00-.268-.266c-3.183-1.85-6.62-1.546-7.992.708-.087.146-.514.89-.276 1.3.337.588.886.364 1.284.2.061-.024.122-.05.183-.072a4.555 4.555 0 013.751-.218c-2.665.433-4.219 1.152-4.87 2.24a2.9 2.9 0 00-.061 2.584l.054.142h1.328l.063-.113a3.35 3.35 0 014.4-1.7 26.738 26.738 0 0014.719.32c6.59-1.5 12.161-2.288 17.928-1.274a16.058 16.058 0 012.312.655c2.066.692 4.2 1.411 6.2-.163 2.077-1.639 3.488-2.464 5.6-.15a.666.666 0 00.819.2 1.608 1.608 0 00.623-1.628c-.309-1.622-1.058-2.586-2.167-2.774zm-32.573 2.362c.139.433.094.551.076.577-.041.059-.242.072-.418.085-.1.009-.215.015-.331.031l-.285.046c-.274.05-.514.094-.636 0a.893.893 0 01-.2-.6 1.829 1.829 0 00-.631-1.254 1.48 1.48 0 00-1.119-.292c-.8.1-.919.786-1 1.284a3.485 3.485 0 01-.076.377 1.3 1.3 0 000 .566c.026.172.052.335-.009.411a.59.59 0 01-.39.131 1.228 1.228 0 01-1.4-.843c-.224-.453-.62-1.254-1.461-1.254a1.61 1.61 0 00-.311.033c-.766.163-.708.721-.668 1.091a.858.858 0 01-.039.527c-.627-.061-.986-.237-1.086-.886-.072-.461.15-.562.581-.714a2.434 2.434 0 00.394-.168c2.462-1.413 5.027-1.184 7.744-.94.518.046 1.036.091 1.554.126a36.376 36.376 0 005.042-.131c.583-.041 1.167-.083 1.75-.115a4.16 4.16 0 01-2.519 1.927 4.046 4.046 0 01-3.111-1.01.931.931 0 00-1.11-.009.889.889 0 00-.344 1.005zm22.635-.342c.181-.675.407-1.515-.538-1.887a1.013 1.013 0 00-.873-.017c-.411.222-.527.766-.64 1.293a9.71 9.71 0 01-.07.311 9.147 9.147 0 01-3.163-.531c-1.093-.346-1.221-.566-1.223-.566-.187-1.023-.967-1.165-1.535-1.267-.6-.1-.875.324-1.1.673a1.968 1.968 0 01-.274.37c-1.132 1.08-2.573.721-3.964.374a1.056 1.056 0 01-.464-.39 2.73 2.73 0 00-.268-.29c3.912-1.43 5-2.837 4.883-5.939a2.559 2.559 0 002.438.542.885.885 0 01.686.059c.176.146.179.5.181.845a2.022 2.022 0 00.124.858c.118.235.046.329.02.359a.961.961 0 01-.836.157 1.64 1.64 0 00-1.472.159 1.156 1.156 0 00-.311 1.021 1.341 1.341 0 00.481.993 1.964 1.964 0 001.563.248 16.371 16.371 0 019.026 1.032l.074.03c.886.368 1.5.692 1.289 1.552-.174.723-.638.734-1.38.673-.155-.009-.307-.02-.455-.02h-.124c-.551.026-1.1.02-1.681.013h-.544a4.921 4.921 0 01.147-.654zm-8-15.8c.113.244.253.546.172.666-.033.05-.161.155-.668.155a.97.97 0 00-.159 0c-.4 0-.882.786-.912 1.217a1.937 1.937 0 00.451 1.182.421.421 0 00.3.163c1.668.011 1.687.812 1.716 1.922a6.754 6.754 0 00.07.938 5.237 5.237 0 01-.544-.137c-.566-.17-1.21-.359-1.733.309a.482.482 0 00-.037.054c-.139-1.182-.381-2.569-.668-4.219l-.174-1a6.027 6.027 0 00-.165-.647c-.157-.54-.335-1.154-.081-1.472a1.311 1.311 0 011.032-.307c.089 0 .185 0 .283.009a1.984 1.984 0 00.472-.041c.135-.022.453-.074.5-.02 0 0 .046.07-.046.348a1.292 1.292 0 00.185.884z" transform="translate(-64.918 -3.264)"/><path d="M431.23 230.263c-3.564.34-7.149.947-10.615 1.535a104.54 104.54 0 01-14.958 1.8c-2.268.052-4.578.133-6.812.213-6.059.216-12.329.433-18.45.078-1.761-.1-3.553-.109-5.284-.115-4.234-.017-8.612-.033-12.982-1.456-3.5-1.139-7.478-.914-11.334-.7-1.681.094-3.414.209-5.086.174-1.086-.011-2.175-.041-3.263-.07-2.545-.07-5.175-.144-7.757.03l-2.129.142c-7.7.505-15.657 1.03-23.292 3.222-9.037 2.6-16.21 5.621-21.846 11.921a54.612 54.612 0 00-6.213 9.194c-1.178 2.033-2.4 4.132-3.771 6.085-6.237 8.876-13.844 14.571-23.255 17.412-.1.03-.209.067-.318.1-.753.259-1.243.372-1.618-.226-.15-.237-.3-.475-.457-.714a18.977 18.977 0 01-1.87-3.381c-.59-1.541-1.2-3.078-1.8-4.615a158 158 0 01-5.73-16.319 1.293 1.293 0 01-.031-.131c-.013-.054-.039-.118-.054-.178.152.314.294.6.453.927.4.834.821 1.7 1.276 2.625l.364.731.05-.816a15.89 15.89 0 00-2.756-10.421.985.985 0 00-.287-.246 1.611 1.611 0 01-.139-.1.8.8 0 01.183-.122 1.7 1.7 0 00.89-.977 2.623 2.623 0 00-.514-1.914c-1.311-2.369-2.66-4.711-3.964-6.975q-.65-1.127-1.28-2.225c7.165-.181 13.047-1.058 18.378-4.6a7.879 7.879 0 003.133-4.935 5.327 5.327 0 00-.579-4.021l-.231-.34-.152.381a27.494 27.494 0 00-.57 1.6 11.74 11.74 0 01-1.411 3.164c-2.314 3.2-11.351 4.267-14.784 2.911-5.212-2.064-10.961-3.259-18.64-3.877-.146-.011-.309-.035-.483-.059-.8-.113-1.9-.27-2.088.681a.779.779 0 00.107.653 1.323 1.323 0 001.021.32 1.644 1.644 0 01.84.179 4.939 4.939 0 00.6.37c.472.261.882.486.98 1.03a1.31 1.31 0 01-.4.294 3.194 3.194 0 01-1.01.183 1.918 1.918 0 00-1.332.407.77.77 0 00-.165.581c.078.91 1.038 1.062 1.887 1.2a5.388 5.388 0 011.012.224c.27.1.544.226.819.35a5.1 5.1 0 002.345.66c6.03-.327 8.288 3.438 10.67 7.445.671 1.126 1.361 2.284 2.136 3.335-.1-.015-.2-.039-.3-.063a1.1 1.1 0 00-1.321.355 1.116 1.116 0 00.035 1.467 2.151 2.151 0 01.218.4 17.756 17.756 0 001.848 3.366c.366.566.745 1.152 1.078 1.746.664 1.191 1.278 2.427 1.916 3.738a.589.589 0 00-.213-.231.764.764 0 00-.686.074 1.013 1.013 0 00-.575.642 1 1 0 00.231.816 2.778 2.778 0 01.357 1.028 96.894 96.894 0 007.365 22c2.552 5.336 5.647 10.465 8.641 15.426l2.4 4a178.387 178.387 0 0017.742 24.556c1.885 2.216 3.755 4.509 5.564 6.727 2.932 3.592 5.965 7.308 9.137 10.8a159.358 159.358 0 0013.421 13.014c5.684 4.944 11.9 10.04 18.847 13.815.3.161.6.337.9.514a9.139 9.139 0 005.634 1.689l.531-.046-2.247-1.848c.755.126 1.48.25 2.184.37 1.933.333 3.758.644 5.567.9 6.9.967 13.924 1.916 20.717 2.832l1.988.268c3.67.5 7.53 1.147 10.82 3.133l.109.063c.59.355 1.576.947 1.633 1.713.033.446-.261.932-.877 1.437a5.967 5.967 0 01-6.046 1.2 105 105 0 00-13.609-5.147l-.64-.2c-4.3-1.317-8.747-2.678-13.4-2.678h-.446a1.423 1.423 0 00-1.491 1.119 1.194 1.194 0 00.279.766.848.848 0 00.516.37c5.312.433 10.393 2.136 15.309 3.786.821.274 1.641.551 2.464.821 4.337 1.422 8.9 3.048 12.831 5.858.431.307.775.784.745.943-.07.346-.3.37-.869.35-.137 0-.27-.009-.4 0a22.661 22.661 0 01-7.979-1.415c-1.117-.34-2.271-.69-3.424-.958-1.681-.392-3.379-.853-5.018-1.3-.758-.207-1.515-.414-2.275-.612l-.316-.085.044.324c.1.719.342 1.128.76 1.282.925.344 1.846.7 2.769 1.052 2.519.967 5.122 1.966 7.752 2.723a8.755 8.755 0 014.182 3.2l.128.148a.937.937 0 01.27.919 1.569 1.569 0 01-1.348.725c-3.72.4-7.082-1.091-10.326-2.528-4.8-2.125-9.631-4.4-14.305-6.6q-2.756-1.3-5.517-2.586a5.9 5.9 0 002.552-2.663l.3-.562-.579.263a29.489 29.489 0 01-15.518 2.645 1.159 1.159 0 00-.932.444.743.743 0 00-.081.753 1.942 1.942 0 001.23 1.067 24.937 24.937 0 004.2.374 17.1 17.1 0 008.19-1.968 1.785 1.785 0 00.962 1.483 96.451 96.451 0 0014.684 8.323c.594.279 1.186.564 1.779.849 4.023 1.938 8.181 3.938 12.921 3.938h.318a4.526 4.526 0 003.572-2.011 3.388 3.388 0 00.475-3.12c-.222-.586-.2-.823-.148-.921.074-.131.335-.174.638-.226.159-.026.333-.057.512-.1.272-.07.564-.12.875-.172 1.189-.2 2.536-.429 2.924-1.935.44-1.7-.3-3.226-2.147-4.415a4.015 4.015 0 01-.618-.557 5.437 5.437 0 01-.126-.131l.6.013a13.554 13.554 0 001.857-.035c1.507-.174 3.618-.616 4.543-2.449.816-1.615-.1-3.292-1.23-4.321a16.5 16.5 0 00-6.67-3.838 79.331 79.331 0 00-13.382-2.192c-1.72-.183-3.5-.37-5.238-.6-1.515-.2-3.035-.388-4.552-.575-3.011-.37-6.126-.753-9.168-1.239-.509-.081-1.021-.157-1.53-.235-4.543-.692-8.834-1.345-12.7-4.3-5.782-4.411-11.76-8.974-17.31-13.948a704.028 704.028 0 01-7.354-6.71q-1.541-1.42-3.087-2.839l.477-.455c.374.15.749.311 1.123.475a16.662 16.662 0 002.83 1.032c2.682.631 4.809-.59 6.86-1.766a13.705 13.705 0 014.062-1.781 3.271 3.271 0 002.406-2.878l.2.048c2.808.677 5.71 1.378 7.617-1.8 1.054-1.757 2.475-2 4.271-2.314l.938-.166c2.362-.409 5.04-.873 6.043-3.374.679-1.683 1.354-1.6 2.7-1.443l.37.044c4.1.442 11.9-1.628 12.786-7.391.111-.725.616-.867 1.2-1.032.152-.041.3-.083.44-.135.629-.233 1.293-.418 1.938-.6a17.356 17.356 0 002.789-.954c3.2-1.515 4.213-3.688 3.118-6.638a8.276 8.276 0 00-1.907-2.706 15.52 15.52 0 01-1.1-1.276c.62-.176 1.247-.335 1.859-.49a22.85 22.85 0 004.556-1.493c3.581-1.768 7.639-3.771 7.391-9.111-.017-.388.111-.433.455-.553.072-.024.146-.05.224-.081 3.86-1.557 7.718-3.468 8.747-8.149.067-.309.107-.618.144-.914.146-1.147.25-1.975 1.766-2.205a19.321 19.321 0 007.828-3.049c.309-.207.631-.409.956-.612 2.207-1.391 4.711-2.969 4.3-6.442a1.626 1.626 0 01.17-1.237c.183-.211.54-.311 1.156-.324a35.98 35.98 0 0012.056-2.556c.266-.1.538-.2.814-.3 3.065-1.119 6.879-2.512 5.094-7.687a.155.155 0 01-.013-.089c.037-.063.29-.107.424-.133a2.538 2.538 0 00.329-.074c.995-.322 2.029-.586 3.028-.843a23.117 23.117 0 006.836-2.556c3.755-2.366 4.273-4.252 2.14-7.755l-.05-.083c-.076-.12-.231-.37-.2-.435 0 0 .039-.074.337-.113 4.467-.61 8.146-3.024 11.392-5.153 2.517-1.65 3.586-3.66 3.178-5.976-.441-2.511-2.376-3.683-5.578-3.369zm-29.248 15.461c-2.177.172-4.43.35-6.64.594a1.546 1.546 0 01-.285 0 1.082 1.082 0 00-1.269.84l-.078.248.257.033a85.265 85.265 0 0015.424.209l1.308-.061a15.483 15.483 0 002.965-.525 8.668 8.668 0 014.92-.253c.157.052.322.094.49.137.795.2 1.284.374 1.367 1.028a2.259 2.259 0 01-1.171 2.049c-4.443 3.074-9.642 4.034-15.026 4.82-4.43.649-8.958 1.163-13.339 1.659q-2.6.294-5.205.6l-.113.013a1.245 1.245 0 00-.908.342.726.726 0 00-.111.579c.1.638.81.692 1.23.725 6.8.544 13.55-.505 19.5-1.424.581-.1.742.211.993.8.048.113.1.229.152.337.486.975-.007 1.572-.895 2.164a23.615 23.615 0 01-7.726 2.88 95.218 95.218 0 01-14.837 1.953c-2.532.2-5.151.4-7.715.714-1.489.181-3 .42-4.454.651l-.346.057a2.031 2.031 0 01-.344 0 1.057 1.057 0 00-.838.174.939.939 0 00.031 1.193 1.138 1.138 0 00.873.181 2.14 2.14 0 01.333 0 67.006 67.006 0 0011.164-.1c1.165-.076 2.329-.155 3.5-.211.15-.007.311-.028.477-.05.762-.1 1.23-.12 1.441.5a2.244 2.244 0 01-.79 2.286c-3.059 3.3-7.217 4.559-11.236 5.773a87.34 87.34 0 01-15.311 2.7l-1.829.213c-.109.013-.242.015-.388.02a2.017 2.017 0 00-1.472.4 1.047 1.047 0 00-.24.8.849.849 0 00.307.671 1.408 1.408 0 001.156.026 2.664 2.664 0 01.5-.085 69.179 69.179 0 0012.585-.714l.777-.091c.242-.028.488-.039.734-.05l.141-.007c.011.117.028.239.046.359a1.937 1.937 0 01-.017.995 10.6 10.6 0 01-8.033 5.967q-4.631.823-9.257 1.665-3.941.712-7.879 1.419c-.048.009-.1.015-.148.022-.361.046-.858.111-.96 1.03l-.026.257 3.777-.224c3.588-.211 7.3-.429 10.937-.7a4.424 4.424 0 00.66-.118c.66-.152.988-.185 1.15.148a2.413 2.413 0 01-.255 2.412c-1.961 2.924-5.083 3.914-8.1 4.872-.651.2-1.3.411-1.933.636a36.075 36.075 0 01-10.341 1.5c-1.456.068-2.963.139-4.437.283l-.2.017a2.1 2.1 0 00-2.1 1.539l-.126.3h.329c1.115 0 2.21.015 3.287.033 2.525.037 4.907.072 7.313-.1 1.3-.1 3.475.967 4.988 2.406a3.936 3.936 0 011.485 2.6c-.031 1.509-1.439 2.075-2.682 2.571l-.115.048c-4.874 1.959-10.219 2.342-17.333 1.25-.118-.017-.235-.046-.353-.074a2.1 2.1 0 00-.912-.076 3.536 3.536 0 01-1.3-.1 2.154 2.154 0 00-1.535.031.769.769 0 00-.313.522c-.239 1.352 1.3 1.657 2.325 1.857.207.041.4.081.573.122a29.07 29.07 0 0010.835 1.038 1.471 1.471 0 01.945.139c.233.172.2.318-.048.731-.048.081-.094.157-.128.231-1.6 3.231-4.613 3.57-8.1 3.664-4.92.124-9.276-1.927-13.5-3.912-1.622-.764-3.3-1.554-4.985-2.21l-.139-.057a2.392 2.392 0 00-2.031-.083l-.337.133.274.235a39.322 39.322 0 008.373 5.395c.832.411 1.707.766 2.549 1.108.914.372 1.861.755 2.747 1.21.431.222.675.446.684.631.013.274-.464.583-.781.788a2.906 2.906 0 00-.383.276c-1.761 1.674-7.561 2.086-9.749 1.041a61.733 61.733 0 01-10.985-6.862 1.443 1.443 0 00-.84-.2 3.419 3.419 0 01-.342-.024l-.274-.044.026.276a2.474 2.474 0 010 .285 1.169 1.169 0 00.137.736 25.846 25.846 0 0012.311 9.059c-1.485 2.26-3.784 1.977-6.054 1.321a18.881 18.881 0 01-10.391-7.6 4.33 4.33 0 01-.131-.211c-.159-.27-.337-.573-.653-.633a.769.769 0 00-.61.187c-.483.368-.483.923 0 1.648a25.714 25.714 0 009.009 8.514 3.252 3.252 0 01-2.083 1.761c-2.336.616-5.36-1.184-6.958-2.312a24.812 24.812 0 01-6.309-7.08l-.118-.185-.183.117a1.19 1.19 0 00-.34 2.025 62.41 62.41 0 011.694 2.314c1.818 2.564 3.7 5.214 6.742 6.762l.083.039c.148.072.462.222.5.385a.316.316 0 01-.1.244 1.857 1.857 0 01-1.657.673c-3.135-.152-5.606-1.711-7.809-3.37-9.779-7.361-16.733-17.44-23.46-27.191l-.364-.527c-3.052-4.422-5.937-9.074-8.728-13.572a707.025 707.025 0 00-3.958-6.331c-.388-.609-.514-.969-.424-1.2.1-.259.492-.479 1.284-.712a40.434 40.434 0 0015.766-9.054c5.921-5.373 9.644-10.047 12.067-15.154a37.441 37.441 0 0111.632-14.418c3.377-2.512 7.437-3.805 11.362-5.059.507-.161 1.012-.322 1.517-.488 7.929-2.578 16.319-3.2 24.433-3.795q1.94-.14 3.877-.294c1.3-.1 2.6-.141 3.917-.141 2.029 0 4.064.094 6.059.185 1.644.074 3.344.152 5.014.176 1.809.026 3.653.017 5.432.011 1.208-.007 2.412-.013 3.616 0 1.258 0 2.005.459 2.218 1.352.2.853-.213 1.546-1.345 2.247-4.4 2.726-9.181 3.514-14.976 4.26l-.115.015c-1.315.168-2.673.344-4 .6a2.108 2.108 0 01-.35.015 1.115 1.115 0 00-.934.257.84.84 0 00-.115.725c.15.742.814.684 1.254.64a2.174 2.174 0 01.438-.013 18.3 18.3 0 003.986-.15 13.6 13.6 0 015.162.085c.157.041.318.078.477.115.851.194 1.382.35 1.539 1.08a2.208 2.208 0 01-1.054 2.094c-2.843 2.136-6.248 3.194-9.255 4.125-.448.139-.9.261-1.356.383a16.2 16.2 0 00-3.542 1.263l-.764.411h.869q.728 0 1.461.011c1.123.013 2.29.024 3.438-.033a4.81 4.81 0 001.041-.222c.993-.281 1.568-.4 1.861.492a3.542 3.542 0 01-1.594 3.812 17.913 17.913 0 01-6.995 3.139c-1.561.337-3.124.779-4.635 1.206-.486.137-.971.274-1.459.407-.068.02-.144.035-.218.05a1.2 1.2 0 00-1.126 1.437l.009.242.237-.033c.81-.109 1.615-.222 2.419-.333 2.023-.281 4.117-.573 6.174-.788a3.366 3.366 0 00.934-.3c.819-.342 1.3-.5 1.689.292a3.01 3.01 0 01-1.128 4 29.314 29.314 0 01-11.508 5.334c-.856.174-1.683.414-2.641.688-.462.135-.949.274-1.478.418l-.671.183.657.233c3.159 1.119 5.915.455 8.58-.187a42.71 42.71 0 012.249-.5 1.772 1.772 0 00.816-.536c.218-.209.435-.429.616-.4.107.015.231.139.359.357.932 1.594.917 2.987-.044 4.139a13.137 13.137 0 01-4.147 3.222 46.792 46.792 0 01-13.794 4.966 1.478 1.478 0 00-.725.505c-.141.139-.307.3-.518.483l-.516.438.675-.054c7.038-.577 11.967-1.766 16.4-3.962.969 4.335-2.271 9.2-7.345 10.94a266.859 266.859 0 00-5.952 2.147c-.893.331-1.79.662-2.7.995l-.248.089.137.226c.614 1.012 1.43.729 2.086.5a2.418 2.418 0 01.747-.183h.364c6.7 0 14.281-4.82 16.053-10.265a6.273 6.273 0 00-.381-5.573c-.292-.472-.226-.69.324-1.054 3.085-2.036 3.869-4.957 2.395-8.941-.107-.29-.115-.313 2.12-2.3 1.879-1.67 3.609-3.805 2.2-7-.27-.61-.007-.8.525-1.11a4.017 4.017 0 00.416-.27c2.116-1.65 4.326-3.729 3.734-7.535-.141-.917.64-1.186 1.848-1.493a7.086 7.086 0 001.034-.316 6.618 6.618 0 004-3.934 5.267 5.267 0 00-.7-4.308l.285-.063c2.993-.651 6.387-1.389 8.046-4.121 2.464-4.058 5.841-3.535 9.111-3.026a19.951 19.951 0 003.5.335c3.875-.1 7.813-.041 11.621.02a163.463 163.463 0 0019.709-.488q1.492-.157 2.989-.307a123.443 123.443 0 0015.864-2.305 11.028 11.028 0 014.056-.331 6.331 6.331 0 001.019.022c1.062-.037 1.72.007 1.966.853.414 1.428-.956 2.606-1.809 3.181a46.521 46.521 0 01-14.316 6.309 87.881 87.881 0 01-15.761 2.21z" transform="translate(-28.005 -89.691)"/><path d="M247.107 317.408c-.7 2.264-.494 4.2.6 5.6 1.546 1.994 4.748 2.9 9.283 2.615a4.2 4.2 0 001.5 3.215 4.971 4.971 0 004.306 1.169c.782-.166 1.685-.1 1.824.427 1.28 4.9 2.684 5.867 7.881 5.429a6.378 6.378 0 001.513-.392c1.25-.429 2.427-.838 3.47.664 1.692 2.436 4.08 2.266 6.411 1.722a5 5 0 00.96-.381c.725-.35 1.352-.651 1.927-.1a6.66 6.66 0 006.951 1.624 13.021 13.021 0 001.293-.49c.842-.355 1.8-.758 2.229-.5 3.71 2.205 6.9 1.269 10.517-.871.723 7.463 2.081 15.283 6.849 22.088.239.344.333.6.276.764s-.309.327-.764.472c-4.613 1.467-8.71 3.814-13.208 6.505-5.09 3.046-8.921 6.061-11.07 10.883-.037.085-.089.172-.139.261a1.164 1.164 0 00-.237.9.876.876 0 00.762.52c.388 0 .625-.374.795-.64a2.086 2.086 0 01.213-.3c.385-.435.755-.88 1.126-1.324a23.114 23.114 0 012.673-2.865 62.107 62.107 0 0117.5-10.5 7.005 7.005 0 001.18-.675c1.276-.84 2.482-1.631 4.117.231 1.609 1.824 3.61 4.1 6.747 4.678l.335.063-.085-.331a5.042 5.042 0 01-.059-.281.907.907 0 00-.161-.444 15.376 15.376 0 00-.708-.76 34.14 34.14 0 01-.374-.387c-5.26-5.61-8.813-11.207-10.857-17.111-2.486-7.18-2.188-14.408-.975-23.05a181.256 181.256 0 013.753-17.908c.908-3.71 1.848-7.546 2.617-11.358a97.732 97.732 0 001.787-30.178 30.72 30.72 0 00-8.392-18.348 33 33 0 00-12.211-7.628 8.928 8.928 0 00-1.121-.3c-.758-.17-1.476-.331-1.668-.805-.183-.448.083-1.223.786-2.3l.673-1.028a2.288 2.288 0 011.032.618.97.97 0 001.058.122.83.83 0 00.547-.773v-.063c-.052-1.239-.113-2.645-1.443-3.533a1.127 1.127 0 00-1.038-.222 1.045 1.045 0 00-.6.8c-.2.79-.6.895-1.476.806-1.417-.135-2.835-.253-4.252-.372-1.01-.085-2.02-.17-3.03-.261-11.493-1.028-22.733-1.92-34.038-1.842a28.892 28.892 0 01-4.119-.337l-.1-.015c3.549-.372 7.119-.444 10.589-.516 2.079-.041 4.228-.085 6.34-.192 4.848-.248 9.76-.792 14.51-1.317 1.681-.185 3.361-.372 5.044-.544.374-.041.755-.089 1.134-.137 2.906-.372 5.645-.725 6.335 3.492a.54.54 0 00.094.209 1.561 1.561 0 002.153.884c.84-.346.636-1.156.486-1.746l-.041-.163a4.787 4.787 0 013.3-5.95c6.322-2.336 12.905-2.386 20.074-.144a5.365 5.365 0 00-4.428.69l-.407.285 2.142.466c2.329.505 4.528.984 6.69 1.424a1.151 1.151 0 00.777-.3.346.346 0 00.141-.281 1.669 1.669 0 00-.446-1.073 29.253 29.253 0 00-6.7-4.2 23.672 23.672 0 00-20.7.525 8.376 8.376 0 00-2.171 1.733c-.806.8-1.567 1.563-2.432 1.568-6.274.035-12.6.61-18.722 1.163-4.16.379-8.462.768-12.7.984-7.942.4-12.805 1.565-16.269 3.879l-.464.309.551.085c7.911 1.237 15.755 1.927 23.181 2.443l-1.831.03c-3.827.068-7.783.135-11.671.309-.958.044-3.4.768-3.379 1.443.033 1.193.986 1.163 1.692 1.154a2.488 2.488 0 011.012.1 5.435 5.435 0 001.672.355l.4.044q9.852 1.234 19.711 2.458l5.739.712c-.516.209-1.134.477-1.128 1.332.009.951.714 1.156 1.28 1.319a2.884 2.884 0 01.6.222c.527.3 1.067.592 1.607.88a24.4 24.4 0 013.4 2.055 36.535 36.535 0 0112.262 16.136c3.6 9.283 8.952 15.627 16.373 19.4a1.176 1.176 0 01.727 1.419 174.284 174.284 0 00-.62 4.685c-.337 2.73-.686 5.554-1.265 8.277-.723 3.39-1.554 6.818-2.358 10.136-2.031 8.371-4.13 17.029-4.67 25.857-.061.975-1.165 2.066-2.878 2.848-1.9.866-3.9 1.065-4.894.516.8-.917 1.694-1.774 2.565-2.606 1.9-1.809 3.855-3.679 4.929-6.287a1.7 1.7 0 00-.087-1.964.378.378 0 00-.337-.087 1.331 1.331 0 00-.858.438 22.991 22.991 0 01-4.685 5.249c-.544.5-1.089.993-1.618 1.507-3.714 3.59-7.411 4.7-10.72 3.239a43.355 43.355 0 0013-12.877l.211-.324-.388-.013a2.8 2.8 0 00-2.275 1.069c-3.7 3.945-7.119 7.391-11.516 9.627-.316.161-.636.333-.958.505-2.338 1.247-4.755 2.538-7.517.925-.509-.3-.784-.581-.775-.8.007-.192.246-.407.673-.612a28.681 28.681 0 0010.086-8.268c.3-.379 1.01-1.263.213-1.97a.888.888 0 00-.631-.246 1.6 1.6 0 00-.973.69l-.12.137c-3.246 3.651-7.445 6.163-11.471 8.427a9.99 9.99 0 01-7.093 1.2 3.057 3.057 0 01-2.364-2.682.968.968 0 01.076-.721.591.591 0 01.418-.207 22.38 22.38 0 0011.192-4.988c.39-.322.81-.616 1.252-.925 1.644-1.149 3.344-2.338 3.638-5.051l.046-.431-.374.222c-.257.152-.477.27-.666.374a4.058 4.058 0 00-.836.533c-5.554 4.981-10.846 7.465-16.656 7.82-.407.024-.84.076-1.256.128-2.094.263-4.08.512-4.972-2.144 5.088-1.387 10.328-2.85 14.432-6.651a2.418 2.418 0 01.294-.222c.255-.174.546-.37.605-.694a.846.846 0 00-.183-.644.809.809 0 00-.529-.366 1.514 1.514 0 00-1.047.418l-.1.072c-3.651 2.623-7.981 4.017-11.734 5.031l-.211.059c-3.725 1.006-7.578 2.051-11.075-.847a1.394 1.394 0 01-.377-1.868c.052-.124.1-.257.15-.39.244-.657.472-1.28 1.4-1.343 4.034-.27 8.131-.62 12.093-.962l.869-.074c1.158-.1 2.329-.235 3.464-.368.516-.061 1.036-.12 1.554-.176l.379-.044-.229-.3a1.485 1.485 0 00-1.186-.7c-3-.181-6.059-.142-9.009-.1a81.24 81.24 0 01-13.7-.6c-.684-.109-1.376-.2-2.066-.3-3.7-.5-7.524-1.017-10.411-3.949l-.179-.179c-.853-.858-1.528-1.533-.8-2.817.7-1.243 1.694-1.578 3.316-1.11a61.4 61.4 0 0014.109 2.184l.407.022-.209-.351a4.388 4.388 0 01-.2-.39c-.118-.24-.2-.414-.39-.464-1.374-.387-2.741-.79-4.11-1.193-3.459-1.017-7.036-2.068-10.613-2.845-4.062-.884-8.739-2.223-12.649-5.443-1.178-.971-1.578-2-1.193-3.065.34-.945 1.025-1.291 2.3-1.165.71.072 1.43.172 2.127.272a32.948 32.948 0 003.514.366c.357.011.718.048 1.1.085a6.887 6.887 0 005.282-1.1l.5-.353-.61-.041a129.066 129.066 0 01-17.127-2.591l-.081-.017a32 32 0 01-10.909-3.977c-.216-.135-.455-.274-.705-.42-1.524-.89-3.42-2-2.9-3.605.477-1.461 2.19-1.154 3.842-.856.411.072.8.144 1.165.183a72.251 72.251 0 0013.637-.148 1.215 1.215 0 01.333.087.63.63 0 001.008-.647c.011-.616-.44-.964-1.337-1.034-1.3-.1-2.608-.181-3.914-.261-3.115-.194-6.34-.4-9.468-.849-6.335-.919-14.512-2.591-21.557-7.391-.836-.57-1.8-1.332-1.846-2.177a1.86 1.86 0 01.819-1.446 4.923 4.923 0 013.66-.869 21.2 21.2 0 006.666 0c.618-.065 1.234-.131 1.853-.181a6.022 6.022 0 01.634-.009 2.878 2.878 0 003.006-1.4l.163-.3-.34-.022c-3.1-.194-6.124-.337-9.048-.475q-1.711-.078-3.418-.163a71.223 71.223 0 01-10.99-1.718c-1.435-.3-2.922-.616-4.382-.884-5.595-1.032-10.369-4.783-11.281-8.806 7.526 1.493 14.865.583 21.744-.477l1.093-.17-1.075-.257a8.277 8.277 0 00-2.133-.146 9.079 9.079 0 01-1.528-.048c-2.571-.355-5.2-.464-7.742-.573a64.205 64.205 0 01-9.812-.921c-7.289-1.441-12.592-4.112-16.687-8.406-.755-.795-2.393-2.782-1.287-4.134.714-.875 1.733-.357 2.811.192a8.5 8.5 0 001.263.562c.131.041.261.085.392.128.248.081.494.161.742.231 7.8 2.162 15.932 2.528 23.8 2.882l2.329.107a214.7 214.7 0 0034.258-.947c.109-.013.224-.031.344-.048.834-.122 1.4-.155 1.624.453.982 2.7 3.126 3.7 5.619 4.641 4.306 1.631 8.68 1.97 13.31 2.329 1.232.1 2.508.192 3.773.318l.468.046-.268-.388a2.667 2.667 0 00-1.739-1.2c-1.722-.494-3.5-.888-5.223-1.269-3.8-.843-7.724-1.713-11.231-3.7-1.036-.588-1.755-1.065-1.561-1.89.255-1.075 1.456-1.326 2.421-1.345 1.119-.022 2.236-.026 3.355-.033 1.835-.007 3.734-.013 5.6-.109 5.867-.3 11.828-.673 17.593-1.03l4.254-.263a2.454 2.454 0 01.344.024 1.134 1.134 0 00.895-.128.732.732 0 00.237-.549c.044-.729-.625-.816-1.067-.873-.1-.013-.2-.026-.3-.046a26.664 26.664 0 00-7.252-.131c-1.119.083-2.275.168-3.407.181-2.5.03-5.044-.02-7.5-.063-4.537-.083-9.224-.168-13.842.209a4.573 4.573 0 00-2.615 1.435c-.644.577-1.2 1.058-1.857 1.023a56.86 56.86 0 00-8.434.187c-1.635.118-3.324.239-4.988.27l-3.762.074c-7.7.163-15.668.329-23.447-.224l-1.911-.133c-7.254-.5-14.758-1.017-21.775-3.586-1.931-.71-4.106-1.145-5.554.982-1.291 1.892-1.141 4.273.409 6.535 2.9 4.23 7.334 7.08 13.944 8.967a5.927 5.927 0 00.638.135c.775.137 1.446.253 1.6 1.282.514 3.348 2.761 5.632 4.887 7.421 4.182 3.518 9.411 4.378 14.473 5.212l.479.078a9.117 9.117 0 001.143.087c.925.033 1.881.065 2.253.634.3.453.22 1.26-.229 2.4-.557 1.419.677 2.954 1.809 3.993 4.646 4.263 10.415 5.954 15.446 7.045.139.03.29.052.44.072.348.048.71.1.8.274.052.1.067.316-.165.784-1.178 2.366-.192 3.986 1.655 5.689 4.1 3.782 9.287 4.874 14.305 5.93.579.122 1.158.244 1.737.37a5.291 5.291 0 00-.165 4.522c1.306 3.041 5.636 5.771 12.209 7.7-.1.239-.209.481-.316.716a6.206 6.206 0 00-.686 2.144c-.237 4.115 2.974 5.68 5.808 7.06l.067.033a28.963 28.963 0 009.191 2.218c1.023.142 2.06.274 3.067.44zm70.246-38.873a2.011 2.011 0 01-.2.808 1.717 1.717 0 01-1.049-.281c-6.42-4.474-11.029-10.648-14.505-19.428a33.991 33.991 0 00-12.427-15.15 21.335 21.335 0 00-2.909-1.639 19.48 19.48 0 01-2.922-1.665c4.535-.026 9.287.109 13.622 1.563 8.808 2.95 14.58 8.033 17.645 15.537 2.717 6.653 2.732 13.567 2.745 20.255zm-20.41-41.814c-3.381 2.75-6.975 2.569-10.77 2.377a72.843 72.843 0 00-2.186-.087 77.969 77.969 0 01-8.7-.827c-1.589-.211-3.231-.429-4.853-.588-3.122-.3-6.3-.562-9.374-.812-.634-.05-1.265-.1-1.9-.152 4.054-.033 8.125.192 12.089.411 7.711.427 15.683.869 23.534-.592.292-.054.59-.139.9-.231a4.437 4.437 0 012.188-.255z" transform="translate(-119.44 -91.096)"/><path d="M379.776 344.806a4.58 4.58 0 00-3.037-3.05c-1.654-.5-3.322-1.078-4.935-1.633-.96-.331-1.914-.66-2.863-.971a121.256 121.256 0 01-15.165-5.961c-3.144-1.524-6.311-3.135-9.374-4.691a643.336 643.336 0 00-7.2-3.623c-1.678-.829-3.407-1.626-5.077-2.4-1.478-.684-3.009-1.387-4.5-2.114a655.821 655.821 0 01-6.235-3.085 658.038 658.038 0 00-7.463-3.679c-.015-.009-1.6-.758-2.125-.425a.393.393 0 00-.189.346 2.447 2.447 0 00.727 1.469c.536.662 1 1.232.433 2.164l-.139.229.255.089a2.8 2.8 0 01.268.118 1.286 1.286 0 00.782.179c1.165-.2 1.868-.32 2.107-.111.216.192.213.8.163 1.794a8.639 8.639 0 00-2.305-1.2c-2.179-.873-4.06-1.626-2.61-5.867l.49-1.426-.873 1.23c-1.776 2.508-3.081 3.618-4.811 4.1-5.528 1.52-10.724-.181-15.749-1.824-.673-.22-1.345-.44-2.018-.653a100.692 100.692 0 01-20.536-9.442 42.743 42.743 0 01-11.262-10.143 39.348 39.348 0 01-5.177-8.593 2.079 2.079 0 00-.531-.631c-.459-.377-.644-.29-.708-.259-.8.377-.536 1.252-.435 1.583a26.289 26.289 0 004.474 9.144c.514.64 1.084 1.247 1.639 1.833.444.472.906.96 1.33 1.461.625.74 1.213 1.509 1.833 2.321l.494.644a48.372 48.372 0 00-21.263.457A42.3 42.3 0 00227.634 306c-.536.29-1.533.825-1.226 1.779a.814.814 0 00.429.5 1.9 1.9 0 001.369-.059c7.047-2.606 14.665-4.985 22.822-4.685.932.035 1.922.03 2.876.022 3.268-.007 6.614-.035 9 1.387a126.933 126.933 0 0020.305 10.032 91.163 91.163 0 0015.91 4.707 14.272 14.272 0 005.112-.309c2.573-.475 5-.923 7.569.738a39.518 39.518 0 005.534 2.8 27.422 27.422 0 017.82 4.559c2.268 2.1 4.757 4.123 8.266 3.971a7.972 7.972 0 013.888.895c.8.379 1.6.747 2.41 1.117a46.1 46.1 0 0110.062 5.684 3.061 3.061 0 00.969.44c.736.24 1.023.381.9.816-.139.509-1.169.4-1.918.32-.155-.017-.3-.03-.433-.041-1.117-.089-2.253-.235-3.353-.377-3.374-.435-6.86-.884-10.306.257a1.29 1.29 0 01-.316-.218 3.067 3.067 0 00-.226-.174c-2.872-1.959-5.771-1.72-8.871.727a2.715 2.715 0 01-.268.176c-.263.163-.564.346-.627.677a.943.943 0 00.233.74c.562.766 1.178.385 1.631.109l.142-.089a5.32 5.32 0 014.7-.829c-1.8.222-3.464.688-4.565 2.3a4.805 4.805 0 01-.385.464c-.462.514-1.1 1.217-.342 1.948.66.642 2.007-.176 2.554-.562 2.123-1.483 3.514-1.722 4.252-.74a5.884 5.884 0 005.11 2.44 16.537 16.537 0 001.883-.126c1.308-.146 2.612-.309 3.919-.47 6.461-.8 13.138-1.631 19.8-.527l.078.015c2.234.368 4.766.788 6.779-.925a4.914 4.914 0 013.54-1.422 4.4 4.4 0 012.956 1.8 1.7 1.7 0 002.012.71c.777-.353.435-1.112.25-1.522-.037-.085-.078-.173-.102-.249zm-12.028-1.178a2.822 2.822 0 01-.448.25c-.451.189-.6-.022-.845-.531a3.294 3.294 0 00-.117-.231 2.266 2.266 0 00-1.975-1.239c-.074 0-.15 0-.226.011-.819.085-.825.758-.832 1.25a2.517 2.517 0 01-.028.453 14.352 14.352 0 00-.279-.024c-.921-.078-1.648-.139-2.081-1.2a1.093 1.093 0 00-1-.729h-.017a1.218 1.218 0 00-1.093.882 1.538 1.538 0 01-1.1.936 1.144 1.144 0 01-.76-.009c-1.528-1.4-2.9-.766-4.1-.2a7.592 7.592 0 01-1.311.516c-.688.161-.938-.128-1.319-.577a5.812 5.812 0 00-.233-.263h.327c.562 0 1.045.007 1.535-.009 1.681-.061 2.667-.768 2.854-2.049a2.645 2.645 0 00-1.809-2.684 24.061 24.061 0 01-3.984-2.811l-.283-.229c-.174-.141-.268-.268-.27-.368 0-.146.187-.32.374-.488a1.607 1.607 0 00.514-.662l4.069 1.851a1.727 1.727 0 01-.522.525c-.318.244-.644.5-.675.877a.981.981 0 00.331.745c.832.888 1.787.374 2.63-.074.118-.063.235-.126.355-.185a2.744 2.744 0 013.017.657c.2.189.207.27.209.27a1.136 1.136 0 01-.346.168c-.3.111-.719.263-.692.679a3.625 3.625 0 00.207 1.154.819.819 0 00.459.479 1.068 1.068 0 00.851-.107c3.566-1.726 6.585-.747 10.21 1.478-.148-.011-.309-.041-.459-.068-.462-.081-.934-.163-1.189.148-.22.255-.202.692.05 1.408zm-19.332-10.644c-.366 0-.731.022-1.091.039-1.694.078-3.3.163-4.6-1.2a2.7 2.7 0 011.818-.514 5.977 5.977 0 013.872 1.676zm-8.231 11.588c.035.07.091.187.1.207a.5.5 0 01-.246.054c-.431.039-.5-.172-.616-.642a3.09 3.09 0 00-.118-.4 2.01 2.01 0 01-.072-.351 1.176 1.176 0 00-.364-.845.8.8 0 00-.492-.146 1.455 1.455 0 00-.189.013 14.659 14.659 0 014.981.007c.531.059 1.073.122 1.618.163a2.352 2.352 0 00-.166.109c-.786.579-.446 1.2-.172 1.7l.022.041c-1.163.15-1.792.144-2.075-.969-.059-.229-.333-.4-.49-.483a1.037 1.037 0 00-.738-.133 2.158 2.158 0 00-.823.742 4.66 4.66 0 01-.192.239c-.195.227-.063.497.031.695zm6.6-1.859a.932.932 0 00.771.179c.155-.011.329-.02.383.033.013.015.063.085.044.322-.068.773-.2.862-.218.871-.314.163-.479.015-.784-.309a3.605 3.605 0 00-.322-.309 2.182 2.182 0 01-.3-.337 2.84 2.84 0 00-.433-.477h.078a1.65 1.65 0 01.263-.006 1.13 1.13 0 01.518.034zm-8.915-.174a1.43 1.43 0 00-.725 1.269 2.06 2.06 0 00-.017.272c0 .133-.009.337-.065.383a.287.287 0 01-.2 0 1.521 1.521 0 01-.912-.62.34.34 0 01-.052-.27c.061-.213.424-.4.544-.468a7.208 7.208 0 011.427-.565zm3.607-12.89c-1.123 1.4-2.218.679-3.189.041a6.925 6.925 0 00-.483-.3c2.044-.507 2.301-.454 3.672.26zm-10.677-4.258c-.562.318-1.261.714-.936 1.737a1.286 1.286 0 00.869.766c1.221.216 1.733-.686 2.029-1.5.094-.257.213-.411.357-.459a.857.857 0 01.686.192c.4.253.8.531 1.191.8l.311.216a2.621 2.621 0 00-.392.832c-.187.557-.316.873-.8.893-.1 0-.2.007-.3.007-3.052 0-5.284-1.82-7.3-3.744 1.776-1.276 3.207-1.252 4.583.081a3.787 3.787 0 01-.298.179zm-10.173-3.906a.676.676 0 00.054.059l-1.21-.71-1.848-1.084c.128-.109.246-.235.364-.357.448-.472.716-.76 1.335-.22a2.012 2.012 0 00.91.316c.379.072.808.155.882.359.039.113.022.4-.546 1.084a.406.406 0 00.06.554zm1.487.27c1.25-.788 2.277-.377 3.529.533a2.389 2.389 0 00.333.189c.091.044.331.161.337.216 0 0 0 .081-.213.261a1.7 1.7 0 00-.383.6c-.111.24-.226.488-.4.54a.731.731 0 01-.531-.144c-1.2-.7-2.406-1.406-3.62-2.118a1.1 1.1 0 00.949-.076z" transform="translate(-19.506 -14.539)"/><path d="M213.149 262.82c.784-.427 1.178-.882 1.176-1.354 0-.444-.359-.853-1.051-1.213-.762-.4-1.55-.764-2.314-1.121a20.316 20.316 0 01-6.146-3.812c-1.08-1.093-1.72-2.11-1.335-3.527a1.2 1.2 0 01.085-.168.964.964 0 00.176-.771.794.794 0 00-.47-.459 1.146 1.146 0 00-1.583.618l-.044.1c-.653 1.4-1.393 2.985.144 4.572a33.3 33.3 0 007.922 5.573l.113.063c.514.287.749.418.44 1.034a3.683 3.683 0 001.372 5.079q.48.291.96.575c2.427 1.448 4.722 2.815 6.4 5.4 1.206 1.857 3.383 1.931 5.488 2a16.769 16.769 0 012.5.209 5.75 5.75 0 001.071.115 2.619 2.619 0 002.16-.964 1.211 1.211 0 00-.041-1.2c-.729-1.036-1.707-.814-2.569-.618-.15.033-.3.065-.446.094a3.569 3.569 0 01-.731.02 18.76 18.76 0 00-.7-.013 12.97 12.97 0 00-.88-.115 9.224 9.224 0 01-2.71-.6c-.231-.1-.523-.2-.834-.3-.607-.2-1.441-.477-1.574-.8a.242.242 0 01.024-.222 2.811 2.811 0 00.385-2.495c-.394-.764-1.411-.914-2.308-1.047a7.832 7.832 0 01-.86-.161 10.927 10.927 0 01-3.3-1.742c-.2-.137-.4-.272-.6-.407-.607-.4-.917-.825-.9-1.217s.368-.793.98-1.126z" transform="translate(-49.486 -55.069)"/><path d="M203.181 241.763a1.408 1.408 0 00.91-1.217c-.022-.2-.152-.538-.784-.653a15.643 15.643 0 01-5.5-2.282c-2.11-1.317-4.48-2.924-5.889-5.358a1.887 1.887 0 01-.157-.625c-.057-.383-.113-.777-.438-.956a1.156 1.156 0 00-1.036.113 1.351 1.351 0 00-.849 1.3 3.667 3.667 0 00.4 1.422 10.571 10.571 0 001.583 2.305 13.5 13.5 0 005.508 3.433 26.787 26.787 0 012.919 1.352 3.885 3.885 0 00-.037 5.129c2.815 3.9 7.311 4.515 11.658 5.112l.906.124-.644-.5c-.133-.1-.259-.218-.387-.333a3.343 3.343 0 00-.978-.688 26.232 26.232 0 01-6.975-4.208 16.24 16.24 0 00-.429-.335c-.727-.562-1.55-1.2-1.472-1.794.063-.444.629-.897 1.691-1.341z" transform="translate(-62.948 -78.232)"/><path d="M201.1 245.087h.026a4.084 4.084 0 011.11.033 5.048 5.048 0 00.594.05.869.869 0 00.967-.882.833.833 0 00-.165-.651 1.755 1.755 0 00-1.256-.4 4.066 4.066 0 01-.522-.059c-1.112-.222-2.229-.431-3.346-.642-2.8-.523-5.693-1.065-8.471-1.831l-.115-.033c-3.849-1.06-7.829-2.157-8.671-6.995l-.013-.091c-.037-.259-.1-.692-.4-.856a.6.6 0 00-.551.026 2.669 2.669 0 00-1.393 1.439c-.594 2.369.366 4.321 2.93 5.967 5.623 3.612 11.891 4.217 17.952 4.8z" transform="translate(-75.574 -75.789)"/><path d="M186.9 245.89a49.932 49.932 0 0014.625 3.22c.359.033.723.083 1.093.135a15.066 15.066 0 002.1.187 6.9 6.9 0 003.237-.771l.462-.235-.49-.165c-.385-.128-.7-.246-.98-.348a6.942 6.942 0 00-1.271-.392l-.161-.028c-5.571-.93-11.331-1.89-16.724-3.877a4.67 4.67 0 01-3.307-3.777 1.354 1.354 0 01.226-.586c.183-.34.374-.69.2-.995-.133-.233-.442-.348-.973-.364h-.061a2.1 2.1 0 00-1.454.577 2.426 2.426 0 00-.673 1.776c.001 2.653 1.357 4.496 4.151 5.643z" transform="translate(-70.825 -69.641)"/><path d="M224.215 229.49a5.418 5.418 0 00-1.217-5.8c-1.4-1.321-3.64-2.175-5.734-.614-1.742 1.3-3.512 2.922-2.456 5.7 1.11 2.93 3.5 3.141 5.606 3.327a14.61 14.61 0 011.97.261l.052.013.054-.015a2.493 2.493 0 011.045.02 4.226 4.226 0 00.6.061.954.954 0 00.936-.542.868.868 0 00.1-.76c-.131-.3-.477-.392-.784-.475a1.107 1.107 0 01-.52-.224c-.152-.2-.094-.3.1-.542a1.377 1.377 0 00.248-.41zm-6.316 0c1.463-.024 2.976-.05 3.12-2.153a2.569 2.569 0 00-.555-1.983 2.905 2.905 0 00-1.774-.847c1.123-.514 1.8-.664 2.469.189l.25.314c1.043 1.306 2.12 2.658.777 4.017a3.474 3.474 0 01-4.365.464z" transform="translate(-33.466 -88.071)"/><path d="M187.94 250.084a23.915 23.915 0 008.325 2.832c2.978.429 5.985.816 9.165 1.228 1.439.185 2.919.377 4.463.579l.492.065-.285-.4a3.56 3.56 0 00-2.95-1.855 46.667 46.667 0 01-17.033-4.831c-1.685-.864-2.449-1.929-2.406-3.35 0-.148.026-.3.044-.444a1.309 1.309 0 00-.128-1.045 1.087 1.087 0 00-.823-.322 2.1 2.1 0 00-1.546.5 1.8 1.8 0 00-.555 1.328 6.036 6.036 0 003.237 5.715z" transform="translate(-68.528 -64.18)"/><path d="M189.157 253.529c3.895 3 8.549 3.943 12.59 4.469.5.065.993.168 1.513.274a14.5 14.5 0 003 .394 8.5 8.5 0 003.161-.612l.625-.244-.651-.17c-1.343-.346-2.615-.657-3.829-.954-2.634-.642-4.909-1.2-7.178-1.937a54.528 54.528 0 00-1.317-.409c-3.27-.995-6.649-2.022-7.5-6.242a1.9 1.9 0 00-1.334-1.256c-.62-.1-1.173.494-1.282 1.358a5.486 5.486 0 002.202 5.329z" transform="translate(-65.949 -59.117)"/><path d="M204.718 263.459c1.25.255 2.543.52 3.795.825l.05.006a4.093 4.093 0 01.581.074 4.209 4.209 0 00.675.076.839.839 0 00.936-.745.785.785 0 00-.109-.616 1.835 1.835 0 00-1.239-.5 3.744 3.744 0 01-.516-.1c-1.306-.4-2.656-.731-3.96-1.056-3.422-.851-6.96-1.731-10-3.8a6.274 6.274 0 01-3.1-4.3 1.2 1.2 0 01.161-.479c.142-.3.3-.642.131-.927-.126-.211-.39-.32-.829-.344a2.13 2.13 0 00-2.432 1.964 4.122 4.122 0 001.171 3.316c4.05 4.436 9.456 5.54 14.685 6.606z" transform="translate(-63.655 -53.534)"/><path d="M205.224 304.273a2.147 2.147 0 00-.788-1.215 1.688 1.688 0 00-1.319-.2 1 1 0 00-.742.586 1.524 1.524 0 00.128 1.341 1.485 1.485 0 00.9.764 1.124 1.124 0 00.266.033 2.836 2.836 0 001.391-.568l.033-.02a1.067 1.067 0 00.671.586 1.013 1.013 0 00.178.017 1.179 1.179 0 00.849-.412 15.659 15.659 0 018.229-4.186 17.5 17.5 0 011.2-.222c1.607-.259 3.429-.551 4.483-2.362l.107-.187-.185-.111a3.355 3.355 0 00-1-.34c-.625-.137-1.115-.248-1.315-.9a1.163 1.163 0 01-.013-.346.925.925 0 00-.159-.718.688.688 0 00-.505-.194h-.037c-.688 0-.825.551-.925.958a1.79 1.79 0 01-.152.444.8.8 0 00-.065.5c.028.25.033.3-.207.346-.259.046-.3-.033-.411-.263a1.412 1.412 0 00-.2-.324 2.943 2.943 0 01-.248-.346c-.276-.416-.644-.995-1.406-.732a1.447 1.447 0 00-.927 1.948.674.674 0 010 .505c-.107.192-.4.276-.694.357a2.978 2.978 0 00-.446.152.862.862 0 01-.7.078.822.822 0 01-.318-.651 1.045 1.045 0 00-.518-.8 1.186 1.186 0 00-1.091.046c-.05.026-.1.05-.159.074-.292.131-.62.279-.694.566a.52.52 0 00.115.455c.4.522.538.84.485 1.095s-.3.5-.786.779-.684.185-.74.155a1.261 1.261 0 01-.4-.5 1.411 1.411 0 00-.668-.7c-.107-.037-.209-.083-.307-.126a1.132 1.132 0 00-1.589.283 1.268 1.268 0 00-.279 1.128 1.248 1.248 0 00.74.808c.71.294 1.106.6 1.173.9.081.361-.309.8-.69 1.215-.097.091-.175.2-.265.304z" transform="translate(-47.845 -1.704)"/><path d="M222.688 273.276l-.216.322c-1.3 1.94-.627 4.907-.111 6.5a13.021 13.021 0 003.226 5.5 3.33 3.33 0 001.234.549 2.171 2.171 0 011.678 1.2 8.864 8.864 0 006.115 5.227.667.667 0 00.172.022 1.707 1.707 0 00.542-.122 2.724 2.724 0 01.261-.081l.242-.057-.087-.233a2.189 2.189 0 01-.07-.244c-.061-.25-.122-.509-.333-.62-2.989-1.557-4.149-4.374-5.379-7.352-.1-.233-.457-1-1.056-1.047-.213-.022-.54.057-.836.533-.444.71-.69.821-.8.821-.192-.007-.4-.381-.586-.712a6.753 6.753 0 00-.294-.49 17.551 17.551 0 01-2.171-5.364 26.767 26.767 0 00-1.365-4z" transform="translate(-24.954 -27.993)"/><path d="M208.854 251.918a1.509 1.509 0 00-.514-.71 47.518 47.518 0 00-1.872-1.058c-.893-.483-1.813-.986-2.66-1.561l-.564-.381c-2.6-1.746-5.051-3.394-3.954-7.189a1.282 1.282 0 00-.054-1.006.86.86 0 00-.61-.377c-.455-.076-1.524-.263-1.9.727a10.934 10.934 0 00-.44 1.72l-.1.516-.009.037v.037c.033.3.052.575.072.819a6.7 6.7 0 00.17 1.25c.764 2.85 8.345 8.268 11.482 8.268q.085 0 .163-.007a1.235 1.235 0 00.647-.318 2.1 2.1 0 01.224-.157l.187-.113-.113-.187a3.317 3.317 0 01-.155-.31z" transform="translate(-55.021 -67.664)"/><path d="M212.985 255.347c-2.584-1.121-5.578-2.447-8.408-3.977l-.185-.1c-1.648-.888-3.355-1.807-3.642-3.855a.987.987 0 01.172-.505 1.1 1.1 0 00-.2-1.565.8.8 0 00-1.145.03l-.2.139a2.382 2.382 0 00-1.317 2.6v.026a6.86 6.86 0 001.452 2.512c2.617 3.041 6.194 4.245 9.653 5.408 1.091.368 2.218.747 3.3 1.178a.649.649 0 00.235.039 1.452 1.452 0 001.171-.618c.316-.791-.437-1.118-.886-1.312z" transform="translate(-52.843 -61.14)"/><path d="M268.7 298.753c-.736-3.165-3.165-4.866-5.521-6.516l-.257-.181a2.553 2.553 0 00-1.846-.542 1.174 1.174 0 00-.768.657c-.477.964.374 1.47.995 1.837.137.081.272.161.394.246 1.289.877 2.571 1.814 3.81 2.719l.564.411a2.7 2.7 0 00-2.541 1.313l-.128.172 6.925 5.338.085-.318a3.256 3.256 0 00-.875-3.035 2.876 2.876 0 01-.686-1.252 8.302 8.302 0 00-.142-.814l.1.041z" transform="translate(20.303 -6.571)"/><path d="M256.737 284.189l-.6-.274a1.348 1.348 0 00-1.008.15 4.077 4.077 0 01-.4.144l-.22.059.067.218a3.354 3.354 0 01.076.337 1.145 1.145 0 00.353.795c2.053 1.374 4.119 2.708 6.511 4.254l2.612 1.687-.211-.6c-1.457-4.159-4.367-5.485-7.18-6.77z" transform="translate(13.639 -15.534)"/><path d="M268.473 293.959c.091 1.091 1.2 1.256 1.957 1.256.207 0 .388-.013.516-.022h.085c1.776 0 3.71-1.435 5.2-2.7.819-.69.694-1.265.448-1.624-.374-.544-.867-.283-1.16-.124a1.859 1.859 0 01-.3.137l-1.165.322c-1.415.394-2.88.8-4.33 1.163a1.523 1.523 0 00-1.251 1.592z" transform="translate(30.067 -7.666)"/><path d="M257.192 287.088a1.65 1.65 0 00-.967 1.134c-.1.88.8 1.028 1.276 1.106a30.9 30.9 0 018.02 2.871l.479.226-.181-.5c-1.045-2.873-6.119-5.725-8.627-4.837z" transform="translate(15.649 -11.93)"/><path d="M229.393 296.736c-1.493-.89-3.039-1.811-4.617-2.615a1.537 1.537 0 00-2 .819 1.091 1.091 0 00-.118.871 1.294 1.294 0 00.644.777c1.047.564 2.14 1.084 3.2 1.587l1.258.6.081.039.494-.17a32.24 32.24 0 001.659-.612l.131-.07.011-.135c0-.065-.03-.67-.3-.832z" transform="translate(-23.899 -3.626)"/><path d="M219.343 295.845l-.8-.418a1.209 1.209 0 00-1.6.331c-.542.54-.207.912.041 1.184.052.059.107.12.161.187a7.127 7.127 0 005.527 2.49 6.874 6.874 0 003.176-.747l.542-.281-.6-.124a24.707 24.707 0 01-6.447-2.622z" transform="translate(-30.928 -2.13)"/><path d="M263.107 290.346a10.159 10.159 0 01-.688-.416c-.982-.631-2.1-1.343-3.444-.316a1.552 1.552 0 00-.638 1.176c.052.477 1.058.758 1.069.76a23.1 23.1 0 016.046 2.837l.131.083a1.433 1.433 0 00.731.3.568.568 0 00.17-.024.9.9 0 00.544-.533l.059-.117-.076-.107a11.548 11.548 0 00-3.904-3.643z" transform="translate(18.139 -9.373)"/><path d="M225.4 223.583l.089.033.083-.041c.068-.03.139-.057.209-.083a.974.974 0 00.494-.294 20.752 20.752 0 002.621-5.412c.168-.451.333-.9.507-1.352.1-.25-.057-.527-.207-.795a2.813 2.813 0 01-.148-.29l-.087-.213-.209.1a3.106 3.106 0 01-.322.122 1.241 1.241 0 00-.742.462c-.93 1.72-2.016 3.768-3.015 5.924a1.405 1.405 0 00-.054 1.121 1.312 1.312 0 00.781.718z" transform="translate(-21.65 -96.426)"/><path d="M225.635 296.708c-1.112-.568-2.164-1.1-3.163-1.685-.551-.322-1.581-.923-2.262.1a1.285 1.285 0 00-.213 1 2.043 2.043 0 00.938 1.219 6.428 6.428 0 003.531 1.182 6.281 6.281 0 002.671-.651l.4-.187-.39-.2c-.526-.275-1.029-.532-1.512-.778z" transform="translate(-27.016 -2.95)"/><path d="M219.518 298.469a2.811 2.811 0 01-.266-.172c-.309-.242-.638-.464-.954-.679a14.494 14.494 0 01-1.1-.8 2.767 2.767 0 01-.39-.459c-.25-.342-.507-.694-.91-.747a1.055 1.055 0 00-.792.294c-.477.394-.86 1.178.033 2.669a4.451 4.451 0 002.878 1.846l.109-.2-.061.209.05.009c.2.009.4.017.586.017.688 0 1.213-.12 1.441-.777.247-.703-.278-1.01-.624-1.21z" transform="translate(-33.337 -1.711)"/><path d="M226.01 221.665a1.338 1.338 0 00.546.829.372.372 0 00.233.065 4.574 4.574 0 001.589-.522c1.041-.472 4.093-2.064 4.186-2.75l.009-.07-.033-.059c-.013-.03-.026-.065-.039-.1a.729.729 0 00-.257-.39c-1.156-.749-2.127-.218-2.978.253a5.508 5.508 0 01-.995.468 6.603 6.603 0 01-.357.1c-.853.23-2.146.58-1.904 2.176z" transform="translate(-19.941 -92.71)"/><path d="M211.657 299.453c.124.5.25 1.017.586 1.182a.482.482 0 00.213.05.566.566 0 00.229-.05c1.491-.651 1.7-1.97 1.9-3.246a5.925 5.925 0 01.553-1.985 1.027 1.027 0 00-.137-1.067.757.757 0 00-.888-.2c-1.648.6-1.914 1.953-2.171 3.266a8.478 8.478 0 01-.392 1.5l-.028.072.024.076c.041.117.076.256.111.402z" transform="translate(-36.955 -3.513)"/><path d="M214.117 295.483c.165-.287.327-.575.5-.851.181-.3-.314-.938-.533-1.2-.155-.185-.292-.333-.472-.263a5.572 5.572 0 00-3.316 4.034l-.009.046c-.022.346-.026 1.18.392 1.459a.531.531 0 00.3.089.743.743 0 00.333-.087 7.16 7.16 0 002.805-3.227z" transform="translate(-38.427 -4.6)"/><path d="M212.942 294.819c.2-.235.39-.47.592-.695a1.637 1.637 0 00.231-2.012.651.651 0 00-.5-.242 1.089 1.089 0 00-.755.128c-.2.189-.414.374-.627.557-1.184 1.028-2.527 2.194-1.855 4.369l.074.233.222-.1a7.029 7.029 0 002.618-2.238z" transform="translate(-38.926 -6.124)"/><path d="M214.1 295.361c-1.058-.089-1.121.738-1.171 1.337-.015.163-.028.331-.057.492l-.015.07.033.063a4.879 4.879 0 01.259.79c.222.814.5 1.827 1.626 1.827h.033a1 1 0 00.751-.287 1.829 1.829 0 00.233-1.38 2.658 2.658 0 01.033-.925 1.266 1.266 0 00-.163-1.121 2.076 2.076 0 00-1.562-.866z" transform="translate(-35.389 -2.007)"/><path d="M270.912 292.213a2.329 2.329 0 002.251-1.968.553.553 0 00-.2-.52 1.549 1.549 0 00-1.38-.122 5.157 5.157 0 01-.54.037c-.768.028-1.82.067-1.914 1.446a.968.968 0 00.259.784 1.631 1.631 0 001.167.357c.12-.001.245-.005.357-.014z" transform="translate(30.839 -8.894)"/><path d="M278.372 251.339c-.838-.137-1.2.7-1.4 1.2-1.356 3.4-3.581 5.277-6.8 5.732-2.014.283-3.671.486-5.216.638-.479.048-1.28.126-1.241 1.071.037.821.7.81 1.134.8h.1c1.276-.022 2.632-.031 3.969.081a1.97 1.97 0 00.736-.146c.536-.185.74-.207.914.209a2.318 2.318 0 01-.388 2.39 8.946 8.946 0 01-5.924 3c-2 .152-4 .229-6.307.316-1.071.041-2.205.083-3.429.137l-.79.035.7.374a19.417 19.417 0 007.77 2.14c-.1.142-.2.283-.3.42a5.808 5.808 0 01-1.676 1.811c-3.427 2.116-6.995 1.657-11.125 1.126-.814-.1-1.646-.211-2.495-.3l-.564-.059.381.422a9.453 9.453 0 007.5 3.327 22.73 22.73 0 003.268-.283c4.108-.6 6.666-2.626 7.609-6.022.2-.725.4-.768 1.043-.91l.126-.028c4.032-.9 6.57-3.03 7.339-6.154a6.149 6.149 0 012.754-4.178c2.36-1.65 3.5-3.442 3.477-5.475a1.518 1.518 0 00-1.165-1.674z" transform="translate(3.675 -53.831)"/><path d="M263.21 253.179a6.557 6.557 0 002.232-.5 9.491 9.491 0 011.025-.322 15.105 15.105 0 006.041-3 7.432 7.432 0 003-6.1c-.015-.3.05-.451.453-.7 1.419-.89 2.811-1.881 4.154-2.839l.81-.577a5.334 5.334 0 002.12-3.98 3.794 3.794 0 00-1.091-3.085c-.943-.853-1.668-.616-2.11-.268a.985.985 0 00-.366 1.428c1.48 2.229.189 3.316-1.308 4.576-.242.2-.485.407-.718.618a6.483 6.483 0 01-1.935 1.038c-1.463.59-2.978 1.2-2.972 3.387a5.2 5.2 0 01-2.482 4.513 49.2 49.2 0 01-8.913 4.84l-.388.176.37.211a4.155 4.155 0 002.078.584z" transform="translate(20.996 -77.174)"/><path d="M272.778 243.538c-.161-1.115-.775-2.3-2.009-2.3h-.026a1.079 1.079 0 00-.882.333 1.637 1.637 0 00-.074 1.35 2.489 2.489 0 01.089.725l-.046.422a3.031 3.031 0 01-.938 2.347 30.255 30.255 0 01-9.048 5.473c-.52.174-1.091.49-.875 1.365a.772.772 0 00.825.653 2.678 2.678 0 00.592-.087c.533-.126 1.06-.292 1.572-.451a15.49 15.49 0 012.036-.54c3.973-.681 8.736-5.7 8.786-9.259z" transform="translate(18.832 -65.7)"/><path d="M269.679 246.3a1.32 1.32 0 00-.986.207.875.875 0 00-.261.634c-.22 4.62-2.758 6.982-8.229 7.663-.133.017-.289.024-.459.033-.8.037-2.012.1-2.012 1.245a.891.891 0 00.242.675 1.471 1.471 0 001.11.233 1.562 1.562 0 01.869.113l.05.037h.063c.3.024.6.035.9.035a10.281 10.281 0 009.638-5.956 9.864 9.864 0 00.653-3.6c.022-.76-.786-1.269-1.578-1.319z" transform="translate(17.43 -59.754)"/></g></g></g></svg>