<?xml version="1.0" encoding="UTF-8"?>
<svg id="_レイヤー_1" data-name="レイヤー 1" xmlns="http://www.w3.org/2000/svg" viewBox="0 0 280 280">
  <defs>
    <style>
      .cls-1 {
        fill: #fff;
      }

      .cls-2 {
        fill: #d6ac4e;
      }
    </style>
  </defs>
  <circle class="cls-2" cx="140" cy="140" r="137.5"/>
  <g>
    <path class="cls-1" d="m59.22,210.43c.94-.91,1.01-1.07,1.13-2.63,0-.33.07-.49.22-.63s.39-.29.64-.36c.33-.09.47-.07.79.16,1.11.85,1.21.88,2.49,1.11.2.04.34.09.42.17.31.31.2.9-.39,1.95,2.11.23,3.07.58,3.96,1.51,1.44,1.49,1.41,3.47-.08,4.91-1.12,1.09-2.28,1.15-4.12.18.86,1.25,1.17,1.91,1.24,2.67.08,1.01-.44,2.16-1.45,3.13-2.18,2.11-4.85,2.17-6.82.14-.35-.36-1.28-1.45-2-2.32-.93-1.12-1.07-1.3-1.53-1.78-.62-.64-.96-.92-1.72-1.38-.08-.05-.18-.12-.21-.15-.24-.25-.15-.88.17-1.18.17-.16.39-.22,1.09-.29.85-.08.93-.13,1.95-1.12l4.19-4.07Zm-.8,5.68c-1.55,1.51-1.62,1.6-1.69,2.19-.07.58.14,1.21.61,1.68.98,1.01,2.61.84,3.86-.38.66-.64,1.03-1.45,1.04-2.2,0-.68-.37-1.4-1.14-2.2l-.85-.88-1.83,1.78Zm2.94-2.85l.78.81c1.15,1.19,2.24,1.32,3.2.39.76-.74.79-1.7.05-2.46-.48-.5-1.32-.87-1.87-.84l-2.16,2.1Z"/>
    <path class="cls-1" d="m70.92,227.42c-1.12,1.43-1.2,1.54-1.38,1.99-.27.61.05,1.55.68,2.05.89.69,2.25.59,4.07-.33.46-.22.69-.25.89-.09.64.5.72,1.47.19,2.16-.58.74-1.66,1.53-2.48,1.8-.63.21-1.17.11-1.71-.31-.18-.14-.55-.49-1.09-1-.95-.91-2.09-1.89-3.1-2.68-.75-.58-1.33-.95-1.99-1.26-.3-.14-.46-.24-.53-.29-.29-.23-.28-.95.01-1.33q.16-.2,1.3-.47c.59-.12.81-.33,1.9-1.73l3.62-4.65c1.35-1.69,1.37-1.76,1.38-3.01-.02-.42.03-.64.15-.79.33-.42.94-.64,1.19-.44.05.04.13.16.33.4.24.33.74.84,1.23,1.22.47.37.84.57,1.52.86.16.06.3.14.37.2.31.24.26.87-.1,1.32-.14.18-.38.26-1.02.41-.91.2-.98.25-2.19,1.8l-3.25,4.18Z"/>
    <path class="cls-1" d="m82.63,236.16c-.62,1.07-.72,1.33-.79,1.86-.05.77.35,1.51,1.02,1.9,1.09.64,2.35.54,4.21-.37.67-.33.91-.38,1.13-.25.3.17.63.66.69,1.09.08.37,0,.72-.27,1.2-.41.7-1.11,1.4-1.74,1.76-.7.39-1.28.37-2.08-.09-.2-.12-.79-.51-1.27-.87-1.07-.78-2.08-1.45-3.38-2.2-.99-.58-2.14-1.11-3.02-1.44-.15-.06-.26-.1-.36-.16-.32-.19-.41-.8-.17-1.22.1-.18.32-.32.62-.44.92-.34.99-.38,1.2-.6.21-.22.22-.24.89-1.4l3.15-5.43q1.04-1.79.86-2.9c-.08-.45-.08-.74.01-.9.29-.5.87-.72,1.25-.5l.33.22c.47.38,1.42.99,2.42,1.56,1.39.81,2.56,1.41,3.8,1.97.8.36,1.11.51,1.29.62.44.25.63.55.75,1.13.13.74.09,1.49-.14,1.89-.21.36-.49.52-.97.53-.43.01-.96-.08-1.18-.21-.16-.09-.17-.16-.43-1-.36-1.11-.75-1.68-1.47-2.1-.78-.45-1.58-.52-2.23-.18-.46.24-.49.3-1.25,1.56l-.81,1.39c.15.11.27.18.37.24.93.54,1.5.53,2.37-.06.5-.32.7-.34,1.04-.14.54.31.67.68.44,1.08-.06.1-.27.38-.47.63-.21.28-.41.56-.59.88-.28.48-.54,1.02-.67,1.42-.06.15-.12.3-.18.4-.2.34-.79.39-1.27.12-.22-.13-.3-.36-.29-.78,0-1.36-.11-1.55-.98-2.06-.1-.06-.32-.19-.59-.32l-1.26,2.17Z"/>
    <path class="cls-1" d="m95.43,243.18c-.66,1.67-.67,1.81-.38,2.72.2.62.23.79.16.98-.19.47-.83.91-1.13.79-.11-.04-.26-.15-.43-.29-.25-.25-.63-.47-.97-.61q-.28-.11-1.39-.23c-.05,0-.09-.01-.14-.03-.3-.12-.45-.87-.27-1.32q.08-.19.94-.69c.64-.36.87-.69,1.36-1.93l.33-.88,1.8-4.53c.94-2.32.96-2.42.54-3.6-.16-.41-.19-.64-.1-.86.16-.41.76-.91.97-.83.04.02.12.07.19.15.25.25.72.56,1.08.7.34.14.67.19,1.19.17.09.01.17.02.21.03.17.07.29.39.43,1.11.57,3.07,2.23,8.8,2.81,9.75l1.65-4.17q.61-1.54.12-3.05c-.06-.22-.07-.38-.03-.48.07-.17.39-.49.69-.69.14-.12.27-.12.42-.06.06.03.14.08.44.25.27.18.57.32.93.47.32.13.65.23.99.32.48.09.55.12.61.14.26.1.44.82.3,1.18-.08.19-.2.32-.82.69-.8.52-1.04.8-1.44,1.83l-3.45,9.07-.06.15c-.31.77-.5,1.14-.64,1.3-.21.21-.65.26-.99.13-.58-.23-.74-.51-1.13-2.03-.13-.47-.25-.87-.3-1.11l-.44-1.51c-.18-.61-.34-1.25-.53-1.92-.53-1.97-1.2-4.09-1.77-5.53l-1.75,4.4Z"/>
    <path class="cls-1" d="m110.94,243.24c.26-1.17.2-1.63-.34-2.6-.34-.59-.39-.77-.35-.97.04-.2.29-.57.51-.78.18-.17.3-.19.78-.11.81.08,1.32-.01,2.37-.46.25-.08.45-.13.59-.1.43.1.62.51.75,1.7,1.65-.95,2.62-1.16,3.98-.85,3.37.75,4.85,4.24,3.81,8.91-.46,2.09-1.42,3.81-2.76,4.99-1.6,1.36-3.39,1.77-5.65,1.26q-.56-.12-2.64-.83c-.46-.17-.92-.3-1.35-.4-.65-.15-1.2-.2-1.73-.15-.21,0-.38,0-.49-.02-.34-.08-.59-.65-.48-1.14q.05-.22.92-.97c.5-.43.54-.52.84-1.86l1.25-5.61Zm2.41,5.27c-.27,1.19-.25,1.45-.01,2.17.22.61.71,1.03,1.43,1.19,1.95.44,3.66-1.4,4.41-4.77.31-1.39.28-2.74-.04-3.92-.28-.98-.95-1.65-1.8-1.84-.65-.14-1.86.1-2.49.5l-1.49,6.67Z"/>
    <path class="cls-1" d="m138.44,252.33q0,1.98.86,2.99c.25.28.34.44.34.65,0,.44-.37,1.01-.67,1.01-.09,0-.25-.03-.44-.09-.41-.12-1.29-.24-1.95-.24-.6,0-1.13.06-1.52.2-.25.07-.44.11-.57.11-.3,0-.69-.53-.69-.95,0-.23.21-.57.74-1.26.44-.5.44-.57.45-2.27l.03-6.51q0-1.26-.06-1.54c-.09-.39-.34-.85-.71-1.29-.27-.35-.39-.53-.39-.69,0-.57.35-1.15.7-1.15.12,0,.25.02.39.05.92.21,1.7.28,3.52.29,1.33,0,2.87-.08,3.98-.21.53-.04.97-.09,1.29-.09.55,0,.92.26,1.44.97.41.58.55.9.54,1.34,0,.39-.21.69-.67.94-.32.18-.85.36-.99.36q-.25-.02-1.33-.97c-.55-.51-1.24-.79-1.93-.79-.76,0-1.57.34-1.94.82-.35.46-.39.71-.4,1.91v1.86c1.67,0,1.88-.11,2.5-1.28.26-.5.42-.62.88-.62.5,0,.85.28.85.69,0,.14-.03.51-.1.9-.03.28-.05.6-.05.96,0,.48,0,.6.08,1.47.02.25.04.46.04.57,0,.37-.49.71-1.01.71-.3,0-.46-.16-.8-.76-.59-.99-.73-1.06-2.16-1.07h-.25s-.01,2.96-.01,2.96Z"/>
    <path class="cls-1" d="m152.88,240.26c1.85-.25,3.8.3,5.33,1.49,1.86,1.42,2.93,3.34,3.26,5.83.59,4.38-1.92,7.96-5.96,8.5-3.85.52-7.22-2.42-7.8-6.77-.37-2.74.52-4.78,2.9-6.77.05-1.51.58-2.05,2.27-2.28Zm-1.49,7.05c.19,1.39.77,2.98,1.56,4.2.94,1.47,1.98,2.12,3.19,1.96,1.53-.21,2.29-1.61,2.01-3.68-.21-1.57-1.07-3.66-1.99-4.84-.83-1.03-1.76-1.53-2.67-1.41-1.53.21-2.37,1.71-2.09,3.76Z"/>
    <path class="cls-1" d="m165.36,245.08q-.62-2.12-2.12-3.09c-.26-.16-.37-.28-.42-.45-.07-.24-.07-.58.03-.87.08-.31.17-.41.49-.55.96-.4,1.34-.75,1.99-1.73.13-.21.22-.3.36-.34.4-.12.81.22,1.48,1.2,1.08-1.49,1.91-2.16,3.01-2.48,2.12-.62,4.05.4,4.65,2.45.48,1.66-.24,3.13-2.32,4.77,1.17.07,1.86.46,2.86,1.68,1.2,1.4,1.47,1.58,1.96,1.44.18-.05.2-.06.56-.38.06-.04.1-.08.14-.09.2-.06.37.18.53.73.52,1.77-.14,3.63-1.42,4.01-.73.21-1.44.01-2.04-.58-.46-.44-.87-.92-1.5-1.86-.3-.46-1.62-2.28-1.74-2.44-.38-.49-.77-.68-1.13-.58-.29.08-.8.38-1.32.74l.64,2.21c.39,1.33.46,1.4,1.69,2.17.23.12.37.28.41.43.14.49-.08,1.05-.47,1.17-.11.03-.3.04-.65.07-.55.02-1.1.1-1.56.24-.55.16-1.12.42-1.44.64-.2.13-.34.22-.45.25-.33.1-.88-.3-.99-.69-.05-.18-.01-.38.16-.77q.46-1.07-.14-3.12l-1.22-4.17Zm3.53-.14c.42-.29,1.09-.87,1.58-1.4.83-.86,1.1-1.66.85-2.5-.29-.99-1.23-1.51-2.22-1.22-.51.15-.73.36-1.34,1.23l1.13,3.89Z"/>
    <path class="cls-1" d="m194.76,238.21c.8,1.5,1,1.71,1.88,1.99.55.2.71.3.83.52.23.43.17,1.14-.12,1.29-.08.04-.26.11-.45.14-.4.08-1.2.38-1.73.67s-1.02.63-1.2.83c-.21.24-.39.39-.49.45-.28.15-.91-.19-1.14-.61-.1-.18-.09-.37-.01-.8.23-1.12.19-1.3-.43-2.46l-1.49-2.78c-1.08-.46-3.49-1.73-4.41-2.33-.56-.41-.64-.41-1.83-.4-.32-.01-.69-.31-.96-.82-.15-.28-.11-.44.24-.68.79-.53,1.24-1.14,1.82-2.34.08-.15.18-.25.3-.32.24-.13.5-.04.82.26.84.83,3.48,2.44,5.3,3.26.24-1.64.18-2.97-.16-3.6-.13-.24-.3-.36-.68-.44-.74-.21-.91-.29-1.02-.5-.21-.38-.15-1.2.09-1.33q.06-.03.7-.2c.48-.13.79-.24,1.05-.38.32-.17.48-.28,1.01-.8.17-.17.28-.26.38-.31.3-.16.9.17,1.15.64.14.26.13.4-.1.94-.19.52-.23.75-.21,1.31-.01,3.71-.08,4.82-.34,6.55l1.2,2.23Z"/>
    <path class="cls-1" d="m199.08,222.07c1.5-1.1,3.48-1.55,5.39-1.24,2.31.36,4.17,1.54,5.65,3.56,2.6,3.56,2.11,7.91-1.18,10.31-3.14,2.29-7.49,1.32-10.09-2.23-1.63-2.23-1.83-4.45-.69-7.33-.68-1.36-.47-2.08.91-3.08Zm2.05,6.9c.83,1.13,2.1,2.25,3.38,2.94,1.53.85,2.75.92,3.74.2,1.24-.91,1.25-2.5.01-4.19-.94-1.28-2.69-2.71-4.06-3.3-1.22-.5-2.28-.5-3.02.04-1.24.91-1.27,2.63-.04,4.3Z"/>
    <path class="cls-1" d="m222.5,215.49c1.47,1.49,1.86,2.1,2.02,3.18.24,1.45-.42,2.88-1.98,4.43-1.86,1.85-3.7,2.51-5.31,1.9-.78-.29-1.14-.59-2.79-2.25l-4.15-4.18c-.88-.88-1.12-1-2.4-1.15-.33-.03-.44-.08-.57-.21-.31-.31-.39-.88-.14-1.12.05-.05.21-.15.41-.24.29-.16.99-.7,1.42-1.12.31-.31,1.05-1.26,1.19-1.54.07-.13.1-.19.15-.24.18-.18.8-.08,1.07.2.18.18.24.38.26.81.04,1.06.16,1.27,1.1,2.22l4.18,4.21c1.38,1.39,1.41,1.42,2.06,1.59.65.17,1.51-.14,2.15-.77.54-.54.9-1.25.95-1.85.03-.42-.09-.85-.37-1.25-.13-.23-.32-.42-1.39-1.5l-3.58-3.61q-1.33-1.34-2.61-1.49c-.42-.03-.68-.13-.8-.25-.28-.28-.37-.93-.16-1.14.05-.05.1-.1.21-.15.31-.21.62-.45,1.03-.86.36-.36.65-.71.8-.96.08-.11.15-.21.21-.28.25-.24.94-.19,1.24.1.07.07.13.23.14.47.16,1.4.24,1.58,1.37,2.72l4.3,4.33Z"/>
  </g>
  <g>
    <path class="cls-1" d="m145.24,222.98c-1.93-.92-1.64-2.72-1.69-4.31-.18-6.34-.14-12.7-.46-19.03-.27-5.41-.63-10.82-.57-16.24,0-.56-.36-.62-.69-.75-1.52-.6-3.03-1.28-4.59-1.75-1.59-.47-1.39,1.08-1.41,1.72-.05,1.63-1.29,1.97-2.31,1.99-1.37.03-2.05-.99-2.1-2.42-.05-1.33.37-3.07-.98-3.78-2.33-1.22-4.88-2.04-7.35-2.99-.51-.2-.55.34-.6.62-.61,3.61-1.79,7.07-2.78,10.58-.24.87-.45,1.73-.95,2.48-.42.63.3.56.45.83,2.18,3.73,1.06,11.03-4.13,12.33-2.32.58-4.67.03-7.01.2-3.06.22-4.28,1.43-4.45,4.47-.07,1.27-.33,2.56-.73,3.77-.29.88-1.23,1.62-2.12,1.37-1.49-.42-2.44-1.56-2.58-3.19-.1-1.24.08-2.57-.34-3.69-.47-1.28-2.07-.79-3.13-1.17-5.65-2.03-4.77-7.13-1.28-10.57,1.32-1.3,2.83-2.35,4.47-3.23,1.2-.64.54-1.95.76-2.92.8-3.5,1.37-7.06,2.07-10.59.19-.94-.1-1.97.53-2.84.16-.22-.11-.46-.41-.46-.37,0-.83-.2-1.01.32-1.21,3.52-4.07,5.45-7.21,6.93-4.3,2.02-8.97,2.41-13.68,2.22-3.99-.16-7.06-2.23-7.43-5.31-.42-3.44,1.5-5.96,4.18-7.83,2.47-1.72,5.25-2.89,8.27-3.45.54-.1,1.56-.17.61-1.25-1.6-1.82-.54-3.65.26-5.39,1.41-3.06,2.74-6.17,4.38-9.11,3.22-5.76,6.98-11.16,13.59-13.57,3.13-1.14,6.45-1.84,9.93-2.04-1.43-1.96-2.78-3.84-4.16-5.7-1.6-2.16-3.25-4.29-4.85-6.45-.19-.25-.26-.53-.65-.61-.66-.13-.42-.7-.49-1.12-.08-.51.26-.7.67-.76,1.13-.15,1.3-.38.5-1.4-2.46-3.15-2.51-6.26-.36-8.92.02-.03.04-.06.05-.09.27-.73,2.53-.61.93-2.16-.74-.71-.64-2.07-1.89-2.41-.09-.03-.19-.19-.21-.3-.25-1.38.87-2.02,1.7-2.65.52-.4,1.46-.7,2.19.14,1.25,1.44,2.61,2.76,3.44,4.57.33.72,1.36.44,1.98-.29,2.29-2.67,5.01-4.58,8.71-4.72.5-.02,1.21-.09,1.26.58.04.62-.56.65-1.12.77-2.61.56-4.9,1.73-6.71,3.71-.36.4-.44.65.07,1.17,1.31,1.32,1.83,2.99,1.62,4.84,2.21-1.22,4.54-2.31,6.62-3.73,1.55-1.05,2.15-.21,2.99.77,3.37,3.96,6.76,7.89,10.36,12.08-.36-1.78,1.01-1.86,1.76-2.13,5.11-1.83,10.08-3.91,14.72-6.76,1.91-1.17.53-2.23.02-3.09-1.21-2.05-1.14-2.11.95-3.16,2.84-1.43,5.89-2.76,7.13-6.06,1.21-3.2,1.32-6.37-.5-9.87-.26,1.02-.41,1.71-.61,2.38-.2.69-.45,1.37-.67,2.06-.9,2.75-2.53,5.1-4.11,7.5-1.98,3-4.42,5.54-7.11,7.87-1.28,1.11-2.69,2.07-4,3.15-1.62,1.35-2.99,3-4.93,3.95-.85.42-1.58,1.18-2.63,1.04-.27-.04-.68-.25-.73-.45-.05-.21.2-.58.41-.75.29-.24.68-.37,1.04-.52,2.54-1.06.59-2.69.31-3.86-.79-3.31-1.37-6.64-1.86-9.99-.17-1.19-.75-2.33-.46-3.59.04-.19-.48-.74-.58-.7-.58.22-1.12.56-1.78.92,1.34.5,1.04,1.05.43,1.9-.85,1.19-1.15,2.59-.39,3.99.21.39.34.8-.03,1.03-2.33,1.46-.89,3.2-.38,4.84.43,1.36.95,2.69,1.39,4.05.06.2-.07.6-.24.7-.26.15-.48-.09-.67-.34-1.76-2.37-3.09-4.9-3.15-7.92,0-.14-.06-.32,0-.42,1.22-1.86.84-4.12,1.57-6.09.21-.57.69-1.04,1.08-1.61-.34-.05-.73-.04-1.06-.18-.26-.11-.53-.36-.62-.61-.17-.47.34-.33.54-.42,1.37-.62,2.53-1.38,2.56-3.09,0-.49.28-.97.82-.85.61.13.99.64.96,1.3-.02.43-.13.85-.27,1.74,1.32-1.93,1.31-3.47.46-5.08-.17-.32-.85-.75-.12-1.11.5-.25,1.17-.28,1.54.25,1.37,1.99,1.71,5.14-.8,7.14-.82.66.45,1.41.49,2.23.13,2.76,2.74,3.12,4.5,4.25.99.64,2-.32,3.01-.48,2.12-.33,4.17-1.14,6.29-1.45,3.79-.56,4.15-4.03,5.84-6.36.57-.78.85-1.76,1.4-2.56,1.64-2.38.54-4.72.08-7.13-.29-1.51-.69-2-2.44-1.99-2.41.02-4.05-2.48-4.3-5.39-.29-3.4-.92-6.79.25-10.17.24-.71-.6-.69-1.1-.71-.61-.02-1.11-.22-1.44-.72-.21-.32-.08-.66.14-.86.48-.43,1.06-.32,1.68-.3,1.11.03,2.14.59,3.37.08,1.92-.79,3.82.09,5.48.98,3.61,1.92,5.52,5.1,6.12,9.02.37,2.43-1.71,3.66-3.03,5.19-.81.93-2,1.49-3.09,2.14-1.08.65.29,1.76.25,2.74-.03.72.49,1.28,1.19,1.75,2.03,1.36,2.59,3.66,2.51,5.73-.09,2.36,1.5,3.64,2.49,5.27,2.36,3.88,3.95,7.97,4.87,12.41.57,2.75,1.12,5.46,1.18,8.26.09,3.99-.18,7.92-1.69,11.72-.35.88.39,2.17.6,3.28.86,4.34.81,8.68.03,13.02-.19,1.07-.36,2.13-.87,3.11-.13.25-.32.72.28.81,2.75.4,5.34,1.37,8.09,2.28.54-3.8.49-7.59.63-11.37.18-4.63.42-9.26.61-13.9.01-.33.18-.52.41-.46.22.05.56.31.57.48.12,4.95.24,9.91.11,14.87-.1,3.88-.21,7.75-.62,11.61-.26,2.39-2.28,1.77-3.7,2.09-1.49.34-3.12.14-4.35,1.3-.31.3-.54.08-.78-.2-.34-.39-.34-.72-.03-1.11.83-1.02,1.98-1.33,3.23-1.47.79-.09,1.58-.23,2.5-.37-2.01-.73-3.87-1.41-5.73-2.08-.64-.23-1.17-.04-1.51.5-1.8,2.88-3.91,5.5-6.37,7.87-3.44,3.31-7.68,5.01-12.25,6.14-3.74.93-7.49.68-11.3.5-3.69-.18-7.23-1.21-10.91-1.3-1.05-.03-2.09-.54-3.14-.8-.29-.07-.87-.08-.88-.04-.15.8-.34,1.62-.29,2.42.03.46.49.02.76.03,1.97.04,3.67,1.07,5.53,1.56,5.27,1.38,10.35,3.33,15.42,5.28,1.83.7,2.87-.57,4.02-1.32,4.18-2.72,8.41-5.37,12.79-7.78,4.05-2.24,8.01-4.63,12.01-6.96,1.72-1,3.39-2.13,5.19-2.95,1.54-.7,1.19-2.06,1.26-3.09.49-6.54.62-13.11.35-19.66-.2-4.69.12-9.34.24-14.01.17-6.36.89-12.67,1.66-18.98.94-7.73,2.17-15.4,5.2-22.67.04-.1.09-.19.15-.28.29-.42.86-1.14.37-1.3-.49-.16-1.44-.33-1.94.67-1.8,3.6-2.65,7.44-3.4,11.34-.73,3.81-1.46,7.61-1.65,11.5-.16,3.22-.61,6.41-.73,9.64-.17,4.32-.63,8.63-1.08,12.93-.05.44.28,1.42-.37,1.38-.91-.06-.48-1.18-.52-1.66-.32-4.62-.22-9.24.26-13.86.45-4.33.65-8.68,1.14-13,.43-3.77,1.17-7.5,2.2-11.17.68-2.43,1.39-4.82,2.78-6.96.27-.42.71-.73,1.02-1.04-6.47-1.16-12.99-2.33-19.51-3.53-.82-.15-2.26-.21-2.11-1.05.18-1.03,1.56-.49,2.33-.36,4.48.78,9.01,1.26,13.47,2.28,3.76.86,7.65,1.35,11.54,1.33,1.6,0,1.83,1.29,2.49,2.21l-.03.84c-1.29,1.6-1.61,3.58-2.24,5.46-1.39,4.16-2.05,8.49-2.72,12.78-.7,4.48-.81,9.05-1.36,13.56-.8,6.6-1,13.22-.94,19.84.07,7.55.4,15.11-.16,22.64-.22,3.02-.21,6.05-1.67,9.06-1.14,2.35-.8,5.41-1.05,8.16-.31,3.35-.46,6.71-.84,10.04-.35,3.15-.5,6.28-.5,9.45,0,4.44.09,8.91-.79,13.3-.18.91-.84,1.59-1.8,1.64-.8.04-1.45-.22-2.05-1.04-1.1-1.49-.88-3.11-.92-4.68-.15-5.54-.16-11.08-.24-16.63-.08-5.21-.2-10.43-.3-15.61-1.65.86-3.5,1.66-5.17,2.73-6.25,3.99-12.85,7.39-19.31,11.01-.57.32-1.41.61-1.56,1.09-.32,1.01-.39,2.13-.35,3.2.15,4.42-.28,8.82-.76,13.17-.72,6.56-.64,13.15-1.38,19.69-.18,1.62.15,3.65-2.01,4.48l-1.28-.04Zm23.05-87.41c-.36.5-.59.83-.84,1.15-1.75,2.22-3.63,4.22-6.45,5.19-5.13,1.75-9.3-1.06-13.69-2.71-3.02-1.13-5.25-4.37-9.19-3.09,1.51.76,3.15,1.33,4.33,2.64.46.51.53,1.02.26,1.37-.29.39-.83.11-1.21-.2-3.16-2.63-7.18-2.98-10.96-3.7-2.45-.47-5.08-.07-7.63,0-2.67.08-5.34.23-8.32.36,6.43,3.96,10.31,9.68,14.07,15.56,1.28,2,1.72,4.33,3.12,6.24.65.9.47,1.96.37,3.02-.2,2.06-.98,3.79-2.81,5.11,2.71.69,5.18,1.26,7.78,1.47,4.89.39,9.66.29,14.48-.85,9.32-2.2,15.25-10.18,16.84-18.52.82-4.3.32-8.54-.15-13.05Zm-58.42,1.78c-3.04.21-5.97.88-8.66,2.31-4.15,2.21-6.8,5.88-9.25,9.66-2.17,3.33-3.48,7.1-5.15,10.68-.54,1.15-1.65,2.33-.52,3.82,3.08,4.07,7.09,6.72,12.19,7.53,1.43.23,3.2.77,4.37-.58,2.2-2.55,4.33-5.18,6.03-8.09,1.45-2.48,2.76-5.05,4.11-7.58.25-.47.53-.9,1.13-.7.37.13.82.37.66.9-.23.79-.39,1.65-.82,2.33-.53.84-.22,1.1.53,1.41,4.66,1.92,9.75,1.77,14.57,2.92.63.15,1.08-.05.96-1.03-.39-3.36-1.92-6.33-3.66-9.04-2.55-3.99-5.23-7.98-9-11.07-2.2-1.8-4.42-3.49-7.5-3.47Zm43.2-14.17c.87.33,1.15.47,1.44.54.51.12.59.47.5.88-.1.45-.49.51-.84.4-2.69-.81-5.48-.84-8.24-.79-1.25.02-2.87-.54-3.82,1.02-2.96,4.87-1.29,9.36,4.17,11.37,2.34.86,4.61,1.89,6.89,2.9,3.28,1.44,6.63,1.72,9.51-.52,5.59-4.34,6.65-10.6,6.6-17.1-.03-3.49-.84-6.91-1.66-10.32-1-4.15-2.6-7.99-5.14-11.5-2.51,6.06-4.65,6.74-9.01,8.99.54,1.04,1.09,2.09,1.64,3.15.72-1.1,1.41-2.17,2.45-2.99.58-.46,1.12-.19,1.53.06.66.39-.14.82-.27.94-3.15,2.98-3.77,6.99-4.78,11.03,1.13-.42,2.14-.48,3.19-.2.49.13.63.44.65.8.02.43-.28.45-.71.5-1.19.15-2.37.47-4.1.84Zm-22.89,11.24c-.04-.93.21-1.96-.17-2.65-1.06-1.9-.36-6.05,1.44-7.27.11-.08.26-.1.39-.16,1.45-.6,2.64-.9.76-2.78-3.16-3.16-5.88-6.74-8.8-10.13-.19-.22-.32-.71-.8-.47-.93.46-1.94.82-2.75,1.44-3.92,2.99-8.67,4.64-12.55,7.77-1.66,1.34-3.09,1.95-.8,3.84.59.48.87,1.31,1.35,1.94,1.96,2.59,4.34,4.9,5.76,7.86.32.68.65,1.22,1.46.99,1.2-.35,2.38-.33,3.62-.35,3.72-.06,7.43-.21,11.11-.03Zm-20.01,55.08c2.39.03,4-.4,5.56-.88.69-.21,1.6-.35,1.84-1.32.48-1.87,1.05-3.73,1.48-5.61,1.35-5.87,2.6-11.76,4.02-17.62.3-1.24-.08-1.34-1.11-1.45-2.89-.32-5.75-.79-8.3-2.32-.85-.51-1.28-.1-1.58.61-.77,1.82-1.91,3.42-3.04,5.03-1.32,1.88-3.17,3.55-3.95,5.62-1.55,4.09-1.42,8.54-1.8,12.86-.06.66-.24,1.57.58,2.16,2.11,1.52,4.23,2.99,6.3,2.9Zm73.1-72.2c-.14,4.86-.3,8.35-.34,11.85-.04,3.22-.08,6.45.1,9.66.23,4.06-.11,8.11-.12,12.16,0,2-.31,4-.19,5.99.05.78-.08,1.33-.61,1.65-2.79,1.65-5.61,3.24-8.44,4.82-3.14,1.76-6.35,3.41-9.45,5.24-4.53,2.68-8.97,5.52-13.5,8.19-1.85,1.09-3.81,1.95-3.15,4.63.05.22.09.61.16.62.25.03.55-.03.77-.16,1.4-.83,2.75-1.73,4.16-2.53,4.15-2.34,8.35-4.6,12.49-6.96,4.74-2.71,9.53-5.35,14.11-8.3,2.42-1.56,5.95-2.35,5.89-6.28-.01-.61.02-1.22.09-1.82.47-3.94.64-7.91.53-11.86-.13-4.37-.22-8.74-.28-13.1-.15-11,.91-21.95,2.39-32.85.83-6.13,2.04-12.16,4.61-17.86.33-.73.61-1.64-.31-1.98-.95-.35-1.95.12-2.39,1.06-1.51,3.26-2.26,6.77-3.07,10.22-.9,3.84-1.42,7.79-1.88,11.71-.67,5.74-1.15,11.51-1.58,15.91Zm-78.84,72.3c-3.96.66-6.84,2.85-9.82,5.01,1.93.27,3.65.69,4.72,2.38.17.26.39.25.71.25,3.26-.07,6.52-.05,9.69-1.02,1.88-.58,3.78-1.13,5.04-2.76.54-.7.87-1.65.59-2.39-.22-.58-1.1.03-1.68.06-1.17.05-2.34.18-3.52.22-1.03.03-1.94-.56-3.07-.45.71.57,1.25,1.06,1.83,1.46.49.34.91.75.49,1.27-.37.45-.88.49-1.59.2-1.23-.5-1.85-1.73-3.05-2.18-1.11-.42-1.64-.95-.35-2.06Zm41.44-7.17c-.6-1.26.86-2.77-.78-3.49-2.91-1.28-5.86-2.47-8.86-3.51-3.91-1.36-7.87-2.56-11.83-3.76-.2-.06-.83-.86-.96.16-.11.8-1.02,1.71.08,2.34.77.44,1.76.52,2.62.84,2.91,1.07,5.81,2.18,8.71,3.28,3.59,1.36,7.31,2.39,11.02,4.15Zm8.54-68.83c-5.92,4.35-12.36,6.49-18.72,8.87,1.68,2.12,3.9,2.27,6.11.85,2.75-1.76,5.83-1.15,8.81-.61.71.13.87.03,1.08-.64.84-2.67,1.29-5.46,2.71-8.46Zm-77.93,58.72c2.14.69,3.92,1.72,4.68,3.88.2.55.49.46.87.45,4.38-.18,8.2-1.8,11.79-4.36-.76-.4-1.43-.75-2.18-1.15.06,1.27-.9,1.12-1.47.77-.64-.39-.96-1.28-1.58-1.75-.75-.58-.53-2.17-1.61-2.03-3.83.47-7.49,1.52-10.49,4.19Zm56.11-46.34c.6.25,1.51.05,1.54.86.03.79-.82.63-1.37.78-1.01.27-1.95.57-1.95,1.94,0,1.15.59,1.57,1.59,1.84.43.11,1.16.6,1.12.73-.2.66-.9.37-1.41.49-.1.02-.21.04-.36.06.28.91.86,1.61,1.78,1.6,1.8-.03,3.52-.6,5.24-1.11.36-.11.4-.37.33-.75-.35-1.87-.48-3.74.21-5.58.07-.19.1-.5,0-.64-1.14-1.46-5.36-1.62-6.72-.22Zm-19.78-12.82c1.22-1.35.81-3.12-.86-3.69-1.53-.53-3.02-.35-4.52.26-1.67.68-3.07,1.53-3.47,3.44-.43,2.05.25,3.69,1.73,5.1.35.33.62.36,1.01.11.79-.51,1.6-.99,2.42-1.47,2.81-1.66,2.83-1.67,1.15-4.57-.33-.58-.33-1.05.2-1.34.55-.3.99.11,1.31.55.36.52.69,1.06,1.03,1.61Zm67.82,52.13c-.86.51-2.12.76-2.02,2.05.21,2.75.17,5.5.2,8.25.06,5.34.29,10.68.34,16.02,0,.94.29,1.72.54,2.57.02-9.63.59-19.24.95-28.89Zm-35.78,41.8c.11,0,.23,0,.34,0,.11-.6.31-1.2.3-1.8-.12-6.8.02-13.59.67-20.36.15-1.63-1.2-1.11-1.77-1.25-.92-.22-.54.83-.52,1.22.34,5.5.8,10.99,1.12,16.5.11,1.89-.09,3.8-.14,5.7Zm5.51-101.93c-2.09,1.01-4.04,1.34-5.99,1.7-2.49.46-2.54.69-1.22,2.94.4.68.76,1.48,1.6.78,1.91-1.59,3.92-3.12,5.6-5.42Zm-75.42,68.75c-.32.1-.85-.3-1.02.33-.03.1.09.35.17.36,3.35.52,4.14,3,4.51,5.76.09.66.55.63.94.7.21.04.57.11.67-.38.57-2.92-2.3-6.66-5.27-6.76Zm18.03,23.05c3.45.26,4.82,2.25,5.19,5.17.02.17.15.43.27.46.4.09.36-.26.34-.48-.1-1-.13-2.01-.36-2.98-.5-2.05-3.59-3.4-5.44-2.17Zm15.01-89.31c-1.07-1.36-2.07-2.64-3.08-3.93-.17.14-.33.3-.52.4-.18.1-.26.13-.11.35.78,1.11,1.55,2.24,2.3,3.37.19.28.35.41.67.21.19-.12.4-.22.73-.41Zm29.2,1.51c.9-.43,1.65-.96,2.27-1.67-.98-.66-1.96-1.33-3.08-2.09.3,1.38.55,2.54.82,3.76Z"/>
    <path class="cls-1" d="m139.18,81.99c-.1,1.78-1.75,3.28-3.6,3.29-2.01,0-3.86-1.66-3.84-3.66.01-1.21-.88-1.43-1.58-1.49-.62-.05-1.49-1.32-2.09.32-.57,1.55-2.27,1.51-3.65,1.49-1.04-.01-1.31-.98-1.71-1.84-.79-1.71-2.35-.66-3.38-.44-4.06.85-6.42,5.18-5.17,9.15.24.76.72,1.45,1.11,2.16.32.58.05.7-.47.63-2.75-.35-3.36.3-2.94,3.23.06.39.26.86-.1,1.05-.2.1-.69-.24-.98-.47-1.39-1.14-.98-3.92.85-5.53.49-.43.57-.75.45-1.4-.79-4.26,2.11-10.91,8.59-10.72,1.04.03,2.17-.27,2.99-1.08.64-.63,1.38-.98,2.3-1.02.65-.03,1.18-.32,1.53-.93.28-.49.68-1.31,1.28-.95.62.38.02,1.16-.27,1.63-.91,1.49-.45,2.49,1.35,2.72.11.01.23,0,.31.05,1.4.84,2.57,1.09,4.31.22,2.25-1.12,4.84,1.11,4.7,3.6Zm-4.32,1.59c1.22-.06,2.53-.26,2.59-1.7.06-1.23-.81-2.2-2.19-2.09-1.11.08-1.84.88-1.83,2.03,0,.87.25,1.72,1.43,1.76Zm-8.23-5.02c.12-.79.09-1.53-.96-1.4-.95.12-1.35.97-1.49,1.73-.08.45-.09,1.41.85,1.38,1.08-.03,1.86-.46,1.59-1.71Z"/>
    <path class="cls-1" d="m130.16,63.38c1.37.34,3.03.37,4.41,1.46.71.56,1.51-.33,2.32-.28.54.03,1.22-.1,1.35.5.13.59-.46.88-1.03,1-3.11.63-5.23,2.54-6.83,5.14-.26.42-.83,1.12-1.19.76-1.85-1.87-3.08.32-4.56.6-1.16.22-2.38.71-3.25-.24-.79-.86-.12-1.86.34-2.78,1.8-3.52,5.4-6.25,8.43-6.16Z"/>
    <path class="cls-1" d="m117.89,82.9c2.19.51,4.42.72,6.33,1.91,1.75,1.1,1.4,3.33-.74,4.52-1.81,1-3.73,1-5.39-.2-1.64-1.19-2.16-3.76-1.39-5.57.23-.54.79-.52,1.19-.65Z"/>
    <path class="cls-1" d="m142.05,72.37c2.45.06,4.38,2.02,4.31,4.35-.05,1.66-1.81,3.7-3.18,3.68-3.39-.04-5.43-1.54-5.34-3.92.07-1.8,2.48-4.16,4.21-4.11Zm2.36,5.48c.97-1.66.21-2.8-.86-3.7-.82-.68-1.91-.69-2.81-.02-.86.64-1.61,1.41-1.38,2.81.67-1.29,1.72-1.45,2.84-1.38,1.34.08,1.82,1.07,2.21,2.29Z"/>
    <path class="cls-1" d="m149.41,89.25c.06-.6.09-1.14.17-1.68.02-.14.2-.38.29-.37.39.04.58.33.72.67.58,1.51.33,3.04-.16,4.47-.96,2.75-2.12,5.46-4.89,6.95-1.95,1.05-4.16,1.22-6.33,1.44-.36.04-.96-.09-.98-.73-.02-.63.26-.92.93-1,2-.24,4.03-.43,5.82-1.43,2.18-1.23,2.81-3.51,3.73-5.57.4-.89.82-1.8.71-2.76Z"/>
    <path class="cls-1" d="m121.3,99.01c.89-.65,1.42-2.77,2.88-.56.2.31,1.85-.47,2.28-1.43.22-.5.13-1.27.94-1.01.79.25.96.98.62,1.98.97-1.24,1-2.45.96-3.69-.01-.32-.14-.77.42-.79.46-.02.9,0,1.14.54,1.21,2.71-.58,5.33-3.56,5.38-.93.02-1.77.67-2.8.81-1.38.19-1.72-1.26-2.87-1.24Z"/>
    <path class="cls-1" d="m140.4,92.51c.07,1.87-.57,3.49-1.7,4.94-.2.26-.37.69-.81.43-.37-.22-.24-.56-.12-.93.76-2.37,1.37-4.72-.09-7.11-.38-.62-.92-.94-1.42-1.35-.34-.27-.97-.36-.58-.96.32-.5.83-.79,1.45-.39,1.95,1.28,3.25,2.95,3.28,5.36Z"/>
    <path class="cls-1" d="m174.87,81.96c1.6.15,2.2,1.19,2.26,2.49.06,1.37-1.86,3.17-3.2,2.99-1.84-.24-1.98-1.92-2.03-3.16-.06-1.8,1.5-2.17,2.97-2.32Zm-.19,1.52c-.63-.02-1.19.22-1.06.76.11.48.59,1.12,1.02,1.23.38.1.85-.5.82-1.11-.03-.53-.19-.95-.78-.89Z"/>
    <path class="cls-1" d="m169.71,103.09c.23-1.52,1.03-2.46,2.34-2.58,1.84-.17,2.72,1.23,2.73,2.71.02,1.52-1.28,2.38-2.8,2.27-1.45-.1-2.06-1.21-2.28-2.4Zm3.31-.02c-.23-.32-.19-.86-.81-.92-.67-.07-.76.47-.79.87-.02.23-.13.78.55.77.54-.01.86-.16,1.06-.72Z"/>
    <path class="cls-1" d="m173.72,126.29c-1.78-.18-2.07-1.44-2.09-2.64-.01-1.24.68-2.27,2.07-2.31,1.69-.06,2.69,1.01,2.67,2.55-.02,1.58-1.4,2.09-2.66,2.41Zm1.11-2.48c-.29-.31-.12-1.04-.73-1.09-.53-.05-1.02.27-1.06.9-.03.39.02.93.49.86.43-.07,1.12.13,1.3-.67Z"/>
    <path class="cls-1" d="m145.57,65.41c-.44.91-1.31.77-2.04.91-1.12.23-2.29.28-3.15,1.17-.31.32-.66.75-1.13.33-.47-.41-.34-.93-.03-1.42,1.1-1.69,4.68-2.27,6.36-1Z"/>
    <path class="cls-1" d="m120.4,98.74c-.41-.05-.84.05-.91-.34-.04-.22.12-.58.31-.73,1.26-.99,1.31-2.36,1.2-3.76-.03-.43-.04-.79.4-.94.52-.18.59.29.78.61,1.03,1.65.33,3.12-.51,4.55-.27.46-.77.73-1.27.61Z"/>
    <path class="cls-1" d="m115.4,96.85c.01.31.12.68-.4.66-.74-.03-1.53-.08-1.92-.8-.5-.92-.82-1.9-.36-2.94.22-.5.21-1.31,1.07-1.15.76.15.67.85.65,1.41-.04,1.08-.11,2.16.99,2.85,0,0-.02-.02-.02-.02Z"/>
    <path class="cls-1" d="m145.79,175.39c0-1.29,2.49-3.74,3.75-3.67.37.02.57.3.29.66-.92,1.2-1.86,2.39-2.8,3.58-.18.23-.43.38-.74.21-.32-.18-.6-.39-.5-.78Z"/>
    <path class="cls-1" d="m147.2,65.97c1,.02,1.81,0,1.81.82,0,.77-.76.67-1.37.75-.93.13-1.84.4-2.74.65-.42.12-.66-.03-.92-.31-.36-.4-.06-.63.19-.88.94-.93,2.18-.96,3.03-1.04Z"/>
    <path class="cls-1" d="m117.63,97.28c.58-.67.96-1.45,1.02-2.33.03-.45.26-.61.64-.66.42-.06.76.22.82.52.26,1.34,0,2.63-1.22,3.39-.79.49-1.42.14-1.26-.94v.02Z"/>
    <path class="cls-1" d="m117.64,97.26c-.96.99-1.59.23-2.24-.41,0,0,.02.02.02.02-.03-.42-.08-.83-.09-1.25,0-.53.19-1.12.68-1.22.63-.14.8.47.97.99.21.63-.07,1.43.65,1.89,0,0,.02-.02.02-.02Z"/>
    <path class="cls-1" d="m101.39,191c1.2,1.01,2.93,1.52,3.85,3.04.22.36.26.75-.21,1.06-.45.29-.84.18-1.15-.1-1.02-.9-2.04-1.8-3.31-2.38-.22-.1-.81-.28-.48-.86.27-.47.65-.72,1.31-.78Z"/>
    <path class="cls-1" d="m89.37,172.16c-.17.77-.39,1.11-1.16.87-1.49-.45-1.98-1.89-2.95-2.84-.53-.53-.01-1.34.91-1.38.65-.03,3.23,2.9,3.2,3.35Z"/>
    <path class="cls-1" d="m84.97,173.56c-1.1-.38-1.89-1.5-2.77-2.48-.2-.23-.05-.68.27-.93.37-.28.93-.45,1.17-.15.73.91,1.99,1.28,2.41,2.54.31.93-.01,1.05-1.08,1.02Z"/>
  </g>
  <g>
    <path class="cls-1" d="m61.38,58.88c.3-.09,1.67-.46,1.92-.47.08.02.16.04.22.11.08.08.04.21,0,.31-.11.35-.08.52.02.86.69,2.69,1.17,5.14,1.33,7.91.03.54.15,2.56-.18,2.87-.32.3-3.11.85-3.5.43-.09-.1-.1-.28-.11-.43.15-3.48-.24-7.04-1.44-10.32-.09-.23-.2-.48-.04-.62.22-.2,1.42-.57,1.78-.65Zm5.58-4.98c1.12.06,3.3.51,4.42.79.84.23,4.4,1.21,4.85,1.7.36.39.05,1.27-.18,1.96-.14.39-.52,1.33-.8,1.6-.22.2-.65.01-1.05-.15-2.19-.97-5.64-2.07-8-2.41-.2,0-.41-.03-.55-.18-.34-.37.23-2.79.56-3.1.2-.19.48-.23.76-.2Z"/>
    <path class="cls-1" d="m87.06,43.44c.82-.48,1.66-1.09,1.78-1.16.36-.21.54-.03.89.55l.56.95c.64,1.09.83,1.43.39,1.69-.54.32-1.21.64-1.82,1l-6.37,3.78c-.61.36-1.22.81-1.74,1.11-.47.28-.69-.1-1.32-1.15l-.54-.91c-.35-.59-.45-.86-.09-1.07.19-.12,1.02-.5,1.89-1.01l6.37-3.78Z"/>
    <path class="cls-1" d="m104.2,30.6c.67-.24,1.61-.62,2.04-.77.48-.17,1.23.22,1.67.46l.24.11c.48.25,1.31.66,1.42.98.05.13.03.57.06.79.04.38.09.75.13,1.12.7,4.93-.74,8.8-3.97,12.49-.53.58-2.14,2.29-2.79,2.53-.48.17-1.11-.39-1.46-.68-.31-.26-1.18-1-1.31-1.36-.08-.24.13-.39.31-.5,1.93-1.22,4.05-3.73,4.98-5.84.92-2.08.91-4.86.59-5.77-.14-.39-.57-.29-.89-.17l-6.92,2.45c-.91.32-1.81.67-2.75,1-.8.28-.88.21-1.25-.85l-.38-1.08c-.35-1-.34-1.17.31-1.4,1-.35,1.99-.66,2.99-1.01l6.98-2.47Zm3.06-3.69c.11-.04.26.05.38.11.42.15,2.34.95,2.46,1.3.13.37-.56,1.59-.82,1.68-.11.04-.21-.03-.3-.09-.82-.44-1.57-.84-2.4-1.2-.11-.03-.23-.09-.27-.2-.11-.3.68-1.51.95-1.6Zm4.34-1.1c.15.41-.57,1.62-.81,1.7-.11.04-.23-.04-.32-.08-.79-.45-1.54-.82-2.38-1.21-.11-.03-.23-.09-.27-.2-.11-.3.68-1.51.92-1.6.22-.08,2.74,1.05,2.86,1.38Z"/>
    <path class="cls-1" d="m135.4,29.37c1.05-.1,2.15-.24,3.2-.34.64-.06.71.14.8,1.2l.08.87c.1,1.1-.04,1.34-.61,1.4-1.05.1-2.11.15-3.16.25l-2.45.23c-.53.05-.63.4-.66.87-.17,1.95-.82,4.16-2.06,5.71-1.25,1.5-3.93,3.23-4.64,3.29-.67.06-2.71-2.04-2.75-2.49-.02-.27.36-.38.69-.5,2.7-1.03,4.34-2.2,4.97-5.19.03-.14.13-.61.12-.75-.03-.32-.28-.51-.57-.48l-3.92.36c-.94.09-2.4.29-2.99.35-.57.05-.74-.28-.84-1.35l-.08-.85c-.11-1.17.05-1.25.59-1.3.64-.06,2-.12,3-.21l11.26-1.04Zm-3.83-5.51c1.08-.1,2.12-.24,3.18-.34.64-.06.73.16.83,1.22l.1,1.05c.08.87.08,1.12-.65,1.19-1.03.09-2.04.14-3.05.23l-5.06.47c-1.03.09-2.06.24-3.09.33-.69.06-.75-.14-.86-1.31l-.07-.8c-.09-.98-.05-1.29.59-1.35.96-.09,1.9-.13,2.82-.21l5.27-.49Z"/>
    <path class="cls-1" d="m154.38,42.29c-.08.64-.61.62-1.11.56l-.94-.12c-1-.13-1.08-.27-.98-1.03.09-.71.22-1.39.31-2.09l.49-3.9c.02-.16-.05-.33-.26-.36-.16-.02-.36.09-.61.23-.5.29-2.92,1.51-3.36,1.46-.46-.06-1.94-1.91-1.87-2.44.03-.23.27-.31.75-.44,3.73-1.06,7.51-3.33,9.94-6.29.19-.23.33-.4.49-.38.34.04,1.7,1.28,2.19,1.78.19.19.32.41.3.57-.02.18-.19.23-.35.23-.45.06-.57.14-.89.45-.71.68-1.46,1.32-2.23,1.9-.59.44-.69.54-.79,1.31l-1.07,8.56Z"/>
    <path class="cls-1" d="m177.18,36.35c.9.29,1.91.52,2.05.56.4.13.38.39.18,1.02l-.34,1.05c-.39,1.2-.52,1.57-1.01,1.41-.6-.19-1.28-.48-1.96-.7l-7.05-2.27c-.68-.22-1.42-.38-1.99-.56-.52-.17-.39-.58-.01-1.74l.32-1.01c.21-.66.34-.9.74-.78.22.07,1.05.43,2.01.74l7.05,2.27Z"/>
    <path class="cls-1" d="m187.57,51.1c-.37.64-.66,1.29-1.02,1.93-.29.52-.62.44-1.08.18l-.78-.44c-.8-.46-1.06-.6-.88-1.06.05-.13.05-.26-.09-.34l-.4-.23c-.28-.16-.39.04-.46.16-.04.06-.04.11-.07.17-.27.48-.54.38-1.17.02l-1-.57c-.58-.33-.78-.5-.5-.97.34-.6.74-1.2,1.09-1.82l.95-1.66c.3-.52.55-1.06.83-1.54.49-.86,1.05-.86,1.84-.4.48.27.95.57,1.45.85l.82.47c.48.27.97.53,1.45.8.82.47,1.1.95.61,1.8-.3.52-.62,1-.91,1.5l-.66,1.16Zm-3.17-2.6c-.11.2-.04.48.16.6l.22.13c.2.11.48.04.6-.16l.38-.66c.12-.22.05-.5-.15-.62l-.22-.12c-.22-.12-.47-.06-.61.18l-.38.66Zm3.3-5.93l1.08.62c.58.33,1.18.62,1.6.86.56.32.51.5.22,1l-.5.88c-.32.56-.46.67-1.02.35-.46-.26-.96-.6-1.54-.93l-1.08-.62c-.58-.33-1.12-.59-1.58-.85-.56-.32-.54-.49-.22-1.05l.5-.88c.28-.5.42-.64.97-.32.42.24.98.61,1.56.94Zm1.53-2.73l1.06.6c.54.31,1.08.56,1.6.86.56.32.54.49.26.99l-.49.86c-.31.54-.43.66-.99.34-.46-.26-1-.62-1.58-.95l-1.06-.6c-.58-.33-1.16-.61-1.62-.87-.56-.32-.52-.48-.21-1.02l.49-.86c.28-.5.42-.6.98-.29.52.3,1.02.63,1.56.94Zm-.16-.88c-.62-.35-1.28-.68-1.92-1.04-.6-.34-.55-.52-.2-1.14l.42-.74c.34-.6.46-.72,1.04-.39.64.36,1.25.77,1.9,1.13l1.86,1.06c.64.36,1.3.69,1.94,1.05.48.27.57.43.3.91l-.3.52c-.18.32-.33.63-.17.72.22.12,1.22-.15,1.5-.23,1.86-.48,3.64-1.23,5.28-2.26.25-.15.34-.23.58-.09.28.16,1.05,1.05,1.31,1.33.6.66.9,1.02.75,1.28-.07.12-.16.15-.28.16-.12.01-.21.04-.28.16-.07.12,0,.56.04.82,0,.08,0,.13.01.17.13,1.9.7,3.79,1.39,5.59.05.14.1.29,0,.45-.29.52-2.44.89-2.78.69-.56-.32-1.3-4.87-1.41-5.7-.02-.2-.08-.55-.3-.68-.26-.15-.84.13-1.08.23-1.31.53-2.67.92-4.05,1.16-.27.06-.95.18-1.19.04-.44-.25-.77-2.13-.64-2.69.05-.13.06-.2-.1-.35-.16-.14-.49-.36-1.8-1.11l-1.86-1.06Zm11.04,15.69c.08.31.23.76.1.98-.11.2-.37.08-.52,0-.08-.05-.19-.13-.25-.17-.1-.06-.41.03-.55.03-3.29.53-6.8.36-10.07-.21-.25-.03-.67-.12-.89-.24-.54-.31-.55-2.33-.31-2.75.12-.22.39-.17,1.12-.02,2.97.58,7.23.73,10.18.06.13-.03.33-.07.43-.02.16.09.64,1.9.76,2.34Zm-7.79-20.29l1.08.62c.58.33,1.16.61,1.6.86.56.32.53.51.24,1.01l-.47.82c-.31.54-.46.67-1.02.35-.44-.25-1-.62-1.55-.94l-1.08-.62c-.56-.32-1.16-.61-1.6-.86-.56-.32-.53-.51-.22-1.05l.47-.82c.28-.5.44-.62,1-.31.44.25.98.61,1.55.94Zm7.89,16.25c.1.38.23.61.09.87-.16.28-.5.09-.7-.03l-.06-.03c-.2-.11-.25-.12-.75-.03-2.55.43-5.31.55-7.88.3-.35-.04-.79-.05-1.09-.22-.48-.27-.62-2.31-.44-2.61.1-.18.37-.13.54-.12,2.87.44,6.25.28,9.08-.41.09-.03.27-.06.35-.01.28.16.74,1.85.86,2.29Zm-8.6-5.25c2.18.13,4.69-.19,6.79-.76.12-.03.33-.07.43-.02.26.15.8,1.7.94,2.07.07.2.24.56.11.78-.12.22-.44.04-.56-.03-.25-.12-.38-.08-.68-.02-1.74.41-4.28.73-6.08.72-.13,0-.19,0-.29,0-.39-.01-.92-.02-1.08-.11-.36-.21-.62-2.16-.42-2.52.1-.18.32-.14.83-.11Z"/>
    <path class="cls-1" d="m218.06,58.15c-.26.26-.22.65.04.91.35.34.71.62,1.05.96.28.27.17.45-.15.78l-.93.96c-.42.43-.58.53-.86.26-.33-.32-.63-.67-.96-1-.1-.1-.26-.26-.39-.12-.21.21-.19,2.8-.17,3.24.02.31.02.44-.11.57-.32.33-2.07.68-2.42.34-.17-.16-.14-.45-.08-.81.03-.23.06-.52-.06-.63-.13-.13-.29,0-.39.1-.56.58-1.07,1.2-1.63,1.78-.4.41-.6.28-1.09-.2l-.83-.8c-.43-.42-.51-.63-.13-1.02.5-.51,1.06-.99,1.56-1.5.06-.07.24-.25.12-.36-.1-.1-.37.05-.55.14-.4.18-2.17.97-2.48.67-.12-.11-.22-.5-.25-.66-.02-.11-.07-.29-.15-.37-.17-.16-.34-.04-.47.09l-.38.4c-.24.25-.24.67.01.91l2.46,2.39c.64.63,1.33,1.2,1.98,1.83.4.38.24.58-.15.98-.05.05-.18.18-.11.25.07.06.15.01.36-.1,2.2-1.04,5.29-3.58,7-5.35l2.31-2.37c.56-.58,1.12-1.19,1.7-1.78.72-.74,1.22-.33,1.89.14.99.67,3.08,1.98,4.19,2.29.13.03.26.06.38.17.21.21.11,1.04.02,1.79-.03.29-.07.57-.09.78-.01.28-.04.8-.23,1-.11.12-.34.09-.46-.03-.05-.05-.1-.13-.13-.19-.1-.13-.22-.34-.31-.43-.12-.11-.3-.19-.44-.27-1-.52-1.95-1.13-2.87-1.77-.64-.5-.66-.54-1.27.08l-.79.81c-.21.21-.2.57.01.78l1.42,1.38c.56.55,1.17,1.07,1.73,1.62.33.32.25.53-.04.83l-1.06,1.09c-.58.59-.72.74-1.13.34-.25-.24-.59-.22-.8,0l-4.43,4.55c-.8.82-1.54,1.68-2.34,2.5-.43.44-.65.33-1.14-.15l-.99-.96c-.46-.45-.56-.64-.15-1.07.8-.82,1.64-1.62,2.44-2.44l4.46-4.58c.22-.23.22-.56-.01-.78l-.08-.08c-.45-.43-.86,0-1.02.16-1.27,1.3-4.86,4.2-7.46,5.35-.47.22-.78.37-1.06.09-.33-.32-.61-1.59-.65-2.07,0-.03-.03-.1-.07-.13-.07-.06-.15-.08-.23-.03-.24.12-.39,0-.59-.19-.64-.62-1.24-1.27-1.88-1.89l-2.54-2.47c-.31-.3-.63-.04-.75.08-.24.21-.49.04-.85-.31l-.89-.87c-.46-.45-.58-.63-.24-.97.82-.84,1.67-1.65,2.49-2.49l9.56-9.82c.48-.49.98-1.01,1.3-1.4.03-.06.1-.13.14-.18.19-.2.34-.09.49.06.4.39,1.15,1.22,1.55,1.64.17.16.5.48.27.71-.1.1-.23.07-.36.07-.2,0-.36.1-.52.23-.21.18-1.45,1.45-1.73,1.75l-6,6.16c-.1.1-.18.18-.08.28.17.16,3.92-1.19,4.21-1.49.24-.25.09-.46-.11-.65-.13-.13-.33-.29-.51-.46-.3-.29-.19-.47.26-.93l.77-.79c.42-.43.61-.56.91-.27.31.3.59.64.91.95l.18.18c.2.19.46.38.73.1l.13-.13c.1-.1.14-.25.01-.37-.05-.05-.12-.08-.18-.11-.23-.13-.77-.43-.95-.6-.23-.23-.05-.47.38-1.18.29-.46.65-1.07,1.11-1.93.06-.13.13-.29.22-.39.3-.31,1.54.5,1.62.58.25.24-.06.72-.56,1.7-.06.13-.21.34-.07.47.1.1.28-.05.48-.27l.34-.35c.5-.51.9-1.02,1.08-1.2.18-.18.34-.18.52,0,.26.26,1.37,1.56,1.67,1.91.12.15.25.34.09.5-.15.15-.29.1-.47.09-.24-.05-.47.15-1.01.71l-2.29,2.36Zm.85-.68c.92-.48,1.97-1.1,2.82-1.71.15-.11.34-.28.52-.1.07.06.73,1.36.87,1.58.07.13.25.47.11.62-.06.07-.23,0-.29-.03-.36-.16-.36-.09-1,.31-.39.23-1.76.98-2.2,1.2-.21.12-.42.2-.62,0-.23-.23-.9-1.32-.62-1.6.05-.05.27-.18.42-.27Z"/>
  </g>
</svg>