<?xml version="1.0" encoding="UTF-8"?>
<svg id="_レイヤー_1" data-name="レイヤー 1" xmlns="http://www.w3.org/2000/svg" viewBox="0 0 118 118">
  <defs>
    <style>
      .cls-1 {
        fill: #fff;
      }

      .cls-2 {
        fill: #768a3e;
      }
    </style>
  </defs>
  <ellipse class="cls-2" cx="59" cy="59" rx="57.99" ry="58"/>
  <g>
    <path class="cls-1" d="m59.02,104.61c-.91-.43-.77-1.28-.79-2.03-.08-2.99-.07-5.98-.21-8.96-.13-2.55-.3-5.09-.27-7.65,0-.27-.17-.29-.33-.35-.72-.28-1.42-.6-2.16-.82-.75-.22-.65.51-.66.81-.02.77-.61.93-1.09.94-.64.02-.96-.46-.99-1.14-.02-.62.18-1.45-.46-1.78-1.1-.58-2.3-.96-3.46-1.41-.24-.09-.26.16-.28.29-.29,1.7-.84,3.33-1.31,4.98-.12.41-.21.82-.45,1.17-.2.3.14.26.21.39,1.03,1.75.5,5.2-1.95,5.81-1.09.27-2.2.02-3.3.1-1.44.11-2.01.67-2.09,2.11-.03.6-.16,1.21-.34,1.78-.14.42-.58.76-1,.64-.7-.2-1.15-.73-1.21-1.5-.05-.58.04-1.21-.16-1.74-.22-.6-.97-.37-1.47-.55-2.66-.96-2.24-3.36-.6-4.98.62-.61,1.33-1.1,2.11-1.52.56-.3.25-.92.36-1.38.38-1.65.64-3.32.98-4.98.09-.44-.05-.93.25-1.34.08-.1-.05-.22-.19-.22-.17,0-.39-.1-.47.15-.57,1.66-1.92,2.57-3.4,3.26-2.03.95-4.22,1.13-6.44,1.05-1.88-.07-3.32-1.05-3.5-2.5-.2-1.62.71-2.81,1.97-3.69,1.16-.81,2.47-1.36,3.89-1.62.26-.05.73-.08.29-.59-.75-.86-.25-1.72.12-2.54.66-1.44,1.29-2.91,2.06-4.29,1.52-2.71,3.29-5.26,6.4-6.39,1.47-.54,3.04-.87,4.68-.96-.67-.92-1.31-1.81-1.96-2.68-.76-1.02-1.53-2.02-2.28-3.04-.09-.12-.12-.25-.3-.29-.31-.06-.2-.33-.23-.53-.04-.24.12-.33.32-.36.53-.07.61-.18.24-.66-1.16-1.48-1.18-2.95-.17-4.2.01-.01.02-.03.02-.04.13-.35,1.19-.29.44-1.01-.35-.34-.3-.97-.89-1.14-.04-.01-.09-.09-.1-.14-.12-.65.41-.95.8-1.25.25-.19.69-.33,1.03.07.59.68,1.23,1.3,1.62,2.15.15.34.64.21.93-.13,1.08-1.26,2.36-2.16,4.1-2.22.24,0,.57-.04.59.27.02.29-.26.3-.53.36-1.23.26-2.31.81-3.16,1.75-.17.19-.21.31.04.55.61.62.86,1.41.76,2.28,1.04-.58,2.14-1.09,3.12-1.76.73-.5,1.01-.1,1.41.36,1.58,1.86,3.18,3.71,4.88,5.69-.17-.84.48-.88.83-1,2.41-.86,4.74-1.84,6.93-3.18.9-.55.25-1.05.01-1.45-.57-.97-.53-.99.45-1.49,1.34-.67,2.77-1.3,3.36-2.85.57-1.51.62-3-.23-4.65-.12.48-.19.8-.29,1.12-.1.33-.21.65-.32.97-.43,1.29-1.19,2.4-1.94,3.53-.93,1.41-2.08,2.61-3.35,3.71-.6.52-1.27.97-1.88,1.49-.76.63-1.41,1.41-2.32,1.86-.4.2-.74.56-1.24.49-.13-.02-.32-.12-.34-.21-.03-.1.09-.27.19-.35.14-.11.32-.17.49-.24,1.2-.5.28-1.27.15-1.82-.37-1.56-.64-3.13-.88-4.7-.08-.56-.35-1.1-.22-1.69.02-.09-.23-.35-.27-.33-.27.1-.53.26-.84.43.63.23.49.49.2.9-.4.56-.54,1.22-.19,1.88.1.18.16.37-.02.48-1.1.69-.42,1.51-.18,2.28.2.64.45,1.27.65,1.91.03.09-.03.28-.11.33-.12.07-.22-.04-.31-.16-.83-1.12-1.46-2.31-1.48-3.73,0-.07-.03-.15,0-.2.58-.88.4-1.94.74-2.87.1-.27.32-.49.51-.76-.16-.02-.34-.02-.5-.09-.12-.05-.25-.17-.29-.29-.08-.22.16-.16.26-.2.65-.29,1.19-.65,1.2-1.45,0-.23.13-.46.39-.4.29.06.47.3.45.61,0,.2-.06.4-.13.82.62-.91.62-1.63.22-2.39-.08-.15-.4-.35-.06-.52.23-.12.55-.13.72.12.65.94.8,2.42-.37,3.36-.39.31.21.67.23,1.05.06,1.3,1.29,1.47,2.12,2,.47.3.94-.15,1.42-.23,1-.16,1.96-.54,2.96-.68,1.78-.26,1.96-1.9,2.75-3,.27-.37.4-.83.66-1.2.77-1.12.26-2.22.04-3.36-.14-.71-.32-.94-1.15-.94-1.13,0-1.91-1.17-2.02-2.54-.14-1.6-.43-3.2.12-4.79.12-.33-.28-.32-.52-.33-.29-.01-.52-.1-.68-.34-.1-.15-.04-.31.07-.41.22-.2.5-.15.79-.14.52.01,1.01.28,1.59.04.91-.37,1.8.04,2.58.46,1.7.9,2.6,2.4,2.88,4.25.18,1.15-.8,1.72-1.43,2.44-.38.44-.94.7-1.46,1.01-.51.31.14.83.12,1.29-.02.34.23.6.56.82.96.64,1.22,1.72,1.18,2.7-.04,1.11.71,1.71,1.17,2.48,1.11,1.83,1.86,3.75,2.29,5.84.27,1.29.53,2.57.56,3.89.04,1.88-.08,3.73-.8,5.52-.16.41.18,1.02.28,1.54.4,2.04.38,4.09.01,6.13-.09.5-.17,1-.41,1.46-.06.12-.15.34.13.38,1.3.19,2.51.64,3.81,1.07.25-1.79.23-3.57.3-5.35.08-2.18.2-4.36.29-6.54,0-.15.08-.24.19-.22.1.02.26.15.27.23.06,2.33.11,4.66.05,7-.05,1.83-.1,3.65-.29,5.47-.12,1.13-1.08.83-1.74.99-.7.16-1.47.07-2.05.61-.15.14-.25.04-.37-.09-.16-.18-.16-.34-.01-.52.39-.48.93-.63,1.52-.69.37-.04.74-.11,1.18-.17-.95-.34-1.82-.66-2.7-.98-.3-.11-.55-.02-.71.24-.85,1.35-1.84,2.59-3,3.71-1.62,1.56-3.62,2.36-5.76,2.89-1.76.44-3.53.32-5.32.23-1.74-.09-3.4-.57-5.14-.61-.5-.01-.98-.25-1.48-.37-.14-.03-.41-.04-.41-.02-.07.38-.16.76-.14,1.14.01.22.23.01.36.01.93.02,1.73.51,2.6.73,2.48.65,4.87,1.57,7.26,2.49.86.33,1.35-.27,1.89-.62,1.97-1.28,3.96-2.53,6.02-3.67,1.91-1.05,3.77-2.18,5.66-3.28.81-.47,1.59-1,2.44-1.39.72-.33.56-.97.6-1.46.23-3.08.29-6.17.16-9.26-.09-2.21.06-4.4.11-6.59.08-3,.42-5.97.78-8.94.44-3.64,1.02-7.25,2.45-10.67.02-.05.04-.09.07-.13.14-.2.4-.54.17-.61-.23-.08-.68-.15-.91.32-.85,1.69-1.25,3.5-1.6,5.34-.34,1.79-.69,3.58-.78,5.41-.07,1.52-.29,3.02-.34,4.54-.08,2.03-.3,4.06-.51,6.09-.02.21.13.67-.17.65-.43-.03-.23-.56-.24-.78-.15-2.18-.1-4.35.12-6.53.21-2.04.31-4.09.54-6.12.2-1.78.55-3.53,1.04-5.26.32-1.14.66-2.27,1.31-3.28.13-.2.34-.35.48-.49-3.04-.55-6.12-1.1-9.18-1.66-.39-.07-1.06-.1-.99-.5.08-.48.73-.23,1.09-.17,2.11.37,4.24.59,6.34,1.08,1.77.41,3.6.63,5.43.63.76,0,.86.61,1.17,1.04v.4c-.62.75-.77,1.69-1.06,2.57-.66,1.96-.97,4-1.28,6.02-.33,2.11-.38,4.26-.64,6.38-.38,3.11-.47,6.22-.44,9.34.03,3.56.19,7.11-.07,10.66-.1,1.42-.1,2.85-.79,4.26-.54,1.11-.38,2.55-.5,3.84-.14,1.58-.22,3.16-.39,4.73-.17,1.48-.23,2.96-.24,4.45,0,2.09.04,4.19-.37,6.26-.09.43-.39.75-.85.77-.38.02-.68-.11-.97-.49-.52-.7-.41-1.46-.43-2.2-.07-2.61-.07-5.22-.12-7.83-.04-2.46-.09-4.91-.14-7.35-.77.4-1.65.78-2.44,1.28-2.94,1.88-6.05,3.48-9.09,5.18-.27.15-.66.29-.73.51-.15.47-.18,1-.16,1.51.07,2.08-.13,4.15-.36,6.2-.34,3.09-.3,6.19-.65,9.27-.09.76.07,1.72-.95,2.11l-.6-.02Zm10.85-41.16c-.17.23-.28.39-.4.54-.82,1.04-1.71,1.99-3.04,2.44-2.41.82-4.38-.5-6.44-1.27-1.42-.53-2.47-2.06-4.33-1.46.71.36,1.48.63,2.04,1.24.22.24.25.48.12.65-.14.18-.39.05-.57-.09-1.49-1.24-3.38-1.4-5.16-1.74-1.15-.22-2.39-.03-3.59,0-1.26.04-2.51.11-3.92.17,3.03,1.86,4.85,4.56,6.62,7.33.6.94.81,2.04,1.47,2.94.31.42.22.93.17,1.42-.1.97-.46,1.79-1.32,2.41,1.28.33,2.44.59,3.66.69,2.3.18,4.55.14,6.82-.4,4.39-1.04,7.18-4.79,7.93-8.72.39-2.03.15-4.02-.07-6.15Zm-27.5.84c-1.43.1-2.81.41-4.08,1.09-1.95,1.04-3.2,2.77-4.36,4.55-1.02,1.57-1.64,3.34-2.43,5.03-.25.54-.77,1.1-.24,1.8,1.45,1.92,3.34,3.16,5.74,3.55.67.11,1.51.36,2.06-.27,1.04-1.2,2.04-2.44,2.84-3.81.68-1.17,1.3-2.38,1.94-3.57.12-.22.25-.43.53-.33.17.06.38.18.31.42-.11.37-.18.77-.39,1.09-.25.4-.1.52.25.67,2.19.9,4.59.83,6.86,1.37.3.07.51-.02.45-.49-.18-1.58-.9-2.98-1.72-4.26-1.2-1.88-2.46-3.76-4.24-5.21-1.03-.85-2.08-1.64-3.53-1.63Zm20.34-6.67c.41.16.54.22.68.26.24.06.28.22.24.42-.05.21-.23.24-.4.19-1.27-.38-2.58-.4-3.88-.37-.59.01-1.35-.25-1.8.48-1.4,2.29-.61,4.41,1.96,5.35,1.1.41,2.17.89,3.25,1.36,1.54.68,3.12.81,4.48-.24,2.63-2.04,3.13-4.99,3.11-8.05-.01-1.64-.4-3.26-.78-4.86-.47-1.95-1.22-3.76-2.42-5.41-1.18,2.85-2.19,3.18-4.24,4.23.26.49.51.98.77,1.49.34-.52.67-1.02,1.15-1.41.27-.22.53-.09.72.03.31.18-.07.38-.13.44-1.48,1.4-1.77,3.29-2.25,5.19.53-.2,1.01-.23,1.5-.1.23.06.3.21.31.38.01.2-.13.21-.33.24-.56.07-1.11.22-1.93.4Zm-10.78,5.29c-.02-.44.1-.92-.08-1.25-.5-.89-.17-2.85.68-3.42.05-.04.12-.05.18-.07.68-.28,1.24-.43.36-1.31-1.49-1.49-2.77-3.18-4.14-4.77-.09-.1-.15-.33-.38-.22-.44.22-.91.39-1.29.68-1.85,1.41-4.08,2.19-5.91,3.66-.78.63-1.45.92-.38,1.81.28.23.41.62.63.91.92,1.22,2.04,2.31,2.71,3.7.15.32.31.58.69.47.56-.16,1.12-.16,1.7-.17,1.75-.03,3.5-.1,5.23-.01Zm-9.42,25.93c1.13.01,1.88-.19,2.62-.41.33-.1.75-.17.87-.62.22-.88.49-1.75.7-2.64.64-2.76,1.23-5.54,1.89-8.3.14-.59-.04-.63-.52-.68-1.36-.15-2.71-.37-3.91-1.09-.4-.24-.6-.05-.75.29-.36.86-.9,1.61-1.43,2.37-.62.89-1.49,1.67-1.86,2.65-.73,1.93-.67,4.02-.85,6.06-.03.31-.11.74.27,1.02.99.71,1.99,1.41,2.97,1.37Zm34.41-34c-.07,2.29-.14,3.93-.16,5.58-.02,1.52-.04,3.04.05,4.55.11,1.91-.05,3.82-.06,5.73,0,.94-.15,1.89-.09,2.82.02.37-.04.63-.29.78-1.31.78-2.64,1.52-3.97,2.27-1.48.83-2.99,1.6-4.45,2.47-2.13,1.26-4.22,2.6-6.36,3.86-.87.51-1.79.92-1.48,2.18.03.1.04.29.08.29.12.01.26-.01.36-.07.66-.39,1.29-.82,1.96-1.19,1.95-1.1,3.93-2.17,5.88-3.28,2.23-1.27,4.49-2.52,6.64-3.91,1.14-.73,2.8-1.11,2.77-2.96,0-.29.01-.57.04-.86.22-1.86.3-3.72.25-5.58-.06-2.06-.1-4.12-.13-6.17-.07-5.18.43-10.34,1.12-15.47.39-2.89.96-5.73,2.17-8.41.15-.34.29-.77-.14-.93-.45-.16-.92.06-1.12.5-.71,1.53-1.06,3.19-1.45,4.81-.43,1.81-.67,3.67-.88,5.51-.32,2.7-.54,5.42-.75,7.49Zm-37.12,34.04c-1.86.31-3.22,1.34-4.63,2.36.91.13,1.72.33,2.22,1.12.08.12.18.12.34.12,1.54-.03,3.07-.02,4.56-.48.89-.27,1.78-.53,2.37-1.3.25-.33.41-.77.28-1.12-.1-.27-.52.02-.79.03-.55.03-1.1.09-1.66.1-.49.02-.91-.26-1.45-.21.34.27.59.5.86.69.23.16.43.35.23.6-.17.21-.41.23-.75.1-.58-.24-.87-.81-1.43-1.02-.52-.2-.77-.45-.16-.97Zm19.51-3.38c-.28-.6.4-1.31-.37-1.64-1.37-.6-2.76-1.16-4.17-1.65-1.84-.64-3.71-1.2-5.57-1.77-.09-.03-.39-.41-.45.07-.05.38-.48.81.04,1.1.36.21.83.24,1.23.39,1.37.51,2.73,1.03,4.1,1.54,1.69.64,3.44,1.13,5.19,1.96Zm4.02-32.41c-2.79,2.05-5.82,3.06-8.81,4.18.79,1,1.84,1.07,2.88.4,1.3-.83,2.74-.54,4.15-.29.33.06.41.01.51-.3.4-1.26.61-2.57,1.28-3.98Zm-36.69,27.65c1.01.32,1.84.81,2.2,1.83.09.26.23.22.41.21,2.06-.09,3.86-.85,5.55-2.05-.36-.19-.67-.35-1.03-.54.03.6-.42.53-.69.36-.3-.18-.45-.6-.74-.82-.35-.27-.25-1.02-.76-.96-1.81.22-3.53.71-4.94,1.97Zm26.42-21.82c.28.12.71.02.73.41.01.37-.39.3-.64.37-.48.13-.92.27-.92.91,0,.54.28.74.75.86.2.05.55.28.53.34-.09.31-.43.18-.66.23-.05.01-.1.02-.17.03.13.43.4.76.84.75.85-.01,1.66-.28,2.46-.52.17-.05.19-.17.15-.35-.16-.88-.23-1.76.1-2.63.03-.09.05-.24,0-.3-.54-.69-2.52-.76-3.16-.1Zm-9.31-6.03c.57-.64.38-1.47-.41-1.74-.72-.25-1.42-.16-2.13.12-.79.32-1.44.72-1.63,1.62-.2.96.12,1.74.82,2.4.16.16.29.17.48.05.37-.24.76-.47,1.14-.69,1.32-.78,1.33-.78.54-2.15-.16-.27-.15-.5.09-.63.26-.14.47.05.61.26.17.24.32.5.49.76Zm31.93,24.55c-.41.24-1,.36-.95.97.1,1.3.08,2.59.1,3.88.03,2.51.13,5.03.16,7.54,0,.44.14.81.25,1.21,0-4.54.28-9.06.45-13.6Zm-16.85,19.68c.05,0,.11,0,.16,0,.05-.28.15-.57.14-.85-.06-3.2.01-6.4.31-9.59.07-.77-.56-.52-.84-.59-.43-.1-.25.39-.24.57.16,2.59.38,5.18.53,7.77.05.89-.04,1.79-.07,2.68Zm2.59-48c-.99.47-1.9.63-2.82.8-1.17.22-1.2.32-.57,1.38.19.32.36.7.76.37.9-.75,1.85-1.47,2.64-2.55Zm-35.5,32.37c-.15.05-.4-.14-.48.15-.01.05.04.16.08.17,1.58.25,1.95,1.41,2.12,2.71.04.31.26.3.44.33.1.02.27.05.31-.18.27-1.38-1.08-3.14-2.48-3.18Zm8.49,10.85c1.62.12,2.27,1.06,2.44,2.43,0,.08.07.2.13.21.19.04.17-.12.16-.22-.05-.47-.06-.95-.17-1.4-.24-.96-1.69-1.6-2.56-1.02Zm7.06-42.05c-.5-.64-.98-1.25-1.45-1.85-.08.06-.15.14-.24.19-.08.05-.12.06-.05.16.37.52.73,1.05,1.08,1.59.09.13.17.19.32.1.09-.06.19-.11.35-.19Zm13.75.71c.42-.2.78-.45,1.07-.79-.46-.31-.92-.62-1.45-.98.14.65.26,1.19.39,1.77Z"/>
    <path class="cls-1" d="m56.17,38.23c-.05.84-.82,1.55-1.69,1.55-.95,0-1.82-.78-1.81-1.72,0-.57-.41-.67-.74-.7-.29-.02-.7-.62-.98.15-.27.73-1.07.71-1.72.7-.49,0-.62-.46-.81-.87-.37-.81-1.11-.31-1.59-.21-1.91.4-3.02,2.44-2.43,4.31.11.36.34.68.52,1.02.15.27.02.33-.22.3-1.3-.17-1.58.14-1.38,1.52.03.18.12.41-.05.49-.09.05-.33-.11-.46-.22-.65-.54-.46-1.85.4-2.6.23-.2.27-.35.21-.66-.37-2.01,1-5.14,4.05-5.05.49.01,1.02-.13,1.41-.51.3-.3.65-.46,1.08-.48.31-.02.56-.15.72-.44.13-.23.32-.62.6-.45.29.18,0,.54-.13.77-.43.7-.21,1.17.64,1.28.05,0,.11,0,.15.02.66.39,1.21.51,2.03.1,1.06-.53,2.28.52,2.21,1.7Zm-2.03.75c.58-.03,1.19-.12,1.22-.8.03-.58-.38-1.03-1.03-.98-.52.04-.87.41-.86.95,0,.41.12.81.67.83Zm-3.87-2.36c.05-.37.04-.72-.45-.66-.45.06-.64.46-.7.81-.04.21-.04.66.4.65.51-.01.88-.22.75-.81Z"/>
    <path class="cls-1" d="m51.92,29.46c.64.16,1.42.17,2.07.69.34.27.71-.15,1.09-.13.25.02.57-.05.64.24.06.28-.22.42-.48.47-1.47.3-2.46,1.2-3.21,2.42-.12.2-.39.53-.56.36-.87-.88-1.45.15-2.15.28-.54.1-1.12.33-1.53-.11-.37-.4-.06-.88.16-1.31.85-1.66,2.54-2.94,3.97-2.9Z"/>
    <path class="cls-1" d="m46.14,38.66c1.03.24,2.08.34,2.98.9.82.52.66,1.57-.35,2.13-.85.47-1.75.47-2.54-.1-.77-.56-1.02-1.77-.65-2.62.11-.25.37-.25.56-.31Z"/>
    <path class="cls-1" d="m57.51,33.7c1.15.03,2.06.95,2.03,2.05-.02.78-.85,1.74-1.5,1.73-1.6-.02-2.56-.72-2.52-1.85.03-.85,1.17-1.96,1.98-1.94Zm1.11,2.58c.45-.78.1-1.32-.41-1.74-.39-.32-.9-.32-1.32-.01-.41.3-.76.66-.65,1.32.31-.61.81-.68,1.34-.65.63.04.86.5,1.04,1.08Z"/>
    <path class="cls-1" d="m60.98,41.65c.03-.28.04-.54.08-.79,0-.07.09-.18.13-.18.18.02.27.15.34.32.27.71.16,1.43-.08,2.11-.45,1.3-1,2.57-2.3,3.27-.92.49-1.96.57-2.98.68-.17.02-.45-.04-.46-.34,0-.3.12-.43.44-.47.94-.11,1.9-.2,2.74-.68,1.03-.58,1.32-1.65,1.76-2.62.19-.42.39-.85.33-1.3Z"/>
    <path class="cls-1" d="m47.75,46.24c.42-.31.67-1.3,1.36-.26.1.14.87-.22,1.07-.67.11-.23.06-.6.44-.48.37.12.45.46.29.93.46-.58.47-1.15.45-1.74,0-.15-.07-.36.2-.37.22,0,.42,0,.54.25.57,1.28-.27,2.51-1.68,2.54-.44,0-.83.32-1.32.38-.65.09-.81-.59-1.35-.58Z"/>
    <path class="cls-1" d="m56.74,43.18c.03.88-.27,1.64-.8,2.33-.09.12-.18.33-.38.2-.18-.1-.11-.26-.06-.44.36-1.12.65-2.22-.04-3.35-.18-.29-.43-.44-.67-.63-.16-.13-.46-.17-.27-.45.15-.24.39-.37.68-.18.92.6,1.53,1.39,1.54,2.52Z"/>
    <path class="cls-1" d="m72.97,38.21c.75.07,1.04.56,1.06,1.17.03.65-.88,1.49-1.51,1.41-.86-.11-.93-.9-.95-1.49-.03-.85.7-1.02,1.4-1.09Zm-.09.71c-.3,0-.56.1-.5.36.05.23.28.53.48.58.18.04.4-.24.39-.52-.01-.25-.09-.45-.37-.42Z"/>
    <path class="cls-1" d="m70.54,48.16c.11-.72.49-1.16,1.1-1.22.86-.08,1.28.58,1.29,1.28,0,.72-.6,1.12-1.32,1.07-.68-.05-.97-.57-1.07-1.13Zm1.56,0c-.11-.15-.09-.4-.38-.43-.31-.03-.36.22-.37.41,0,.11-.06.37.26.36.25,0,.41-.07.5-.34Z"/>
    <path class="cls-1" d="m72.42,59.09c-.84-.08-.98-.68-.98-1.25,0-.58.32-1.07.98-1.09.79-.03,1.27.48,1.26,1.2,0,.74-.66.98-1.25,1.14Zm.52-1.17c-.14-.15-.06-.49-.35-.51-.25-.02-.48.13-.5.43-.01.18,0,.44.23.4.2-.03.53.06.61-.31Z"/>
    <path class="cls-1" d="m59.17,30.42c-.21.43-.62.36-.96.43-.53.11-1.08.13-1.49.55-.15.15-.31.35-.53.15-.22-.19-.16-.44-.01-.67.52-.8,2.2-1.07,2.99-.47Z"/>
    <path class="cls-1" d="m47.32,46.12c-.19-.03-.39.02-.43-.16-.02-.1.06-.27.14-.34.59-.47.62-1.11.57-1.77-.02-.2-.02-.37.19-.44.24-.08.28.14.37.29.49.78.15,1.47-.24,2.14-.13.22-.36.34-.6.29Z"/>
    <path class="cls-1" d="m44.97,45.22c0,.14.06.32-.19.31-.35-.01-.72-.04-.9-.38-.24-.43-.39-.89-.17-1.39.1-.24.1-.62.5-.54.36.07.31.4.3.66-.02.51-.05,1.02.46,1.34,0,0,0-.01,0-.01Z"/>
    <path class="cls-1" d="m59.28,82.21c0-.61,1.17-1.76,1.76-1.73.18,0,.27.14.14.31-.44.56-.87,1.13-1.32,1.68-.09.11-.2.18-.35.1-.15-.08-.28-.18-.24-.37Z"/>
    <path class="cls-1" d="m59.94,30.68c.47.01.85,0,.85.39,0,.36-.36.31-.64.35-.44.06-.87.19-1.29.31-.2.06-.31-.01-.43-.15-.17-.19-.03-.3.09-.41.44-.44,1.03-.45,1.42-.49Z"/>
    <path class="cls-1" d="m46.02,45.43c.27-.32.45-.68.48-1.1.01-.21.12-.29.3-.31.2-.03.36.1.39.25.12.63,0,1.24-.57,1.59-.37.23-.67.07-.59-.44h0Z"/>
    <path class="cls-1" d="m46.02,45.42c-.45.46-.75.11-1.06-.19,0,0,0,.01,0,.01-.01-.2-.04-.39-.04-.59,0-.25.09-.53.32-.58.3-.06.38.22.46.47.1.3-.04.67.31.89,0,0,0,0,0,0Z"/>
    <path class="cls-1" d="m38.37,89.56c.56.47,1.38.71,1.81,1.43.1.17.12.35-.1.5-.21.14-.4.08-.54-.05-.48-.43-.96-.85-1.56-1.12-.1-.05-.38-.13-.23-.4.13-.22.3-.34.62-.37Z"/>
    <path class="cls-1" d="m32.72,80.68c-.08.36-.18.52-.55.41-.7-.21-.93-.89-1.39-1.34-.25-.25,0-.63.43-.65.3-.02,1.52,1.36,1.51,1.58Z"/>
    <path class="cls-1" d="m30.64,81.35c-.52-.18-.89-.7-1.31-1.17-.1-.11-.02-.32.13-.44.17-.13.44-.21.55-.07.35.43.94.6,1.13,1.2.14.44,0,.49-.51.48Z"/>
  </g>
  <g>
    <path class="cls-1" d="m21.54,29.02c.15-.06.84-.34.96-.36.04,0,.09,0,.12.04.05.04.03.11.02.16-.03.19,0,.27.06.45.53,1.35.93,2.59,1.19,4.01.05.28.24,1.32.08,1.5-.15.17-1.55.64-1.79.44-.05-.05-.07-.14-.09-.21-.14-1.81-.57-3.63-1.4-5.26-.06-.11-.13-.24-.06-.32.1-.12.7-.38.88-.45Zm2.58-2.93c.58-.04,1.74.05,2.34.13.45.06,2.36.35,2.62.58.21.18.11.66.03,1.03-.05.21-.19.72-.32.88-.1.12-.34.05-.56-.01-1.2-.37-3.05-.72-4.3-.75-.1,0-.21,0-.29-.06-.2-.17-.06-1.46.1-1.64.09-.11.23-.15.38-.15Z"/>
    <path class="cls-1" d="m34.04,19.77c.41-.28.82-.63.88-.67.18-.12.28-.04.48.25l.33.47c.38.54.49.71.26.87-.27.19-.61.38-.91.59l-3.17,2.21c-.3.21-.61.47-.86.64-.23.16-.37-.02-.73-.55l-.31-.45c-.21-.3-.27-.43-.09-.55.1-.07.51-.3.94-.6l3.17-2.21Z"/>
    <path class="cls-1" d="m43.08,12.55c.35-.13.83-.34,1.06-.42.25-.09.64.1.88.22l.12.06c.25.12.69.33.75.5.03.07.02.3.04.41.02.2.06.39.08.58.41,2.56-.29,4.6-1.94,6.55-.27.31-1.09,1.22-1.43,1.35-.25.09-.58-.19-.77-.34-.16-.13-.63-.51-.7-.7-.05-.12.06-.2.16-.26,1-.66,2.07-1.99,2.54-3.1.46-1.1.43-2.54.25-3.02-.08-.2-.3-.14-.47-.08l-3.58,1.35c-.47.18-.94.37-1.42.55-.42.16-.46.12-.66-.43l-.21-.56c-.19-.52-.19-.61.15-.73.52-.19,1.03-.36,1.55-.56l3.62-1.36Zm1.56-1.96c.06-.02.14.03.2.05.22.07,1.23.47,1.3.65.07.19-.28.83-.41.88-.06.02-.11-.01-.16-.04-.43-.22-.82-.42-1.26-.6-.06-.02-.12-.04-.14-.1-.06-.16.34-.8.48-.85Zm2.25-.62c.08.21-.28.85-.41.9-.06.02-.12-.02-.17-.04-.42-.23-.81-.41-1.25-.61-.06-.02-.12-.04-.14-.1-.06-.16.34-.8.46-.84.11-.04,1.44.52,1.5.69Z"/>
    <path class="cls-1" d="m56.97,12.21c.55-.06,1.12-.14,1.67-.2.33-.04.37.07.43.62l.05.45c.06.57,0,.7-.31.73-.55.06-1.1.09-1.65.15l-1.28.14c-.27.03-.33.22-.34.46-.07,1.02-.4,2.18-1.03,2.99-.64.79-2.03,1.71-2.4,1.75-.35.04-1.43-1.04-1.45-1.28-.02-.14.18-.2.36-.27,1.4-.56,2.25-1.18,2.56-2.75.02-.07.06-.32.06-.39-.02-.17-.15-.26-.3-.25l-2.04.22c-.49.05-1.25.17-1.56.2-.3.03-.39-.14-.45-.7l-.05-.44c-.06-.61.02-.65.3-.68.33-.04,1.04-.07,1.57-.13l5.87-.62Zm-2.04-2.85c.56-.06,1.11-.14,1.66-.2.33-.04.38.08.44.63l.06.55c.05.45.05.59-.33.63-.54.06-1.06.09-1.59.14l-2.64.28c-.54.06-1.07.14-1.61.2-.36.04-.39-.07-.46-.67l-.04-.42c-.05-.51-.04-.67.3-.71.5-.05.99-.08,1.47-.13l2.75-.29Z"/>
    <path class="cls-1" d="m65.55,18.96c-.04.33-.32.32-.58.28l-.49-.07c-.52-.07-.56-.15-.51-.54.05-.37.12-.72.17-1.09l.28-2.03c.01-.08-.02-.17-.13-.19-.08-.01-.19.05-.32.11-.26.15-1.54.77-1.76.74-.24-.03-1-1.01-.96-1.28.02-.12.14-.16.39-.23,1.95-.53,3.94-1.69,5.22-3.23.1-.12.17-.21.26-.2.18.02.88.68,1.13.94.09.1.16.22.15.3-.01.1-.1.12-.19.12-.23.03-.3.07-.47.23-.37.35-.77.68-1.17.98-.31.22-.36.28-.42.68l-.61,4.46Z"/>
    <path class="cls-1" d="m75.94,15.69c.47.16.99.29,1.07.32.21.07.2.21.08.54l-.19.55c-.22.62-.29.81-.54.73-.31-.11-.66-.27-1.01-.39l-3.66-1.26c-.35-.12-.73-.21-1.03-.32-.27-.09-.2-.31.01-.91l.18-.52c.12-.34.19-.47.39-.4.11.04.54.24,1.04.41l3.66,1.26Z"/>
    <path class="cls-1" d="m81.17,23.75c-.21.32-.39.65-.61.96-.18.26-.34.2-.57.05l-.39-.26c-.4-.27-.53-.36-.42-.59.03-.07.03-.14-.04-.18l-.2-.13c-.14-.09-.21,0-.25.07-.02.03-.02.06-.04.09-.16.24-.29.18-.61-.04l-.5-.34c-.29-.19-.38-.29-.22-.53.2-.3.43-.59.64-.9l.56-.83c.17-.26.33-.53.49-.77.29-.43.58-.41.98-.14.24.16.47.33.72.5l.41.28c.24.16.48.31.72.47.41.28.54.54.25.96-.18.26-.36.49-.53.74l-.39.58Zm-1.55-1.48c-.07.1-.04.25.06.32l.11.07c.1.07.25.04.32-.06l.22-.33c.07-.11.04-.26-.05-.33l-.11-.07c-.11-.07-.24-.05-.32.07l-.22.33Zm1.95-2.95l.54.36c.29.2.59.37.8.51.28.19.24.28.08.53l-.3.44c-.19.28-.26.33-.54.14-.23-.15-.47-.35-.76-.54l-.54-.36c-.29-.2-.56-.35-.79-.5-.28-.19-.26-.28-.07-.56l.3-.44c.17-.25.24-.32.52-.13.21.14.48.36.77.55Zm.9-1.36l.53.36c.27.18.54.34.8.51.28.19.26.28.09.53l-.29.43c-.18.27-.25.33-.53.14-.23-.15-.49-.36-.78-.56l-.53-.36c-.29-.19-.58-.36-.81-.52-.28-.19-.25-.27-.07-.54l.29-.43c.17-.25.24-.3.52-.11.26.17.5.37.77.55Zm5.08,8.14c.03.17.09.41.01.52-.07.1-.19.03-.27-.03-.04-.03-.09-.08-.12-.1-.05-.03-.22,0-.29,0-1.74.15-3.55-.08-5.23-.51-.13-.03-.35-.09-.46-.16-.27-.18-.2-1.23-.05-1.44.07-.11.21-.08.59.03,1.52.42,3.73.67,5.3.44.07-.01.18-.03.23,0,.08.05.26,1.01.3,1.25Zm-5.12-8.6c-.31-.21-.64-.4-.96-.62-.3-.2-.26-.29-.06-.6l.25-.37c.2-.3.27-.35.56-.16.32.21.62.45.94.67l.92.62c.32.21.65.41.97.63.24.16.28.25.12.49l-.17.26c-.11.16-.2.31-.12.37.11.07.64-.03.79-.06.99-.17,1.94-.5,2.84-.96.13-.07.19-.11.31-.03.14.09.5.59.63.74.29.37.43.57.34.69-.04.06-.09.07-.15.07-.06,0-.11.01-.15.07-.04.06-.02.29-.01.43,0,.04,0,.07,0,.09,0,1,.21,2,.5,2.96.02.07.04.16-.01.24-.17.26-1.3.36-1.47.25-.28-.19-.48-2.59-.51-3.02,0-.1-.02-.29-.13-.36-.13-.09-.44.03-.57.08-.7.22-1.42.37-2.15.44-.14.02-.5.05-.62-.03-.22-.15-.32-1.14-.22-1.43.03-.07.04-.1-.04-.18-.08-.08-.24-.21-.89-.65l-.92-.62Zm5.34,6.5c.04.2.1.33.01.46-.09.14-.26.02-.36-.04l-.03-.02c-.1-.07-.13-.07-.39-.04-1.34.12-2.79.07-4.11-.16-.18-.03-.41-.06-.56-.16-.24-.16-.23-1.23-.13-1.38.06-.09.2-.06.29-.04,1.48.34,3.24.39,4.74.15.05-.01.14-.02.18,0,.14.09.31.99.36,1.23Zm-3.46-8.77l.54.36c.29.19.58.36.8.51.28.19.25.29.08.54l-.28.41c-.18.27-.26.33-.54.14-.22-.15-.49-.36-.77-.55l-.54-.36c-.28-.19-.58-.36-.8-.51-.28-.19-.25-.29-.07-.56l.28-.41c.17-.25.25-.31.53-.12.22.15.48.36.77.55Zm-.81,5.7c1.13.15,2.45.09,3.56-.13.07-.01.18-.03.23,0,.13.09.35.92.41,1.12.03.11.1.3.03.41s-.23,0-.29-.04c-.13-.07-.19-.06-.35-.04-.92.14-2.26.21-3.19.13-.07,0-.1,0-.15-.01-.2-.02-.48-.05-.56-.1-.18-.12-.24-1.15-.12-1.33.06-.09.17-.06.44-.02Z"/>
    <path class="cls-1" d="m96.01,28.34c-.15.12-.15.32-.03.47.16.2.33.37.48.56.13.16.06.25-.13.4l-.54.44c-.24.2-.33.24-.46.08-.15-.19-.28-.39-.43-.58-.05-.06-.12-.15-.2-.09-.12.1-.27,1.44-.29,1.67,0,.16-.02.23-.09.29-.19.15-1.12.22-1.27.03-.08-.09-.04-.24.01-.43.03-.12.06-.27,0-.33-.06-.08-.15-.02-.21.03-.33.26-.63.56-.96.82-.23.19-.33.11-.55-.17l-.38-.47c-.2-.24-.23-.36,0-.54.29-.23.61-.45.9-.68.04-.03.14-.11.09-.18-.04-.06-.2,0-.29.04-.22.07-1.18.37-1.33.19-.05-.07-.08-.27-.09-.36,0-.06-.02-.16-.05-.2-.07-.09-.17-.04-.25.02l-.22.18c-.14.11-.16.33-.05.47l1.12,1.39c.29.36.62.71.91,1.07.18.22.08.32-.14.5-.03.02-.1.08-.07.12.03.04.08.02.19-.03,1.2-.4,2.96-1.53,3.96-2.33l1.34-1.08c.33-.26.66-.54.99-.82.42-.34.65-.09.97.19.47.41,1.47,1.22,2.03,1.45.07.02.13.05.18.11.1.12,0,.54-.1.93-.03.15-.07.29-.09.4-.02.14-.07.41-.18.5-.07.05-.18.02-.23-.04-.02-.03-.04-.07-.06-.11-.04-.07-.09-.19-.14-.25-.05-.07-.14-.12-.21-.17-.48-.33-.94-.71-1.38-1.09-.3-.3-.31-.32-.66-.04l-.46.37c-.12.1-.14.28-.04.4l.65.8c.25.32.54.63.79.95.15.19.1.29-.07.43l-.62.5c-.34.27-.42.34-.61.11-.11-.14-.29-.15-.41-.05l-2.58,2.08c-.47.38-.9.77-1.37,1.15-.25.2-.36.13-.58-.15l-.45-.56c-.21-.26-.25-.37,0-.56.47-.38.95-.73,1.42-1.11l2.6-2.09c.13-.11.15-.27.04-.41l-.04-.05c-.2-.25-.45-.06-.54.02-.74.59-2.78,1.87-4.2,2.3-.26.08-.42.14-.55-.02-.15-.19-.21-.86-.2-1.11,0-.02-.01-.05-.03-.07-.03-.04-.07-.05-.12-.03-.13.05-.2-.02-.29-.13-.29-.36-.56-.73-.85-1.1l-1.16-1.44c-.14-.18-.33-.06-.39,0-.14.1-.25-.01-.42-.22l-.41-.5c-.21-.26-.26-.36-.06-.52.48-.38.97-.75,1.44-1.13l5.57-4.49c.28-.23.57-.46.76-.64.02-.03.06-.06.09-.08.11-.09.18-.02.25.06.18.22.52.71.7.95.07.09.23.28.09.39-.06.04-.12.02-.19.01-.1-.01-.19.03-.28.09-.12.08-.84.66-1.01.8l-3.49,2.82c-.06.04-.1.08-.06.14.08.09,2.1-.37,2.27-.51.14-.11.08-.23-.02-.34-.06-.07-.15-.17-.23-.27-.14-.17-.07-.25.2-.46l.45-.36c.24-.2.35-.25.49-.08.14.18.27.37.41.55l.08.1c.09.11.21.23.37.1l.08-.06c.06-.05.09-.12.03-.19-.02-.03-.05-.05-.09-.07-.11-.08-.37-.27-.46-.37-.11-.13,0-.25.27-.58.18-.22.41-.51.7-.93.04-.06.08-.14.14-.19.18-.14.76.35.8.4.11.14-.07.37-.4.84-.04.06-.13.17-.07.24.04.06.15,0,.27-.11l.2-.16c.29-.23.53-.47.63-.56.1-.08.19-.07.27.03.12.15.61.89.74,1.09.05.08.11.19.01.27-.08.07-.16.03-.25.02-.12-.04-.25.05-.57.31l-1.34,1.08Zm.48-.3c.51-.19,1.09-.45,1.57-.71.08-.05.19-.12.28-.02.03.04.29.75.35.87.03.07.1.26.02.33-.04.03-.12-.01-.15-.03-.18-.1-.18-.07-.54.1-.21.1-.97.4-1.21.48-.12.05-.23.08-.32-.04-.11-.13-.38-.74-.22-.87.03-.02.15-.08.23-.11Z"/>
  </g>
</svg>