<svg xmlns="http://www.w3.org/2000/svg" width="280" height="280" viewBox="0 0 280 280"><defs><clipPath id="a"><circle cx="140" cy="140" r="140" fill="#fff"/></clipPath></defs><g transform="translate(-1589 -749)"><circle cx="140" cy="140" r="140" transform="translate(1589 749)" fill="#768a3e"/><text transform="translate(1623.993 795.935)" fill="#fff" font-size="23" font-family="HiraginoSans-W6, Hiragino Sans"><tspan x="22.852" y="20">ハーブティ診断</tspan></text><g><g transform="translate(1589 749)" clip-path="url(#a)"><g fill="#fff"><path d="M208.311 107.811a10.374 10.374 0 01-4.7.73c.728 2.769.712 5.244-1.109 7.322-.185.212-.373.556-.589.582-2.758.377-5.285 1.3-7.019 4.073a108.435 108.435 0 0118 35.318c1.355-1.428 1.138-3.423 1.551-5.073 1.8-7.182 4.745-14.2 2.736-22.015a32.935 32.935 0 00-2.421-6.61c-.225-.455-1.04-.85-.424-1.48.542-.549 1.118.058 1.6.368 2.689 1.732 3.894 4.584 4.584 8 .964-2.06 1.812-3.943 2.718-5.791.529-1.085-.263-1.323-.8-1.738-2.441-1.89-2.624-7.909-.116-9.862a48.971 48.971 0 00.058 5.017c.125 1.147.458 2.54 1.652 2.834 1.259.315 2.049-.779 2.711-1.843 1.66-2.665 1.738-5.851 2.285-8.878.161-.89.094-2.091 1.151-1.946.946.132.69 1.221.567 2.069-.391 2.716 3.876 7.617 6.389 7.42 1.136-.091 1.261-.888 1.205-1.872a17.816 17.816 0 00-2.522-7.648c-.295-.531-.654-1.1-.192-1.618.527-.594 1 .087 1.406.362 2.845 1.926 4.421 7.206 3.2 10.638a4.235 4.235 0 01-6.043 1.993c-1.219-.821-2.381-1.745-3.327-2.448a96.715 96.715 0 00-11.631 28.938c5.218-.911 5.916-6.144 8.184-9.918 1.134 1.547.29 3.153.759 4.807.6-2.154 1.214-4.3 1.783-6.463.21-.8-.2-2.194.814-2.194.846 0 .611 1.459.92 2.238a8.572 8.572 0 01.2 2.118c1.205-1.256 2.2-2.292 3.414-3.564.29 2.553-1.326 4.017-1.875 5.907.643.618 1.678-1.129 1.962.15.214.964-.817 1.716-1.571 2.292a12.172 12.172 0 01-6.454 2.908c.138.366.152.524.221.565 1.2.721 3.542.268 3.444 2.022-.056 1.029-2.526.585-3.932.645-.573.022-1.147.087-1.875.145.2.384.315.643.462.868.48.739 1.107 1.66.551 2.417-.694.937-1.257-.382-1.9-.6-1.756-.587-3.5-3.144-5.222.049.069.107.107.254.181.283 1.245.484 3.367.161 3.345 1.957-.018 1.408-2.011.71-3.028.723-2.294.033-2.691 1.589-3.089 3.555-4.059 20.054-2.27 39.813 2.276 59.465a105.006 105.006 0 012.236 14.919c1.042-3.115 1.946-5.813 2.848-8.514.415-1.243-.493-1.973-.895-2.908-.217-.5-.531-1.285-.339-1.611.473-.823.893.408 1.645.261-1.424-3.888-1.515-8.034-2.361-12.013-.1-.471-.462-1.147.188-1.39.232-.087.719.382.973.707 1.406 1.805 1.676 4.207 2.66 6.617.44-1.808.79-3.2-.087-4.753-1.417-2.515-2.682-5.142-3.981-7.739a3.828 3.828 0 01-.179-1.116c.348.045.765-.033 1.027.158a11.964 11.964 0 013.517 4.3 106.813 106.813 0 00-1.379-11.71c2.4 2.823 2.682 6.566 3.472 10.386 1.471-2.187 1.471-4.8 2.937-6.6.342-.42.71-.969 1.169-.7.629.37.076.935-.1 1.372-1.66 4.251-1.765 8.931-2.91 13.359q.693-1.46 1.386-2.926c.13.029.257.062.386.091-.2 1.511-.4 3.024-.7 5.22 1.234-1.522 2.122-2.658 3.051-3.754 2.305-2.72 4.584-5.472 6.972-8.1.875-.96.712-1.544.091-2.54-1.714-2.743-4.151-4.646-6.206-6.99-.348-.393-1.174-.652-.725-1.337.375-.571 1.118-.283 1.629.054 1.446.957 2.863 1.971 4.72 3.256a22.623 22.623 0 00-2.694-6.909c-.335-.5-1.149-1.158-.395-1.8.562-.478 1.194.085 1.658.661.953 1.183 1.928 2.343 2.892 3.517 1.772-3.763.7-6.208-3.24-7.592-.524-.185-1.551.3-1.5-.748.018-.339 1.123-.676 1.767-.879a9.376 9.376 0 011.854-.174c-.814-1.558-1.526-2.937-2.256-4.3-.207-.384-.757-.692-.335-1.2.4-.489.877-.208 1.315.062a13.55 13.55 0 013.963 4.666c2.158-4 .625-6.532-3.9-6.923-.781-.069-2.252.786-2.316-.609-.056-1.308 1.573-1.02 2.45-1.462.547-.277 1.473.551 1.625-.431.076-.471-.7-1.082-1.029-1.667-.567-1-2.47-1.667-1.781-2.7.839-1.268 2.214.156 3.281.745.654.366 1.272.821 2.232 1.448-1.879-4.35-2.122-8.657-2.127-13 0-.567-.228-1.43.449-1.509.712-.085.554.87.712 1.39.79 2.557.9 5.367 2.616 8.391l-.043-12.848.542-.074c.324 1.252.649 2.5.973 3.734.681.007 1-1.35 1.656-.632.27.3.042 1.214-.025 1.837-.27 2.578-2.185 4.912-.672 8.007.52-2.43 1.006-4.653 1.46-6.882.1-.48-.219-1.261.484-1.279.632-.013.288.732.4 1.134.616 2.127-.194 4.225-.141 6.356.837.022 1.593-1.462 2.167-.406.4.741-.551 1.616-1.147 2.151-2.325 2.078-3.223 4.941-3.816 8.259 1.479-1.538 1.97-3.99 4.651-4.622a26.763 26.763 0 00-3.658 7.3c-.893 2.419-2.564 4.582-2.209 7.7a50.822 50.822 0 004.985-9.326c.3-.69.634-1.631 1.515-1.1.986.591.165 1.261-.112 1.924-.973 2.316-1.9 4.657-2.861 7.039.877.5 2.254-1.047 2.531.308.259 1.288-1.355 1.569-2.189 2.187-2.02 1.5-5.258 1.607-5.028 5.867.478-.444.826-.768 1.176-1.087.317-.286.629-.857 1.076-.446.464.426.33.971.056 1.587a62.076 62.076 0 00-2.694 7.054c2.91-3.678 6.57-6.838 7.588-11.87.924-4.562 2.062-9.134 1.951-13.9-.007-.29.219-.79.417-.844.542-.154.683.435.844.857.951 2.495.582 5.16.73 7.82 3.707-4.425 3.352-8.846-1.375-17.963 1.482-.516 2.261.254 5.664 5.9-1.312-4.225-1.4-7.974-2.984-11.281-.183-.377-.618-.812-.134-1.27.422-.4.864-.121 1.163.2.75.81 1.437 1.687 2.256 2.669.5-2.062-.292-3.934-.308-5.84 0-.509-.355-1.14.359-1.31.569-.138.823.386 1.065.888a37.3 37.3 0 012.669 8.538c.748-1.089 1.422-2.147 2.171-3.133.319-.415.69-1.221 1.256-.817.607.44.049 1.091-.2 1.564-2.421 4.562-3.08 9.931-5.376 14.553a4.343 4.343 0 00-.018 1.531 16.907 16.907 0 004.622-4.412c.411-.5.8-1.526 1.459-1s-.08 1.332-.366 1.9c-.6 1.181-1.337 2.274-2.024 3.41.17.12.248.221.335.228.911.08 2.3-.752 2.607.464.328 1.31-1.3 1.265-2.042 1.741a16.018 16.018 0 01-4.78 1.986c-2.669.67-2.836 3.689-4.312 6.191 3.318-1.192 5.747-3.1 8.808-5.053-1.308 3.776-4.158 5.021-6.112 7.206.794.868 2.582-.056 2.495 1.107-.089 1.18-1.765.917-2.749 1.091-2.593.462-5.6-.109-6.443 3.885 1.874-.716 3.823-1.5 5.8-2.194.716-.25 1.718-.373 1.977.529.241.835-.815.924-1.323 1.232-4.236 2.56-8.5 5.057-12.741 7.6a16.015 16.015 0 00-1.727 1.645c2.533-.819 4.218-1.395 5.925-1.906.819-.245 2.038-1.053 2.372.194.3 1.114-1.147 1.136-1.861 1.484-2.937 1.419-6 2.535-8.933 3.883-2.857 1.31-4.769 4.452-6.925 7.6 2-.786 3.557-1.754 5.34-1.8.341-.013.837-.277.924.33.029.205-.315.6-.556.707-4.162 1.859-7.422 5.189-10.855 8.239-1.926 1.714-2.642 4.32-3.714 6.635-4.477 9.71-5.249 20.1-4.751 30.826.473 10.246-.817 20.373-2.6 30.409-.246 1.377-.886 2.95-2.39 2.5-1.332-.406-1.125-1.924-.989-3.345.48-4.892 2.81-9.77-.167-14.729-1.207-2.011-1.977-1.765-3.1-.208-.165.234-.295.5-.473.723-.745.919-1.089 3.147-2.156 2.613-1.328-.663.5-2.212.2-3.613-1.888.121-3.169 1.573-4.593 2.747-.335.277-.754.984-1.2.406a1.9 1.9 0 01.149-1.453 11.36 11.36 0 013.644-3.809c-.147-.658-1.444-.942-.873-1.522 1.129-1.149 2.718-.743 4.178-.777-1.906-2.861-3.049-2.944-4.865-.3-1.073 1.56-2.022 3.225-3.046 4.829-.248.391-.29 1.21-.964.915-.576-.248-.433-.971-.321-1.43.308-1.259.736-2.477 1.14-3.8-1.953.915-3.283 2.883-5.526 4.769 1.19-4.584 4.158-6.211 6.664-8.563-1.886.645-3.769 1.3-5.659 1.928-.511.17-1.176.87-1.547.06-.315-.685.364-1.216.864-1.522 1.435-.881 2.91-1.683 4.481-2.578a30.55 30.55 0 01-3.622-1.654c-.8-.493-1.169-.221-1.556.48a14.7 14.7 0 01-1.1 1.946c-.779 1.011-.812 3.535-2.209 2.9-1.216-.547.219-2.6.078-4.077-1.183.183-2.37.364-4.019.614 1.395-1.913 3.082-2.482 4.651-3.584-2.729-1.638-5.646-.678-8.347-1.294a9.819 9.819 0 01-1.276-.123c-.509-.2-1.428.234-1.462-.661-.029-.759.79-.808 1.37-.931 1.149-.243 2.292-.511 3.533-.788-1.194-1.77-2.848-3.026-3.589-5.081-.2-.569-.56-1.143.083-1.558.507-.324.821.174 1.216.524a59.7 59.7 0 005.729 4.588c-1.022-2.553-2.749-4.642-3.408-7.717 3.042 1.551 3.9 5.311 6.8 6.539 0-1.335-.02-2.72-.009-4.1.007-.607.036-1.294.754-1.348.62-.049.732.611.893 1.1.683 2.062 1.241 4.187 2.031 6.191 1.415 3.591 1.77 3.827 5.479 4.738-1.308-4.039-2.584-7.985-3.863-11.93.212-.107.422-.216.634-.324 1.386 2.328 2.77 4.651 4.2 7.057.935-.926.321-2.792 1.968-3.564-.944 5.224.3 9.471 4.1 13.046.076-2.2-.9-3.959-.121-6.331 1.268 2.993 2.486 5.49 3.377 8.128.482 1.426 1.656 2.18 2.147 3.526.078.216.527.261.8.386a6 6 0 00.328-1.341c.051-3.946.127-7.887.076-11.83a174.433 174.433 0 00-2.283-28.775c-1.482-8.208-2.147-16.738-5.8-24.3a35.239 35.239 0 00-4.5-7.583c-1.027-1.2-2.8.225-3.977 1.194a52.663 52.663 0 00-3.72 3.818 9.232 9.232 0 014.318-6.994c.471-.308 1.5-.4.993-1.428-.424-.855-1.031-.714-1.977-.446-3.459.966-4.767 3.847-5.809 7.117-.214.665-.339 1.622-1.167 1.4-.953-.261-.56-1.232-.46-1.959.107-.794.257-1.587.457-2.79-1.321.978-2.359 1.694-3.334 2.5-.283.232-.424.783-.87.446a.917.917 0 01-.047-1.285 14.725 14.725 0 012.868-3.564c2.069-1.46 3.776-3.714 6.443-4.013.241-.027.656-.4.636-.569-.045-.478-.377-.565-.835-.5-4.013.556-7.782 1.718-10.786 4.981a3.617 3.617 0 01-.931.54 3.814 3.814 0 01-.029-1.317c.875-2.334 2.9-3.363 4.771-4.93l-3.56-.754c2.912-1.834 5.474-1.049 8.282-.844-2.015-2.814-4.448-1.767-6.675-1.859-.848-.033-2.221 1-2.4-.06-.2-1.181 1.39-1.265 2.294-1.669.52-.237 1.033-.5 1.551-.763-.17-.288-.341-.821-.513-.821-.924-.007-1.506-1.589-2.4-.931-1.794 1.328-3.184 2.984-2.609 5.769a19.4 19.4 0 01.176 3.39c.02.824.165 1.855-.879 1.991-1.085.136-1.259-.875-1.419-1.779-.109-.627-.212-1.252-.357-2.111a16.026 16.026 0 01-.986 1.433c-.464.52-.3 2.051-1.038 1.654s-.516-1.808-.239-2.738a23.727 23.727 0 014.791-8.275 13.986 13.986 0 00-5.963 2.247c-.375.232-1.087.536-1.218.37a1.248 1.248 0 01.288-1.73c1.41-1.167 2.9-2.223 4.443-3.385-1.158-.674-2.642-1.953-3.772-1.29-1.683.991-3.914 1.988-3.647 5.017a33.949 33.949 0 01.029 4.129c-.018.549.018 1.381-.7 1.406-.692.022-.955-.665-1.038-1.364-.138-1.165-.261-2.332-.4-3.606-1.189.636-1.419 2.011-2.174 2.883-.353.4-.672 1.183-1.265.861-.663-.359-.341-1.089-.212-1.745.64-3.285 2.787-5.481 4.767-8.065-4.059 1.1-6.983 3.651-9.688 7.286-.482-2.961 1.3-4.231 2.45-6.146-1.955.763-3.749 1.457-5.543 2.154 3.138-3.921 7.186-5.738 11.8-6.744-2.136-1.243-4.45-.632-7.193-1.395 2.785-1.25 5.059-.964 7.277-.9.306-.866-1.158-1.558-.257-2.254.835-.643 1.4.567 2.1.9 1.881.911 2.377 3.876 4.745 4.182.377-1.205-1.593-2.305-.446-2.9.783-.413 2.011 1.091 2.642 2.178a6.223 6.223 0 004.93 3.231c-2.649-3.865-3.535-8.862-8.132-10.5-.866-.308-2.531-.765-2.187-1.808.415-1.274 1.908-.2 2.928-.17a6.946 6.946 0 011.788.714c-1.256-4.689-4.925-5.358-7.8-7.09.935-1.091 2.058-.971 6.3.765-1.8-2.479-3.457-4.774-5.2-7.182 1.676-.62 2.475 1.027 3.89 1.5a26.336 26.336 0 01-.817-7.791c1 3.2 1.788 5.713 2.734 8.726.313-2.029.509-3.464.768-4.89.1-.549.083-1.433.754-1.395.8.045.435.94.451 1.448.058 1.7.031 3.41.038 5.314 1.212-.67 1.078-2.334 2.421-2.441.009 3.515-2.5 6.67-1.009 10.75.873-3.089 1.39-5.9 2.854-8.262.286-.453.513-1.3 1.163-.969.7.359.143 1.038.018 1.558-.56 2.33-1.147 4.655-1.745 7.065.422 0 .549.042.616-.009.754-.591 1.324-2.267 2.165-1.678.759.522-.52 1.672-.661 2.633-.364 2.517-2.261 4.8-.971 7.911a32.3 32.3 0 002.658-9.313c.1-.513.04-1.281.663-1.23.736.058.574.9.58 1.444a29.048 29.048 0 01-1.64 10.692 2.7 2.7 0 00.007 1.946c.511-1.212 1-2.432 1.551-3.626.154-.335.5-.841.7-.815.582.08.475.694.388 1.152a17.855 17.855 0 01-.819 3.8c-1.451 3.316.91 4.6 2.58 7.088-.165-2.546-.315-4.343-.379-6.144-.013-.471-.071-1.268.583-1.281.576-.009.357.7.475 1.125.467 1.669 1 3.316 1.522 5.032a4.09 4.09 0 00.408-.274c.812-.971.368-2.812 1.85-3.314a34.385 34.385 0 01.022 4.207c-.265 2.4-.248 4.566 2.446 5.869-.114-2.221-.217-4.307-.335-6.394-.029-.516-.335-1.163.288-1.4.58-.221.768.415 1.053.853 1.1 1.7.868 3.769 1.372 5.688 1.361-.728 1.946.141 1.417 1.359-1.435 3.3.428 5.146 2.124 7.2.859 1.04 1.553 2.245 2.64 3.832a91.169 91.169 0 01-.538-14.082c.127-2.988.2-5.981.37-8.965.27-4.682-1.716-7.847-5.822-9.159-.486-.158-.962-.355-1.819-.672 2.366-1.52 4.445-.274 6.592-.308-1.16-6.253-3.662-11.841-6.191-17.407-1.489-3.278-2.723-6.764-5.523-9.081-3.669-3.033-7.695-3.176-11.913-1.948-.395.114-.792.2-2.163.553 3.859-3.316 7.532-3.776 11.507-4.356-1.772-2.41-3.437-4.68-5.1-6.949-.529-.725-.8-.339-1.178.237-2.66 4.035-4.787 4.03-7.518-.069-2.044 2-4.182 4.658-7.1 2.484-2.366-1.77-1.283-4.713-.8-7.458a7.876 7.876 0 01-5.213.076c-2.995-.861-3.765-4.689-1.587-7.815 2.535-3.649 6.124-5.483 9.9-6.958a1.328 1.328 0 011.817.562c-3.995 1.493-7.438 3.74-9.728 7.748-.511.893-1 1.868-.333 2.8.591.824 1.578.645 2.4.44a18.131 18.131 0 007.891-4.666c.562-.524 1.174-1.129 1.792-.337.549.71-.069 1.339-.5 1.852-1.535 1.814-2.8 3.87-4.477 5.595-1.373 1.408-1.219 3.879-.475 5.762.48 1.225 1.609.451 2.29-.234a20 20 0 005.577-10.234c.136-.667-.125-1.863.962-1.636 1.015.216.986 1.323.81 2.214-.433 2.207-.877 4.414-1.446 6.579-.359 1.368-.118 2.462.96 3.069 1.178.667 1.669-.712 2.024-1.439.79-1.631 1.761-3.2.935-5.4-.812-2.162-.136-4.564-.056-6.86.721.136.768.7.931 1.4.58 2.578.391 5.416 1.808 7.7.922 1.493 2.207 2.9 3.99 2.218 1.493-.569 1.424-2.33 1.08-3.713a19.8 19.8 0 00-1.792-4.932c-2.16-3.825-4.171-4.611-5.992-2.64-2.649.19-5.314.37-7.233-2.256-1.54-2.111-.7-6.271 1.716-8.779a5.936 5.936 0 018.382.219 4.139 4.139 0 004.137 1.564 21.4 21.4 0 0110.763 2.2c.875-3.91 3.671-4.979 6.584-5.222a16.616 16.616 0 0110.484 2.738c.707.455 1 .076 1.488-.328 1.779-1.451 3.673-2.149 6.329-.692-.8.216-1.073.324-1.352.359-1.788.23-3.631.7-3.589 3.138.045 2.613 2.2 2.91 3.888 3.04a15.117 15.117 0 004.91-.7c.98-.259 2.292-.614 2.372-2.046.091-1.609-1.368-1.808-2.323-2.3s-2.848-.335-2.58-1.634c.288-1.406 2.046-.565 3.144-.462 1.674.154 3.263.562 4.024 2.66.35.971 1.047.574 1.721.127 3.452-2.3 7.219-3.535 11.19-2.627 2.4.549 4.55 2.419 4.166 5.481-.379 3-2.816 3.334-5.155 3.209-.672-.033-1.346 0-2.243 0 1.712 2.4 3.2 4.686 1.4 7.619-1.047 1.7-7.315 1.895-8.387.219a1.4 1.4 0 01-.094-1.152 2.023 2.023 0 011.145-.828 4.976 4.976 0 011.417.239c1.321.161 3 1.145 3.738-.719.676-1.714-.681-2.915-1.747-4.035a11.815 11.815 0 00-4.847-2.7c-.511-.19-1.631.058-1.375-.973.21-.824 1.239-.611 1.879-.408a13.012 13.012 0 009.266-.132c.694-.292 1.915.107 1.9-1.12a2.41 2.41 0 00-1.957-2.27c-3.827-.81-7.454.375-10.951 1.868-.714.3-.759 2.2-1.455 2.988-3.051 3.43-6.883 3.89-10.886 2.944-3.033-.716-5.249-2.444-4.834-6.479.058-.56-.29-.739-.658-.846-4.113-1.192-8.23-2.287-12.451-.587-.48.194-1.219.125-1.172.928a1.616 1.616 0 001.138 1.337c3.629 1.6 7.456 1.464 11.243 1.692.667.04 1.627-.214 1.656.857.031 1.136-1.022.895-1.629.908-3.629.087-7.257.127-10.888.08-.714-.007-1.013.286-.728.85.641 1.279-.078 2.305-.292 3.43-.219.232-.437.462-.661.694m-16.519-5.184a18.98 18.98 0 016.3 10.415c.125.545-.114 1.417.553 1.489a2.27 2.27 0 001.538-.734c1.154-1.116.9-2.283.134-3.64-1.428-2.513-3.593-4.16-5.488-6.124-.428-.444-1.163-.623-.725-1.439.462-.873 1.065-.158 1.531.083 2.642 1.348 5.115 3.292 8.221 2.966.893-.091 2.287.48 2.515-.844a3.131 3.131 0 00-1.8-3.057c-3.339-2.058-7-2.8-10.69-3.481-.462-.087-.937-.283-.98.636-.074 1.638-.759 1.3-1.469.442a9.617 9.617 0 00-4.287-3.051 3.2 3.2 0 00-3.827 1 3.43 3.43 0 00-.832 3.292c.643 1.634 2.2 1.5 3.513 1.56a10.978 10.978 0 005.048-.812c.636-.283 1.395-1.35 1.93-.4.455.8-.888.953-1.183 1.707"/><path d="M127.294 198.701c-3.448.065-5.84 1.553-8.476 3.524 1.022-4.153 3.908-5.006 6.5-6.246-.6-1.029-2.732-.832-2.3-1.854.518-1.225 2.234-.252 3.4-.116 1.6.188 3.111 1.14 4.919.933-.513-1.471-2.089-2.5-1.562-3.968.308-.857 1.176.652 1.915.524-.482-3.258-4.575-5.289-7.257-3.484-1.741 1.176-3.37 2.551-5.053 3.83-.458.346-.917 1.172-1.493.574a1.666 1.666 0 01.136-2.129c.616-.877 1.31-1.685 2.073-2.649a11.206 11.206 0 00-5.323 1.368c-.5.228-1.134.982-1.535.221s.364-1.25.882-1.649c2.676-2.08 5.773-2.56 9-2.743-.408-1.248-1.948-1.029-2.125-2.5 3.06-.366 5.291 1.926 7.976 3.256-1-4.611-4.836-7.322-8.641-6.612-1.346.252-3.658 1.08-3.916-.116-.275-1.272 2.122-1.243 3.316-1.861.141-.071.279-.152.669-.366l-6.5-4.354a19.69 19.69 0 0110.295 2.758c-1.239-2.658-1.16-6.447-4.166-6.516a36.787 36.787 0 01-7.061-1.328c-.7-.15-1.832-.174-1.631-1.5.205-1.366 1.3-.678 2-.808a13.718 13.718 0 012.187-.027c-1.31-1.848-2.488-3.5-3.655-5.155-.29-.415-.77-.933-.355-1.408.515-.587.774.176 1.118.5a43.9 43.9 0 008.378 6.5c-.551-1.172-.727-2.109-1.245-2.546-3.365-2.843-4.869-7.728-8.866-9.9-1.136-.62-3.013-1.727-2.448-3.035.678-1.573 1.975.935 3.374.4-.578-2.682-2-5.278-2.024-8.248-.009-.578-.315-1.408.317-1.576.739-.2.674.792.815 1.279a43.608 43.608 0 007.5 14.481c.413-5.494-1.832-10.145-3.9-14.925-.857-1.982-1.011-4.352-1.426-6.559-.112-.611-.23-1.529.482-1.7.819-.2.743.819.935 1.372.824 2.352 1.611 4.72 2.718 7.98.549-4.336.464-7.809 1.846-11.049.266 14.41 2.3 28.327 8.034 41.734 1.082-5.818 2.888-11.085 3.3-16.675.174-2.334-1.285-4.015-2.765-5.432-.71-.678-1.745-.917-2.522-1.531-.527-.413-1.8-.384-1.337-1.584.384-.993 1.319-.386 2.033-.3a8.984 8.984 0 001.018 0c-.176-2.457-2.1-4.354-1.515-7.639l5.668 9.473c.466-3.484.431-6.816-1.712-9.712-1.725-2.334-2.263-5.262-3.142-8.014-.179-.553-.326-1.306.272-1.607.694-.353.873.5 1.14.951a15.589 15.589 0 002.917 4.013q-.763-4.271-1.533-8.543c-.089-.489-.529-1.116.17-1.366.553-.2.661.524.806.913.859 2.292 1.674 4.608 2.569 7.1.286-1.234.551-2.341.8-3.45.121-.54-.047-1.406.732-1.308.661.087.661.951.645 1.484-.1 3.566.237 7.15-.859 10.654-.638 2.051.091 4.2.317 6.978 1.323-3 2.39-5.436 3.488-7.86.219-.478.277-1.384 1-1.116.641.234.431 1.015.319 1.587a40.344 40.344 0 01-3.693 11.212c-1.988 3.707-1.593 7.8-2.6 11.645 2.18-3.243 4.343-6.452 5.615-10.277.243-.732.308-2.024 1.227-1.712.736.252.5 1.5.272 2.247-.707 2.366-1.515 4.693-2.372 7.293a8.21 8.21 0 011.25-.551c.569-.138 1.247-.879 1.7.067s-.428 1.174-.886 1.587c-3.557 3.2-6.976 6.557-9.685 11.772 2.926-1.491 5.227-2.653 7.521-3.841.643-.33 1.442-.857 1.9-.163.489.734-.228 1.4-.752 1.928-1.183 1.176-2.363 2.354-3.557 3.544.587 1.013 2.74.817 2.069 2.435-.69 1.649-2.366.81-3.646.538-1.02-.219-2.024-.522-2.569-.667 2.6 10.955 8.692 20.339 11.562 31.277 2.674-8.141-.388-85.986-3.763-94.54-1.524 2.747-3.211 5.18-6.548 4.129-2.457-.774-2.1-3.08-2.042-5.258-2.526.748-5.285 1.9-6.894-1.12-1.629-3.046.736-5.166 2.406-7.411-1.678-.129-3.256-.147-4.8-.4a3.4 3.4 0 01-2.924-2.892 4.127 4.127 0 011.37-4.3c2.314-1.805 4.816-3.238 7.766-1.895 1.205.547 2.243.712 3.33-.337a1.956 1.956 0 011.651-.531c5.082 1.634 10.3-.761 15.421.719 1.185.341 2.66-.808 4.019-.9a18.407 18.407 0 014.466.379c2.729.478 5.231 1.562 4.769 5.343-.433 3.555-2.986 3.481-5.474 3.106a.882.882 0 00.516 1.143 4.011 4.011 0 011.913 5.356c-1.067 2.665-3.348 2.116-5.354 1.464-1.8-.58-3.542-1.359-5.372-2.073 0 1.968.143 3.827-.018 5.653-.19 2.125-1.147 3.622-3.343 3.4-.683-.067-1.033.065-.866.931a29.642 29.642 0 01.881 6.22c1.263-1.821 2.122-3.885 3.749-5.233a26.084 26.084 0 012.245-1.678c.176-.116.5.038.75.067a2.1 2.1 0 01-.134.781c-4.376 6.528-5.351 13.986-4.865 21.866.2 3.249.31 6.51.482 10.221 2.018-6.369 4.655-12.013 5.325-18.431a13.068 13.068 0 013.147-7.126c.3-.353.623-1 1.181-.52.486.417.02.846-.123 1.268-.763 2.25-1.772 4.446-1.395 7.414 2.187-2.894 4.3-5.425 8.282-6.354-2.477 2.772-4.664 4.736-6.139 7.4.069.054.149.154.21.141 1.1-.257 2.45-1.959 3.156-.734.549.951-1.424 1.453-2.189 2.261-2.649 2.8-5.365 5.541-6.8 10.344 2.071-2.2 3.417-4.111 5.349-5.215.473-.266 1.069-.984 1.573-.257.571.826-.359 1.071-.707 1.491-1.678 2.04-3.385 4.053-5.544 6.621 1.75-.645 2.848-1.031 3.93-1.46.788-.308 1.812-.681 2.174.243.375.955-.781 1.183-1.355 1.627-2.45 1.9-5.387 2.973-7.336 5.758 1.752-1.163 3.481-2.363 5.262-3.466.509-.315 1.194-.973 1.743-.234.627.848-.261 1.259-.669 1.709-2.129 2.337-3.964 5.077-6.887 6.333-.6.259-.471.846-.587 1.348-1.529 6.57-.868 13.234-.77 19.889.1 7.021-.009 14.048-.17 21.071-.236 10.449-1 20.864-2.1 31.243-.536 5.035-1.3 10.04-1.959 15.057-.083.614-.147 1.23-.337 2.839 6.206-7.05 11.493-13.488 10.877-23.522 1.348 1.049 1.348 1.049 2.046 3.789a9.95 9.95 0 002.223-5.066c.1-.518.266-1.174.853-1.123.681.06.5.8.531 1.294.2 3.776-1.547 6.722-3.312 9.668a49.939 49.939 0 00-2.921 5.47c2.392-2.43 4.747-4.872 6.171-8.195.21-.486.286-1.395.98-1.163.647.214.4 1 .281 1.564-.321 1.491-.681 2.97-1.04 4.517 1.1.357 1.276-.779 1.5-1.5 1.922-6.086 3.843-12.183 3.584-18.8-.018-.487.141-1.33.384-1.415.743-.257.786.665.942 1.134 1.118 3.388 1.091 6.887.536 11 .957-1.741 1.629-3 2.348-4.236.241-.415.44-1.158 1.033-.9.7.3.312 1.062.232 1.589-.382 2.544-1.571 4.753-2.544 7.1.913.223 1.689-1.591 2.073-.609.5 1.29-1.053 2.118-1.743 3.354 4.142-.413 3.928-4.278 4.575-7.077a42.181 42.181 0 00.788-12.977 11.777 11.777 0 01.25-1.979c1.39 2.339 1.511 4.7 2.279 7.13.478-1.2.821-2.1 1.194-2.993.286-.687.013-2.127.98-1.852.62.176.576 1.613.449 2.553a33.827 33.827 0 01-2.4 7.773c1.156-.964 1.948-1.631 3.008-2.517-.542 3.316-3 5.073-4.256 8.449 4.18-2.975 7.777-5.61 10.19-9.447 1.826-2.908.757-6.15-1.328-8.806-.518-.661-1.741-1.3-.933-2.294.792-.975 1.618.2 2.366.685.357.228.714.46 1.41.908-.221-2.1-.426-3.843-.571-5.588-.036-.426.011-1.129.232-1.261.578-.337.846.379 1.056.79.569 1.116 1.042 2.3 1.861 4.142.19-2.651.344-4.57.449-6.5.038-.643-.205-1.491.556-1.647.841-.172 1.165.676 1.4 1.419 2.1 6.735.931 12.9-2.651 18.625-.33.531-.687 1.04-1.341 2.024 2.522-1.468 4.727-2.4 6.55-4.175.388-.382 1.326-.759 1.524-.551.683.694-.2 1.154-.533 1.529-1.381 1.571-2.848 3.046-4.32 4.6-.011-.027 0 .123.065.17.721.487 2.2.049 2.151 1.272-.047 1.056-1.4 1.08-2.272 1.236-2.361.422-4.738.73-7.1 1.145a7.172 7.172 0 00-4.122 2.537c1.942.174 3.776.328 5.61.5.98.094 2.27.433 2.216 1.48-.045.937-1.4.643-2.218.656-1.107.016-2.214.009-3.531.013 1.366 1.131 3.124 1.683 3.278 3.934-5.481-.87-10.913-4.852-16.325.094 3.537 1.772 7.827 1.571 11.6 5.49-3.894-.757-6.842-1.328-10.018-1.946.837 1.395 1.526 2.506 2.171 3.647a1.2 1.2 0 01-.033 1.484c-.5.54-.877.08-1.248-.254a34.507 34.507 0 00-6.168-4.4c-4.048-2.285-7.237.275-11.065 2.3 2.587.317 4.68.52 6.755.841a12.957 12.957 0 016.782 3.361c.292.266.647.56.377 1.035-.286.5-.656.147-1 .013a23.424 23.424 0 00-8.67-1.794c1.093 1.131 2.026 2.064 2.921 3.037a1.14 1.14 0 01.326 1.43c-.373.623-.868.348-1.272.051a25.786 25.786 0 00-7.833-3.591c-2.113-.678-3.62.761-5.365 1.4-.129.047-.248.652-.2.683a5.7 5.7 0 002.071 1.214c2.071.259 4.169.286 6.255.384.607.029 1.341.047 1.393.835.042.645-.665.835-1.187 1-.973.3-1.95.589-3.352 1.009 2.16 1.277 4.059 2.383 5.941 3.524a4.5 4.5 0 01.756.759c-.321.172-.652.5-.964.48-1.169-.074-2.332-.257-3.495-.413-.6-.08-1.2-.187-1.8-.281.087.761.143 1.526.272 2.279.136.794.774 1.859.06 2.312-.906.576-.937-.855-1.3-1.366-1.618-2.254-3.111-4.619-4.825-7.208.007 2.04.051 3.783 0 5.523-.022.694.4 1.828-.516 1.959-.788.116-.9-1.056-1.131-1.736-.567-1.716-1.029-3.472-1.683-5.72-2.082 3.722-1.944 7.456-2.261 10.971-.536 5.938-.665 11.926-.984 17.887a2.907 2.907 0 01-1.421 2.769c-1.049.44-1.189-.928-1.752-1.529-.62.391-.946 1.638-1.953.908a1.169 1.169 0 01-.422-1.551c.5-1 1.277-.578 2.136-.207a149.734 149.734 0 01.951-19.05c.768-6.211 1.763-12.39 2.455-18.61.993-8.911 3.363-17.715 2.439-26.787-.478-4.691-3.182-6.258-7.487-5.177-1.589.4-3.158.893-4.745 1.343.328-2.145 2.223-3.115 7.82-3.919-1.656-1.439-3.406-.955-5.015-1.111-.8-.074-1.616.154-2.41.078-1.051-.1-2.7 1.065-2.995-.23-.277-1.219 1.678-1.149 2.656-1.83-1.283-.828-2.642-.433-3.914-.658-.549-.1-1.435.127-1.475-.647-.04-.808.864-.928 1.462-1.078a17.61 17.61 0 018.882.362c.3-.89-1.062-1.694-.031-2.305.736-.435 1.227.52 1.75.955 1.022.855 1.977 1.808 3.129 2.872-.295-3.678-1.687-6.78-3.1-9.846a1.543 1.543 0 00-2.038-.54c-2.542.926-5.064 1.917-7.6 2.85-.489.181-1.031 1.169-1.486.29-.373-.714.134-1.5.705-2.013.486-.44 1.013-.826 1.993-1.616m2.225-95.964c-2.2.946-3.5 2.814-4.593 4.816-.42.768-1.138 2 .359 2.636 2.31.982 7.509-1.857 8.529-5.468.377-1.323-1.174-4.062-2.506-5.1a9.764 9.764 0 00-10.013-1.656c-.745.3-1.707.636-1.553 1.734.125.895 1.06.951 1.756 1.216a31.6 31.6 0 008.021 1.823m22.984-6.608c-1.776.127-4.383.319-5.992 1.959-1.2 1.227-3.031 3.312-1.828 5.905.707 1.524 8.027 5.03 9.545 4.622 1.036-.279 1.792-1.022.928-2.169-1.589-2.113-3.053-4.539-5.97-4.582-.295 0-.587-.362-.882-.558.277-.228.538-.614.837-.658 1.531-.228 3.078-.33 4.613-.547 1.393-.2 3.776-.257 3.649-1.6-.183-1.962-2.444-2.241-4.189-2.37h-.712m-9.587 2.35c.188-1.39-.942-2.04-2.477-1.955a9.26 9.26 0 00-3.428.786c-1.107.524-2.718 1.015-2.462 2.816a2.972 2.972 0 003.144 2.633c.533.018 1.631-.248 1.384.857-.8 3.551.85 6.284 2.109 9.208.444 1.029 1.111 1.558 1.964 1.489 1.089-.087.935-1.241 1-2.1a9.31 9.31 0 00-.692-3.966c-.879-2.493-3.7-4.883-.687-7.858.2-.2.074-.806.141-1.91m-5.07 7.094c-.152-.4-.3-.792-.453-1.187-.306.183-.788.283-.891.558-.861 2.345-2.633 3.83-4.1 5.606-1.158 1.4-1.515 3.524-.451 4.707 1.082 1.21 2.379-.3 3.343-1.366a10.748 10.748 0 002.555-8.317m-8.105-9.53c1.312.335 1.685 2.176 3.066 1.419.353-.194 1.277-.946.817-1.433-1.027-1.085-2.323-.855-3.883.013"/><path d="M65.34 223.198c-2.754.234-4.887.417-7.791.661 2.832-2.194 5.394-2.636 7.884-3.245a1.574 1.574 0 00.049-.382c-.205-1.069-2.147-1.631-1.276-2.609.714-.8 2.017.545 2.868 1.236 2.009 1.627 3.968 2.3 6.153.4-1.7-1.984-4.278-2.979-5.244-6.217 1.951 1.051 3.629 1.953 5.454 2.937.054-.491.078-.7.1-.911.087-.868-.819-2.162.326-2.508 1.029-.312 1.044 1.256 1.56 1.948 1.4 1.877 2.546 4.184 6.039 3.8a8406.25 8406.25 0 01-6.476-6.146c2-.893 3.066.174 5.235.79-2.055-2.1-3.432-3.533-4.832-4.932-.957-.957-1.971-1.846-2.919-2.812-.237-.243-.518-.772-.431-1.02.2-.569.739-.373 1.118-.2 1.23.574 2.441 1.194 3.861 1.9.078-2.1-1.627-2.754-2.169-4.14-.125-.326-.29-.632-.428-.948-.533-1.223-2.243-2.531-1.364-3.591.765-.917 1.66 1.375 2.9 1.723-.007-2.281-.013-4.495-.022-6.711.156-.036.313-.067.467-.1l1.185 5.572c.884-1.377.163-3.4 1.8-4.794-.19 4.1-.766 7.911.1 12.363.612-3.377.607-6.258 2.073-8.668.319-.524.5-1.424 1.192-1.165.8.3.125 1.013.062 1.531-.268 2.212-1.022 4.365-.681 7.123.884-1.388 1.531-2.482 2.258-3.5.272-.384.712-.924 1.194-.453.145.141-.08.837-.219 1.245-1.2 3.5-3.6 6.666-2.363 10.828.06.205.161.393.335.81.736-4.269 1.04-8.449 4.173-12.359-.578 3.649-1.933 6.3-1.79 9.281.074.009.2.074.245.029.89-.884 1.515-3.191 2.734-2.252 1.161.89-.727 2.2-1.093 3.4-.739 2.41-2.6 4.443-1.772 7.353.159.565.141 1.172.87 1.489a27.967 27.967 0 011.491-8c.167-.524.411-1.227 1.1-1.022.172.051.348.714.288 1.042-1.4 7.554-.152 14.2 5.253 19.483a16.861 16.861 0 011.558 2.082 300.406 300.406 0 00-.185-36.45c-.417-6.017-1.078-12-2.053-17.934-.118-.734-.3-1.134-.964-1.4a19.566 19.566 0 00-9.842-1.06c-.75.094-1.854 1.078-2.2-.353-.35-1.473 1.107-1.27 1.814-1.716a6.6 6.6 0 011.379-.482c-1-2.446-2.723-1.725-4.325-1.35-.585.136-1.281.524-1.587-.17-.375-.839.388-1.2.928-1.593 2.982-2.151 6.325-2.714 9.788-2.763-1.837-4.376-4.814-4.425-8.512-.219-.458.518-.616 2-1.542 1.328-.984-.714.016-1.7.286-2.535a17.8 17.8 0 01.911-1.906c-1.23.31-2.18.587-3.144.783-.587.12-1.4.643-1.7-.277-.3-.937.509-1.366 1.151-1.636a34.675 34.675 0 013.955-1.442c1.272-.355 2.589-.5 3.905-.748-1.169-2.513-3.653-3.2-5.686-1.618a24.991 24.991 0 01-2.216 1.776c-.694.42-1.085 2.314-2.029 1.145-.757-.94.321-2.075 1.031-2.877.324-.366.8-.562.832-1.455-1.493.114-2.986.228-4.816.364a5.182 5.182 0 014.32-2.263c1.58-.176 3.149-.431 4.613-.636-.634-4.7-3.8-3.589-6.454-3.651-.993-.025-2.631.743-2.783-.357-.163-1.147 1.542-1.25 2.571-1.515a5.564 5.564 0 00.841-.46c-1.477-.6-2.694-1.08-3.9-1.578-.52-.214-1.375-.237-1.185-1.109.161-.734.926-.7 1.522-.567 1.852.424 3.7.877 5.644 1.339-1.319-3.995-2.183-8.3-7.164-8.322-.587 0-1.727-.08-1.651-1.029.141-1.781 1.781-.643 2.66-1.348-.835-1.4-1.671-2.765-2.468-4.162-.279-.489-.652-1.154-.065-1.591.507-.379.837.272 1.181.629 1.006 1.04 2.02 2.075 3.4 3.495-.275-3.943-1.058-7.291-.112-10.67l1.817 9.3c.622-3.412.422-6.3 2.437-9.576a52.274 52.274 0 00.016 13.946 22.286 22.286 0 012.7-7.023c.5-.761 1.12-2.111 1.81-1.665.957.614-.4 1.406-.524 2.2-.118.752-.357 1.477-.6 2.455a12.245 12.245 0 001.3-.469c.6-.308 1.288-.73 1.7.114.433.893-.395 1.216-.893 1.611-3.725 2.93-4.53 10.817-1.3 14.1.259-2.616.252-5.193 1.062-7.6.294-.87.757-2.234 1.544-1.975 1.16.382-.042 1.319-.145 2a28.543 28.543 0 00.558 11.955c.563-2.99.893-5.778 2.247-8.172.359-.634.777-1.625 1.533-1.252.855.42.025 1.248-.065 1.875a43.515 43.515 0 00.058 11.5c.5 4.124 3.611 5.738 5.122 8.92-.4-3.729-.75-7.465-1.2-11.19-1.48-12.2-2.149-24.379.4-36.523.187-.895.837-2.147-.112-2.805-.815-.565-1.129.806-1.727 1.214a3.484 3.484 0 01-4.113.274 4.085 4.085 0 01-1.776-4.392c.225-1.076.5-2.142.77-3.318-2.743 1.33-5.1 3.2-8.3 2.578-1.544-.3-2.908-.636-3.656-2.04a3.868 3.868 0 01.647-4.162c.888-1.178 1.861-2.283 2.917-3.566-2.83-.672-4.968-2.12-4.129-5.816.815-3.582 3.515-4.162 6.3-4.39a19.683 19.683 0 012.4.051 11.535 11.535 0 016.728 2.12c1.535 1.178 2.714 1.1 4.269.069 2.888-1.9 5.9-3.481 8.2 1.091.357.71.757.158 1.145-.205 3-2.772 6.588-3.122 10.214-2.611 2.2.312 3.861 1.83 4.691 4.343.781 2.354-.484 3.615-1.817 4.916a9.366 9.366 0 00-.759.81c2.064 2.74-.821 4.8-.828 7.284a3.3 3.3 0 01-3.437 3.466c-3.254.161-6.441.022-9.324-2.761-.013 3.031 0 6.673-2.687 6.786-3.954.172-3.825 2.582-3.972 5.537-.185 3.662-.538 7.311-.87 11.669 1.792-2.832 1.915-5.526 2.658-7.974a151.925 151.925 0 011.808-5.543c.174-.5.522-1.042 1.089-.786.629.281.315.906.205 1.4-.228 1.04-.482 2.073-.81 3.477 1.745-2.406 2.1-5.463 4.6-7.436l-.611 3.966c1.7-1.111 3.048-2.633 5.784-2.658-3.24 2.816-5.7 5.407-7.349 8.766 1.471-.431 2.926-.951 4.416-1.239a1.617 1.617 0 011.439.77c.25.823-.623.741-1.067.948-3.156 1.455-6.142 3.165-8.07 6.508 2.31-1.584 4.441-3.515 7.255-3.838.533-.06 1.317-.62 1.571.212.223.739-.663.752-1.078 1.049-1.341.962-2.694 1.906-4.042 2.852.158.3.19.451.25.469 1.076.312 2.9-.848 3.115.707.2 1.455-1.776 1.143-2.776 1.573-4.135 1.776-8 9.9-7.293 15.595 1.067 8.61 2.053 17.237 3.263 25.823a261.941 261.941 0 012.691 43.752c-.239 8.757-.507 17.525-1.6 27.057a19.785 19.785 0 002.687-9.36c.042-3.33.877-6.619.471-9.987-.051-.453-.092-1.089.487-1.114.232-.013.6.475.7.815.406 1.348.734 2.727 1.167 4.385 1.247-3.464.058-6.586-.272-9.732-.107-1.027-1.359-2.312-.2-3 1.257-.757 1.578 1.169 2.348 1.863.154.141.3.292.5.5 1.259-2.575-1.107-3-1.93-4.236-.462-.7-1.933-.971-1.455-1.959.46-.953 1.622-.234 2.462.114a4.947 4.947 0 00.8.172c-.232-3.142-1.589-5.858-2.319-9.045 1.939 1.078 2.419 3.229 3.771 4.617 1.013-4.381-.781-7.9-2.294-11.491-.292-.7-1.334-1.426-.533-2.122.683-.6 1.3.466 1.821 1.018.5.522.937 1.111 1.56 1.859.288-3.676.565-7.159.839-10.647 1.765 2.986 1.169 6.378 1.915 9.625 1.212-1.567 1.21-3.934 3.169-5.6-1.125 4.173-2.267 7.762-2.459 11.8 1.837-1.2 3-3.135 4.921-3.854.515-.194 1.107-.611 1.471-.029.469.748-.375 1.024-.723 1.312a12.6 12.6 0 00-2.939 3.709c.134.123.208.254.283.254 1.091-.016 2.792-.5 2.973.759.194 1.337-1.6.794-2.466 1.131-2.613 1.018-4.557 4.689-4.651 9.3 2.43-2.959 4.876-5.827 8.837-5.389a26.949 26.949 0 00-5.164 4.49c.19.118.281.221.35.205 1.23-.25 2.982-1.044 3.435.411.319 1.015-1.678 1.3-2.674 1.587-3.751 1.06-5.421 4.124-6.325 7.9-.277 1.156-1.7 1.9-.9 3.446 1.114-1.48 1.37-3.613 2.839-4.816.23-.19.607-.429.815-.339.435.183.326.641.187 1.067-.482 1.489-.933 2.984-1.437 4.611 2.944-.607 3.236-3.479 4.45-5.456.536-.873.656-2.707 1.906-2.145 1.524.683.033 1.861-.161 2.825-.1.522-.237 1.038-.384 1.671 1.879.2 3.486-1.667 5.7-.725-1.908 1.062-3.571 1.991-5.818 3.245 1.741.167 2.845.248 3.946.393.469.06 1.06.163.982.9-.062.589-.583.589-1.011.663-2.528.446-5.068.828-7.574 1.386-1.515.341-2.154 2-3.488 3.247a10.151 10.151 0 015.561.341c.6.208 1.167.6 1.138 1.323-.036.886-.779.8-1.363.864-2.593.3-5.207.437-7.695 1.5a7.019 7.019 0 00-3.211 3.111c2.1-.455 3.992-1.348 6.023-1.116.424.049 1.1.37 1.169.7.143.685-.549.7-.986.864a35.2 35.2 0 00-9.136 5.3c2.011-.136 3.591-.257 5.175-.346.694-.038 1.643-.114 1.77.761.143.993-.913.955-1.511 1.234q-3.776 1.764-7.574 3.477a2.785 2.785 0 00-1.393 2.437q-1.727 11.388-3.421 22.781c-.219 1.464-.625 3.182-2.147 3.013-1.788-.2-1.3-2.093-1.2-3.464a20.3 20.3 0 01.424-2.631c1.9-9.266-3.16-14.7-8.773-19.833-.531-.486-1.779-.594-1.466-1.473.366-1.031 1.529-.457 2.336-.362a8.154 8.154 0 011.761.647c.109-3.432-1.877-4.816-4.187-5.945-.522-.254-1.564-.15-1.294-1.154.217-.81 1.116-.877 1.814-.609 2.127.821 2.321-.223 2.042-2.263a14.753 14.753 0 01-.125-6.186c.977 3.635 1.81 6.737 2.765 10.281.46-2.723.259-5.088 1.758-7.884.335 8.44.54 16.128 5.236 22.328.7-4.727 1.482-9.83 2.192-14.943.475-3.428.745-6.894 1.294-10.3a9.811 9.811 0 00-1.9-7.476c-2.631-3.794-5.106-7.755-8.036-11.241a9.043 9.043 0 00-7.833-3.005c-.819.06-1.049.754-.971 1.558.087.886.266 1.761.359 2.647.136 1.308 1.859 3.06.4 3.747-1.774.841-1.689-2.015-2.783-3.147-.424 1.491-.8 2.9-1.23 4.294-.165.531-.243 1.323-.966 1.2-.743-.129-.761-.853-.734-1.553a28.73 28.73 0 011.484-7.938c-2-.4-2.142 1.482-2.473 2.611a32.8 32.8 0 00-.819 5.434c-.123 1.067.415 2.749-.888 2.854-1.352.112-.87-1.692-1.232-2.792-.3.163-.6.326-.9.484-.623.315-1.386.926-1.868.078-.549-.969.406-1.366.969-1.687 2.029-1.158 2.022-3.392 2.564-5.762-2.935 1.134-3.557 4.526-5.706 6.1-.37.275-.5.922-.808 1.328-.62.808-.846 2.81-1.7 2.346-1.252-.672-.275-2.332-.042-3.562.087-.453.288-.879.62-1.877-1.875 1.343-3.372 2.412-4.867 3.484 1.859-4.013 5.2-6.07 8.771-8.9M81.146 96.484c-1.618.1-3.171.145-4.713.339a1.644 1.644 0 00-1.462 1.658c-.038 1.013.734 1.174 1.428 1.368 3.245.924 6.572.707 9.871.875.663.033 1.75-.788 1.877.417.116 1.1-1.136.69-1.763.937-3.414 1.348-7.447 1.123-9.909 4.847-.52.781-1.37 2.06-1.134 2.528.44.879 1.658.866 2.64.741 4.2-.524 7.509-3.075 10.763-5.793.348-.292.824-1.089 1.346-.449s0 1.2-.437 1.674c-.877.964-1.774 1.908-2.615 2.908-1.12 1.33-1.375 5.983-.257 6.463 2.02.87 2.7-1.243 3.691-2.531a11.842 11.842 0 00.85-1.515c.5-.917-.049-3.037 1.444-2.631 1.1.3.5 2.183.536 3.379 0 .118-.025.237-.027.359-.036 2.2 1.205 3.426 2.9 3.548 1.964.143 1.433-1.881 1.578-3.185a4.036 4.036 0 00-.071-1.95c-.7-1.544.357-4.073-1.535-4.722a6.483 6.483 0 01-3.8-2.935c-.344-.58-.926-1.227-.373-1.9.658-.79 1.1.074 1.591.482 1.076.893 2.283 1.669 3.506.549s.73-2.669.252-3.986c-.565-1.54-1.707-1.381-2.986-1.1a10.953 10.953 0 00-4.711 2.573c-.4.337-1.143.73-.931-.147.569-2.343-1.147-1.968-2.017-2.16a49.481 49.481 0 00-5.528-.643m16.648 9.333c2.889 5.229 7.767 7.729 12.167 6.295 1.364-.442 1.5-1.154.569-2.281-1.712-2.075-4.066-2.778-6.318-3.7-.437-.179-1.08-.214-.942-.957.143-.763.741-.757 1.3-.591 2.058.609 4.231.781 6.137 1.986.391.245.826.471 1.1-.118a2.492 2.492 0 00.283-1.288.958.958 0 00-.935-.915c-3.127-.453-6.237-1.069-9.351-1.631-.368-.065-.826-.62-1.02.214-.406 1.741-1.828 2.2-3 2.988m9.077-4.093c1.569-.312 3.167-.518 4.707-.973.87-.259 1.98-.6 1.886-2.042a2.281 2.281 0 00-2.057-2.165c-3.573-.736-6.762.406-9.656 2.7a1.888 1.888 0 00-.453 1.221c-.042.748.54.545.931.6 1.533.219 3.064.44 4.64.663m-19.428 70.24c.891 2.531 2.819 1.111 4.173 1.6.279.1.484-.143.35-.547-.6-1.821-2.033-.658-3.039-1.029a4.572 4.572 0 00-1.484-.022"/><path d="M43.165 227.192c.774-4.595 1.89-8.833 2.082-13.12.138-3.214-.873-6.5-1.455-9.741-.27-1.511-.781-2.97-1.1-4.474-.176-.837-.656-2.033.062-2.511 1.051-.705.545 1.4 1.627 1.272.661-1.83.473-4.162 1.95-6.4.123 4.95-.52 9.531.9 14.18 1.8-4.182 3.138-8.375 4.925-12.346.551-1.227-.768-3.426-1.035-5.215-.214-1.471-.478-3.053.589-4.575.761 2.165.939 4.414 2.72 7.088-1.745-5.671 1.373-10.377-.944-15.162 1.477-.04 1.337 1.3 2.136 1.553.125-.248.266-.556.422-.85.353-.663.712-1.683 1.475-1.339.944.424.176 1.359.022 2.013a52.1 52.1 0 00-1.073 9.672c2.87-5.184.772-10.98 4.416-14.983l.025 7.751c.678-2.915 2.457-5.5 1.948-8.737-.1-.652-.672-1.763.179-2.091 1.011-.386.388 1.357 1.618 1.506a3.242 3.242 0 01.513-.855c.306-.317.569-1.033 1.158-.562.556.44.145 1 0 1.46a41.6 41.6 0 00-1.415 4.93c2.417-2.332 2.729-6.65 6.483-8.012-.486 1.207-.893 2.218-1.437 3.577 1.417-.895 2.537-1.607 4.117-2.607-.766 2.372-2.691 2.854-3.412 4.477a1.054 1.054 0 00.245.172c1 .326 2.265-1.573 2.609-.5.395 1.227-1.567 1.341-2.321 2.218a10.7 10.7 0 01-2.055 1.415c1.384.092 2.424.087 3.439.254.591.1 1.489.183 1.424 1.107-.058.859-.94.652-1.468.712a14.352 14.352 0 00-7.44 2.8c1.468.321 2.687.553 3.885.875.542.143 1.381.228 1.312 1.038-.069.848-.89.3-1.355.473-.594.212-1.212.346-1.937.544.245.433.44.716.578 1.031.232.527 1.127.922.507 1.625-.531.609-1.107-.047-1.585-.359-3.111-2.029-5.968-1.227-7.677 2.281 2.727-.283 5.439-1.328 8.621.533-2.229.5-3.9.873-5.8 1.3.542.536.881.908 1.252 1.234.449.391.868.823.547 1.5-.333.69-.9.431-1.433.3-2.02-.507-4.075-1.734-6.164.462.471.025.79.013 1.107.06.569.076 1.422-.112 1.556.6.174.928-.754.993-1.323 1.205-1.915.712-3.734 1.522-4.245 4.294a51.671 51.671 0 005.807-3.756c3.41-2.31 7.534-2.252 10.866-4.649.8-.576 2.3-1.172 2.848-.058.33.667-1.361.846-2.02 1.462-.2.19-.411.37-.743.674 1.431.739 3.066-.174 4.537 1.127-1.169.266-2.116.478-3.1.7 1.46 2.118 1.513 2.682.368 2.609a23.19 23.19 0 01-3.122-.6c.112 1.011 1.634 1.263.971 2.14-.8 1.058-1.861-.4-2.941-.085-.4.627 1.049 1.861-.183 2.149-1.263.295-2.283-.893-3.2-1.723-1.569-1.424-2.923-.638-5.086.022 2.723 1.205 5.231 1.192 7.032 3.879-2.013-.158-3.593-.935-5.251-.5-.3 1.163 1.388 2.508.232 3.33-.984.7-1.756-1-2.709-1.473-3.968-1.988-4.811-1.81-6.827 2.678-3.479 7.757-4.071 16.211-4.624 24.7-.7 10.732 3.08 20.67 4.178 31.078a105.574 105.574 0 01.5 21.937c-.136 1.328-.248 3.153-1.8 3.115-1.589-.038-1.738-1.9-1.582-3.2 1.187-9.808-.344-19.416-1.732-29.012-.6-4.16-1.75-8.226-2.691-12.319-.272-1.19-.982-1.484-1.727-.493-1.053 1.4-2.582 2.459-2.81 4.535-.051.489-.212 1.181-.879 1-.571-.158-.672-.8-.569-1.33.237-1.214.569-2.41.9-3.774-.473.156-.942.35-1.428.46-.734.165-1.511 1.468-2.118.5-.587-.928.576-1.627 1.078-2.308a6.89 6.89 0 013.914-2.647c.368-.1 1.254 0 1.047-.745a9.168 9.168 0 00-1.33-2.395c-.415-.632-.707.013-1.06.19-1.41.7-1.966 2.31-2.993 3.406-.719.768-1.024 2.687-2.249 2.04-1.339-.705.042-2.093.071-3.383-1.011.1-2 .174-2.988.3-.556.074-1.227.167-1.381-.5-.167-.725.573-.915 1.042-1.123 2.091-.915 4.216-1.732 6.278-2.714.4-.19 1.377-.038 1.138-1.029a2.153 2.153 0 00-1.7-1.669c-2.178-.54-3.457 1.189-5 2.276-.665.471-.9 2.149-1.779 1.538-.772-.536.627-1.56.428-2.524a1.092 1.092 0 00-.29-.045c-1 .069-2.258 1.718-2.783.511-.469-1.082 1.223-1.774 2.116-2.484a12.232 12.232 0 014.8-1.966 4.547 4.547 0 00-7.168.683 3.174 3.174 0 01-.337.607c-.832.935-.852 3.383-2.071 2.95-1.562-.565.292-2.35-.078-3.7a9.658 9.658 0 01-1.433.806c-.772.27-1.676 1.643-2.149.879-.549-.89.649-1.823 1.279-2.566a15.455 15.455 0 015.584-3.912c-2.908-1.526-5.651-1.368-8.387-1.314-.8.016-1.977.944-2.312-.123-.353-1.116 1.116-1.12 1.743-1.665a7.622 7.622 0 011.482-.768c-1.221-1.165-2.7-1.183-3.968-1.77-.359-.165-.906-.52-.915-.8-.02-.748.654-.645 1.1-.674 2.618-.154 4.965 1.013 7.708 2.062-.674-1.549-1.245-2.832-1.8-4.129-.176-.415-.553-.922-.107-1.3.516-.431.705.254.969.571 1.194 1.424 2.379 2.854 3.7 4.448 0-1.533-.063-2.8.016-4.048.031-.444.065-1.212.754-1.147.578.051.469.7.569 1.136 1.339 5.762 2.709 8.23 5.439 9.587-.23-3.542-1.234-7.052.234-11.187.484 2.6.832 4.481 1.185 6.385.237-.056.348-.045.393-.1.654-.817.386-2.95 1.424-2.618 1.111.357.478 2.218.277 3.332-.919 5.1 1.868 8.092 5.061 11.413-.582-5.048-1.16-9.679-1.642-14.321-.547-5.276-.437-10.583-.582-15.876-.127-4.566 1.156-9.507-1.591-13.727a22.309 22.309 0 00-2.06-2.395c-.556.786-1.125 1.562-1.665 2.361-.158.232-.192.576-.357.794-.522.676-.312 2.339-1.428 2.044-1.254-.335-.221-1.75-.473-2.68-.721-.245-.991.478-1.428.828-.4.321-.643 1.31-1.21.859-.707-.562-.107-1.442.259-1.875 1.093-1.3 2.336-2.439 3.5-3.667.3-.321 1.131-.469.692-1.12a4.086 4.086 0 00-1.763-1.46c-.823-.328-.511.815-.861 1.165-.033.033-.022.116-.047.165-.464.978.245 2.955-1.158 2.919-1.647-.042-.27-2.022-1.234-3.533-.6.922-1.125 1.718-1.638 2.526-.31.486-.589 1-.911 1.475-.223.33-.895.616-.864.4.263-1.879-.973-2.457-2.038-3.209.433-.174.893-.556 1.29-.487 2.339.4 2.794-2.236 4.289-3.3-2.709 1.252-5.8.1-8.4 1.913-.5.344-1.31 1.221-1.819.31-.442-.792.533-1.292.969-1.841s.973-1.047 1.569-1.669c-1.511-.4-2.662.35-3.888.62-.413.091-1.129.007-1.281-.279-.283-.533.265-.937.645-1.254 1.984-1.645 4.356-1.857 7.215-2.234-1.149-.763-1.917-1.261-2.671-1.779-.317-.216-.71-.469-.484-.973.234-.522.627-.232.984-.132a18.265 18.265 0 016.545 3.321c.1-1.4-1.984-2.087-.955-2.906.888-.705 2.127.734 2.941 1.634a36.586 36.586 0 004.537 4.7c-.259-.812-.547-1.616-.763-2.439-.156-.585-.98-1.27-.344-1.725.81-.574 1.118.6 1.547 1.1 1.957 2.325 2.151 5.845 4.463 8.311 1.236-8.712 2.218-17.191 1.908-25.782-.054-1.529-1.576-1.569-2.526-2.131-.132-.074-.321 0-.471-.047-1.167-.37-3.075-.678-2.95-1.881.145-1.386 1.915-.283 2.926-.551.792-.208 2.151.969 2.316-.683.219-2.174-1.3-2.636-2.857-2.537a12.005 12.005 0 00-2.312.745c-.629.181-1.31 1.225-1.828.527-.587-.8.832-1.027.859-1.823a3.048 3.048 0 00-.263-.181c-.8-.4-2.395.576-2.366-.493.034-1.27 1.73-1.317 2.787-1.529a37.1 37.1 0 014.189-.391c-.935-2.183-2.651-2.27-5.684-.576-.545.3-1.1 1.509-1.723.683-.636-.85.462-1.375.911-1.979-.114-.1-.181-.2-.25-.205-.989-.018-2.6 1.085-2.79-.06-.192-1.165 1.649-1.58 2.72-1.928a40.355 40.355 0 014.91-.951c-3.263-.623-5.72-2.261-8.623-1.591-.558.132-1.5.574-1.683-.344-.165-.806.779-.982 1.357-1.245 1.067-.48 2.272-.277 2.749-2.234.33-1.364 1.348 1.147 2.468.46-1.747-3.149-3.41-.431-5.048.033-.725.205-1.058 1.8-1.946.986s.707-1.446.31-2.546a7.368 7.368 0 01-1.518.167c-.681-.051-1.627 1.035-1.973-.114-.317-1.06.844-1.4 1.515-1.754.866-.449 1.87-.556 2.738-1 .632-.326 1.669.085 1.843-.908.063-.35-.714-.9-1.129-1.335a1.539 1.539 0 00-2.332 0c-1.136.933-2.236 1.921-3.41 2.935-.582-1.422.7-2.16.663-3.245a1.1 1.1 0 00-.172-.1c-1.071-.261-2.808 1.227-3.055-.272-.2-1.2 1.765-1.658 3.011-2.011a15.365 15.365 0 001.669-.719c-.882-.761-1.6-1.428-2.368-2.031-.549-.437-1.165-.98-.873-1.7.377-.94 1.178-.281 1.7-.069a18.271 18.271 0 012.4 1.393c.118-.156.216-.225.239-.317.268-1.02-1.065-2.6-.087-2.868 1.285-.355 1.506 1.678 2.113 2.7.817 1.386 1.161 3.12 2.7 4.608-.228-2.357-.4-4.2-.629-6.543 3.617 3.432 2.5 8.871 5.506 12.517-.2-3.8-.384-7.123-.582-10.826 1.707 1.288 1.165 3.423 2.361 4.521.949-.683.846-3.2 2.131-2.455.908.524-.147 2.468-.406 3.769q-.74 3.655-1.406 7.327a2.2 2.2 0 00.844 2c.687-2.437 1.326-4.8 2.026-7.13.23-.777.634-1.895 1.451-1.553 1.062.446.147 1.379 0 2.116a9.933 9.933 0 00-.1 1.393c.895-.007 1.741-1.473 2.357-.424.67 1.143-.79 1.428-1.308 2.062-2.653 3.245-1.685 6.86-.821 10.388.587 2.39 1.493 4.684 2.2 6.831 2.305-11.636 2.178-23.676 2.732-35.919-3.3 3.336-5.675 3.794-7.574 1.649-1.884-2.127-1.8-7.231.3-9.509.33 2-.308 3.979.37 5.816.346.942.589 2.109 1.671 2.122a2.819 2.819 0 002.6-1.772c1.446-2.9 1.779-6.108 2.221-9.29.116-.824.257-1.759 1.107-1.64.879.121.752 1.062.638 1.877-.391 2.821 3.486 7.574 6.137 7.626 1.187.022 1.482-.674 1.419-1.814a17.829 17.829 0 00-2.41-7.505c-.3-.562-.848-1.169-.332-1.763.638-.739 1.272.091 1.647.475 2.417 2.462 3.883 5.459 3.316 9.219-.583 3.888-3.439 4.669-8.121 2.263-.538 1.591.053 3.142.065 4.691s.011 3.1.018 4.994c1.709-1.138 2.6-3.06 4.363-3.551.393-.112.835-.478 1.145.078a.826.826 0 01-.176.73c-3.959 3.053-4.916 8-5.648 12.636-2.111 13.368-3.727 26.834-5.579 40.255-2.149 15.537-1.892 31.094-.4 46.669.12 1.268.482 2.508.785 4.026"/><path d="M46.569 94.64a10.6 10.6 0 01-1.207.348c-1.79.154-3.631.551-3.8 2.932-.17 2.437 1.745 3.026 3.388 3.185a10.313 10.313 0 006.84-1.319c.509-.328 1.1-.667.966-1.477a1.686 1.686 0 00-1.151-1.56c-.4-.114-.741-.478-1.14-.629-1.009-.382-2.912-.333-2.636-1.569.346-1.549 2.131-.585 3.267-.491 1.622.132 3.153.574 3.879 2.6.337.946 1.029.7 1.712.185 2.95-2.229 6.345-2.865 9.784-2.984 2.825-.094 5.936 2.879 5.666 5.425-.37 3.49-2.861 3.66-5.334 3.6-.627-.016-1.254 0-2.087 0 1.518 2.325 3.191 4.495 1.442 7.416-1.1 1.821-7.224 2.2-8.436.451a1.357 1.357 0 01-.134-1.138 2.456 2.456 0 011.281-.861c.442-.1.94.181 1.415.25 1.281.183 2.881 1.053 3.606-.7.676-1.636-.574-2.816-1.591-3.923a11.864 11.864 0 00-5.113-2.89c-.491-.176-1.509 0-1.274-.895.223-.855 1.232-.656 1.866-.451a13.276 13.276 0 009.424-.15c.661-.27 1.732.062 1.79-1.062a2.245 2.245 0 00-1.634-2.171c-3.979-1.076-7.744.257-11.4 1.794-.58.245-.618 1.834-1.118 2.633-2.716 4.343-11.578 4.91-14.843 1.073a3.817 3.817 0 01-1.118-2.852c.424-2.479-1.14-2.566-2.468-2.861-3.517-.783-7.057-1.573-10.591-.038-.473.205-1.223.109-1.2.9.025.779.62 1.149 1.261 1.424 3.584 1.533 7.356 1.419 11.094 1.636.663.038 1.625-.228 1.68.828.065 1.156-1.015.977-1.6.928-4.033-.364-8.108 1.219-12.107-.326a4.265 4.265 0 01-3.071-3.72c-.219-2.189 1.156-3.24 2.629-4.062 4.716-2.638 9.2-.828 13.609 1.14.919.411 1.4.705 2.307-.087 1.651-1.439 3.551-1.919 6.144-.538"/><path d="M28.59 114.257c-1.587-.491-4.492.248-5.057-3s1.584-5.126 4.01-6.273c1.1-.516 2.707-1.919 3.417-.725.522.882-1.576 1.332-2.4 2.136-1 .98-2.662 1.888-2.218 3.372.295.989 2.16.908 3.368.721a31.471 31.471 0 0010.54-3.7c.518-.29 1.285-1.2 1.8-.212.5.948-.482 1.357-1.024 1.707-3.8 2.453-7.095 6.148-12.437 5.972m179.724-6.444c.221-.232.44-.462.656-.694a12.18 12.18 0 014.959-2.667c.446-.163.915-.212 1.093.339.176.536-.308.647-.64.835a10.165 10.165 0 00-.957.649c-1.442 1.015-3.792 2.2-3.162 3.928.565 1.529 3.16 1.009 4.861.565a36.3 36.3 0 009.527-3.736c.366-.216.913-.712 1.25 0a1.25 1.25 0 01-.2 1.087c-3.986 2.674-7.436 6.662-12.526 6.644a8.819 8.819 0 01-4.218-.857c-2.729-1.533-1.692-3.888-.638-6.095m-193.81 180.23c-1.232-1.808-2.91.051-4.481-.308-.705-.158-1.509-.406-1.56-1.261-.06-.977.734-1.214 1.482-1.167 2.051.116 3.89-.886 5.827-1.357 1.676-.411 3.167.183 3.314 1.953.158 1.915-1.676 1.676-2.886 1.892-.475.083-.953.138-1.7.248m69.862-3.091c-.964-.915-1.993-1.736-.922-2.9 1.145-1.227 2.218-.277 3.04.674 1 1.158.366 2.06-.636 2.7-.83.531.27 2-.87 2.247-.9.19-1.826.85-2.763.179a1.287 1.287 0 01-.44-1.424c.335-1.372 1.482-1.136 2.591-1.482m213.681-2.643c1.489.643 3.9-.437 4.416 2.517.152.87-.437 1.582-1.276 1.319-1.687-.522-3.981.147-4.7-2.439-.268-.957.578-1.4 1.562-1.4m9.379 1.681c1.065.344 2.3-.051 2.932 1.205a1.545 1.545 0 01-.1 1.323 2.553 2.553 0 01-2.995.558 1.218 1.218 0 01-.156-.036c-1.093-.547-3.274.185-3.171-1.453.107-1.73 2.332-.957 3.488-1.6m-162.715.539c-1.114-.944-3.689-.1-3.7-2.328-.007-1.935 2.127-1.082 3.334-1.2 1.125-.114 2.377 0 2.4 1.817.018 1.395-.982 1.5-2.038 1.714m-92.836 1.425c.373-2.071 2.113-2.305 3.87-2.457.669-.058 1.381.44 1.129 1.1a5.173 5.173 0 01-3.9 3.452c-1.053.2-1.134-.783-1.1-2.1m174.805-4.644c1.663-.2 2.419.4 2.163 1.406-.62 2.468-2.749 1.933-4.367 2.314-.627.15-1.614-.241-1.35-1 .708-2.035 2.571-2.312 3.555-2.723m-196.863 8.1c-.968-.359-2.58-.417-2.428-1.886.27-2.618 2.455-1.214 3.769-1.6.855-.25 2.053.022 1.879 1.435-.246 1.964-1.91 1.676-3.22 2.049m85.824-5.148c-.774-1.064-3.084.9-3.149-1.91-.065-2.636 1.9-1.68 3.015-1.9s1.883.714 1.895 2.035a1.631 1.631 0 01-1.761 1.772m-80.102 2.379c-1.176-.321-2.379-.515-2.308-2.1a2.361 2.361 0 012.334-2.412c.667.051 2.406.065 2.323 1.656a3.307 3.307 0 01-2.35 2.861m208.046-3.937c1.928.2 3.426.42 3.655 2.361a1.385 1.385 0 01-1.669 1.64c-1.256-.368-2.957-.393-3.167-2.4-.127-1.185.632-1.68 1.181-1.6m-174.307-.327c.591.025 1.227.321 1.006 1.125-.422 1.547-1.339 2.982-2.734 3.269a1.924 1.924 0 01-1.832-2.178c.277-2.252 2.12-1.846 3.56-2.216m79.578 5.096c-.984.045-1.759-.181-1.486-.986.674-2.006 2.33-2.656 4.066-2.941a1.021 1.021 0 011.207 1.268c-.558 2.321-2.584 2.073-3.787 2.66m120.295-2.214c-1.1-.435-2.957.295-3.015-1.721-.038-1.359 1.511-1.381 2.451-1.212 1.1.2 2.935-.69 3.057 1.428.1 1.772-1.475 1.279-2.493 1.5m-207.058 2.844c-1.071.036-2.12-.183-2.247-1.752-.092-1.163.654-1.549 1.558-1.562 1.41-.02 3.254-.078 3.475 1.7s-1.616 1.361-2.785 1.613m-40.109-1.195c.134-2.341.866-3.441 2.573-3.551.8-.049 1.555.178 1.381 1.192-.259 1.515-.812 3.1-2.3 3.49-.7.185-1.756-.3-1.658-1.131m165.322-6.157c-.752 1.341-1.292 3.185-3.068 3.693-.768.221-1.192-.531-1.094-1.35.259-2.158 1.859-2.915 3.363-3.635.553-.268.736.473.8 1.292m148.67-.096c.292-1.585 1.593-2.388 3.167-2.79.507-.132 1.174.266.951.819-.645 1.571-1.1 3.484-2.953 3.85-.828.163-1.234-.536-1.165-1.879m-154.619 3.82c.895.272 2.432-.116 2.645 1.62.145 1.2-.884 1.75-1.884 1.616-1.212-.161-2.821-.038-2.888-2.033-.049-1.364 1.109-1.138 2.127-1.2m135.364-3.596c.44-1.337.292-3.276 2.12-3.631.846-.167 1.218.757 1.024 1.591-.353 1.544-.522 3.435-2.078 4-.759.274-1-.982-1.067-1.962m-272.546 5.264c.241 2.272-.573 2.674-1.462 2.651a2.264 2.264 0 01-2.531-2.122c-.109-1.091.641-1.468 1.455-1.384 1.116.109 2.4.065 2.537.855m217.576-.814c-1.035-.428-2.988.353-3.129-1.636-.114-1.58 1.573-1.158 2.56-1.232a2.068 2.068 0 012.361 1.888c.145 1.314-.948.911-1.792.98m-98.411-.308c-.768.114-1.33-.158-1.174-.772.484-1.895 1.93-2.564 3.49-2.937a.912.912 0 011.207 1.015c-.335 2.341-2.457 1.841-3.524 2.694m-45.338.283c.681.058 1.54.261 1.194.868-.676 1.183-.433 3.3-2.319 3.365-.736.027-1.667-.27-1.564-1.332.174-1.774 1.455-2.444 2.689-2.9m-44.331-1.255a1.6 1.6 0 011.912 1.723c.045 1.154-.573 2.372-1.564 2.33a2.124 2.124 0 01-2.087-2.051c-.1-1.62 1.053-1.683 1.738-2m122.689.404c-1.06-.154-2.372-.147-2.25-1.348.134-1.319 1.468-1.618 2.613-1.734.933-.1 1.7.219 1.685 1.341-.013 1.593-1.344 1.346-2.049 1.741m-6.364 1.515c-.692-.362-2.136.049-2.316-1.522-.138-1.243.9-1.549 1.785-1.506 1.033.056 2.374.007 2.548 1.538.132 1.167-.812 1.538-2.017 1.491m116.654-2.935c-1.216-.158-2.363-.444-2.352-1.966.011-1.27 1.082-1.312 1.926-1.294a1.851 1.851 0 011.984 1.861c.089 1.306-.9 1.239-1.558 1.4m-53.821-2.174a3.584 3.584 0 012.638-2.209c.531-.1 1.326.542 1.094 1.167-.5 1.339-1.25 2.66-2.736 2.854-.841.109-1.024-.647-1-1.812m-48.16 5.351c-1.281.092-1.727-.453-1.658-1.263.147-1.763 1.388-2.412 2.7-2.81.435-.136 1.152.212.915.855a6.658 6.658 0 01-1.955 3.218m110.646.748c-1.04-.125-2.169-.029-2.149-1.6a1.439 1.439 0 011.551-1.611 1.628 1.628 0 011.85 1.7c.067 1.062-.417 1.531-1.252 1.5m-206.234-1.996c.9.007 1.808.036 1.8 1.422 0 1.062-.538 1.8-1.491 1.643s-2.276-.208-2.339-1.689c-.058-1.455 1.147-1.268 2.029-1.375m-8.957-.585c.882.375 2.316-.17 2.352 1.663.027 1.274-.986 1.187-1.627 1.107-1.013-.129-2.339-.306-2.477-1.685-.107-1.053 1.033-.893 1.752-1.085m187.23 1.975c-.772-.19-2.067.216-1.955-1.337.1-1.426 1.323-1.239 2.243-1.279.859-.038 1.944-.087 1.861 1.27-.078 1.323-1.18 1.31-2.149 1.346m-157.516.634c-.759-.35-2.156-.165-2.149-1.538.009-1.54 1.477-1.308 2.386-1.473.8-.145 1.413.587 1.455 1.484.051 1.129-.7 1.484-1.692 1.526m-51.478-3.847c1.094.225 2.071.52 2.165 1.859.069.964-.5 1.759-1.337 1.618a2.5 2.5 0 01-2.18-2.212c-.138-1.134.875-.953 1.352-1.265m-64.89-3.76c.859.083 1.937-.011 1.843 1.23-.1 1.368-1.4 1.555-2.319 1.747-.745.156-1.484-.469-1.448-1.486.054-1.408 1.062-1.422 1.924-1.491m155.684 5.222c1.5-.154 1.977.627 1.964 1.562-.011 1.134-.817 1.558-1.765 1.509a1.528 1.528 0 01-1.636-1.727c.056-1.308 1.06-1.268 1.437-1.344m61.537 2.59c-.868-.029-1.75-.078-1.79-1.3a1.349 1.349 0 011.593-1.522c.866.083 2.064.045 2.138 1.348.08 1.386-1.08 1.359-1.941 1.473m19.528-6.285c-.089.8-.277 2.055-1.685 2.08a1.155 1.155 0 01-1.178-1.5c.275-1.147.815-2.272 2.071-2.346.734-.045.966.587.792 1.768m-219.683 4.035c-.81-.2-1.73-.2-1.589-1.41a2.023 2.023 0 012.073-1.83 1.2 1.2 0 011.4 1.319c-.065 1.292-.984 1.712-1.888 1.921m144.399.134c-.955-.208-2.156-.161-2.158-1.631 0-1.33 1.145-1.243 1.953-1.33a1.438 1.438 0 011.725 1.578c.042 1.2-.821 1.2-1.52 1.384m-17.442.006c.66.377 1.933-.35 1.962 1.123.018 1.107-.832 1.58-1.781 1.573-1.02-.009-2.122-.4-2.174-1.589-.06-1.41 1.252-.8 1.993-1.107m174.117 1.852c-1.031-.062-2.325-.4-2.216-1.48.132-1.3 1.6-.944 2.546-1.1.743-.127 1.464.065 1.453 1.123-.013 1.319-.98 1.323-1.783 1.462m-168.682-7.071c-.437 1.022-.417 2.531-1.948 2.765-.785.123-1.082-.355-1.109-1.118-.054-1.64 1.035-2.245 2.151-2.689.553-.223.861.286.906 1.042m39.396.27c-.611-.04-1.549.364-1.473-.578.125-1.468 1.332-1.877 2.477-2.058.812-.129 1.75.205 1.636 1.194-.2 1.759-1.756 1.038-2.64 1.442m-77.434 7.088c-1.475-.187-2.283-.859-2.426-2.223-.058-.553.259-1.212.839-.933 1 .48 2.64.116 2.667 2.067a1 1 0 01-1.08 1.089m218.808-4.057c-.025 1.143-.868 1.364-1.56 1.321-.839-.056-1.786-.4-1.694-1.7a1.465 1.465 0 011.7-1.475 1.833 1.833 0 011.549 1.85m-188.285-.518c-.772-.379-2.234.375-2.158-1.167.074-1.518 1.518-1.1 2.43-1.3.719-.15 1.306.154 1.263 1.134-.051 1.114-.761 1.308-1.535 1.33m-59.699.523a1.84 1.84 0 011.81-1.837c.716-.071 1.134.21.973.94-.232 1.073-.451 2.343-1.754 2.448-.928.076-.857-.859-1.029-1.551m192.177-1.881a1.675 1.675 0 01-1.87-1.716c-.047-.864.636-1.2 1.328-1.183a1.806 1.806 0 011.785 1.692c.123.848-.473 1.25-1.243 1.207M62.53 280.166c-.382.7-.52 1.741-1.518 1.736a1.461 1.461 0 01-1.413-1.609c-.027-.915.393-1.571 1.341-1.607.9-.036 1.359.5 1.589 1.48m274.688 3.751c.8 0 1.634.158 1.607 1.256s-.795 1.451-1.716 1.361c-.866-.089-1.656-.37-1.582-1.549s.931-1.1 1.692-1.069m-256.633-2.637c-1.107-.254-2.29-.344-2.56-1.783a.71.71 0 011.007-.761c.975.424 2.45.056 2.761 1.616.181.9-.719.792-1.207.928m21.885-1.27c.607.437 1.948-.045 1.861 1.5-.049.855-.524 1.636-1.468 1.424a1.894 1.894 0 01-1.707-1.951c0-.859.574-1.024 1.314-.971M235.07 281.4c-.719.009-1.591.248-1.649-1.018-.06-1.187.69-1.245 1.5-1.268.853-.022 1.8.069 1.89 1.12.1 1.274-.94 1.147-1.738 1.165m109.758-3.168a1.673 1.673 0 011.381 1.558c.065.748-.181 1.587-1.136 1.582a1.534 1.534 0 01-1.513-1.524c-.123-.906.42-1.406 1.268-1.616m9.911 5.372c-.935-.049-1.946.038-1.941-1.308 0-.948.77-.986 1.435-.861.826.15 2.006-.129 2.017 1.317.009 1.172-.975.739-1.511.852m-310.934-1.511c-1.078.121-1.589-.373-1.551-1.292.042-1.035.781-1.335 1.6-1.35a1.242 1.242 0 011.442 1.29c.016 1.234-.873 1.306-1.486 1.352m206.786 3.363a1.341 1.341 0 011.4-1.431c.768-.011 1.225.638 1.21 1.549a1.479 1.479 0 01-1.549 1.616c-.808.031-1.082-.591-1.06-1.734m104.906-9.918c.844 0 1.14.522 1.038 1.274-.125.895-.379 1.9-1.348 1.926-.748.022-1.243-.616-1.218-1.562.031-1.152.765-1.451 1.529-1.638m-155.676 11.638c-.658-.138-1.518-.058-1.428-1.21.067-.866.533-1.433 1.377-1.41a1.21 1.21 0 011.285 1.43c-.038.844-.388 1.352-1.234 1.189m12.512-6.553c-.067.736-.5 1.04-1.006.857-.832-.3-1.859-.473-1.906-1.814-.025-.69.272-1.256.942-1.1a2.708 2.708 0 011.97 2.062m-79.223 1.454c-.011.705-.167 1.375-.931 1.343-.85-.029-1.357-.576-1.359-1.591 0-.875.29-1.616 1.143-1.564.919.054 1.123.917 1.147 1.812m103.513 2.285c-.085.982-.464 1.482-1.158 1.288-.777-.214-1.75-.3-1.75-1.629 0-.808.428-1.062 1.031-.9.77.2 1.747.156 1.877 1.243m-25.524.556c-.163.85-.3 1.636-1.256 1.582s-1.281-.763-1.323-1.676c-.04-.895.462-1.245 1.219-1.277.906-.04 1.136.678 1.361 1.37m101.065-4.705c.094-.4.348-1.279 1.29-1.129a1.294 1.294 0 01.966 1.582c-.123.87-.424 1.6-1.415 1.486-.848-.1-1.029-.687-.841-1.939m38.985-2.299c-.016.931-.382 1.424-1.085 1.281-.681-.138-1.6-.185-1.58-1.319.011-.716.348-1.435 1.1-1.486.986-.067 1.3.8 1.564 1.524m-137.662 8.673c-.949.049-1.448-.346-1.462-1.321-.009-.752.279-1.288 1.022-1.265a1.451 1.451 0 011.569 1.406c.112 1.065-.62 1.06-1.129 1.181m28.943-5.795a1.422 1.422 0 01-1.506 1.46 1 1 0 01-1.1-1.185c.071-.913.6-1.569 1.448-1.542.716.025 1.058.665 1.163 1.268m-61.206.745c-.734-.123-1.317-.455-1.252-1.33s.73-1.094 1.39-1.109a1.109 1.109 0 011.2 1.29c-.045.882-.73 1.033-1.339 1.149m167.199 3.436c-.866.2-1.509.658-1.625-.464s.62-1.305 1.31-1.321c.625-.013 1.594-.348 1.7.765.145 1.518-1.053.895-1.384 1.02m-155.95-5.238c-.714.033-1.314-.2-1.323-1.107-.007-.7.339-1.337 1.036-1.261.62.067 1.484.022 1.493 1.143.011.875-.433 1.274-1.205 1.225m80.612-1.084c-.138.839-.221 1.658-1.082 1.576a1.248 1.248 0 01-1.129-1.435c.036-.817.489-1.335 1.221-1.323.7.011.989.56.991 1.183m3.059.762a1.927 1.927 0 011.437 1.663c.076.661-.2 1.192-.868 1.259-1.015.1-1.256-.765-1.395-1.591a1.019 1.019 0 01.826-1.33m-148.511 1.575c-.089.674-.33 1.163-.919 1.064-.83-.136-1.6-.529-1.651-1.613-.031-.654.453-.886 1-.875.888.022 1.31.649 1.571 1.424m-18.97 2.274c-.629 0-1.277-.141-1.31-.946-.033-.859.6-1.21 1.288-1.248.7-.038 1.276.248 1.247 1.192-.029.875-.589 1.013-1.225 1m-53.518-2.359c-.672 0-1.16-.243-1.089-1.12.054-.674.386-1.172 1.022-1.051.654.125 1.482.286 1.422 1.3-.051.859-.783.8-1.355.87m237.371 4.612c-.879.058-1.1-.428-1.152-1.087a1.1 1.1 0 011.131-1.348c.681-.038.852.582.9 1.207a1.052 1.052 0 01-.877 1.227m10.259-6.757a1.223 1.223 0 01-2.428-.17.908.908 0 011.085-.993 1.542 1.542 0 011.343 1.163m-5.49.746c-.024.667-.272 1.087-.875 1.02a1.539 1.539 0 01-1.388-1.263c-.145-.676.337-.982.877-.9.634.089 1.268.292 1.386 1.143m-71.038-1.065a.883.883 0 01-.975.957 1.178 1.178 0 01-1.274-1.239c-.049-.56.237-.966.712-.966.759 0 1.167.649 1.538 1.248m37.064 2.508c-.884 0-.973-.826-1.125-1.477-.167-.723.366-.725.8-.707a1.332 1.332 0 011.314 1.3c.049.6-.428.908-.991.884m12.891 4.952c.013.136-.221.435-.777.373-.5-.058-1.187.152-1.254-.71a.945.945 0 01.87-1.076c.614-.065 1.044.172 1.16 1.413m56.98-5.813c-.014.538-.216.915-.736.908a.94.94 0 01-.982-1.085c.016-.6.377-.991.917-.953.569.047.723.585.8 1.129m-163.405-.278a.9.9 0 01.969.931c.067.681-.391.886-.91.931-.547.054-.948-.132-.957-.835-.007-.663.413-.884.9-1.027m189.951 5.477c.042.431-.27.721-.85.736a.91.91 0 01-1.056-1.006c-.027-.591.25-.919.752-.895.52.027 1.1.074 1.154 1.165m-103.392 1.419a.881.881 0 01-1.1-.884.976.976 0 01.828-1.111c.574-.062.846.457.953.989a.768.768 0 01-.681 1.006m64.474-3.067a4.137 4.137 0 01.64 1.189.7.7 0 01-.792.844 1.009 1.009 0 01-.859-1.1c0-.567.364-.806 1.011-.937m38.191-3.33a.953.953 0 01-.873-1.1c.034-.574.324-.893.848-.754.5.132.969.469.772 1.107-.1.348-.556.569-.748.748m-117.396 5.518c-.047.511-.266 1.011-.734.895-.292-.074-.614-.58-.7-.957-.112-.484.112-.89.694-.841.522.042.725.364.743.9"/></g></g></g></g></svg>