<svg xmlns="http://www.w3.org/2000/svg" width="430.24" height="334.64" viewBox="0 0 430.24 334.64"><defs><clipPath id="b"><rect width="430.24" height="334.64"/></clipPath></defs><g id="a" clip-path="url(#b)"><rect width="430.24" height="334.64" fill="#fff"/><g><g><path d="M144.264 10.2l-.56 17.4.48 10.4h-5.6l.48-9.72-.08-2.12h-10.76l-.04 1.44.48 10.4h-5.6l.48-9.72-.48-17.08 5.68-1-.4 11.72h10.52l-.28-10.72zm6.4 27.8l.48-9.72-.48-17.88h15l-.44 4.28h-9l-.24 7.08h8l-.44 4.24h-7.72l-.04 1.6.28 6.16h9.68L165.3 38zm35.84.2l-1.96-7.8h-9.56l-2.12 7.6-5.12-.4 3.52-9.72 5.36-17.2 7.16-.52 5.16 17.12 3.32 10.04zm-6.32-22.84h-.52l-3.44 10.8h7.12zM196.064 38l.48-9.72-.48-17.08 5.68-1-.56 17.4.28 6.48 8.2-.64-.44 4.56zm22.72-27.8l-.56 17.4.476 10.4h-5.6l.48-9.72-.48-17.08zm27.56.12l-.52 17.28.44 9.52-4.72 1-11.92-19.28v8.76l.56 10.4h-5l.48-9.72-.48-17.76 4.8-.24 11.88 19.56-.4-18.92zm16.04 28.12a10.861 10.861 0 01-8.44-3.52 13.321 13.321 0 01-3.2-9.32 16.178 16.178 0 014-11.12 12.634 12.634 0 019.84-4.52 20.724 20.724 0 014.3.42 11.987 11.987 0 012.82.86l.8.44-2.32 5.56a14.277 14.277 0 00-3.24-1.5 11.292 11.292 0 00-3.6-.7 6.517 6.517 0 00-5.2 2.28 8.944 8.944 0 00-1.96 6.04q0 5.08 1.86 7.92a5.865 5.865 0 005.18 2.84 13.6 13.6 0 004.08-.6v-6.2h-5.16l.4-4.04h9.6l-.36 6.52.28 6.92a36 36 0 01-9.68 1.72z" transform="translate(15.696 -1)" fill="#768a3e"/><path d="M126.521 3.783a10.969 10.969 0 01.1-1.932 15.739 15.739 0 01-2.1.1H116.9a18.232 18.232 0 01-2.289-.1 10.8 10.8 0 01.1 1.827V10.4a11.936 11.936 0 01-.1 2.016c.672-.063 1.407-.1 2.163-.1h7.686c.756 0 1.491.042 2.163.1a10.534 10.534 0 01-.1-1.932zm-.861-1.071v2.415h-10.08V2.712zm0 3.129v2.415h-10.08V5.841zm0 3.129v2.6h-10.08v-2.6zm-7.98 6.594a8.689 8.689 0 01-2.562 1.785 12.086 12.086 0 01-2.94.945 2.957 2.957 0 01.714.735 14.9 14.9 0 002.373-.861 11.584 11.584 0 003.213-2.142zm4.872.462a15.522 15.522 0 003.129 1.89 16.332 16.332 0 002.793 1.029 3.368 3.368 0 01.651-.777 13.983 13.983 0 01-2.73-.861 11.261 11.261 0 01-3.066-1.785zM111.8 14.955a12.666 12.666 0 011.953-.126h13.839a12.478 12.478 0 011.953.126v-1.008a12.112 12.112 0 01-1.953.126h-13.839a12.112 12.112 0 01-1.953-.126zm31.584-.021V17.1a12.392 12.392 0 01-.147 1.995h1.134a12.213 12.213 0 01-.147-1.995v-2.166h1.976a9.5 9.5 0 011.7.1v-.945a9.086 9.086 0 01-1.7.105h-1.974V9.138c0-.819-.021-1.7-.063-2.541a18.02 18.02 0 003.087 5.124A22.119 22.119 0 00150.587 15a2.507 2.507 0 01.8-.693 15.281 15.281 0 01-3.087-2.646 18.543 18.543 0 01-3.591-5.376h4.053a12.478 12.478 0 011.953.126V5.4a12.293 12.293 0 01-1.953.126h-4.536V3.111a12.39 12.39 0 01.147-2h-1.134a12.573 12.573 0 01.147 2v2.415h-3.948a12.4 12.4 0 01-1.974-.126v1.008a13.157 13.157 0 011.974-.126h3.444a18.727 18.727 0 01-3.171 5.061 15.337 15.337 0 01-3.213 2.919 2.507 2.507 0 01.735.651 16.926 16.926 0 002.226-2.016 19.683 19.683 0 003.99-6.3c-.042.945-.063 1.6-.063 2.52V14.2H141.6a9.337 9.337 0 01-1.722-.105v.945a9.618 9.618 0 011.722-.1zm-8.274 1.722a19.406 19.406 0 01-.126 2.436h1.071a19.262 19.262 0 01-.1-2.373V6.093a30.977 30.977 0 001.6-3.675 7.658 7.658 0 01.441-1.113l-1.017-.336a12.073 12.073 0 01-.735 2.562 20.236 20.236 0 01-4.137 6.489 3 3 0 01.756.525 16.481 16.481 0 002.331-3.318c-.063.987-.084 1.7-.084 2.541zM157.433 4.2c.315-.756.567-1.491 1.008-2.856l-.987-.231a13.135 13.135 0 01-.882 3.087h-.378a11.016 11.016 0 01-1.806-.063 14.289 14.289 0 01.084 1.869v10.1a18.514 18.514 0 01-.105 2.352h.945v-1.739h4.431v1.344h.924a12.746 12.746 0 01-.1-2.142v-10c0-.777.021-1.3.063-1.785a11.8 11.8 0 01-1.785.063zm-2.121.714h4.431v4.938h-4.431zm0 5.628h4.431v5.439h-4.431zm14.91-5.565c0 5.8-.21 8.841-.714 11.067-.357 1.512-.588 1.785-1.554 1.785a15.418 15.418 0 01-2.9-.378 3.194 3.194 0 01.21 1.008 25.832 25.832 0 002.73.189c1.386 0 1.827-.4 2.268-2.142.567-2.184.819-5.418.84-10.878a12.373 12.373 0 01.063-1.491 11.944 11.944 0 01-1.785.084h-5.08a41.3 41.3 0 00.777-2.058c.126-.4.231-.651.315-.861l-.966-.273a12.091 12.091 0 01-.5 1.848 15.85 15.85 0 01-3.171 5.46 3.378 3.378 0 01.777.525 17.864 17.864 0 002.436-3.885zm-2.835 7.686a22.48 22.48 0 00-3.381-5l-.672.441a21.829 21.829 0 013.3 5.1zM181.016 5c.189-.609.378-1.176.525-1.7a4.226 4.226 0 01.483-1.2c.084-.126.1-.168.1-.252 0-.126-.5-.315-1.3-.483a13.906 13.906 0 01-.8 3.78 24.115 24.115 0 01-3.633.273c-.273 0-.483 0-.9-.021.084.882.084.882.483.882.966 0 2.709-.126 3.612-.231a.409.409 0 01.168-.021 30.27 30.27 0 01-2.163 4.977 21.583 21.583 0 01-2.037 3.066.159.159 0 00-.021.084c0 .063.021.105.168.21a1.32 1.32 0 00.567.357.306.306 0 00.168-.105 30.813 30.813 0 004.305-8.736c.063 0 .084-.021.21-.021.819-.126 2.9-.525 3.465-.651.1-.063.126-.084.126-.231a2.553 2.553 0 00-.063-.483c-.021-.147-.063-.21-.168-.21h-.084a23.648 23.648 0 01-3.211.716zm10.437 2.52a9.107 9.107 0 00-1.89-1.281 8.3 8.3 0 00-2.016-.84c-.063 0-.084.021-.147.1a2.7 2.7 0 00-.294.483v.048a.143.143 0 00.063.105 10.842 10.842 0 013.7 2.247c.084.063.105.063.126.063.126 0 .525-.609.525-.8-.004-.045-.025-.061-.067-.124zm-.756 8.652a14.294 14.294 0 00-3.822-2.247c-.147-1.68-.231-3.318-.231-4.62a1.934 1.934 0 01.1-.735c.084-.189.084-.189.084-.231 0-.105-.21-.168-.735-.231a1.905 1.905 0 01-.42-.042c.021.378.063.8.063 1.239.021 1.512.042 2.016.168 3.507 0 .189.042.483.063.861a7.627 7.627 0 00-1.932-.252c-2.079 0-3.549 1.092-3.549 2.625 0 1.428 1.239 2.394 3.066 2.394 2.205 0 3.36-.987 3.36-2.9 0-.126 0-.378-.021-.672a15.4 15.4 0 013.255 2.163.159.159 0 00.084.021c.126 0 .525-.588.525-.777a.192.192 0 00-.055-.102zm-4.683-1.533a2.074 2.074 0 01.021.525c0 1.659-.735 2.373-2.457 2.373-1.428 0-2.226-.546-2.226-1.554 0-1.05 1.029-1.722 2.6-1.722a5.363 5.363 0 012.062.379zm13.335-10.9h11.886a14.215 14.215 0 012.142.105V2.88a15.042 15.042 0 01-2.142.126h-5.313V2.67a7.641 7.641 0 01.126-1.764h-1.071a9.106 9.106 0 01.126 1.743v.357h-4.452A18.138 18.138 0 01198.4 2.9a19.738 19.738 0 01.105 2.709v2.479c0 .819-.021 1.407-.063 2.247a16.172 16.172 0 01-3.381 1.575l.462.861c.231-.147.357-.21.525-.315a44.047 44.047 0 002.331-1.323c-.315 3.423-1.029 5.334-2.772 7.287a2.166 2.166 0 01.777.5 9.4 9.4 0 001.827-3.024 22.46 22.46 0 001.134-8zm7.812 13.713v-5.437h3.591a9.5 9.5 0 011.7.105v-.966a9.063 9.063 0 01-1.722.105h-3.57V7.185h4.074a11.912 11.912 0 011.911.1V6.3a12.084 12.084 0 01-1.911.126h-8.714a11.57 11.57 0 01-1.932-.1v.945a16.728 16.728 0 011.932-.084h3.8v10.267h-3.38v-5.628a14.311 14.311 0 01.126-1.953h-1.092a14.683 14.683 0 01.126 1.932v5.649h-1.575a13.083 13.083 0 01-2.121-.1v.987a14.521 14.521 0 012.121-.126h11.088a13.157 13.157 0 011.974.126v-1.013a12.4 12.4 0 01-1.974.126zm-11.739-12.6a18.274 18.274 0 011.407 3.78l.777-.294a21.954 21.954 0 00-1.47-3.759zm24.948 6.132A19.835 19.835 0 01216.485 13l.4.84c.273-.168.63-.378.861-.5.735-.378.735-.378 1.029-.546.63-.378.945-.567 1.6-1.008v5.565a10.05 10.05 0 01-.126 1.7h1.092a10.05 10.05 0 01-.126-1.7V2.838a10.324 10.324 0 01.126-1.68h-1.092a10.141 10.141 0 01.126 1.68zm6.867-3.444a16.875 16.875 0 01-2.352 7.371 10.333 10.333 0 01-3.108 3.15 2.7 2.7 0 01.651.714 12.149 12.149 0 004.158-5.376 17.446 17.446 0 001.281-5.019 17.95 17.95 0 001.071 3.843 16.328 16.328 0 001.659 3.129 14.754 14.754 0 003.36 3.528 3.186 3.186 0 01.672-.819 11.188 11.188 0 01-3.339-3.255 18.243 18.243 0 01-2.961-7.266h4.389a10.618 10.618 0 011.827.126V6.66a9.52 9.52 0 01-1.89.126h-4.41c-.063-.609-.084-1.617-.084-2.982a10.867 10.867 0 01.147-2.562h-1.113a20.045 20.045 0 01.1 3.675v1.869h-3.234a11.9 11.9 0 01-1.911-.126v1.008a12.562 12.562 0 011.932-.126zm-8.211.714A19.367 19.367 0 00217.6 3.93l-.735.231a17.392 17.392 0 011.365 4.347zm14.217-3.171A22.423 22.423 0 00230.282 2l-.609.42a15.879 15.879 0 012.94 3.255zm13.377 3.488a1.51 1.51 0 00-1.449 1.449 1.449 1.449 0 002.9 0 1.51 1.51 0 00-1.451-1.449zm21.357-5.334a19.384 19.384 0 01-5.061 6.405 23.223 23.223 0 01-4.515 3.129 2.681 2.681 0 01.693.777 26.083 26.083 0 007.77-6.846 50.902 50.902 0 00-.063 2.5v7.77a12.571 12.571 0 01-.147 1.995h1.239a12.039 12.039 0 01-.147-1.995V5.5a20.743 20.743 0 001.239-2.268h5.5a12.478 12.478 0 011.953.126V2.334a11.933 11.933 0 01-1.953.126h-13.69a11.933 11.933 0 01-1.953-.126v1.029a12.667 12.667 0 011.953-.126zm1.223 4.011a21.876 21.876 0 007.182 6.069 2.475 2.475 0 01.714-.8 19.225 19.225 0 01-7.161-5.712zm22.449-1.26v2.5H290.2a7.626 7.626 0 01-1.491-.1v.9a7.626 7.626 0 011.491-.1h3.8a7.47 7.47 0 011.512.1v-.9a7.827 7.827 0 01-1.533.1H292.4v-2.5h1.218a10.154 10.154 0 011.6.084v-.861a8.815 8.815 0 01-1.6.105H292.4v-.4a8.949 8.949 0 01.105-1.7h-.966a9.113 9.113 0 01.1 1.68v.42h-1.155a9.407 9.407 0 01-1.533-.105v.861a11.16 11.16 0 011.554-.084zm-6.179 8.442a11.38 11.38 0 01.063-1.617 8.71 8.71 0 01-1.239.042h-2.541a5.659 5.659 0 01-1.239-.084 13.823 13.823 0 01.084 1.68V17.1a18.9 18.9 0 01-.105 1.953h.882V17.79h2.94c.252 0 .546 0 1.2.042a9.116 9.116 0 01-.042-1.365zm-4.1-.861h3.318v3.507h-3.318zm4.347-11.76a6.433 6.433 0 01-1.365.105h-2.436a6.2 6.2 0 01-1.365-.105v.945a8.63 8.63 0 011.365-.084h2.436a8.8 8.8 0 011.365.084zm-5.9 3.717a11.943 11.943 0 011.617-.084h3.318a8.976 8.976 0 011.428.084v-.945a7.616 7.616 0 01-1.617.1h-3.129a8.246 8.246 0 01-1.617-.1zm5.817 1.848a7.788 7.788 0 01-1.386.084h-2.31a8.21 8.21 0 01-1.407-.084v.9a8.528 8.528 0 011.407-.084h2.31a8.743 8.743 0 011.386.084zm0 2.772a7.94 7.94 0 01-1.386.084h-2.31a8.21 8.21 0 01-1.407-.084v.9a8.691 8.691 0 011.407-.084h2.31a8.914 8.914 0 011.386.084zm8.883 1.869a10.437 10.437 0 01.063-1.218 12.693 12.693 0 01-1.47.063h-2.247a13 13 0 01-1.407-.063 11.476 11.476 0 01.063 1.3v3.318a8.416 8.416 0 01-.084 1.47h.84v-1.279h2.856c.336 0 .714.021 1.449.063a8.061 8.061 0 01-.063-1.092zm-4.242-.462h3.486v3.36h-3.486zm-2.163-8.925h8.043v14.7c0 .525-.147.672-.714.672a12.376 12.376 0 01-2.478-.273 3.02 3.02 0 01.189.924c.8.084 1.638.126 2.31.126 1.113 0 1.512-.357 1.512-1.344V3.657a14.341 14.341 0 01.084-1.848 13.882 13.882 0 01-1.869.084h-6.149a13.929 13.929 0 01-1.848-.084 17.029 17.029 0 01.126 2.268c0 4.452-.105 7.434-.315 9.66a15.076 15.076 0 01-1.092 4.746 2.97 2.97 0 01.777.525 15.267 15.267 0 00.987-3.969 77.405 77.405 0 00.441-10zm27.867 1.995a18.35 18.35 0 01-3.965.377 17.986 17.986 0 01-2.772-.21c-.063.336-.063.462-.084.567V5.5a.2.2 0 00.147.189 16.571 16.571 0 002.688.189 34.828 34.828 0 004.116-.294c.084-.042.1-.084.1-.189 0-.525-.063-.777-.189-.777zm.721 11.067a18.847 18.847 0 01-3.549.4 6.514 6.514 0 01-2.793-.5 2.924 2.924 0 01-1.491-1.554c-.462.231-.672.378-.672.483v.063a3.778 3.778 0 001.638 1.764 6.79 6.79 0 003.465.693 22.167 22.167 0 003.549-.315c.105-.042.126-.084.126-.168 0-.105-.042-.462-.063-.609-.045-.215-.066-.257-.21-.257zm-11.28-3.066c-.273.63-.777 1.785-1.491 3.507a31.525 31.525 0 01-.294-4.032 31.011 31.011 0 011.092-7.56 2.463 2.463 0 01.315-.735.475.475 0 00.105-.21c0-.168-.378-.336-1.344-.567a8.765 8.765 0 01-.231 1.995 34.585 34.585 0 00-.84 7.329 19.037 19.037 0 00.693 5.418c.063.147.147.189.4.189.525 0 .567-.021.63-.357a19.354 19.354 0 01.945-3.066c.378-.945.378-.945.378-1.05a.389.389 0 00-.042-.147 1.56 1.56 0 01-.316-.714z" transform="translate(0 51.897)" fill="#588139"/></g><g fill="#4c6b29"><path d="M910.361 329.651c-2.243 2.654.238 6.321-1.934 9.006a28.61 28.61 0 00-1.563 2.536c-.173-2.01-.4-3.337-.382-4.661a9.134 9.134 0 00-3.075-7.009c-.5-.479-1.2-1.374-.353-2.089a1.59 1.59 0 012.319.225c.866.893 1.814 1.7 2.777 2.6-1.424-9.294-8.472-15.258-17.6-14.976-5.373.168-11.56 4.565-12.1 8.639-.327 2.458 1.751 3.834 2.861 5.515a74.5 74.5 0 017.8 15.941c1.123 3.135 2.476 2.573 4.4 1.039 1.044-.835 1.8-3.489 3.088-2.222 1.7 1.678.118 4.737-1.484 5.088-6.705 1.471-2.588 5.674-2.1 8.326a87.93 87.93 0 01-.712 37.4c-1.754 7.119-3.219 14.3-6.308 20.988a39.837 39.837 0 01-12.673 15.614c-1.568 1.152-1.541 2.486-1.725 3.884-.636 4.913-5.271 8.8-10.236 9.181-7.158.544-13.994-1.971-21.1-1.759a42.942 42.942 0 00-12.83 2.094c-9.163 3.128-18.239 6.407-28.187 6.747-3.269.11-6.512.712-9.841.175-1.5-.243-2.793-.523-3.758-1.84-1.2-1.638-2.931-.134-4.449-.581-3.07-.9-5.172-2.6-5.826-5.713-.262-1.248-.743-1.45-1.709-1.084-8.456 3.211-17.242 3.334-26.141 3.3a92.557 92.557 0 01-13.953-.94 7.328 7.328 0 01-2.981-.934c-1.581-1-3.015-.906-4.813.348a51.449 51.449 0 01-22.482 8.5 96.57 96.57 0 01-30.729-.581c-5.779-1.013-10.76-4.2-15.573-7.462-.712-.482-1.065-.673-1.845-.3a7.837 7.837 0 01-6.342.453c-2.007-.79-3.224-.005-4.664 1.17-5.509 4.491-11.919 4.742-17.993.84-.314-.2-.484-.44-1.01-.238-5.6 2.13-9.493 1.162-13.018-3.091-.348-.419-.406-1.714-1.518-.819a1.625 1.625 0 00-.479 2.431c2.756 5.148 5.658 10.246 7.467 15.829 1.2 3.7-.16 6.4-3.787 7.854-3.539 1.413-5.836-.662-7.467-3.24a119.582 119.582 0 01-9.686-18.009c-.652-1.573-1.513-1.5-2.685-.913-5.622 2.824-12.817 2.976-17.693-2.832-.806-.963-1.921.1-3.047-.317-6.789-2.513-7.286-9.671-5.65-14.581a16.486 16.486 0 013.8-6.088c1.845-1.952-.665-3.769-2.052-4.345-4.858-2.023-9.309-4.308-12.51-8.747-3.921-5.439-3.449-19.273 1.235-23.377 2.727-2.39 6.417-2.589 9.778-3.5 9.134-2.479 14.9-6.813 15.255-19.072a31.9 31.9 0 017.483-19.245c.351-.44.6-.639.173-1.28-1.95-2.892-1.424-5.949-.325-8.972.254-.7.571-1.267.073-2-5.577-8.229-5.012-17.2-2.787-26.185 2.355-9.521 8.833-15.507 17.693-19.155.515-.212.958-.372 1-1.05.432-7.551 3.824-7.394 9.456-8.695a5.2 5.2 0 013.531.018c.563.264 1.762-.356 1.586.851-.123.845-1.136.892-1.945 1-2.97.406-6.025.547-8.611 2.355-.45.314-1.123.495-.924 1.319a1.6 1.6 0 001.35 1.259c7.781 1.934 15.389.769 22.93-1.327.6-.165 1.675-.513 1.442-1.371-.136-.495-1.068-.963-1.714-1.094a172.445 172.445 0 00-8.574-1.474c-.626-.092-1.039-.27-1.157-.858-.181-.887.733-.725 1.071-.819a15.9 15.9 0 0111.165 1.183c.573.262 1.416.843 1.426 1.3.113 4.515 3.818 4.352 6.692 5.355 1.761.618 3.18-.065 4.826-.879-2.256-2.581-4.509-5-4.4-8.768.092-3.245.552-6.08 3.52-8.011a17.807 17.807 0 003.358-2.827c.754-.814 1.35-.961 2.193-.309a1.446 1.446 0 01.076 2.405c-1.408 1.46-1.7 2.3.518 3.533 2.133 1.188 3.622 3.583 2.306 6.09-1.227 2.342-3.612 2.353-5.957 1.369a13.012 13.012 0 00-1.942-.492c1.819 5.313 5.734 7.224 11.691 5.91 1.18-.262 2.91-1.665 3.541-.225.861 1.96-1.432 2.369-2.963 3.222 4.012 1.777 8 1.086 11.9.837a38.072 38.072 0 0013.408-3.23c2.408-1.089 3.337-3.007 3.468-5.509.042-.788-1.057-2.057.51-2.274 1.267-.178 1.7 1.07 2.034 2.1a3.5 3.5 0 00.8 1.646 10.132 10.132 0 00-.254-1.866c-.346-1.052-.448-2.12.835-2.345s1.7.832 1.738 1.934c.094 2.916-1.228 4.643-3.85 6.187-2.8 1.649-5.287 3.913-8.48 4.763-3.02.806-6.158 1.17-9.239 1.751-.733.139-1.7.05-1.374 1.371.233.942-.241 2.068 1.544 2.083a57.785 57.785 0 0113.125 1.125c1.309.317 2.528.743 2.159 2.23-.385 1.542-1.683.814-2.809.715-5-.44-10.011-.84-15.028-1.016-5.721-.2-11.435.3-15.07-5.829a7.161 7.161 0 00-6.975-3.641c1.405.856 2.523 1.46 3.554 2.185a1.46 1.46 0 01.254 2.143c-.489.735-1.193.576-1.929.175a9.776 9.776 0 00-5.347-1.021c-1.034.065-2.589-.073-2.764 1.382-.249 2.031 1.636 3 2.777 4.269a6.049 6.049 0 002.308 1.128c.877.345 2.337.3 1.981 1.659-.385 1.458-1.832 1.073-2.881.777a30.419 30.419 0 01-3.46-1.455c.225 2.646 1.167 4.643 3.588 5.4 3.138.981 6.316 2.073 9.7.9 1.1-.382 1.947.5 2.612 1.141 5.645 5.428 12.759 6.9 20.166 8.09 9.59 1.539 17.53-.811 23.838-8.318.526-.626 1.392-1.3 2.246-.495.937.882.118 1.8-.4 2.423-5.41 6.472-12.139 10.343-21.179 10.063a14.9 14.9 0 015.305 8.65c.1.547.479.72 1.036.641a65.932 65.932 0 0015.206-4.14c7.687-3.078 15.271-6.412 22.9-9.639 1.4-.592.7-1.492.283-2.28-3.418-6.415-7.794-12.194-12.126-17.993-3.777-5.056-7.9-9.8-13.125-13.447-.406-.283-1.031-.707-.636-1.275.536-.769 1.408-.62 2.191-.364 2.952.966 5.041 3.245 7.043 5.326a125.4 125.4 0 0119.1 25.79c2.146 3.84 4.159.683 5.64-.037 8.438-4.093 16.114-9.731 24.976-12.926 3.683-1.327 5.2-2.4 4.871-6.912-.557-7.747 4.661-12.924 12.212-13.94 2.329-.311 3.434-2.539 5.138-3.821 1.149-.866 1.759-2.452 2.379-3.371-7.328-.374-9.4-6.779-10.788-13.3a6.424 6.424 0 014.3-7.577c2.557-.995 4.91-2.24 6.52-4.606.987-1.45.414-3.321 1.788-4.79a5.116 5.116 0 016.402-1.315 4.531 4.531 0 012.526 5.53c-.66 2.492-2.636 3.682-5.117 3.847-1.761.118-3.5-.141-4.509-2.513-1.212 3.826-4.352 4.915-7.132 6.465-.586.327-1.5.733-1.146 1.568.128.306 1.165.27 1.79.317 2.162.168 4.345.021 6.444.851a3.592 3.592 0 012.594 3.392c-.173 2.8-2.691 3.688-4.852 4.633a34.225 34.225 0 01-4.148 1.241c2.4 3.722 10.226 5.156 15.766 2.855 1.047-.437 3.033-.382 2.358-2.662-.162-.542.725-.421 1.264-.434a2.743 2.743 0 012.879 1.994 1.047 1.047 0 01-.877 1.345c-2.79-.144-4.638 2.12-7.14 2.646 2.693 1.672 9.027-.327 11.539-3.68 1.39 1.078.61 2.314-.089 3.083-2 2.2-.144 2.895 1.33 3.141 6.446 1.086 12.1-.495 16.517-5.569 1.788 2.193-.445 5.76-4.07 6.949-6.553 2.149-12.9 2.463-19.469-.338-2.2-.937-5.376.817-7.564-1.039-2.039-1.733-3.057-.631-4.442.7-1.651 1.583-3.484 2.984-5.4 4.6 2.4 1.262 3.727 2.651 3.146 5.685-.29 1.513 2.908 2.123 3.46 4.1.115.416.547.754.615 1.165.136.822-.832 2.219.217 2.384 1.382.22 3.075.346 4.316-.874a22.9 22.9 0 005.172-7.71c.186-.448.1-1.419.974-1.17.735.209.8.858.8 1.7-.011 2.583-2.128 4.428-2.251 7.014 6.692.34 13.442-.118 19.959 1.782 1.426.416 1.479-.743 1.659-1.377a7.386 7.386 0 014.491-5.172c1.144-.455.293-1.084.146-1.562-.6-1.966-1.945-3.795-.963-6.017.267-.607.487-1.29 1.3-1.285.835.008 1.028.657 1.241 1.33.652 2.07 1.33 4.135 2.07 6.177.136.372.612.62.932.924a4.62 4.62 0 00.513-1.128c.544-3.426 2.973-3.813 5.509-2.937 8.367 2.892 11.966 7.967 8.38 18.554 4.188-3.46 5.6-10.7 3.518-17.229a19.9 19.9 0 00-7.705-10.4c-.725-.516-1.432-1.547-1.036-2 .832-.966 2.19-.591 3.1.068 4.224 3.07 7.506 6.724 8.888 12.065a22.242 22.242 0 01-1.458 16.07c-.8 1.625-2.321 2.447-3.593 3.625 8.815 3.965 15.871 10.2 23.079 16.837a43.609 43.609 0 00-3.591-19.8c-5.187-12.3-13.337-22.317-23.615-30.731a32.623 32.623 0 01-9.254-11.833c1.793 4.057-1.568 6.734-2.808 10.113-.62-2.452-2.526-5.674-1.607-7.208 2.24-3.743-.843-5.562-1.651-8.171-.188-.6-.414-1.162.168-1.633 1.152-.929 1.717.686 2.994.6-1.5-2.266.9-5.509-2.67-7.49l5.42-.934c3.957-.675 4.654-3.614 4.368-6.834-.317-3.544-2.013-6.192-6.022-6.42-3.259-.183-5.648.94-6.376 4.462-.159.762-.589 1.746-1.534 1.437a1.69 1.69 0 01-1.091-2.225c.921-3.706 5.127-6.7 9.21-6.4 5.049.364 8.558 3.806 8.872 8.7a9.572 9.572 0 01-6.842 10.074c-1.63.523-1.091 1.754-.955 2.6a27.746 27.746 0 009.388 16.51c9.056 8.074 17.967 16.224 23.6 27.2 1.018 1.981 1.325 2.952 4.083 1.892 5.059-1.939 10.969 1.646 10.877 6.192a45.468 45.468 0 01-1.293 9.435 2.552 2.552 0 01-3.62 1.939 2.32 2.32 0 00-3.007 2.018c-.173 3.128.987 6.237.042 9.435-.172.581 1.16 1.607 1.992 2.675 3.306-6.53 8.878-8.9 15.659-9.21 7.64-.348 19.276 5.648 18.551 16.232-.016.238.353.5.542.756zM608.6 464.282c.141-6.5-4.282-11.293-6.177-17.391-.712 1.086-1.714 2.1-1.529 2.416 1.495 2.541 3.651 4.7 4.025 7.867.047.392 1.72.267 1.393 1.439-.7 2.526 1.154 3.921 2.324 5.632.646.981.827 2.316 2.528 2.327 3.381.018 4.51-2.918 2.764-6.936-4.824-11.11-11.662-21.207-16.193-32.459a1.421 1.421 0 00-2.248-.67c-.859.5.055 1.084.262 1.5q5.469 11.04 11.053 22.021c1.479 2.887 2.2 6.26 4.617 8.543 1.6 1.515 2.9 3.094 2.057 5.148-1.076 2.633-3.162.942-4.876.563zm137.009-48.107c.832-1 .508-1.974.39-2.84-.819-5.925-1.413-11.893-3.028-17.682a2 2 0 01.688-2.324c.879-.51 1.078.615 1.518 1.112 1.722 1.947 1.6 4.512 2.112 6.8a58.1 58.1 0 011.384 19.035c-.246 2.225-1.343 4.083-3.8 1.882a55.094 55.094 0 01-14.133 19.04 33.467 33.467 0 005.266 1.23c11.55.751 23.089 1.083 34.513-1.473 3.172-.712 6.509-1.416 6.873-5.2.3-3.109 2.015-4.51 4.407-5.624 4.112-1.916 8.194.291 12.314.246a68.478 68.478 0 0020.456-3.659 26.444 26.444 0 00-3.421-2.531c-4.706-2.361-7.509-6.349-9.215-11.073a73.994 73.994 0 01-2.256-44.54c2.426-9.456 6.211-18.143 12.8-25.418 3.015-3.329 6.284-6.478 10.835-7.888.382 1.374-.453 1.722-1.193 2.188-2.722 1.717-5.5 3.384-7.506 5.988a64.692 64.692 0 00-10.872 21.749 82.733 82.733 0 00-3.235 23.453 74.455 74.455 0 001.84 14.314c1.021 5.221 2.518 10.351 5.891 14.772 4.792 6.281 11.838 7.823 18.86 9.534.468.115 1.178-.217 1.17.646-.01.979-.743.62-1.308.675-3.133.3-6.533-.945-9.265-.123-3.361 1.013-6.679 2.416-10.142 3.277a60.494 60.494 0 01-14.976 1.405c-3.6-.016-7.315-2.429-10.833.285 5.462.055 5.732.139 7.009 2.243a63.586 63.586 0 00-6.912 1.4 4.732 4.732 0 00-3.588 4.454 4.988 4.988 0 003.384 4.85c.809.327 1.973.767 2.112-1.186.479-6.781 9.317-10.066 14.74-7.655.45.2 1.473.374 1.18 1.285-.22.675-.96.6-1.562.576-3.115-.128-6.211.005-8.886 1.822a4.627 4.627 0 00-2.177 5.389c.5 1.706 2.1 1.892 3.554 2.355 4.588 1.458 8.765-1.408 13.254-1.146 1.733.1 3.507-.516 5.268-.783 7.433-1.125 14.175-4.541 21.351-6.457 9.011-2.405 18.014-.1 26.976.9 5.062.563 9.65-1.686 10.77-5.847.1-.393.181-1.078-.008-1.2-.322-.212-1.084-.28-1.28-.065-.9.995-2.17.743-3.18.851a28.98 28.98 0 01-11.432-.591c-.7-.209-1.7-.434-1.377-1.7.351-1.387 1.144-.586 1.848-.5 7.378.916 14.146-.175 20.21-5.028 7.488-5.991 11.163-14.24 13.7-22.945 3.156-10.822 5.347-21.927 4.755-33.32a81.543 81.543 0 00-9.9-34.943c-7.907-14.656-19.367-25.4-33.781-33.482-3.334-1.869-5.645-1.492-8.951-.4-5.52 1.832-14.3.665-16.324-6.135-1.29-4.339-4.379-4.371-7.221-4.677-7.328-.785-14.683-1.214-22.055.34-1.879.4-3.1.751-4.3 2.282-5.119 6.556-12.081 7.53-19.181 2.769-.853-.573-1.369-.113-2 .086a86.849 86.849 0 00-18.321 8.739 275.663 275.663 0 01-32.286 16.151c-8.307 3.6-16.664 7.289-25.934 7.792-.963.052-.7.526-.7 1.183.031 6.313-2.162 11.469-7.629 15.094-5.692 3.777-16.311 4.174-20.77.56-.429-.348-1.2-.633-.79-1.322.139-.23.953-.157 1.432-.073 5 .9 10.076 1.555 14.937-.3 7.307-2.79 10.4-8.318 9.469-16.125-.736-6.158-5.952-11.113-12.843-12.194-5.554-.871-10.3 1.926-11.353 6.695-1.455 6.6-8.27 12.073-15.013 12.989-11.246 1.528-22.544-.374-33.822 1.086-6.129.8-12.044 1.672-16.915 5.494-7.509 5.889-11.034 13.921-11.34 23.422-.228 7.046-2.9 12.709-9.105 16.578-3.248 2.026-6.878 2.976-10.82 4.311 1.793.348 3.091.578 4.381.856 3.8.814 6.477 2.905 6.553 6.991.068 3.672-2.583 5.494-5.658 6.826-4.465 1.932-8.925 3.258-13.984-.123a45.715 45.715 0 001.591 4.85c3.952 8.357 11.788 10.265 19.705 10.328 6.494.05 12.948-.751 19.082 1.863 2.052.877 2.567.34 2.6-1.531a1.281 1.281 0 01.906-1.364c.864-.309 1.162.338 1.541.861 1.3 1.785.916 3.635-.013 5.352-1.6 2.958.042 3.358 2.4 3.2 2.117-.141 4.23-.369 6.336-.61 1.222-.141 2.581.194 3.536-.979 4.428-5.439 10.427-8.195 17.127-9.192 9.168-1.364 18.033-.754 25.144 6.342.521.518.968.372 1.589.335 6.671-.38 10.592-4.591 13.981-9.713 3.656-5.522 6.465-11.149 4.4-18.08-.437-1.466-1.7-4.059-.348-4.449 1.978-.573 2.544 2.162 3.431 3.727a3.415 3.415 0 01.178.769c1.348 5.1.324 9.914-2.157 14.866 3.75-1.722 7.357-1.6 10.864-2.07.557-.076 1.311.327 1.447-.827a58.186 58.186 0 014.274-16.638c2.23-5.109 4.509-10.168 8.373-14.306.592-.633 1.34-1.861 2.222-1.107 1.078.926-.112 1.952-.693 2.719-5.792 7.656-8.3 16.64-10.712 25.709-1.1 4.151.814 4.991 4.271 4.735a6.707 6.707 0 011-.055c.8.06 1.887.152 1.861 1.07-.031 1.091-1.311 1.042-2.039 1.008a55.227 55.227 0 00-20.108 2.821 7.1 7.1 0 00-3.921 2.575c-3.371 4.494-6.883 9.079-13.049 9.924-1.56.212-1.67.654-1.1 1.958 2.583 5.878 2.955 11.555-1.759 16.708 3.895 2.7 8.022 5.412 12.557 6.653a70.974 70.974 0 0026.282 1.675c13.426-1.442 25.756-6.035 35.2-16.4 4.565-5.009 8.55-10.3 8.422-17.564-.018-1.115-.306-2.492 1.178-2.824 1.526-.33 2.156.916 2.787 2.232zM617.49 293.979c-1.555-.081-3.044-.636-3.824-.12-4.119 2.725-8.7 4.8-12.222 8.407-.5.516-1.042 1.691-1.845 1.018-.819-.688.039-1.5.594-2.175 2.748-3.321 6.271-5.768 10.068-8.749-2.353.107-2.049-3.423-4.622-2.342a29.024 29.024 0 00-11.173 8.852c-5.53 6.865-5.86 15.209-4.423 23.393 1.578 9.006 4.669 11.922 12.288 12.887 4.554.578 9.077-.359 13.591-1.107 7.972-1.324 16.038.3 24.026-.523 4.122-.424 8.454.309 12.332-1.633 5.917-2.965 9.642-9.99 9.082-16.745-.505-6.085-1.232-6.758-8.058-6.7-4.679.042-8.7-1.343-11.435-5.232-1.822-2.591-3.167-5.512-4.821-8.229-.717-1.18-1.445-3.292-2.806-2.84-1.84.612-4.365.28-5.371 2.916-1.07 2.806-2.541 5.459-3.887 8.155-.351.7-.929 1.563-1.772 1.254a1.486 1.486 0 01-.738-2.036c.7-1.7 1.411-3.4 2.136-5.091.408-.948 1.437-2.52.73-2.79a4.907 4.907 0 00-4.109.34c-3.463 2.73-6.635 5.826-9.914 8.786-.471.427-.568 1.712-1.489 1.06-.683-.484.031-1.366.322-1.971 1.624-3.364 4.45-5.752 7.34-8.785zm9.3 140.38c-.042 2.366-1.855 3.855-1.327 5.967 1.214 4.855 5.088 6.92 11.851 6.2 4.117-.44 7.438-4.745 7.467-9.482.005-.824-.872-2.376.652-2.437 1.207-.047 1.874 1.34 2.1 2.575a5.18 5.18 0 01-.094 1.573c-.356 2.643.72 3.834 3.449 3.732 6.321-.241 10.291-6.273 8.139-12.756-2.536-7.645-7.959-11.6-15.955-12.717-9.683-1.351-22.911 1.68-28.3 11.424-3.811 6.894-2.115 13.866 4.515 16.12 1.382.468 2.942.626 3.986-.149.79-.584-.045-2.039-.073-3.088-.072-2.767-.185-5.709 3.592-6.962zm217.329-144.322c.3-4.562-4.612-9.506-9.254-9.218a1.9 1.9 0 00-1.657 1.2c-.118.222.094.9.283.958 1.015.314 2.269.906 1.743 1.89-.479.9-2.031.518-3.13.385-2.829-.34-5.638-.264-6.954 2.748-1.408 3.224-1.1 6.627 1.56 9.016a11.56 11.56 0 0012.453 1.947c3.437-1.407 5.089-4.82 4.956-8.926zm-58.893-9.294c-1.259-2.923-3.745-3.332-8.336-1.631-5.706 2.115-8.519 7.373-6.771 12.654 1.193 3.617 6.975 5.842 11.689 4.316a6.948 6.948 0 005.229-6.391c.152-1.272 1.173-2.672.3-3.892-1.084-1.513-2.573-2.727-4.745-2.06-1.285.4-1.411-.636-1.6-1.426-.285-1.191.484-1.756 1.495-1.848a14.948 14.948 0 012.739.278zM586.471 445.608a15.287 15.287 0 003.418-.411c2.416-.916 5.768-1.293 2.866-5.365a38.816 38.816 0 01-3.609-7.433c-1.369-3.2-4.784-4.156-7.477-1.973-2.861 2.324-4.873 8.085-3.421 10.93 1.717 3.357 5.022 4.197 8.223 4.252zm-11.371-4.256c-.28-3.711 0-7.37 2.743-10.226 2.013-2.091 2.968-3.567-.767-4.627-1.319-.374-2.175-2.507-3.957-1.138-3.436 2.636-3.8 6.553-3.52 10.314.226 3.062 2.433 5.086 5.501 5.677zm305.006-143.9a8.561 8.561 0 00-6.446-5.31 4.308 4.308 0 00-3.884 1.084c-1.036 1 .335 1.774.581 2.638.7 2.45 1.842 4.8 2.3 7.286.327 1.8.641 2.146 2.086 1.015 1.133-.89 1.9-.68 2.156.848 2.39-3.395 2.421-3.418 1.575-4.593a2.321 2.321 0 01-.536-2.392c.462-1.128 1.445-.128 2.167-.576zM608.039 441.36c2.578-4.881 1.05-10.613 5.423-14.853a59.723 59.723 0 01-11.2 1.136c-.908-.018-1.421.416-.793 1.536 2.118 3.79 4.131 7.64 6.57 12.181zm1.081-154.218c1.167 1.691 1.953 3.026 3.4 3.175 4.243.44 8.443 1.733 12.767.858 3.536-.714 7.336-.856 9.807-4.091a4.978 4.978 0 00.505-1.61 4.479 4.479 0 00-1.3 0 58.5 58.5 0 01-14.272 2.69 57.358 57.358 0 01-10.907-1.022zm-22.7 139.281c-2-6.677-3.371-7.417-11.613-6.281 3.04 3.874 7.165 5.164 11.617 6.281zm6.582-84.387l6.512-4.339c-2.256-.72-4.946-2.507-6.336-1.788-1.706.885-.991 3.879-.172 6.127zm-.992 87.3c.751-.2 1.84.126 1.183-1.2-1.309-2.641-2.586-5.3-3.887-7.943a1.482 1.482 0 00-1.856-.717c-1.17.235-.382.916-.374 1.487.06 3.327 4.986 4.237 4.02 8.074.004.027.677.224.918.299zm1.929 1.029c-.547 1.17-1.8 1.586-1 3.2.672 1.358 1.222 1.251 2.4 1.036.864-.157 1.217.641.809 1.51-1.442 3.057-.492 4.544 2.829 4.528a52.761 52.761 0 00-5.034-10.274zm65.645-141.226c1.722 3.842 4.572 4.342 7.915 4.046 1.243-.112 1.133-.777 1.225-1.57.115-.995-.427-.856-1.157-.961-2.587-.371-5.293-.041-7.979-1.515zm129.629-47.859c2.625-2.633 4.52-1.856 6.132 1.1a3.346 3.346 0 00-.9-3.829 2.845 2.845 0 00-3.031-.641c-1.278.505-2.644 1.295-2.197 3.371zm-197.2 178.982c.879 1.759 1.615 3.306 2.447 4.8.1.186.735.181 1.078.089a1.493 1.493 0 00.6-.618c-1.224-1.397-.838-4.223-4.124-4.271zm8.31 22.171c-.733.838-2.9.565-1.811 2.617.487.916 1.118 1.46 2.031.851 1.82-1.22-.792-2.217-.219-3.468zm37.654-154.765c1.162.652 2.322 1.212 3.376 1.926.484.327.835.748 1.3.136a11.524 11.524 0 00.838-1.508 5.016 5.016 0 00-1.4-.529c-1.328-.072-2.658-.024-4.113-.024zm25.9 28.342l3.154-1.827-2.507-1.248z" transform="translate(-517.512 -134.892)"/><path d="M595.384 234.074c3.578-.4 6.258.489 8.357 2.779.772.84 1.445 2.01.437 3-1.233 1.217-1.889-.291-2.518-.955-.785-.832-1.463-1.748-2.659-1.937a4.8 4.8 0 00-4.208 1.175c-1 1.107.042 2.565.811 3.74.448.68 1.463 1.508.547 2.214-.657.508-1.72.078-2.479-.62-3.206-2.95-2.547-6.493-1.3-9.9 1.275-3.494 5.245-5.3 8.993-4.494 3.845.83 7.292 2.193 8.435 6.517.157.594.534.683 1.063.571a24.766 24.766 0 0114.408.9c1.063.416 1.131-.432 1.429-.869a9.307 9.307 0 018.7-4.023c3.57.188 6.083 2.049 7.556 5.491 2.68 6.258 1.539 11.372-3.177 13.144a4.892 4.892 0 01-3.936-.147c3.206-2.612 6.752-5.043 5.284-10.524-1.542 2.622-3.086-.364-4.674.646.783 1.225 2.7.838 3.279 2.272.233.576.963 1.076.353 1.777a1.4 1.4 0 01-1.84.152 41.092 41.092 0 01-4.243-2.374c-.424-.288-.563-.644-1.052-.2-.678.623-1.521.851-2.021-.034-.469-.827.013-1.623.712-2.264 3.442-3.159 5.7-3.266 9.168-.4-.67-2.319-2.774-4.585-4.619-4.74a7.628 7.628 0 00-6.983 2.884 2.129 2.129 0 00-.356 1.442c.086.759.777 1.706-.063 2.159-.481.257-1.534-.152-2.122-.557-5.292-3.625-10.867-2.421-16.462-1.076a16.551 16.551 0 01-2.3.584 9.8 9.8 0 01-2.062-.233 6.388 6.388 0 01.772-1.743c1.429-1.625.233-3-.568-4.112-2.094-2.919-7.386-3.137-10.662-.245z" transform="translate(-457.379 -125.008)"/><path d="M644.941 227.526c-2.623 2.85-2.238 5.651 1.306 9.493-2.984.974-5.295-.838-5.486-4.509-.222-4.308 1.926-7.357 5.672-9.189 3.528-1.725 7.737-2.036 9.927 1.259 2.371 3.572 5.046 2.536 7.933 2.363.869-.052 1.751-.047 1.924.879.207 1.107-.843 1.518-1.654 1.62-3.968.5-7.64 1.555-10.4 4.7-.369.421-.851.66-1.34.05-.361-.448-.636-.843-.157-1.392s.921-1.133 1.345-1.727c.769-1.084 2.889-1.473 1.578-3.609a5.5 5.5 0 00-5.787-2.56 6.613 6.613 0 00-4.907 2.672z" transform="translate(-377.484 -136.066)"/><path d="M599.158 240.643c.157-2.209 1.989-4.211 5.229-4.47 3.57-.285 5.9 2.212 5.734 6a4.838 4.838 0 01-5.046 5.023c-3.551.144-5.901-2.135-5.917-6.553zm8.113 3.667c.291-1.84 1.479-2.526.662-3.86-.89-1.46-1.858-2.479-3.756-2.157-1.458.249-1.884 1.327-2.52 2.536 2.688-.647 4.67-.301 5.614 3.481z" transform="translate(-444.741 -113.262)"/><path d="M661.057 233.694a5.927 5.927 0 01-6.02 5.556c-2.662-.141-4.967-1.1-5.091-4.2-.154-3.968 2.536-6.865 6.056-6.883 2.66-.011 5.11 2.666 5.055 5.527zm-2.84 2.269c1.526-1.154 1.188-2.541.437-3.85a3.563 3.563 0 00-4.379-1.853c-1.829.542-2.17 2.125-2.526 3.931 3.26-2.332 5.123-1.774 6.468 1.772z" transform="translate(-362.614 -126.17)"/><path d="M592.752 240.713c0-3.355 2.287-5.771 5.6-5.522 3.258.243 4.4 2.68 4.428 5.517.031 3.245-2.659 4.562-5.127 5.237-2.381.649-4.904-2.387-4.901-5.232zm8.208-.042c-.66-1.832-1.034-3.565-2.905-3.756-1.754-.181-2.248 1.484-3.211 3.146 2.323-1.316 3.941.048 6.116.61z" transform="translate(-455.101 -114.842)"/><path d="M612.224 245.833c-.958-1.665-1.492-3.5-3.3-4.491a1.553 1.553 0 01-.717-2.049 1.477 1.477 0 011.884-.722c2.253.618 5.8 5.5 4.708 7.315-1.481 2.465-2.316 4.735-1.822 7.54.055.3-.492.712-.761 1.073a6.025 6.025 0 01-1-1.128c-.573-1.107-.979-2.306-1.591-3.389-.746-1.316-1.979-2.67-1.044-4.146.884-1.398 2.271.427 3.643-.003z" transform="translate(-430.334 -109.48)"/><path d="M690.408 270.447c-.314-1-.68-1.981-.929-2.992-.189-.756-.5-1.754.393-2.157.942-.427 1.756.228 2.319 1.005 2.46 3.4 1.285 9.241-2.35 11.322-1.437.822-2.685 3.4-4.114 2.35-1.343-.984 1.387-2.575 1.319-4.269a20.424 20.424 0 01.314-2.732c.1-1.018.419-1.717 1.631-1.275 1.26.463 1.582-.04 1.417-1.252z" transform="translate(-305.343 -66.339)"/><path d="M676.8 258.568c-.283.777.33 1.612-.6 1.926-.948.319-1.28-.445-1.631-1.07-1.418-2.528-2.84-5.059-4.216-7.608-.463-.859-.751-1.879.358-2.416a1.664 1.664 0 012.353.861c1.384 2.761 3.392 5.263 3.736 8.307z" transform="translate(-330.272 -92.164)"/><path d="M678.976 244.116c.238.576.008.853-.565.981a1.182 1.182 0 01-1.434-.756 23.193 23.193 0 00-4.792-6.716c-.55-.518-1.837-1.654-.851-2.447.573-.461 2.376-.191 3.049.4a12.219 12.219 0 014.593 8.538z" transform="translate(-328.602 -115.211)"/><path d="M676.752 241.892a3.633 3.633 0 01-.555 1.118c-.458.432-.759-.024-1.131-.332-1.654-1.374-3.387-2.656-5.009-4.065a1.506 1.506 0 01-.293-1.424c.246-.448 1.018-1.034 1.366-.924a7.683 7.683 0 015.622 5.627z" transform="translate(-330.681 -113.098)"/><path d="M624.432 250.435c.238.576.008.853-.565.979a1.182 1.182 0 01-1.437-.754 23.193 23.193 0 00-4.789-6.718c-.55-.516-1.84-1.651-.853-2.444.576-.463 2.376-.194 3.052.4a12.233 12.233 0 014.592 8.537z" transform="translate(-416.815 -104.995)"/><path d="M622.207 248.212a3.6 3.6 0 01-.557 1.115c-.455.432-.756-.021-1.128-.33-1.654-1.377-3.389-2.656-5.012-4.067a1.511 1.511 0 01-.29-1.424c.246-.445 1.018-1.031 1.366-.924a7.691 7.691 0 015.621 5.63z" transform="translate(-418.892 -102.881)"/><path d="M664.134 225.977c-.306-.037.448-.144.974.152 1 .568 2.918.837 2.4 2.306-.411 1.17-2 .34-2.981-.01-1.775-.639-3 .434-4.358 1.162-.691.374-1.484 1.055-2.1.3-.256-.311.139-1.358.482-1.921 1.049-1.709 2.767-2.085 5.583-1.989z" transform="translate(-349.6 -129.793)"/><path d="M661.952 242.477c-.353.694.712 2.392-1.078 2.484-1.536.079-1.128-1.463-1.429-2.395-.447-1.377-1-2.717-1.429-4.1-.18-.589-.539-1.366.189-1.806.641-.39 1.275-.021 1.78.461a6.07 6.07 0 011.967 5.356z" transform="translate(-349.958 -112.696)"/><path d="M642.331 224.421c2.753-.764 5.347-.607 7.519 1.471.319.3 1.128.814.3 1.453-1.175.9-7.451-1.515-7.77-2.973z" transform="translate(-374.921 -132.912)"/><path d="M655.818 224.027c.194.11.963.28 1.12.686.27.707-.437 1.2-1.023 1.447-1.406.584-2.85 1.06-3.779 2.4-.356.516-.853.665-1.319.12a1.734 1.734 0 01.005-2.52 7.4 7.4 0 014.996-2.133z" transform="translate(-362.071 -132.868)"/><path d="M658.817 226.312c-1.5.754-3.3.79-4.6 2.049-.471.458-1.324.735-1.751.084-.45-.683-.77-1.751.11-2.332 2.075-1.377 4.24-2.311 6.2.249z" transform="translate(-359.254 -131.698)"/><path d="M654.679 226.314a3.539 3.539 0 011-.618c.94-.207 1.769-1.617 2.793-.474.319.356.309 1.61.018 1.8-.987.646-1.623 2.164-3.078 1.769-1.424-.387-.636-1.628-.693-2.526z" transform="translate(-355.156 -131.65)"/><path d="M595.465 295.476c1.612.186 3.436.544 3.243 2.1-.256 2.06-2.067.869-3.245.717-4.229-.55-8.564-.741-12.319-3.133a8.235 8.235 0 01-3.986-8.666c.552-4.093 3.41-6.245 6.813-7.826a21.644 21.644 0 013.63-.945c.29-.076.793-.249.793-.38.026-5.106 2.656-1.5 3.74-.911 2.819 1.539 5.389 3.528 8.113 5.245.9.565.767 1.332.743 2.089-.023.8-.691.966-1.309.861-1.774-.3-1.609.641-1.518 1.926.269 3.767-1.474 6.591-4.698 8.923zM585.53 281.3c-2.583 3.447-4.08 6.441-2.63 9.576 1.361 2.944 7.1 4.371 10.074 3.117 3.285-1.382 4.583-3.625 3.957-7.229-2.146 3.811-5.318 5.051-8.967 3.146-2.952-1.54-3.654-4.495-2.434-8.61z" transform="translate(-477.258 -51.005)"/><path d="M579.17 277.344c4.159-.079 6.174 2.672 7.307 5.74 1.636 4.426.123 7.77-3.591 10.034-4.457 2.717-9.7 2.735-14.489 4.332a1.885 1.885 0 01-1.707-.639c-.424-.767.471-1.144 1.021-1.413 1.481-.728 3.01-1.358 4.58-2.055-2.408-2.955-3.871-6.239-2.439-10.3-.748-.17-1.8.487-2.057-.78a1.845 1.845 0 01.934-2.036c3.219-2.091 6.42-4.216 9.723-6.166.8-.471 2.277-.989 2.866.207.867 1.762-1.174 2.008-2.148 3.076zm4.86 10c-3.447 1.871-6.213 1.774-8.624-.688-1.882-1.921-.709-4-.084-6.381a7.474 7.474 0 00-3.5 7.621c.385 2.978 2.887 3.976 5.182 3.907 2.658-.077 5.696-.527 7.026-4.456z" transform="translate(-497.426 -52.798)"/><path d="M613.478 287.871c-1.824-6.287-4.763-11.194-11-13.374-.7-.243-2.06-.1-1.774-1.173.278-1.042 1.468-1.309 2.657-1.1 4.125.722 6.776 3.5 9.176 6.582a18.271 18.271 0 013.5 8.875c.453 3.321-2.269 2.7-4.347 2.8 1.811 3.539 3.738 6.909 3.659 11.032-.039 1.986-1.117 3.266-2.109 4.688-.147.212-.589.217-.892.319-.071-.34-.267-.712-.189-1.013 1.672-6.362-1.138-11.359-4.858-16.072-.594-.751-1.078-1.565-.523-2.4.578-.872 1.526-.631 2.426-.346 1.325.421 2.68.748 4.274 1.182z" transform="translate(-442.309 -55.029)"/><path d="M675.991 319.427c3.238-5.418 5.253-11.055 4.839-17.339a10.985 10.985 0 00-.131-1.581c-.225-1.078-1.466-2.225-.081-3.209 1.508-1.07 1.845 1.029 3.146 1.343a25.186 25.186 0 00-.466-8.865c-.767-4.295-1.6-8.524-4.188-12.178a1.213 1.213 0 01.152-1.79c.921-.725 1.678.05 2.251.555 2.484 2.2 3 5.363 3.821 8.338a44.855 44.855 0 011.612 14.034c-.068 1.455-.463 2.73-1.921 3.371-1.233.544-.9 1.617-.872 2.547.181 5.619-2.57 10.027-5.876 14.191a1.9 1.9 0 01-2.286.583z" transform="translate(-320.485 -49.603)"/><path d="M618.288 264.122c-3.811 1.607-7.88-1.191-12.358 1.28 4.4-.72 7.111 1.16 9.663 3.421.853.754 1.68 1.8.887 2.727-.843.981-1.419-.416-2.008-.874-3.439-2.675-9.9-3.382-13.568-1.057-2.293 1.453-3.143 4.1-3.881 6.64-.238.824-.312 1.8-1.316 2.018a1.593 1.593 0 01-1.371-.476c-.484-.728-.249-1.474.042-2.379 1.863-5.826 4.2-11.22 10.636-13.335 3.769-1.238 7.569-1.764 11.33.147a3.8 3.8 0 011.944 1.888z" transform="translate(-452.991 -73.116)"/><path d="M632.535 289.077c1.67 4.4 1.942 9.074 2.766 13.617a3.544 3.544 0 01.16 1.34c-.254 1.081.2 2.882-1.285 2.944-1.437.06-1.358-1.824-1.452-2.8-.7-7.318-3.366-14.133-5.234-21.147-.228-.856-.764-1.822.28-2.246.906-.366 1.361.722 1.667 1.356 1.106 2.277 2.078 4.62 3.098 6.936z" transform="translate(-399.476 -41.196)"/><path d="M607.521 302.927c-.254-2.013-.508-3.7-.673-5.394a30.06 30.06 0 00-5.153-14.363c-.223-.325-.131-.861-.186-1.3.83.005 1.816-.285 2.463.06 4.928 2.635 7.428 16.27 3.549 20.997z" transform="translate(-440.939 -39.497)"/><path d="M584.508 273.99c3.7-1.395 7.459-2.549 11.047-4.224 4.586-2.141 6.35-6.2 7.731-10.579.317-1 .552-2.225 1.782-1.874 1.044.3.751 1.594.589 2.476-1.837 9.972-6.844 13.822-18.4 14.2-.917.027-1.833.001-2.749.001z" transform="translate(-468.433 -79.136)"/></g></g></g></svg>