<svg xmlns="http://www.w3.org/2000/svg" width="505" height="335" viewBox="0 0 505 335"><g id="sample" transform="translate(-140 -2845)"><rect id="長方形_105" data-name="長方形 105" width="505" height="335" transform="translate(140 2845)" fill="none"/><g id="グループ_52" data-name="グループ 52" transform="translate(-328.532 2379.338)" style="mix-blend-mode:multiply;isolation:isolate" fill="#d17626"><path id="パス_1072" data-name="パス 1072" d="M775.3 604.546c2.81 2.174 5.1 5 8.706 6.131 5.366 1.685 8.413 1.013 9.343-2.347.36-1.3.393-2.093-1.367-2.7a31.706 31.706 0 01-9.055-4.981c2.227.611 4.434 1.3 6.683 1.819 4.721 1.077 9.5 3.075 14.036-.631 1.892-1.546 1.133-3.826 1.6-5.748.19-.77-1.027-.486-1.627-.469-4.261.123-8.531.273-12.792.416-.706.025-1.7.357-1.794-.684-.106-1.239 1.055-1.03 1.789-1.035a76.607 76.607 0 0023.152-3.965c1.845-.594 4.532-1.5 4.367-3.3-.184-2.018-3-2.177-4.964-2.436-5.093-.675-10.054 1.091-15.136.859-.963-.039-2.266.178-2.258-1.046.009-1.136 1.365-1.066 2.308-1.178 7.222-.851 14.4-1.772 21.219-4.649 2.637-1.116 4.389-3.217 6.413-4.936 1.588-1.348-.3-2.442-1.618-3.114-3.828-1.95-7.512-.494-11.218.483-.851.223-1.711.413-2.567.625-.829.206-1.571.031-1.722-.865a1.391 1.391 0 011.225-1.585c7.947-1.825 15.5-4.6 22.26-9.264a10.627 10.627 0 001.948-1.39c1.178-1.3 3.5-2.433 2.615-4.389-1-2.2-3.639-2.433-5.843-2.232-4.021.36-8.02 1.032-12.021 1.6-.692.1-1.635.684-1.856-.34-.254-1.169.921-1.063 1.663-1.219 8.486-1.794 16.977-3.533 25.446-5.4a19.443 19.443 0 007.847-3.854c-5.651-2.86-11.313-2.835-17.128-1.764-1.264.234-3.522 1.292-3.736-.061-.318-1.978 2.235-1.365 3.435-1.582 8.371-1.523 16.88-2.3 25.137-4.523a49.221 49.221 0 009.689-4.13c-7.54-1.99-14.488-3-21.648-1.886-1.671.262-3.343.539-5.012.8-.678.106-1.616.622-1.733-.558-.112-1.125.938-.857 1.607-.977 8.036-1.473 16.1-2.835 24.1-4.473a56.605 56.605 0 0012.526-4.169c.968-.449 2.2-.94 2.221-1.906.022-1.122-1.507-1.451-2.341-1.557-4.057-.519-8.143-.8-12.222-1.125-.935-.07-1.9-.056-1.959-1.247-.056-1.147.767-1.353 1.786-1.423 8.237-.558 16.366-1.652 23.967-5.154 2.1-.971 5.408-1.769 5.126-4.038-.2-1.61-3.555-.151-5.444-.075-19.184.773-38.361 1.847-57.578 1.295-.536-.017-1.473.114-1.557.385-1.828 5.787-6.848 7.721-11.706 9.867-.112.047-.173.218-.254.332 4.317 4.417 1.962 8.112-7.933 12.325 2.436 3.421.477 5.807-1.861 8.2-.486.491-1.649.608-1.155 2a9.873 9.873 0 01-4.211 12.11c-3.725 2.193-7.635 4.071-11.474 6.064-.873.452-1.828.9-2.405-.413-.567-1.286.625-1.5 1.306-1.878 4.152-2.313 8.849-3.784 12.105-7.476 1.878-2.123 4.657-5.034 3.15-7.342-1.071-1.635-4.25 1.568-6.669 2.087a17.629 17.629 0 00-2.818 1.259c-.907.374-1.967.742-2.47-.472-.494-1.189.513-1.7 1.381-2.143 4.381-2.216 9.156-3.72 12.713-7.384 1.158-1.189 2.311-2.631 1.5-4.035-.675-1.166-2.227.134-3.39.29-1.013.134-2.344 1.077-2.832-.5-.5-1.616 1.1-1.683 2.082-1.925a28.174 28.174 0 0011.2-5.508c1.381-1.127 1.055-2.33.508-3.536-.622-1.376-1.7-.751-2.634-.31-.72.338-1.415.614-1.867-.324-.541-1.125.385-1.381 1.1-1.741 3.728-1.875 7.8-3.156 10.855-6.209 1.15-1.144 2.584-2.361 1.973-4.138-.586-1.7-2.33-1.326-3.8-1.437-12.487-.946-25-1.133-37.367.871-15 2.428-28.022 8.335-35.737 22.578-2.475 4.565 1.465 2.67 2.963 3.29.926.377 2.634-.952 2.768.653.128 1.529-1.942 1.205-2.643 1.094-6.223-1-6.41 3.418-7.085 7.52-1.139 6.9-2.129 13.858-5.442 20.142a19.026 19.026 0 01-11.642 9.834c-1.51.447-1.8 1.116-1.365 2.492.751 2.386 1.365 4.808 2.118 7.185.24.759.561 1.479-.315 1.906-.985.483-1.242-.41-1.571-1.049-4.186-8.084-4.624-16.464-2.447-25.234 2.813-11.31 3.893-22.639-1.663-33.569a23.342 23.342 0 00-5.308-7.23c-.472-.413-1.551-.767-.829-1.688.6-.767 1.434-.2 2.02.112 6.625 3.53 9.139 9.859 10.838 16.553 2.623 10.322-.737 20.264-2.341 30.31-.36 2.238-.67 4.487-1.046 7.054 7.135-2.286 9.962-7.875 12.387-13.885 2.495-6.2 3.212-12.817 4.736-19.243.128-.533.505-1.206-.461-1.373-8.458-1.437-12.75-7.791-16.9-14.312-2.33-3.661-6.019-5.414-9.767-7.2-1.744-.834-5.07-.639-3.817-4.3.042-.12-.315-.5-.55-.575-5.067-1.75-10.149-3.449-15.278-.2-1.457.924-1.526 2.514-1.764 3.985-.148.915.608 1.027 1.261 1.186 1.183.29 1.817.385 2.073-1.356a5.608 5.608 0 015.3-4.864 4.678 4.678 0 015.054 2.785c1.166 2.481.374 4.42-1.479 6.117-1.624 1.487-3.594 1.206-5.464.818-3.376-.7-6.711-1.585-10.068-2.375-1.755-.413-3.586-.508-4.289 1.524-.672 1.936.7 3 2.349 3.628 6.747 2.536 13.157 5.57 17.468 11.717 8.1 11.541 6.667 27.232-3.332 39.159-6.6 7.872-14.089 15.08-18.878 24.347-4.049 7.833-4.543 16.341-4.646 24.919-.112 9.448-.393 19.025 4 27.7 3.675 7.264 6.463 14.5 5.017 22.8-.123.7.092 1.5-.787 2-1.289-.848-.773-2.252-.873-3.371a40.368 40.368 0 00-5.461-16.623 36.216 36.216 0 01-4.914-15.177c-.14-1.677-.368-2.891-2.713-1.738-4.554 2.246-9.376.237-11.321-4.579-.477-1.175-1.15-.781-1.7-.572-1.105.424-2.422.681-3.192.014-3.812-3.3-10.088-2.009-12.976-7-.14-.246-.918-.123-1.4-.173-2.841-.3-5.444-1.139-6.585-4.035-.606-1.54-1.582-.728-2.341-.636-4.4.55-7.342-1.716-7.582-6.153-.076-1.418-.514-1.418-1.705-1.267-7.738.968-11.98-4.395-9.063-11.455-3.2-.765-6.429-1.387-9.563-2.33-4.4-1.32-6.323-4.283-5.009-7.272.726-1.658 2.258-2.163 3.951-2.7-2.793-1.568-5.5-3.05-8.176-4.6-5.79-3.351-6.008-7.068-.647-10.816-5.888-4.188-16.9-4.395-13.26-16.7-3.887-.745-8.3-1.649-12.314-3.979-4.345-2.517-4.761-4.858-.949-8.315-4.763-1.175-9.711-1.228-14.173-3.254-2.138-.974-5.056-1.328-5.391-4.239-.349-3.019 2.411-3.536 5.079-4.5a33.086 33.086 0 01-13.832-4.052c-2.084-1.08-3.87-2.712-3.8-5.277a3.915 3.915 0 013.318-3.72c-3.781-.94-7.451-1.775-11.078-2.765-5.151-1.409-8.1-6.287-6.3-10 1.183-2.428 3.43-1.981 5.207-1.92 18.886.614 37.777 1.2 56.646 2.218 7.766.416 14.985-2.461 22.843-2.16 19.687.748 39.415.611 59.1 1.669a148.094 148.094 0 0116.628 1.733c5.528.932 9.51-3.142 14.477-3.767 7.389-.927 14.773-1.917 21.149 3.536a59.585 59.585 0 0115.691 20.1c1.465 3.136 5.056 3.806 7.911 5.235.731.366.991-.318 1.25-.868 6.538-13.88 18.191-21.115 32.4-25.223 9.7-2.8 19.542-2.059 29.4-1.892 5.734.1 11.89-1.512 17.12.07 11.9 3.6 23.526.193 35.246.371 9.694.151 19.4-.432 29.1-.686 1.9-.053 3.82.017 5.718-.137 2.174-.179 3.019 1.392 4.054 2.777v2.656c-3.714 7.6-11.352 7.367-18.383 9.055 2.241.617 3.538 1.956 3.574 3.932.039 2.269-1.509 3.879-3.346 4.889a32.843 32.843 0 01-14.1 4.308 12.329 12.329 0 001.526.656c1.861.491 3.271 1.462 3.391 3.533.12 2.115-1.644 2.852-3.111 3.583-5.151 2.55-10.821 3.178-16.5 4.091 4.339 4.666 2.442 8.282-5.441 10.573-2.746.8-5.556 1.376-8.335 2.057 3.089 5.871-.165 11.519-8.182 14.282-1.585.544-3.109 1.272-4.755 1.953 5.687 4.836 5.341 7.612-.951 11.36a40.511 40.511 0 01-8.489 4.136c3.273.728 5.221 2.082 5.221 4.626 0 3.181-2.883 4.163-5.19 5.416a6.241 6.241 0 01-2.288.767c-4.677.419-8.307 1.1-7.032 7.651.661 3.4-4.518 6.114-9.306 5.492-1.482-.19-1.992-.215-2.057 1.535-.156 4.066-3.312 6.432-7.445 5.776-1.328-.207-2.232-.26-2.8 1.376a4.426 4.426 0 01-3.957 2.841c-2.975-.028-4.364 2.684-6.619 3.29-4.906 1.314-8.943 5.732-14.815 4.163 3.151 7.277 5.718 14.65 6.223 22.511.365 5.645.971 11.43.17 16.963-1 6.9 2.8 11.2 6.354 15.95 3.979 5.316 7.671 10.855 8.6 17.625.424 3.089-.522 5.648-4.384 5.62-1.032-.005-1.613.156-1.671 1.4a7.622 7.622 0 01-.826 2.721c-.505 1.1-1.476 2.316-2.612 1.8-1.261-.572-.178-1.736.2-2.654 1.457-3.569.006-6.812-1.409-9.94-2.02-4.465-4.308-8.809-6.463-13.213-.234-.48-.354-1.016-.887-2.567a42.857 42.857 0 019.267 12.155c.873 1.593 1.166 3.508 2.048 5.093.446.809-.686 3.028 1.766 2.366 2.051-.555 2.751-1.909 2.09-3.845-1.951-5.7-5.215-10.679-8.706-15.518-2.567-3.552-5.3-6.99-7.883-10.531-.438-.6-.893-1.677-.639-2.185.539-1.08 1.191.084 1.763.312 1.362.55 1.161-.505 1.144-1.141-.419-14.926-1.764-29.713-8.366-43.411-1.831-3.795-5.735-6.253-7.593-10.168-.756-1.6-1.672-3.123-2.3-4.85 5.684 5.436 9.075 14.558 20.038 11.687-5.227-4.325-9.806-8.734-12.5-14.731a47.3 47.3 0 0010.869 10.439c2.8 1.942 5.734 4.244 9.373 1.468 1-.762 1.139-1.281-.045-2.1a29.953 29.953 0 01-10.754-13.858c4.389 5.7 8.134 12.208 16.45 12.7 1.725.1 2.478-.589 4.225-2.7-3.134-1.78-6.131-3.717-8.229-6.739-.466-.672-1.172-1.225-.329-2.071zm-125.836-.036l-.039-.05c.84.851.128 1.4-.338 2.073-2.1 3.019-5.1 4.953-8.246 6.742 1.111 1.613 2.445 2.793 4.242 2.69 8.316-.477 12.066-6.99 16.478-12.666a30.52 30.52 0 01-10.782 13.827c-1.189.815-1.046 1.342-.048 2.1 3.636 2.779 6.569.477 9.376-1.462a46.423 46.423 0 0010.838-10.453c-2.57 6.094-7.314 10.367-12.568 14.848 3.251.566 6.005.952 8.72-.4 2.6-1.3 4.431-3.555 6.653-5.857-.371 4.406-2.849 6.814-5.933 8.72-1.292.8-1.309 1.487-.145 2.263a15.457 15.457 0 003.061 1.716c3.817 1.434 6.714-.43 6.806-4.325.1-4.194.271-8.391.212-12.582-.154-11.285 3.633-21.2 10.425-30.031 3.086-4.01 6.468-7.788 9.809-11.784-3.806-1.532-7.208-3.178-10.06-5.84-6.524-6.091-7.7-14.357-9.128-22.458-1.312-7.451-2.949-14.736-7.7-20.845-3.309-4.253-6.845-8.422-12.317-9.942-4.869-1.362-9.814-2.5-14.77-3.522-4.71-.968-8.832-4-13.308-4.777-9.764-1.705-19.751-.9-29.651-.243-1.482.1-3.2-.229-3.764 1.493-.547 1.68.787 2.869 1.875 3.971 3.086 3.131 7.23 4.442 11.025 6.348.656.329 1.482.566 1.113 1.577-.338.926-1.013.9-1.8.539-.985-.463-2.085-1.222-2.8.287a2.638 2.638 0 00.742 3.672 28.943 28.943 0 0010.406 5.174c1.091.285 3.248.137 2.606 2.121-.552 1.7-2.1.377-3.24.293-1.01-.073-2.311-1.309-2.969-.095s.154 2.559 1.1 3.586c2.765 3 6.438 4.557 9.962 6.39 1.708.89 5.391 1.021 4.314 3.516-.988 2.283-3.435-.511-5.279-.873-2.35-.463-5.377-3.6-6.46-1.92-1.431 2.216 1.258 5.076 3.061 7.188 3.106 3.641 7.685 5.028 11.67 7.325.818.469 2.52.555 1.8 2.185-.7 1.61-1.884.6-2.793.162-2.841-1.373-5.662-2.777-8.438-4.267-2.958-1.585-5.894-3.374-6.809-6.848-1.139-4.342.154-9.3-3.812-12.937-1.13-1.041-.064-2.863.873-4.121-9.839-3.94-12.264-7.76-7.877-12.5-.636-.273-1.222-.539-1.817-.784-4.152-1.736-8.039-3.87-9.873-8.265-.472-1.13-.862-1.434-1.97-1.4-19.215.589-38.391-.511-57.578-1.295-1.87-.075-5.193-1.551-5.4.115-.279 2.271 3.07 3.039 5.162 4.007 7.6 3.513 15.724 4.613 23.962 5.157 1.038.07 1.814.329 1.753 1.468-.059 1.038-.9 1.15-1.78 1.211-4.08.312-8.165.6-12.228 1.069-.921.106-2.358.8-2.495 1.445-.209.988 1.06 1.585 2.029 1.981 1.7.692 3.385 1.406 5.1 2.031 10.325 3.764 21.275 4.582 31.945 6.722.645.131 1.485.033 1.362 1-.128 1-.915.659-1.563.572a97.83 97.83 0 00-10.289-1.295 50.088 50.088 0 00-16.508 2.389 55.43 55.43 0 009.666 4.068c8.257 2.219 16.762 3.005 25.137 4.523 1.214.22 3.742-.142 3.441 1.4-.349 1.777-2.534.463-3.795.234-5.815-1.044-11.463-1.077-17.117 1.778a19.814 19.814 0 007.875 3.862c8.466 1.861 16.963 3.608 25.443 5.405.74.159 1.92.059 1.632 1.239-.243 1.01-1.175.413-1.87.313-4-.569-7.995-1.245-12.019-1.607-2.2-.2-4.814.045-5.841 2.249-.871 1.87 1.314 3.013 2.495 4.219a17.164 17.164 0 002.489 1.758c6.555 4.6 13.938 7.2 21.648 9.01.887.209 1.588.72 1.412 1.649-.2 1.046-1.071 1.038-1.942.8-.781-.215-1.574-.374-2.352-.58-3.706-.993-7.4-2.4-11.215-.472-1.32.664-3.2 1.753-1.6 3.12 1.965 1.677 3.656 3.751 6.209 4.844 6.862 2.941 14.117 3.9 21.417 4.747.946.109 2.3.05 2.3 1.186-.006 1.214-1.311 1-2.274 1.035-5.079.215-10.043-1.532-15.133-.868-1.965.257-4.78.419-4.959 2.442-.159 1.794 2.528 2.707 4.376 3.3a76.914 76.914 0 0023.15 3.979c.734 0 1.895-.2 1.778 1.038-.1 1.038-1.094.7-1.8.675-4.264-.142-8.528-.3-12.792-.421-.6-.017-1.814-.3-1.621.472.477 1.923-.29 4.2 1.607 5.751 4.537 3.7 9.315 1.711 14.039.631 2.249-.516 4.454-1.205 6.68-1.814a31.867 31.867 0 01-9.063 4.978c-1.764.606-1.722 1.406-1.365 2.7.924 3.362 3.971 4.035 9.343 2.352 3.6-1.13 5.9-3.96 8.706-6.125M668 512.723c8.787 8.779 12.493 17.784 14.413 29.9 1.256 7.939 3.572 16.123 11.086 20.764 6.669 4.119 7.724 4.068 11.318-2.126a12.313 12.313 0 01.753-1.086c6.957-9.471 6.089-24.269-1.613-33.2-5.924-6.87-15.127-7.707-22.248-12.512-3.268-2.2-8.687-1.219-13.71-1.741m-6.7-6.206c.569-1.286 1.39-1.007 2.065-1.013a117.612 117.612 0 0118.9 1.206c2.433.365 3.8-.8 5.542-2.665-17.181.109-33.8-.589-50.435-1.437 15.08 5.478 30.94 7.1 46.45 10.47.192-2.171-.9-2.617-2.445-2.888-6.63-1.158-13.249-2.411-20.08-3.672m40.548.737c-.966 2.944 1.169 3.014 2.86 3.427 1.842.449 2.425-.594 2.735-2.76-2.311 1.772-4.027 1.116-5.595-.667"/><path id="パス_1073" data-name="パス 1073" d="M630.449 572.052c2.721 7.029 7.5 13.238 7.537 21.073.008 2.045 1.289 2.026 2.333 2a26.655 26.655 0 0115.7 4.1c.393.254 1.08.106 1.621.081 2.076-.1 4.155-.184 6.041.865.876.491 2.071 1.113 1.527 2.319-.639 1.409-1.652.221-2.419-.087-2.149-.848-4.068-.725-5.581 1.155-1 1.25-2.224 1.256-3.591.949-7.833-1.752-15.875-3.706-23.755-2.372-6.17 1.041-12.415.421-18.47 1.9-.695.173-1.783.379-2.132.019-1.939-1.973-3.937-2.637-6.412-1.013-.117.075-.885-.43-.885-.664a2.474 2.474 0 011.5-2.2c6.965-3.742 14.164-6.374 22.318-5.59 4.448.433 3.675-3.013 3.125-5.436-.952-4.177-1.406-8.469-3.028-12.524-.753-1.889.929-3.016 2.732-3.069 1.136-.031 1.476-.41 1.833-1.5m24.2 29.6c-3.84-2.394-6.725-4.593-10.712-5.2-3.388-.511-8.254 1.253-9.1-4.635-.307-2.148-1-4.239-1.546-6.449-1.482 1.047-1.593 3.89-.435 5.821 1.292 2.152-.591 6.385-3.058 6.164-2.495-.22-4.752 1.484-7.3.382-1.169-.505-2.662-.265-5.026-.438 1.948.86 2.687 3.047 3.008 2.433 1.46-2.785 2.98-.131 3.84-.363 5.64-1.537 11.427-.622 17.083-1.42 1.317-.184 2.958 1.353 4.454-.2a.638.638 0 01.346.234c1.3 2.659 4.607 2.006 6.412 3.859.17.176.765-.056 2.04-.2m-37.685-3.893c-2.673.547-5.765.178-8.028 3.463 1.9-.435 3.636.427 3.784-1.973.047-.745 1.046-.776 1.39-.324 2.163 2.852 2.034-.469 2.855-1.166m13.435-22.765c-1.245 1.035-2.947 1.245-2.241 3.242a1.305 1.305 0 002.135.583c1.574-1.091-.167-2.319.106-3.826m1.217 8.692c.572.106 1.177 0 .89-.695s.045-1.934-1.138-1.975c-.511-.017-1.429.3-1.236 1.169.156.725.357 1.638 1.485 1.5" transform="translate(137.279 132.755)"/><path id="パス_1074" data-name="パス 1074" d="M598.992 571.711c.374 1.778.444 2.33 1.669 2.445 2.408.223 3.2 1.18 2.313 4.155-1.471 4.939-2.969 10.046-2.832 15.281.053 1.953 2.408 1.473 3.784 1.54 4.819.232 9.772-.075 14.293 1.752 2.8 1.13 4.97 3.617 8.14 4.27.511.1 1.543 1.164.859 2.152-.619.9-1.638.29-2.185-.059-1.49-.957-2.5-1.278-3.622.611-.723 1.222-2.283.876-3.653.792-10.679-.65-21.258-3.45-32.058-1.45-2.45.455-4.925.792-7.35 1.342-2.606.592-4.981 1.356-7.222-1.247-1.392-1.619-3.549-.887-5.344.034-.525.268-1.069.6-1.58-.034a1.125 1.125 0 01.343-1.724c.748-.558 1.666-1.356 2.464-1.3 6.641.419 11.979-4.685 18.448-4.4 4.448.19 5.648-1.337 6.3-5.74.924-6.181 4.381-11.709 7.227-18.417M574.6 602.755c1.624-.329 2.4-.248 2.654-.578 1.54-2 4.975-.888 6.011-3.692.056-.156.907-.24.949-.151 1.429 3.058 4.152.458 5.74.555a66.4 66.4 0 009.909.237c2.26-.207 4.788 2.545 6.82-.6a1.161 1.161 0 01.966.187c1.713 3.725 2.218.262 3.521-.664a9.491 9.491 0 00-1.783.014c-3.3.77-6.6.131-9.881-.053-2.523-.137-3.884-3.962-3.173-6.3.505-1.655 2.612-3.837-.234-5.933-.566 2.232-1.161 4.183-1.546 6.173-.611 3.153-1.828 4.839-5.645 4.747-5.017-.123-9.686 1.677-14.307 6.055m45.072-1.166c-1.694-2.93-4.621-2.846-7.437-3.05 2.073 1.953 5.16 1.552 7.437 3.05m-21.221-26.431c.977 1.976-1.314 3.3.74 4.269.566.268 1.529.622 1.97-.575.737-1.984-.943-2.235-2.709-3.695m.935 7.272c-.5-.3-1.058-.935-1.5-.859-1.038.181-.873 1.323-1.074 2.079-.223.815.511.605.991.622 1.122.039 1.122-.912 1.585-1.842" transform="translate(69.169 132.145)"/><path id="パス_1075" data-name="パス 1075" d="M598.645 561.152c2.154 4.23 2.643 8.726 2.919 13.294.494 8.176.977 16.408 6.518 23.152 1.627 1.981 3.575 3.658 6.39 1.831 1.3-.84 1.585-1.741.767-3.3a19.616 19.616 0 01-2.467-8.843c-.008-.614-.17-1.328.536-1.49.723-.162.885.589 1.108 1.13 1.326 3.29 2.3 6.686 5.2 9.217 1.914 1.669 3.212 2.045 4.791-.067.569-.765 1.136-1.535 1.711-2.3a1.179 1.179 0 011.747-.268 1.216 1.216 0 01.5 1.524c-1.245 5.106-5.182 7.079-9.993 4.841-1-.469-1.189.092-1.457.6-3.2 6.195-10 3.2-12.956-1.217-5.559-8.318-5.525-17.6-5.33-26.987.075-3.706.017-7.411.017-11.114" transform="translate(131.195 113.239)"/><path id="パス_1076" data-name="パス 1076" d="M596.858 564.147c.837-1.339.441-3.072 2.23-2.891 1.686.17.994 1.7 1.381 2.617 1.1 2.609 2.693 4.708 5.651 5.375 1.055.237 2.1.74 2.045 1.895-.064 1.339-1.2 1.68-2.422 1.682-1.337.008-2.76.126-3.72-.985-2.537-2.93-6.354-4.3-8.748-7.5-.965-1.295-3.209-1.56-4.707-2.54-5.333-3.468-5.082-8.893-4.652-14.237.2-2.542.335-5.226 2.615-7.939-.807 7.995-1.1 15.239 5.525 20.63-.095-1.847-.226-3.647-.263-5.453-.017-.748.218-1.644 1.116-1.652 1.136-.008.8 1.094.823 1.7a20.068 20.068 0 003.125 9.3" transform="translate(104.593 74.69)"/><path id="パス_1077" data-name="パス 1077" d="M633.895 529.609c-2.617.781-5.053 1.523-7.5 2.243-.8.234-1.71.48-2-.622a1.482 1.482 0 011.206-1.825c3.29-.89 5.388-3.519 7.959-5.43a5.954 5.954 0 002.44-5.813c-.064-.472-.555-1.085.243-1.219a1.549 1.549 0 011.2.709c1.814 3.089 2.009 6.159-.633 8.888-1.231 1.275-2.171 1.987-.865 4.149 1.87 3.1-1.345 9.281-5.4 12.222-3.117 2.266-6.781 3.106-10.23 4.5-.625.251-1.526.589-1.881-.433-.326-.949.458-1.328 1.13-1.6a34.6 34.6 0 009.795-5.455c3.139-2.709 4.9-6.069 4.537-10.313" transform="translate(166.624 34.073)"/><path id="パス_1078" data-name="パス 1078" d="M623.425 540.182c2.816 3.284.957 5.651-1.691 7.663-3.379 2.567-9.624 1.094-12.292-2.86 1.5-.664 2.408.725 3.586.982 2.5.552 4.811.974 7.163-.706 2.592-1.856 3.083-3.516.287-5.531-.377-.274-.884-.74-.873-1.1.025-.681.734-.508 1.231-.55 2.726-.229 4.975-1.164 6.1-3.926 1.144-2.816-1.15-4.077-2.746-5.935 1.42-.363 2.7-.578 3.9-1.016 2.712-.988 3.527-2.807 1.9-5.324a2.2 2.2 0 01-.067-2.768c1.365-2.177 2.511-4.493 3.762-6.747.363-.65.734-1.328 1.7-.994 1.063.371.985 1.211.753 2.006a12.681 12.681 0 01-.985 2.45c-1.568 2.913-4.6 5.338-2.171 9.376.714 1.178-.558 3.025-2 3.519-2.243.776-2.612 1.66-1.987 4.066 1.13 4.334-2.193 6.005-5.567 7.392" transform="translate(150.663 23.954)"/><path id="パス_1079" data-name="パス 1079" d="M598.394 561.647c-.91 4.356-3.175 7.4-4.532 10.813-2.564 6.454-7.5 11.26-11.407 16.779a24.475 24.475 0 01-2.749 3.03c-.48.483-1.741.592-1.621.151.522-1.962-.991-4.562 1.711-5.9a2.4 2.4 0 00.979-1.1c1.325-2.858 3.854-4.895 5.372-7.47 2.246-3.809 5.5-6.89 7.339-11.05a11.492 11.492 0 014.908-5.257" transform="translate(94.505 114.125)"/><path id="パス_1080" data-name="パス 1080" d="M603.69 561.566a60.484 60.484 0 004.657 6.594 52.231 52.231 0 014.334 6.142c2.263 3.282 4.945 6.228 7.116 9.546.737 1.127.553 2.774 2.57 2.841.907.031 1.406 6.078.547 6.145a2.427 2.427 0 01-1.5-.686c-.368-.318-.463-.94-.815-1.289-7.375-7.3-12.44-16.1-16.631-25.471-.631-1.4-.664-1.507-.276-3.82" transform="translate(139.912 113.98)"/><path id="パス_1081" data-name="パス 1081" d="M601.435 532.33c2.043 4.038 4.719 7.353 9.231 8.21 1.78.338 4.8 1.6 4.2-2.676-.215-1.532.921-.645 1.585-.276 3.725 2.071 7.283.062 7.515-4.18.02-.43.569-1.222.792-1.194 3.748.463 4.763-3.05 7.007-4.741.642-.491 1.27-.929 1.95-.346.745.631.26 1.4-.19 1.95-1.624 2.009-3.29 4.007-5.946 4.7a1.8 1.8 0 00-1.521 1.792 4.815 4.815 0 01-1.281 2.949c-3.622 2.841-8.282 3.918-12.459 4.576-5.187.815-8.394-3.734-10.992-7.905a2.183 2.183 0 01.112-2.863" transform="translate(135.26 51.817)"/><path id="パス_1082" data-name="パス 1082" d="M614.436 520.94c6.287-.67 10.093-4.685 14.882-7.292-1.063-1.116-3.575-.98-2.7-2.933.759-1.68 2.545-.533 3.926-.608 3.669-.2 6.351-2.659 9.225-4.66 1.2-.84 2.311-3.48 3.792-1.959 1.677 1.722-1.253 2.38-2.073 3.538-2.257 3.173-6.368 3.988-8.946 6.32a42.432 42.432 0 01-10.347 7.21c-2.19 1.038-4.551 1.962-7.76.382" transform="translate(159.604 9.165)"/><path id="パス_1083" data-name="パス 1083" d="M591.876 565.807c.723-3.737 3.2-4.56 16.564-5.751.218-1.44-1.345-2.637-.452-4.643a24.607 24.607 0 005.575 7.406c1.434 1.25 2.746 2.645 4.146 3.937.768.711 2.852.8 1.906 2.282-.728 1.139-2.322-.017-3.1-.672-6.209-5.218-13.182-6.147-20.764-3.99-1.25.354-2.447.9-3.873 1.432" transform="translate(119.211 102.962)"/><path id="パス_1084" data-name="パス 1084" d="M598.022 561.989c-.91 1.789-1.68 3.631-2.729 5.3-4.808 7.668-9.926 15.113-16.307 21.6-.6.606-1.2 1.339-2.034.689-.946-.745.1-1.32.483-1.8 6.647-8.156 12.264-17.03 18.071-25.773.4-.6.753-1.406 1.669-1.13.321.1.505.642.848 1.108" transform="translate(91.799 112.656)"/><path id="パス_1085" data-name="パス 1085" d="M626.132 589.321c-.416.176-.686.3-.963.4a1.332 1.332 0 01-1.557-.463 112.61 112.61 0 01-18.721-26.052c-.366-.72-.831-1.638.053-2.176 1.141-.695 1.507.511 1.962 1.172 5.243 7.621 10.439 15.278 15.7 22.885.946 1.373 2.135 2.575 3.524 4.23" transform="translate(141.702 112.654)"/><path id="パス_1086" data-name="パス 1086" d="M610.73 560.383c-.022-2.045.583-2.922 2.584-1.582.848.567 1.9.851 2.69 1.476.818.65 2.782.639 2.141 2.235-.636 1.577-2.258.765-3.293.335-2.461-1.019-4.325.946-6.516 1.239-1.418.19-2.6.6-3.77-.262-1.733-1.281-3.326-2.8-3.287-5.14.022-1.086.893-.918 1.582-.315 1.582 1.381 3.173 2.754 5.009 4.348-.209-1.208-1.705-1.987-.8-2.829 1.152-1.069 2.232.645 3.658.5" transform="translate(136.045 107.402)"/><path id="パス_1087" data-name="パス 1087" d="M591.934 560.875c-.79 1.485-.181 3.622-2.4 4.077-.7.143-1.711-.1-1.292-1.166.854-2.188-.812-5.67 1.97-6.5 1.914-.572.723 2.486 1.722 3.594" transform="translate(112.529 106.182)"/><path id="パス_1088" data-name="パス 1088" d="M589.221 560.281a12.81 12.81 0 01-.474 2.015c-.748 1.806-1.819 4.973-3.125 4.473-1.881-.723.645-2.818.742-4.437a9.909 9.909 0 01.575-2.567c.315-.926-.539-2.788 1.083-2.6 1.4.159.656 2.124 1.2 3.114" transform="translate(106.77 106.079)"/><path id="パス_1089" data-name="パス 1089" d="M588.986 557.315c1.613 2.121.631 8-1.256 9.044-.9.5-1.616.07-1.356-.873.742-2.687 1.685-5.319 2.612-8.17" transform="translate(109.263 106.369)"/><path id="パス_1090" data-name="パス 1090" d="M589.684 560.623c.859-.848-.79-2.9 1.072-3.243 1.074-.193 1.875 1.228 1.54 2.425-.3 1.066-.014 2.8-1.727 2.869-1.122.053-.9-1.085-.885-2.051" transform="translate(115.239 106.454)"/><path id="パス_1091" data-name="パス 1091" d="M616.813 538.261c-2.123.062-2.179-2.057-2.975-3.36q1.469 1.7 2.933 3.41l.042-.05" transform="translate(158.533 66.238)"/><path id="パス_1092" data-name="パス 1092" d="M563.869 529.618c-.307 5.4 2.333 9.189 6.7 11.893 2.428 1.5 5.1 2.6 7.66 3.893.653.335 1.409.664 1.116 1.627a.894.894 0 01-1.253.555c-6.714-2.017-13.241-4.281-16.134-11.617-.885-2.246-1.152-4.487.491-6.443 1-1.189-.008-1.5-.58-2q-4.625-4.077-1.747-9.49c.3-.569.628-1.337 1.44-1.088.946.285.173.965.17 1.465-.039 5.631 4.961 7.146 8.251 10.029a8.063 8.063 0 002.21.982c.823.346 1.437.94 1.189 1.848-.3 1.1-1.217.845-2.009.608-2.442-.723-4.883-1.468-7.506-2.257" transform="translate(60.387 34)"/><path id="パス_1093" data-name="パス 1093" d="M587.8 526.948c-2.152-.053-3.949-.254-5.347-1.917-1.334-1.58-3.184-.5-4.766-.508a7.664 7.664 0 01-7.442-4.476c-.43-.857-.611-1.978.173-2.425 1.278-.723.946.854 1.384 1.351 2.846 3.254 6.474 2.994 10.16 2.179 1.4-.312 2.626-1.4 2.534 1.423-.047 1.4 1.984 1.094 3.106.887 2.955-.539 5.888-1.236 8.81-1.942 1.019-.246 1.951-.419 2.378.79.466 1.312-.53 1.655-1.484 1.939-3.215.968-6.251 2.59-9.5 2.7" transform="translate(79.815 34.967)"/><path id="パス_1094" data-name="パス 1094" d="M563.114 508.654a3.8 3.8 0 01.865-3.176c.711-.851 1.529-2.439 2.735-1.674 1.546.982-.539 1.538-.837 2.338a4.383 4.383 0 00.553 4.579c1.6 2.006 3.957 2.45 6.337 2.464 1.275.008 2.944-.876 3.658.4.7 1.247-1.4 1.166-1.817 1.967-.711 1.376.092 2.4 1.231 3.106a8.692 8.692 0 005.963.954c.913-.12 2-.184 2.193.843.215 1.138-.82 1.186-1.763 1.373-6.733 1.353-7.621.927-10.118-5.394-.424-1.074-1.328-.714-2.054-.846-3.963-.709-6.438-2.846-6.945-6.931" transform="translate(67.605 10.197)"/><path id="パス_1095" data-name="パス 1095" d="M571.247 524.824c2.581 3.8 5.74 3.664 9.142 2.615.8-.248 1.755-.647 2.2.6.346.971-.167 1.4-.938 1.911-2.082 1.4-.8 2.5.569 3.22 2.587 1.376 5.16-.011 7.741-.287 1.007-.106 2.525-.829 2.883.625.4 1.616-1.362 1.348-2.266 1.649a51.861 51.861 0 01-5.91 1.657c-1.892.394-4.406.1-4.9-1.565-1.133-3.809-3.921-5.24-7.06-6.692-1.057-.494-1.682-1.741-1.462-3.734" transform="translate(82.197 48.195)"/><path id="パス_1096" data-name="パス 1096" d="M568.446 513.642c3.273 4.032 8.059 2.854 12.153 3.929.455.12 1.119-.223 1.147.561.008.24-.352.583-.622.728-2.545 1.353-10.1-.053-12.063-2.232a2.792 2.792 0 01-.614-2.986" transform="translate(76.932 28.174)"/><path id="パス_1097" data-name="パス 1097" d="M569.819 538.3q1.473-1.7 2.947-3.41c-.706 1.412-.9 3.385-2.986 3.362l.039.047" transform="translate(79.649 66.213)"/></g></g></svg>