<svg xmlns="http://www.w3.org/2000/svg" width="578.765" height="59.194" viewBox="0 0 578.765 59.194"><path d="M17.061 57.001c.5-1.422-.725-2.565-1.849-3.278-.721-.46-1.467-.282-1.679-1.111V31.2a.384.384 0 01.1-.261c1.745-1.882 4.232-3.747 7.249-3.776a11.174 11.174 0 014.9 1.107c2.586 1.177 4.008.369 4.907-1.169 1.587-2.706-2.35-8.252-9.823-6.138-2.893.816-4.862 2.76-6.656 5.156a.381.381 0 01-.684-.232V9.08c.012-1.049.825-1.1 1.674-1.645 1.123-.709 2.35-1.857 1.849-3.278-.555-1.583-4.522-1.04-7.286-.452a5.576 5.576 0 01-2.371 0C4.627 3.116.661 2.573.101 4.157c-.5 1.422.729 2.57 1.853 3.278.85.543 1.741.182 1.741 1.645v43.018l-.066-.017c-.012 1.044-.825 1.1-1.674 1.641C.832 54.435-.395 55.579.102 57c.559 1.588 4.526 1.04 7.291.452a5.711 5.711 0 012.371 0c2.775.589 6.738 1.137 7.297-.451z" fill="#fff"/><path d="M31.535 7.439c.85.543 1.741.182 1.741 1.645v43.013l-.066-.017c-.012 1.044-.825 1.1-1.674 1.641-1.123.713-2.35 1.857-1.849 3.278.559 1.6 4.6 1.032 7.365.435a5.242 5.242 0 012.213 0c2.769.6 6.806 1.165 7.369-.435.5-1.422-.725-2.565-1.849-3.278-.725-.46-1.471-.282-1.683-1.111V9.08c.012-1.049.825-1.1 1.679-1.645 1.123-.709 2.346-1.857 1.849-3.278-.564-1.6-4.6-1.032-7.369-.435a5.244 5.244 0 01-2.213 0c-2.764-.6-6.806-1.165-7.365.435-.503 1.425.724 2.573 1.852 3.282zm157.199 26.198a24.09 24.09 0 00-9.209-6.026c8.293-1.857 14.051-12.16 10.345-18.282-3.908-6.47-9.947-6.627-16.052-6.242-5.1.323-12.935.377-12.935.377v.017a9.3 9.3 0 01-1.575-.174c-2.765-.6-6.806-1.165-7.365.435-.5 1.426.725 2.57 1.848 3.278.85.543 1.741.182 1.741 1.645v42.483l-.037-.008c-.008 1.044-.821 1.1-1.674 1.641-1.123.713-2.35 1.857-1.849 3.283.564 1.6 11.36 1.024 13.387.991.825-.012 11.128-.245 15.729-.253 11.906-.013 15.912-14.063 7.646-23.165zm-9.1-16.164a9.314 9.314 0 01-11.667 6.694c-1.04-.282-2.607-1.376-2.607-2.57v-12a1.942 1.942 0 011.612-1.82c1.219-.046 2.756-.112 4.692-.2 7.848-.379 8.909 5.523 7.972 9.896zm2.383 30.02c-2.1 3.917-4.986 5.384-13.88 5.115a8 8 0 01-2.3-.332.945.945 0 01-.472-.771V25.543c1.04 1.252 3.954 2.226 5.674 2.963 4.02 1.724 6.859 3.436 9.429 6.976a12.126 12.126 0 011.551 12.011zM70.08 56.997h16.384a10.646 10.646 0 013.3.589c1.227.431 2.5.7 3.138.141.829-.729.833-1.351.236-3.138a7.4 7.4 0 01.066-2.615c.6-1.786 1.915-5.322.4-5.943-2.031-.829-3.191 2.69-4.149 3.826-2.23 2.632-3.83 2.765-4.874 2.773H67.473a1.14 1.14 0 01-.261-.771V30.596a.354.354 0 01.1-.253 10.365 10.365 0 017.813-3.067 11.374 11.374 0 014.9 1.111c2.59 1.177 4.6 1.8 6.213-.3 2.735-3.548-3.233-9.529-11.124-7.013a13.625 13.625 0 00-7.257 5.388.351.351 0 01-.642-.2V8.857a1.131 1.131 0 01.278-.8h18.85a3.1 3.1 0 012.615 1.388c.589.829 1.774 4.634 3.486 3.639 1.393-.812 1.227-3.672.646-5.479a2.631 2.631 0 01.012-1.637c.576-1.766.928-3.859-.473-4.634-.875-.481-1.882.191-3.282 1.194a5.1 5.1 0 01-3.08 1.161H69.89c-1.915 0-2.984-.029-6.2 0a17.5 17.5 0 01-2.939-.273c-2.74-.564-6.428-1.007-6.963.518-.5 1.422.725 2.57 1.849 3.278.854.543 1.741.182 1.741 1.641v43c0 1.459-.887 1.1-1.741 1.641-1.123.709-2.35 1.857-1.849 3.278.535 1.525 4.224 1.082 6.963.518a17.507 17.507 0 012.939-.274c3.216.029 4.286 0 6.2 0a.888.888 0 00.19-.019z" fill="#fff"/><g fill="#fff"><path d="M262.364 53.387a3.525 3.525 0 01-1.89-1.007c-5.62-10.474-12.708-34.844-17.176-46.035s-.647-1.786-1.33-3.229a1.306 1.306 0 00-2.3.108s-14.888 44.779-16.935 47.361c-1.732 2.184-3.838 2.027-5.641 2.8-1.674.721-2.346 1.857-1.849 3.283.564 1.6 4.6 1.028 7.373.431a5.185 5.185 0 012.2 0c2.769.6 6.814 1.169 7.373-.431.5-1.426-.332-2.375-1.927-3.075-.924-.4-3.585-1.04-2.735-3.042l1.753-4.911c1.339-1.492 3.295-3.042 5.7-3.067a8.482 8.482 0 013.734.846c1.973.9 3.055.278 3.743-.891 1.21-2.064-1.795-6.292-7.49-4.679a7.509 7.509 0 00-3.5 2.379.127.127 0 01-.216-.124l7.324-20.533-.207.866 9.989 31.815c.058.763.182 1.306-.634 1.753-1.306.713-2.23 1.239-1.65 2.665.638 1.554 5.11 1.057 8.314.477a8.639 8.639 0 012.694-.062c2.122.282 5.235.738 6.814-.05 1.375-.685 1.5-2.906-1.531-3.648zm73.655 4.09h16.379a10.554 10.554 0 013.307.589c1.223.431 2.5.7 3.138.137.829-.725.829-1.347.232-3.138a7.28 7.28 0 01.07-2.611c.6-1.786 1.915-5.322.4-5.943-2.031-.829-3.191 2.69-4.153 3.826-2.226 2.632-3.83 2.764-4.874 2.773h-17.11a1.144 1.144 0 01-.261-.775V31.076a.353.353 0 01.1-.253 10.375 10.375 0 017.817-3.063 11.469 11.469 0 014.9 1.107c2.586 1.177 4.6 1.8 6.213-.294 2.735-3.548-3.237-9.529-11.124-7.013a13.588 13.588 0 00-7.257 5.388.354.354 0 01-.647-.2V9.34a1.125 1.125 0 01.282-.8h18.85a3.092 3.092 0 012.615 1.388c.589.829 1.774 4.634 3.481 3.639 1.4-.817 1.231-3.672.651-5.483a2.631 2.631 0 01.012-1.637c.572-1.761.928-3.859-.473-4.63-.875-.481-1.882.191-3.283 1.194a5.1 5.1 0 01-3.079 1.161h-16.38c-1.911 0-2.98-.029-6.2 0a17.506 17.506 0 01-2.943-.274c-2.74-.564-6.429-1.007-6.963.514-.5 1.426.729 2.57 1.853 3.283.85.539 1.741.182 1.741 1.641v43c0 1.463-.891 1.1-1.741 1.645-1.123.709-2.35 1.853-1.853 3.278.535 1.525 4.223 1.082 6.963.518a17.078 17.078 0 012.943-.274c3.216.029 4.286 0 6.2 0a.891.891 0 00.194-.026z"/></g><g fill="#fff"><path d="M556.026 34.753c.485-8.269 9.525-8.832 11.153-17.267.568-2.93 1.285-7.477-.555-10.067-1.26-1.774-2.955-4.1-7.017-4.485-5.475-.518-8.061 2.077-9.665 4.418s-1.509 5.467-3.867 7.477c-1.944 1.654-7.755 1.02-5.392-5.927 1.326-3.9 6.221-6.694 9.91-7.73a28.651 28.651 0 0113.586-.634 23.253 23.253 0 019 3.552 12.363 12.363 0 015.305 12.728 18.93 18.93 0 01-5.828 9.267c-3.162 2.752-8.115 4.771-9.993 6.055-3.254 2.226-3.365 6.329-3.026 8.948.282 2.188-1.268 2.474-1.985 1.654a6.479 6.479 0 01-1.094-2.267 17.106 17.106 0 01-.532-5.722zm-2.412 17.068a6.65 6.65 0 011.985-5.222 4.255 4.255 0 012.122-1.165 4.957 4.957 0 015.255 1.633 6.412 6.412 0 011.48 3.494 9.067 9.067 0 01-.415 4.319 5.112 5.112 0 01-3.771 3.357 4.991 4.991 0 01-4.671-1.206 6.185 6.185 0 01-1.985-4.65v-.56M428.723 3.642a5.185 5.185 0 01-2.2 0c-2.769-.6-6.814-1.165-7.373.435-.5 1.422.725 2.566 1.848 3.278.717.456 3.623.875 2.669 2.2l-8.687 15.853a.666.666 0 01-1.16.017l-9.408-16.172c-.522-1.136-1.33-2.23-.34-2.769a1.938 1.938 0 001.192-2.411c-.53-1.6-5.1-1.061-8.31-.481a8.691 8.691 0 01-2.7.062c-2.122-.282-5.231-.738-6.81.05-1.368.684-1.492 2.905 1.538 3.647 1.119.278 1.339.369 3.755 2.835v-.008a234.269 234.269 0 0114.336 22.783v18.668l-.066-.017c-.012 1.044-.825 1.1-1.674 1.641-1.123.713-2.35 1.857-1.849 3.283.559 1.6 4.6 1.028 7.373.431a5.184 5.184 0 012.2 0c2.769.6 6.81 1.169 7.373-.431.5-1.426-.725-2.57-1.849-3.283-.725-.46-1.471-.278-1.683-1.107V31.279l11.033-20.885c1.6-2.578 3.784-1.335 6.312-3.038 1.1-.742 2.346-1.857 1.849-3.278-.559-1.605-4.601-1.032-7.369-.436zm30.314-1.367a18.8 18.8 0 00-15.493 7.647c-4 5.119-6.022 12.62-6.022 20.595 0 7.825 2.1 15.373 6.242 20.736a20.883 20.883 0 0016.687 7.862 16.147 16.147 0 0013.586-6.905c3.942-5.284 5.844-12.426 5.927-20.048.1-8.89-1.028-16.052-5.96-22.555a17.489 17.489 0 00-14.967-7.332zm13.064 44.792c-2.135 3.3-5.227 5.715-9.442 5.715-4.588 0-8.061-2.536-10.61-6.08-2.628-3.656-3.958-8.915-3.958-15.638 0-8.459 1.9-14.606 5.637-18.278a11.544 11.544 0 018.2-3.631c3.734 0 6.557 2.023 8.638 4.522 3.494 4.2 5.268 10.2 5.268 17.843-.003 6.478-1.259 11.709-3.733 15.547zm55.414-43.943a5.244 5.244 0 01-2.213 0c-2.764-.6-6.806-1.165-7.365.435-.5 1.422.725 2.566 1.849 3.278.85.539 2.9.812 2.9 3.535v16.6c0 11.779-.116 15.257-.215 16.1-.912 7.862-4.679 11.688-11.518 11.688-3.759 0-6.486-1.024-8.331-3.133-1.865-2.122-2.81-6.329-2.81-12.5V11.461c-.046-1.807.779-4 1.84-4.389 2.624-.97 2.466-2.454 2.01-3.249-.854-1.5-5.425-1.293-8.646-.7a8.1 8.1 0 01-2.57 0c-2.118-.282-5.135-.7-6.681.066-1.368.684-1.492 2.905 1.538 3.647 1.119.278 2.193 1.965 2.159 4.833v26.837c0 6.536 1.521 11.149 3.618 14.108 3.142 4.364 8.555 6.578 16.094 6.578 6.325 0 11.012-1.8 13.934-5.363 2.86-3.486 4.31-9.027 4.31-16.479V9.582l.075-.133c.013-1.044 2.649-2.259 3.589-2.624 1.438-.564 2.57-1.509 2.072-2.934-.562-1.6-2.87-1.363-5.639-.767z"/></g><path d="M144.324 51.29c-2.723-.124-2.91 2.367-2.715 4.422-.448.07-1.276-1.318-1.5-1.72-2.474-4.4-2.06-10.063-3.415-14.834a19.526 19.526 0 00-4.037-8c-.415-.522-.858-1.028-1.293-1.529 8.7-1.749 13.35-13 9.549-19.691-3.942-6.942-11.352-7.137-14.842-6.7a105.611 105.611 0 01-13.043.406 12.456 12.456 0 01-2.454-.191c-2.789-.6-6.864-1.177-7.431.435-.5 1.438.734 2.59 1.865 3.307.862.547 1.757.187 1.757 1.658v42.848l-.033-.012c-.012 1.057-.833 1.115-1.691 1.658-1.132.717-2.371 1.873-1.865 3.307.568 1.612 4.642 1.04 7.431.439a5.186 5.186 0 012.23 0c2.789.6 6.864 1.173 7.431-.439.506-1.434-.734-2.59-1.865-3.307-.775-.493-1.575-.257-1.724-1.285V24.69c1.844 3.519 4.339 4.924 8.758 5.09.427.017 1.053 3.183 1.152 3.618.311 1.335.518 2.69.7 4.049.518 3.946.667 8.012 1.567 11.9.692 3.009 2.139 5.736 4.957 7.232 5.318 2.818 11.522 2.263 12.944 0 1.504-2.404.312-5.16-2.433-5.289zm-13.355-32.349a9.13 9.13 0 01-4.252 6.109s-.928-3.158-3.154-4.327a7.855 7.855 0 00-6.893-.29V9.789c.008-1.044.286-1.434 1.65-1.492 1.343-.05 3.133-.128 5.575-.253 7.916-.393 8.028 6.209 7.074 10.897zm180.57 32.315c-2.723-.128-2.91 2.367-2.711 4.422-.448.066-1.281-1.318-1.509-1.72-2.474-4.4-2.06-10.063-3.415-14.838a19.536 19.536 0 00-4.037-8c-.414-.526-.854-1.028-1.293-1.534 8.7-1.745 13.354-13 9.553-19.691-3.946-6.938-11.352-7.137-14.846-6.694a106.15 106.15 0 01-13.043.4 12.109 12.109 0 01-2.449-.186c-2.794-.605-6.868-1.177-7.431.435-.506 1.434.729 2.59 1.865 3.307.858.543 1.753.182 1.753 1.658v42.844l-.033-.008c-.012 1.053-.829 1.111-1.691 1.658-1.132.717-2.367 1.869-1.865 3.307.568 1.612 4.642 1.04 7.431.435a5.322 5.322 0 012.23 0c2.794.605 6.864 1.177 7.431-.435.506-1.438-.734-2.59-1.865-3.307-.775-.493-1.575-.261-1.724-1.289V24.656c1.844 3.515 4.339 4.92 8.758 5.09.427.017 1.053 3.183 1.152 3.618.311 1.335.522 2.69.7 4.049.522 3.942.672 8.012 1.567 11.9.7 3.009 2.139 5.736 4.957 7.228 5.318 2.823 11.526 2.263 12.948 0 1.501-2.4.308-5.156-2.433-5.285zM298.19 18.908a9.144 9.144 0 01-4.257 6.109s-.928-3.162-3.154-4.331a7.854 7.854 0 00-6.893-.286V9.756c.012-1.04.286-1.43 1.65-1.488 1.343-.054 3.138-.133 5.575-.253 7.912-.398 8.028 6.2 7.079 10.893z" fill="#fff"/></svg>