<svg xmlns="http://www.w3.org/2000/svg" width="153.921" height="19.478" viewBox="0 0 153.921 19.478">
  <g id="VEGIMOロゴ" transform="translate(-200.699 -304.373)">
    <path id="パス_642" data-name="パス 642" d="M221.958,309.683a1.083,1.083,0,0,0-.994.5,7.186,7.186,0,0,0-.445.8L214.46,324.3c-.2.457-.375.821-.514,1.1a1.6,1.6,0,0,0-.2.583.41.41,0,0,0,.086.272,1.135,1.135,0,0,0,.224.207v.616h-5.239v-.616a.483.483,0,0,0,.308-.479,2.134,2.134,0,0,0-.257-.7q-.256-.533-.632-1.319l-6.163-13.382a1.14,1.14,0,0,0-.479-.55,4.444,4.444,0,0,0-.89-.341v-.617h6.127v.617a.934.934,0,0,0-.46.12.472.472,0,0,0-.223.461,2.251,2.251,0,0,0,.292.959q.288.583.7,1.438l4.38,9.412,4.277-9.276q.414-.89.77-1.591a2.677,2.677,0,0,0,.362-.977c0-.363-.322-.546-.957-.546v-.617h5.989v.617Z" transform="translate(0 -3.87)"/>
    <path id="パス_643" data-name="パス 643" d="M382.965,308.893a.63.63,0,0,0-.294-.565,1.974,1.974,0,0,0-1.009-.189h-11.09v4.246h6.71a2.44,2.44,0,0,0,1.06-.189c.253-.125.375-.452.375-.976h.618v5.339h-.618c0-.524-.122-.86-.375-1.009a2.081,2.081,0,0,0-1.06-.222h-6.71v4.724H382a1.393,1.393,0,0,0,.839-.239.769.769,0,0,0,.326-.652h.616v4.69h-.616c0-.342-.11-.534-.326-.581A4.093,4.093,0,0,0,382,323.2H366.052v-.616a.67.67,0,0,0,.431-.154.569.569,0,0,0,.189-.464v-15.54a.572.572,0,0,0-.189-.464.676.676,0,0,0-.431-.151V305.2h15.61a1.706,1.706,0,0,0,1.009-.222.714.714,0,0,0,.294-.6h.615v4.52h-.615Z" transform="translate(-136.357)"/>
    <path id="パス_644" data-name="パス 644" d="M528.757,313.652l-.685-.209a1.308,1.308,0,0,0,.067-.409,1.134,1.134,0,0,0-.632-.923,6.271,6.271,0,0,0-1.609-.7,13.055,13.055,0,0,0-2.122-.429,18.311,18.311,0,0,0-2.173-.135,9.048,9.048,0,0,0-2.516.359,6.593,6.593,0,0,0-2.226,1.112,5.553,5.553,0,0,0-1.576,1.952,7.334,7.334,0,0,0,0,5.8,5.473,5.473,0,0,0,1.576,1.969,6.557,6.557,0,0,0,2.226,1.112,8.985,8.985,0,0,0,2.516.36,17.256,17.256,0,0,0,3.507-.326,22.048,22.048,0,0,0,2.653-.7v-2.945h-4.382a1.077,1.077,0,0,0-.719.208,1.374,1.374,0,0,0-.308.892h-.617V316.25h.617a.988.988,0,0,0,.308.739,1.36,1.36,0,0,0,.719.151h8.558v.618a2.2,2.2,0,0,0-.855.237.735.735,0,0,0-.171.582v3.868c0,.23.067.377.205.445s.3.152.478.242v.546a12.2,12.2,0,0,1-2.379,1.3,15.831,15.831,0,0,1-2.532.806,15.549,15.549,0,0,1-2.569.359c-.856.045-1.692.069-2.513.069a14.949,14.949,0,0,1-4.365-.6,9.409,9.409,0,0,1-3.374-1.781,8.029,8.029,0,0,1-2.174-2.876,10.013,10.013,0,0,1,0-7.7,8.231,8.231,0,0,1,2.174-2.89,9.689,9.689,0,0,1,3.374-1.831,14.144,14.144,0,0,1,4.365-.635,19.483,19.483,0,0,1,2.873.2c.912.14,1.724.293,2.431.465s1.3.33,1.762.479a4.2,4.2,0,0,0,.873.222.756.756,0,0,0,.479-.135,3.311,3.311,0,0,1,.344-.241l.41.241Z" transform="translate(-255.822 -2.908)"/>
    <path id="パス_645" data-name="パス 645" d="M682.326,326.448c.6,0,.891-.207.891-.617V310.29c0-.411-.3-.615-.891-.615v-.619h5.683v.619c-.592,0-.889.2-.889.615v15.541c0,.41.3.617.889.617v.616h-5.683Z" transform="translate(-397.169 -3.862)"/>
    <path id="パス_646" data-name="パス 646" d="M771.166,326.448a.781.781,0,0,0,.48-.154.54.54,0,0,0,.206-.462v-15.61a.451.451,0,0,0-.206-.426.921.921,0,0,0-.48-.12v-.619h6.4v.619a.748.748,0,0,0-.36.1.331.331,0,0,0-.189.31,1.065,1.065,0,0,0,.136.444c.092.183.194.377.307.581l4.9,8.9,4.928-8.8c.159-.3.28-.531.358-.7a1.082,1.082,0,0,0,.122-.463c0-.251-.15-.375-.447-.375v-.619h6.335v.619a.92.92,0,0,0-.48.12.45.45,0,0,0-.2.426v15.61a.539.539,0,0,0,.2.462.78.78,0,0,0,.48.155v.616h-5.376v-.616c.617,0,.924-.207.924-.617V314.468h-.068l-6.879,12.6h-.1l-6.743-12.631h-.068v11.4c0,.41.32.617.959.617v.616h-5.136v-.616Z" transform="translate(-470.43 -3.862)"/>
    <path id="パス_647" data-name="パス 647" d="M963.4,307.911a13.786,13.786,0,0,1,3.833.561,11.972,11.972,0,0,1,3.557,1.693,9.174,9.174,0,0,1,2.637,2.861,8.663,8.663,0,0,1,0,8.182,9.164,9.164,0,0,1-2.637,2.857,10.99,10.99,0,0,1-3.557,1.641,14.5,14.5,0,0,1-7.669,0,10.973,10.973,0,0,1-3.557-1.641,9.186,9.186,0,0,1-2.637-2.857,8.663,8.663,0,0,1,0-8.182,9.193,9.193,0,0,1,2.637-2.861,11.952,11.952,0,0,1,3.557-1.693,13.775,13.775,0,0,1,3.836-.561m0,3.146a8.617,8.617,0,0,0-2.6.411,7.888,7.888,0,0,0-2.346,1.182,6.154,6.154,0,0,0-1.694,1.9,5.4,5.4,0,0,0,0,5.134,6.179,6.179,0,0,0,1.694,1.9,7.937,7.937,0,0,0,2.346,1.18,8.407,8.407,0,0,0,5.2,0,7.966,7.966,0,0,0,2.348-1.18,6.179,6.179,0,0,0,1.694-1.9,5.409,5.409,0,0,0,0-5.134,6.154,6.154,0,0,0-1.694-1.9A7.912,7.912,0,0,0,966,311.469a8.6,8.6,0,0,0-2.6-.411" transform="translate(-619.838 -2.918)"/>
  </g>
</svg>
