<svg xmlns="http://www.w3.org/2000/svg" width="2026.796" height="1912.727" viewBox="0 0 2026.796 1912.727"><g id="グループ_101" data-name="グループ 101" transform="translate(712.301 -135.613)"><path id="パス_1129" data-name="パス 1129" d="M1306.794 143.792c23.436 21.967-14.095 35.372-14.095 65.712s16.349 30.348 16.349 60.693-16.349 30.339-16.349 60.682 16.349 30.345 16.349 60.693-16.349 30.342-16.349 60.682 16.349 30.345 16.349 60.69-16.349 30.345-16.349 60.687 16.349 30.345 16.349 60.687-16.349 30.345-16.349 60.69 16.349 30.348 16.349 60.7-16.349 30.348-16.349 60.692 16.349 30.345 16.349 60.69-16.349 30.345-16.349 60.69 16.349 30.345 16.349 60.69-16.349 30.348-16.349 60.7 16.349 30.35 16.349 60.7-16.349 30.348-16.349 60.692 16.349 30.35 16.349 60.7-16.349 30.348-16.349 60.7 16.349 30.35 16.349 60.7-16.349 30.345-16.349 60.69 16.349 30.35 16.349 60.7-16.349 30.345-16.349 60.69 16.349 30.348 16.349 60.7-16.349 30.348-16.349 60.7 16.349 30.35 16.349 60.7-16.349 30.353-16.349 60.706 16.349 30.353 16.349 60.7-16.349 30.356-16.349 60.709 16.349 30.358 16.349 60.717 9.24 33.637-14.116 55.7c-22.148 20.921-26.274 12.41-58.515 12.508s-32.3-14.5-64.557-14.4-32.186 14.694-64.429 14.792-32.3-14.5-64.554-14.4-32.189 14.694-64.432 14.792-32.3-14.5-64.551-14.4-32.192 14.694-64.442 14.792-32.3-14.5-64.545-14.4-32.192 14.694-64.442 14.792-32.308-14.5-64.56-14.4-32.192 14.694-64.442 14.792-32.3-14.5-64.551-14.4-32.192 14.694-64.442 14.792-32.3-14.5-64.551-14.4-32.195 14.694-64.448 14.792-32.308-14.5-64.56-14.4-32.195 14.674-64.448 14.774-32.308-14.5-64.56-14.4-32.195 14.694-64.445 14.792-32.308-14.5-64.56-14.4-32.192 14.694-64.442 14.792-32.308-14.5-64.56-14.4-32.195 14.694-64.442 14.792-32.308-14.5-64.557-14.4-32.2 14.694-64.451 14.792-32.311-14.5-64.566-14.4-32.2 14.694-64.457 14.792-32.314-14.5-64.569-14.4-32.2 14.694-64.46 14.792-32.317-14.5-64.579-14.4-48.166 33.382-70.414 12.527c-23.439-21.97 14.092-35.372 14.092-65.712s-16.349-30.348-16.349-60.7 16.349-30.339 16.349-60.679-16.349-30.348-16.349-60.693 16.349-30.342 16.349-60.684-16.349-30.342-16.349-60.687 16.349-30.345 16.349-60.69-16.349-30.342-16.349-60.684 16.349-30.345 16.349-60.69-16.349-30.348-16.349-60.7 16.349-30.345 16.349-60.69-16.349-30.345-16.349-60.69 16.349-30.345 16.349-60.69-16.349-30.345-16.349-60.693 16.349-30.345 16.349-60.692-16.349-30.351-16.349-60.7 16.349-30.347 16.349-60.7-16.349-30.348-16.349-60.7 16.349-30.348 16.349-60.7-16.349-30.348-16.349-60.7 16.349-30.345 16.349-60.692-16.349-30.348-16.349-60.7 16.349-30.345 16.349-60.69-16.349-30.348-16.349-60.7 16.349-30.351 16.349-60.7-16.349-30.353-16.349-60.7 16.349-30.353 16.349-60.706-16.349-30.353-16.349-60.706 16.349-30.353 16.349-60.706-16.349-30.358-16.349-60.717-9.24-33.64 14.116-55.7c22.147-20.921 26.274-12.41 58.515-12.5s32.307 14.5 64.557 14.4 32.186-14.694 64.429-14.792 32.3 14.5 64.557 14.4 32.186-14.694 64.432-14.792 32.3 14.5 64.548 14.4 32.192-14.694 64.442-14.792 32.3 14.5 64.545 14.4 32.195-14.694 64.442-14.792 32.308 14.5 64.56 14.4 32.192-14.694 64.442-14.792 32.3 14.5 64.551 14.4 32.192-14.694 64.442-14.792 32.3 14.5 64.554 14.4 32.195-14.694 64.445-14.792 32.308 14.5 64.563 14.4 32.195-14.694 64.445-14.792 32.308 14.5 64.56 14.4 32.195-14.694 64.448-14.792 32.308 14.5 64.557 14.4 32.195-14.694 64.441-14.792 32.311 14.5 64.563 14.4 32.192-14.694 64.438-14.792 32.308 14.5 64.56 14.4 32.198-14.676 64.451-14.776 32.311 14.5 64.566 14.4 32.2-14.694 64.457-14.792 32.314 14.5 64.569 14.4 32.2-14.694 64.46-14.792 35.4 21.443 66.616 14.164c36.617-8.536 46.128-33.146 68.379-12.288z" fill="#f7f7f7"/></g></svg>