<svg xmlns="http://www.w3.org/2000/svg" width="384.151" height="238.64" viewBox="0 0 384.151 238.64"><g fill="#fff"><path d="M382.716 226.786a2.722 2.722 0 01-.409 0 148.53 148.53 0 00-16.552-.309c-2.4.044-4.871.111-7.312.082a1.007 1.007 0 01-.715-.185c-.147-.157-.129-.468-.106-.831l.01-.2a104.178 104.178 0 00-1.384-21.493c-.64-4.056-1.664-8.114-2.654-12.041a556.029 556.029 0 01-.857-3.436 168.441 168.441 0 00-7.638-23.19c-1.962-4.861-4.279-9.631-6.519-14.245q-1.126-2.322-2.243-4.65a206.991 206.991 0 00-13.342-24.6 111.393 111.393 0 00-21.208-23.723c-.468-.4-.936-.8-1.407-1.209-2.875-2.487-5.843-5.059-9.261-6.075a4.5 4.5 0 01-3.009-2.685 7.431 7.431 0 00-.982-1.52 17 17 0 01-1.234-1.636 14.854 14.854 0 00-1.53-1.957c-5.249-5.344-12.126-6.723-18.162-7.363-3.516-.363-6.921.537-10.115 1.5a3.653 3.653 0 00-2.484 1.89c-.617 1.366-.28 3.382 1.1 6.5a31.169 31.169 0 00-17.452 3.86c-2.019 1.052-2.994 2.266-2.9 3.608.116 1.589 1.376 2.559 3.582 2.79a20.913 20.913 0 00-5.18 3.583c-.91.808-1.1 1.541-.571 2.173.489.579 1.07.172 1.412-.077a2.305 2.305 0 01.368-.229c.221-.1.445-.185.671-.278a10.413 10.413 0 002.225-1.116 10.907 10.907 0 011.811-.977c1.577-.73 3.2-1.487 3.295-3.469.069-1.6-1.317-1.862-2.538-2.1a5.9 5.9 0 01-1.551-.437 28.737 28.737 0 018.574-3.258c5.082-1.026 10.336-2.091 14.544 2.932 1.317 1.574 3.454 2.567 6.532 3.035a5.093 5.093 0 01.766.213 2.281 2.281 0 001.677.152 1.03 1.03 0 00.5-.661 1.041 1.041 0 00-.062-.851c-.278-.468-.947-.612-1.538-.738a4.283 4.283 0 01-.723-.2c-3.2-1.371-5.432-3.7-7.8-6.159l-.471-.491c3.084.149 5.792 1.5 8.42 2.811 3.42 1.708 6.959 3.474 11.285 2.536l.177-.036.023-.18a3.476 3.476 0 00-1.106-2.87c-5.2-5.02-11.63-7.466-19.666-7.466a8.947 8.947 0 00-1.227.087c-.985.141-1.558.172-1.744-.682a1.16 1.16 0 01.147-.949 2.977 2.977 0 012.016-.926c9.6-1.52 17.473.4 24.062 5.874a9.226 9.226 0 012.3 3.564 9.7 9.7 0 001.924 3.179c2.579 2.487 3.027 5.478 3.5 8.646l.059.4a49.886 49.886 0 01-.607 16.807l-.015.072a1.434 1.434 0 00.09 1.134.848.848 0 00.633.314h.059c.453 0 1.173-.419 1.237-.82a32.589 32.589 0 011.09-4.279 22.038 22.038 0 001.294-6.748 74.744 74.744 0 00-.648-9.588c1.908 5.583 2.129 11.408 2.189 17.807a128.2 128.2 0 01-.946 14.343c-.221 2.15-.45 4.377-.635 6.615l-.062.777.512-.586c6.267-7.144 5.974-15.348 5.691-23.285a93.649 93.649 0 01-.033-.928l.1.8c.185 1.5.368 2.994.579 4.485.55 3.925-.062 7.847-.651 11.637a52.57 52.57 0 00-.872 8.883 4.208 4.208 0 01-.157.934 2.139 2.139 0 00-.018 1.592.9.9 0 00.622.383 1.151 1.151 0 00.226.023c1.121 0 2.086-1.548 2.451-2.595l.35-1c1.79-5.108 3.639-10.385 3.652-16.02 0-1.924-.01-3.847-.028-5.874v-.322c1.06 6.329.453 12.6-.136 18.694-.334 3.446-.679 7.011-.712 10.526l-.01.874.481-.73c5.3-8.065 5.527-17.2 5.743-26.039l.013-.556a56.7 56.7 0 01.656 19.551c-.278 2.06-.728 4.141-1.162 6.149-.226 1.044-.453 2.088-.658 3.138-.231 1.188.355 1.494.723 1.571a1.486 1.486 0 001.314-.684c2.482-5.033 5.239-11.784 4.511-19.394-.188-1.985-.4-3.968-.64-6.3-.028-.285-.059-.576-.09-.872a44.1 44.1 0 011.106 15.889 61.389 61.389 0 01-1.79 8.669c-.154.6-.309 1.206-.46 1.808-.013.059-.033.126-.054.2a1.919 1.919 0 00.021 1.582 1.441 1.441 0 001.116.545c1.188.121 1.762.015 2.25-1.53a60.6 60.6 0 001.7-7.589l.07-.378a98.291 98.291 0 01-2.047 11.357 247.76 247.76 0 00-.975 4.539l-.064.3c-.242 1.147-.576 2.716.718 3.284.962.427 1.414-.5 1.744-1.173a4.189 4.189 0 01.44-.774h.039l-.332 4.146.55-.838c2.777-4.225 3.618-8.464 4.511-12.954.082-.4.162-.813.247-1.229a57.239 57.239 0 01-2.394 16.228c-.062.214-.141.432-.221.651-.381 1.065-.856 2.389.5 2.994s2.641-.2 3.575-2.268c.311-.684.635-1.363.962-2.042.453-.946.913-1.908 1.335-2.9-.345 1.659-.7 3.307-1.06 4.925a473.946 473.946 0 00-.913 4.223l-.057.257c-.224 1.016-.5 2.284.764 3.153.9.617 1.4.005 1.731-.4.028-.033.057-.069.085-.1.041.6.118 1.206.2 1.79a10.5 10.5 0 01-.082 4.632c-.393 1.247.6 1.584 1.479 1.88l.069.026a3.683 3.683 0 012.374 3.827 24.252 24.252 0 01-.44 2.654 16.043 16.043 0 00-.453 5.342l.057.468.363-.3c3.405-2.85 5.19-6.517 6.854-10.11-.165.589-.334 1.175-.5 1.751-.357 1.24-.728 2.52-1.049 3.793a25.063 25.063 0 01-2.8 6.165c-.584 1.026-1.188 2.088-1.7 3.176-.813 1.715-.332 2.551.216 2.95.88.645 1.875.432 2.955-.628a21 21 0 003.95-6.239 34.519 34.519 0 012.4-4.423c-.118.383-.237.759-.352 1.129-.519 1.659-1 3.2-1.5 4.735a40.3 40.3 0 01-4.477 8.672c-.6.97-1.232 1.973-1.818 2.978a2.8 2.8 0 00.051 3.078 1.06 1.06 0 00.808.486h.013c.491-.008.849-.491 1.137-.88a2.8 2.8 0 01.3-.36 30.067 30.067 0 005.095-6.617c.735-1.157 1.484-2.34 2.327-3.518l-.19.512a28.12 28.12 0 01-1.528 3.6q-.54 1-1.067 2a45.188 45.188 0 01-5.766 9.073 2.812 2.812 0 00-.748 1.947 1.711 1.711 0 00.646 1.2 1.462 1.462 0 001.06.378c.666-.067 1.183-.7 1.646-1.265 2.2-2.7 4.416-5.378 6.589-8l1.556-1.883a21.661 21.661 0 01-3.148 6.666c-.993 1.435-2 2.86-3 4.29a559.864 559.864 0 00-3.763 5.39 2.722 2.722 0 00-.393 2.965 1.466 1.466 0 001.461.37 11.137 11.137 0 003.678-2.34c1.921-1.8 4.02-3.49 6.049-5.123l.9-.723c-1.571 1.988-3.418 3.925-5.213 5.81l-.062.064c-1.263 1.324-2.994 3.14-4.655 3.331a72.777 72.777 0 01-9.348.247 193.02 193.02 0 00-3.966-.033q-8.128.054-16.259.113l-11.393.08c-3.261.023-6.52.044-10.022.064l-5 .028a108.212 108.212 0 0011.995-8.7 214.534 214.534 0 014.441-3.5 57.734 57.734 0 0010.902-11.22c.414-.545 1.276-1.682.27-2.492-.921-.741-1.589.031-2.034.54a4.24 4.24 0 01-.275.3c-5.7 5.8-11.848 11.877-18.774 16.9-9.053 6.561-18.044 12.735-28.516 16.166a13.335 13.335 0 01-10.128-1.168 8.8 8.8 0 01-4.434-5.8 34.155 34.155 0 00-4.249-10.915c-.862-1.368-1.8-1.8-2.783-1.3a1.182 1.182 0 00-.671.808 2.225 2.225 0 00.633 1.687 10.619 10.619 0 011.723 3.649c.165.517.337 1.047.54 1.551-.2.08-.388.152-.579.221a5.012 5.012 0 00-1.515.759 28.607 28.607 0 01-19.078 6.774h-.27c-3.693-.028-6.134-.795-7.461-2.343-1.211-1.417-1.584-3.565-1.139-6.571.62-4.192 1.324-8.945.543-13.433-.921-5.28-.458-10.974 1.417-17.406 1.242-4.267.054-7.247-1.384-10.171a1.564 1.564 0 00-1.811-1 .991.991 0 00-.658.481 1.63 1.63 0 00.129 1.273l.059.162c.427 1.2.833 2.415 1.247 3.649l.2.594-.054-.075c-.378-.548-.9-1.3-1.931-.609-1.165.779-.63 1.808-.237 2.561a4.634 4.634 0 01.3.656c.093.275.224.6.36.931.172.417.694 1.682.483 1.772-2.078.856-1.7 2.263-1.4 3.395a4.8 4.8 0 01.2 1.049 17.811 17.811 0 00.422 2.945 11.758 11.758 0 01.363 3.75c-.37 2.945-.478 5.954-.581 8.86a74.5 74.5 0 01-1.024 11.614c-.028.147-.046.293-.064.437-.08.648-.123 1.008-.97 1.026-2.42.057-4.912.157-7.623.3-4.231.231-8.546.216-12.73.2-1.862-.01-3.721-.015-5.578 0h-.247c-.759-.005-1.888-.018-1.957 1.26a1.364 1.364 0 00.345 1.044 2.346 2.346 0 001.667.571l2.435.041c5.946.1 12.093.206 18.142.242.6 0 1.214-.021 1.821-.044 3.256-.123 6.329-.239 7.926 3.691.363.887 1.232 1.119 2.029 1.33 10.233 2.713 19.79.522 29.2-6.715.123.334.249.671.373 1.011 1.2 3.294 2.443 6.7 5.7 8.824a16.056 16.056 0 008.554 2.088c4.709 0 9.809-1.389 13.142-3.976l.244-.188c2.392-1.859 5.1-3.96 7.967-3.96h.124c2.78.057 5.609.039 8.34.021 2.417-.015 4.92-.031 7.386.008 5.635.085 11.37.033 16.912-.018q3.14-.027 6.278-.049 5.594-.031 11.18-.046c9.418-.033 19.155-.069 28.729-.234 1.9-.036 3.842-.038 5.717-.044 6.345-.01 12.905-.023 19.306-1.178a2.121 2.121 0 01.427 0 1.291 1.291 0 001.049-.229 1.12 1.12 0 00.252-.9c-.056-1.128-.912-1.077-1.419-1.056z"/><path d="M234.064 107.949l.118-.067c.368-.2.928-.512 1.039-1.034a1.047 1.047 0 00-.244-.862c-.473-.622-1.216-.656-2.209-.093a113.222 113.222 0 00-25.273 19.661c-6.221 6.314-12.152 13.479-13.438 23.069-.777 5.779.509 10.742 3.613 13.973 2.919 3.037 7.325 4.372 12.741 3.868a2.419 2.419 0 00.656-.19c.53-.208.653-.208.769.013.062.118-.154.543-.283.8a4.837 4.837 0 00-.319.73c-.185.625-.422 1.26-.648 1.877-.7 1.893-1.427 3.853-.944 5.931 1.4 6.018 6.6 8.07 11.367 9.521 1.955.6 2.407 1.34 2.7 3.132a856.637 856.637 0 003.7 21.341 3.885 3.885 0 01.023.694 2.152 2.152 0 00.386 1.636 1.206 1.206 0 00.954.27.673.673 0 00.476-.247c.373-.45.273-1.4.183-2.245l-.031-.314c-.167-1.787.116-2.968.841-3.508.681-.512 1.793-.46 3.3.149a2.385 2.385 0 002.95-.661c.108.221.2.45.293.674a3.566 3.566 0 001.726 2.173l.26.129.1-.275c.712-2.011.226-3.909-.244-5.745a14.142 14.142 0 01-.584-3.318c-.033-2.551-2.754-4.866-4.74-6.555a1.834 1.834 0 00-2.726.252 1.22 1.22 0 00-.35 1.054 1.908 1.908 0 001.008 1.258 6.406 6.406 0 012.214 2.333 10.414 10.414 0 001.517 1.906 2.022 2.022 0 00-1.494.867c-.314.617.059 1.327.458 2.081.1.193.206.388.3.586a6.857 6.857 0 00-2.235-.193c-1.407.036-2.2.005-2.536-1.072a35.32 35.32 0 01-1.083-5.666 34.988 34.988 0 00-1.134-5.856c-1.227-3.883-.34-7.582.522-11.154a33.317 33.317 0 001.129-6.661c.049-1.651.329-2.554.9-2.929a2.534 2.534 0 012.227.108q-.135.613-.283 1.25c-.265 1.152-.54 2.34-.751 3.552s-.36 2.446-.5 3.642c-.067.55-.134 1.1-.206 1.646a6.361 6.361 0 002.232 5.848 3.626 3.626 0 003.734.471c3.166-1.425 6.345-2.981 9.418-4.483q1.863-.91 3.732-1.818c2.119 12.689 4.333 25.8 13.008 37.216l.355.466.1-.576a4.84 4.84 0 00-.316-2.495c-.334-1.016-.574-1.749.422-2.744 3.986-3.984 8.158-8.579 12.759-14.05a177.853 177.853 0 0112.958-13.394c1.381-1.33 2.76-2.657 4.128-4l.067-.064c.483-.471 1.209-1.183.651-1.785a1.4 1.4 0 00-1.078-.435 1.828 1.828 0 00-1.34.723 15.653 15.653 0 01-2.523 2.453c-3.1 2.5-6.118 5.1-8.983 7.733-3.6 3.3-7.168 6.666-10.616 9.919q-1.963 1.852-3.883 3.657c-.185-4.85.838-9.845 1.919-15.117.381-1.867.777-3.8 1.111-5.712 1.137-6.512 2.25-14.1 1.034-21.714a7.684 7.684 0 00-.206-.851c-.329-1.17-.615-2.183 1.16-2.808 10.93-3.86 16.045-17.483 16.817-25.7a53.056 53.056 0 00-.844-14.721c-.661-3.5-1.525-7.155-4.141-10.092-.419-.468-.826-.823-1.587-.4-.869.481-.563 1.072-.3 1.592 1.816 3.549 2.394 7.327 3.012 11.334 1.515 9.845.1 18.5-4.323 26.471-3.624 6.527-15.217 12.2-23.015 11.234-.53-.067-.687-.172-.728-.249-.046-.093.01-.293.152-.543a14.331 14.331 0 001.432-4.681c.08-.435.159-.869.249-1.3.463-2.217-.293-2.868-1.013-3.022a1.012 1.012 0 00-.81.123 2.258 2.258 0 00-.666 1.551 5.717 5.717 0 01-.123.607l-.262.939c-1.217 4.372-2.366 8.5-8.317 9.184-3.716.422-6.612 3.068-9.413 5.627l-.586.535c-2.094 1.9-6.918 1.805-8.906-.165a2.324 2.324 0 01-.869-1.741 1.2 1.2 0 01.671-.856 30.365 30.365 0 016.324-2.741 4.768 4.768 0 00.689-.3 2.146 2.146 0 011.492-.37 1.188 1.188 0 01.607.718 2.64 2.64 0 003.688 1.561 2.043 2.043 0 001.242-1.075 3.26 3.26 0 00-.093-2.482 13.153 13.153 0 00-1.353-2.459q-.216-.332-.424-.664a2.766 2.766 0 00-3.115-1.492 2.286 2.286 0 00-1.926 2.605c.023.327-.018.339-.332.45a8.655 8.655 0 00-.216.077 195.638 195.638 0 01-21.616 7.286c-3.973 1.093-9.7-.5-11.228-2.528-3.421-4.534-4.079-9.891-1.908-15.49 3.068-7.906 8.384-15.21 15.8-21.709 6.384-5.608 12.716-10.98 19.881-15.085zm-16.274 57.1c2.173 3.179 4.647 4.691 7.9 4.866a1.075 1.075 0 01.226.252l.026.031c-.056.049-.111.1-.165.149a2.481 2.481 0 01-.717.517 4.352 4.352 0 01-3.937-.535 8.066 8.066 0 01-3.333-5.281zm35.532 7.162a23.934 23.934 0 00.249-6.116c-.064-.512-.108-1.031-.154-1.546a14.044 14.044 0 00-.874-4.426 1.083 1.083 0 01-.046-1.065.709.709 0 01.581-.231 1.406 1.406 0 01.226.018c3.1.5 6.093-.108 8.988-.7.859-.175 1.715-.35 2.577-.5.5-.09.8-.087.921 0s.147.37.19.759l.018.175c1.342 11.91-.99 23.385-3.171 32.052a37.547 37.547 0 00-1.047 14.641 3.2 3.2 0 01-1.2 3.323 80.691 80.691 0 01-4.971-15 76.032 76.032 0 01-2.641-16.886 30.808 30.808 0 01.353-4.499zm-18.074-1.019c-.1-.81.432-2 1.515-3.359 2.636-3.3 7.463-6.476 10.686-6.476.105 0 .208 0 .309.01-4.641 2.799-9.068 5.702-12.51 9.825zm-54.952-55.759a13.844 13.844 0 0010.308 1.89 12.662 12.662 0 008.271-5.095 23.793 23.793 0 004.259-12.005 14.119 14.119 0 00-5.473-11.794 11.814 11.814 0 00-10.3-2.785 3.269 3.269 0 00-.741.3c-.432.211-.882.432-1.162.265-.208-.121-.471-.532-.532-1.8a127.267 127.267 0 00-3.755-24.314 59.742 59.742 0 00-10.74-22.521c-7.18-9.238-16.624-17.517-29.722-26.057a71.967 71.967 0 00-23.815-9.783A88.293 88.293 0 0091.428.304a151.906 151.906 0 00-31.857 5.648c-16.9 4.933-29.707 13.121-39.171 25.036A106.029 106.029 0 002.292 64.2c-3.935 12.152-2.073 24.867.17 36.849 1.692 9.03 6.689 16.961 11.241 23.686.152.224.3.453.458.682 1.422 2.137 2.893 4.346 5.954 5.931l.723.375-.378-.723c-.319-.61-.581-1.152-.818-1.638a14.265 14.265 0 00-1.3-2.335 82.294 82.294 0 01-8.124-14.168c-3.4-7.232-5.236-15.063-6.136-26.183-.874-10.8.545-20.243 4.341-28.868a105.488 105.488 0 0110.2-18.409c.28-.4.548-.826.82-1.255a7.842 7.842 0 012.7-3.063.129.129 0 01.105-.008c.25.1.543.808.8 1.432a6.927 6.927 0 001.121 2.055c.1.111.2.224.306.337a7.257 7.257 0 00.6.628 18.562 18.562 0 0014.741 4.57c10.732-1.052 16.5-5.586 18.7-14.7 1.4-5.789 1.993-12.453-4.058-18.152A442.987 442.987 0 0060 9.677c4.436-1.278 8.628-2.484 12.97-3.372 11.768-2.41 22.179-3.241 31.828-2.541a85.1 85.1 0 002.335.136 31.977 31.977 0 017.425 1c-1.409.414-2.76 1.355-2.415 3.886.111.818.031.99-.01 1.026-.013.013-.075.044-.337-.01-3.289-.7-6.177.285-8.826 2.991-.6.617-.81.988-.71 1.278a1.962 1.962 0 001.178 1.124 12.224 12.224 0 001.754.3c.355.044.707.085 1.057.149l.167.028a10.127 10.127 0 011.263.283 2.012 2.012 0 01-.926 1.764c-4.254 2.675-7.96 6.589-11.663 12.319-5.933 9.179-11.331 18.754-15.832 26.906-4.179 7.577-11.542 10.807-18.666 13.934-.664.291-1.327.581-1.985.877-8.147 3.629-13.487 8.973-16.809 16.817-2.428 5.733-2.646 11.774-2.86 17.617l-.059 1.582c-.329 8.448-2.631 15.012-7.036 20.073-4.346 4.987-8.842 7.083-14.106 6.615-3.459-.311-6.247-1.849-9.2-3.48-.625-.345-1.252-.692-1.885-1.024a2.39 2.39 0 01-.273-.18 1.069 1.069 0 00-.8-.3.813.813 0 00-.514.417 1.543 1.543 0 00.3 1.471c.792.892 1.558 1.841 2.3 2.76 2.145 2.664 4.359 5.419 7.625 7.152 10.976 5.825 21.282 3.858 27.554-5.275a30.559 30.559 0 003.938-8.041 6.659 6.659 0 002 4.29c4.92 5.318 7.746 11.244 8.4 17.6.28 2.734.9 5.7 4.778 6.324.27.044.538.1.81.147a11.99 11.99 0 002.191.275 5.348 5.348 0 00.64-.039c1.592-.211 3.575-.473 4.524-2.441a2.169 2.169 0 00.021-2.353c-3.95-6.417-7.708-12.751-10.29-19.667a11.509 11.509 0 011.317-9.721 10.1 10.1 0 00.19 5.658 22.369 22.369 0 004.264 6.468c.638.759 1.3 1.54 1.9 2.338 1.746 2.317 2.479 5.066 3.186 7.728a26.411 26.411 0 002.4 6.579c2.163 3.737 7.738 5.784 11.468 4.223a3.241 3.241 0 002-1.6 2.055 2.055 0 00-.229-1.672l-.123-.237c-1.006-1.9-2.25-4.279-5.012-3.521a6.873 6.873 0 01-4.066-.216 3.907 3.907 0 01-2.605-2.479 29.73 29.73 0 00-3.284-8.41l-6.046-9.374a2.01 2.01 0 001.469-.489 1.474 1.474 0 00.342-1.273 2.049 2.049 0 00-.854-1.381 1.66 1.66 0 00-1.386-.229 1.574 1.574 0 00-1.042.71 5.021 5.021 0 01.936-1.631 30.812 30.812 0 005.725-13.039c1.052-5.753 1.4-6.573 6.563-6.576a32.7 32.7 0 01-2.793 10.357c-.206.445-.409.89-.615 1.332-2.569 5.55-5.226 11.288-1.885 17.887q.336.66.666 1.322c1.87 3.732 3.8 7.592 6.89 10.663a1.949 1.949 0 001 .422c.147.036.3.067.43.111l.373.126-.036-.393c-.01-.123-.021-.249-.028-.376a6.449 6.449 0 00-.093-.846 14.88 14.88 0 00-2.885-5.622 15.937 15.937 0 01-2.682-4.9 20.009 20.009 0 00-1.209-3.035c-1.067-2.3-2.073-4.483-.939-7.116a173.714 173.714 0 011.978-4.357c.573-1.237 1.15-2.474 1.7-3.721l.237-.538c1.551-3.508 3.156-7.134 2.78-11.231-.059-.635.211-.787.89-1a73.247 73.247 0 0019.962-9.493 33.3 33.3 0 005.632-5.357c2.531-2.814 5.149-5.725 9.012-7.018a11.569 11.569 0 004.228-2.983 15.458 15.458 0 012.628-2.189c.01 2.595-1.548 4.853-4.632 6.715-5.211 3.148-5.452 7.51-4.933 11.753A2 2 0 00114 96.228a1.3 1.3 0 001.36-.358c.087-.067.175-.134.27-.2a19.55 19.55 0 015.167-2.777c5.267-1.584 10.315-7.852 10.593-13.15a4.81 4.81 0 00-.131-1.106 3.321 3.321 0 01-.1-1.206c.046-.219.175-.486.741-.6.753-.157.993.409 1.309 1.332a4.492 4.492 0 00.522 1.16 6.12 6.12 0 004.706 2.922 2.5 2.5 0 001.8-.507 1.28 1.28 0 00.424-.91 25.4 25.4 0 01.91-5.082 18.532 18.532 0 00.815-7.263 23.551 23.551 0 00-2-5.943 37.18 37.18 0 01-1.4-3.508c-1.2-3.714-3.693-6.3-6.836-7.111s-6.46.265-9.366 3.006a1.659 1.659 0 01-1.3.6 1.562 1.562 0 01-1.029-.856c-3.132-5.164-6.154-11.452-4.827-18.921a3.385 3.385 0 011.276-2.479 2.863 2.863 0 012.423.013 8.185 8.185 0 002.009.321c.257.021.514.039.766.067 2.983.345 5.8-.44 8.531-1.2a29.881 29.881 0 016.157-1.247c4.267-.247 6.864-2.868 7.314-7.376.352-3.526-1.929-4.076-3.94-4.565a13.726 13.726 0 01-1.685-.481 20.615 20.615 0 00-2.865-.792c-2.487-.558-4.835-1.083-6.152-3.724a9.408 9.408 0 00-7.281-5.051c-2.518-.226-3.737-1.594-5.025-3.042-.2-.219-.409-.44-.615-.664l.609.219-.509-.375c8.366 1.78 16.771 5.488 25.656 11.308a117.217 117.217 0 0116.771 13.584c9.66 9.243 15.6 18.877 18.167 29.45l.363 1.492c2.453 10.069 4.992 20.477 3.547 31.157-.013.1-.033.206-.057.316-.106.514-.28 1.373.638 1.623s1.34-.432 1.692-.972c.075-.121.154-.242.237-.352a3.374 3.374 0 00.507-1.541c.113-.738.211-1.376.964-1.767 3.4-1.764 9.554-.3 11.758 2.8a14.408 14.408 0 012.222 10.863 14.074 14.074 0 01-5.717 9.179 9.3 9.3 0 01-9.526.862 5.551 5.551 0 01-3.1-3 5.068 5.068 0 01.473-3.927 1.117 1.117 0 00-.075-.841 2.64 2.64 0 01-.092-.3l-.08-.37-.316.214a2.365 2.365 0 01-.278.157 1.475 1.475 0 00-.653.53 136.5 136.5 0 01-13.685 20.417c-.905 1.1-1.816 2.186-2.762 3.248a90.853 90.853 0 01-15.836 14.055 97.763 97.763 0 01-9.276 5.722 93.9 93.9 0 01-10.367 4.735c-7.628 3.027-15.477 5.712-23.668 6.707a82.585 82.585 0 01-19.4.561c-7.029-.808-12.79-1.695-18.131-2.788-7.209-1.474-12.715-3.516-17.329-6.419-2.466-1.556-5.033-3.037-7.517-4.472-1.049-.607-2.1-1.211-3.145-1.826-.057-.033-.116-.075-.177-.113-.3-.206-.864-.584-1.327.021a.863.863 0 00-.216.663 1.2 1.2 0 00.612.725c.062.041.126.085.183.129.818.625 1.623 1.265 2.43 1.906 1.625 1.294 3.3 2.631 5.061 3.8 11.609 7.718 24.669 10.074 35.913 11.36a110.253 110.253 0 0012.535.751 78.626 78.626 0 0018.1-1.988c17.187-4.04 31.288-10.758 43.111-20.538a101.853 101.853 0 0014.8-15.019c2.394-3.014 4.49-6.27 6.517-9.42a223.267 223.267 0 012.693-4.128c.1.123.206.244.3.365a5.994 5.994 0 001.135 1.14zm-136.146-5.55l-.273-1.371a3.4 3.4 0 01.273 1.371zm49.013-60.666c.051-.53.085-1.044.116-1.553a13.229 13.229 0 01.89-4.717 16.08 16.08 0 01-1.006 6.27zm-2-3.67c.041.085-.049.291-.121.46a1.821 1.821 0 00-.162.494 27.73 27.73 0 01-2.137 7.574l.08-.473c.4-2.4.813-4.889 1.265-7.322a1.3 1.3 0 01.417-.838.4.4 0 01.221-.062.6.6 0 01.147.018.476.476 0 01.292.149zm-30.509 105.9a1.144 1.144 0 01.736-.17h.051c.393 0 .72.116.8 1.119v.018a.13.13 0 01-.052.113.4.4 0 01-.386.021c-.1-.028-.2-.051-.3-.077-.555-.131-.895-.237-.928-.7a.381.381 0 01.081-.32zm-19.615-26.963c-1.168 5.09-3.41 8.23-7.322 10.225 3.365-2.775 5.385-6.199 7.324-10.221zm7.178-11.357l.069.113a15.817 15.817 0 00.977 1.463 3.774 3.774 0 01.381.687c.285.6.679 1.425 1.45 1.083a1.339 1.339 0 00.751-.761 3.253 3.253 0 00-.4-2.286c-.473-1.008-.957-2.014-1.438-3.017-.967-2.011-1.965-4.089-2.862-6.17a22.255 22.255 0 011.494-21.392c2.438-4.012 6.486-6.051 10.4-8.021a98.347 98.347 0 002.626-1.353c1.517-.815 3.125-1.515 4.681-2.191a42.814 42.814 0 006.939-3.536 30.864 30.864 0 004.632-4.092 33.381 33.381 0 014.267-3.845 3.327 3.327 0 01-.612 2.217 6.906 6.906 0 00-.689 1.6l-.177.7.581-.437c.2-.152.37-.28.514-.391.252-.2.432-.334.625-.458a11.791 11.791 0 003.294-3.737 14.386 14.386 0 012.376-3.006.823.823 0 00.558.386c.419.054.728-.327.977-.628l.09-.108c.568-.664 1.119-1.345 1.672-2.024.538-.663 1.075-1.327 1.631-1.975.592-.694 1.219-1.381 1.826-2.05a39 39 0 003.67-4.434 9.863 9.863 0 00.982-2.127 14.491 14.491 0 01.684-1.641l-.743 3.132.5-.252c1.993-1.016 2.626-2.736 3.238-4.4a9.429 9.429 0 011.175-2.466.8.8 0 00-.105.591 1.221 1.221 0 001.427.674c.473-.19.687-.759.859-1.214.046-.123.09-.237.134-.327l.411-.831c2.639-5.334 5.367-10.848 3.881-17.4a10.918 10.918 0 01-.177-2.114c-.023-1.342-.046-2.608-.908-3.4a3.516 3.516 0 00-2.484-.723c.633-.846 1.916-.638 3.269-.414s2.721.445 3.544-.406c.653-.676.828-1.906.54-3.832l1.99 2.417a2.757 2.757 0 01-.272.075c-.378.1-1.085.27-.895 1.083a1.215 1.215 0 00.581.682 4.855 4.855 0 00-1.6.1c-.766.221-1.188.555-1.25 1-.1.666.666 1.258 1.129 1.553a3.95 3.95 0 004.8-.473c.041-.031.088-.057.134-.085a1.451 1.451 0 00.188-.121 5.394 5.394 0 014.524-.928 4.55 4.55 0 012.52 1.569c-.09-.07-.18-.123-.27-.193-.967-.736-1.97-1.5-2.855-1.33a7.7 7.7 0 00-3.264 1.985c-.419.357-.851.725-1.283 1.036l-.288.208.288.208c.1.072.2.152.3.226a5.465 5.465 0 00.717.5 4.333 4.333 0 002.8.244 3.738 3.738 0 012.783.329.513.513 0 00.548.021 1.547 1.547 0 00.576-1.2l.736-.743a8.9 8.9 0 006.432 4.614 13.356 13.356 0 002.631.221l.46.013a2.2 2.2 0 00-1.314 1.011 1.6 1.6 0 00.108 1.283 2.35 2.35 0 001.3 1.317 2.221 2.221 0 001.728-.1 1.875 1.875 0 001.077-1.008 2.538 2.538 0 00-.388-1.908c-.105-.219-.206-.427-.28-.627a1.12 1.12 0 01.759.036 1.334 1.334 0 01.53.867 4.955 4.955 0 01-.759 4.817c-1.407 1.782-3.22 1.589-5.275 1.183-.152-.028-.309-.064-.473-.1-1.227-.265-2.618-.563-3.055.275-1.06 2.032-2.86 2.1-4.6 2.155-.262.01-.52.018-.772.036l-.9.059c-3.814.268-7.749.54-10.148-3.644a.906.906 0 00-.959-.514 1.36 1.36 0 00-.993 1.162 3.489 3.489 0 001.134 3.693c.465.36.5.512.244 1.078-2.677 5.907-2.4 12 .887 19.168a24.811 24.811 0 001.957 3.315c1.61 2.43 3.13 4.727 2.651 7.883-.013.1-.036.2-.056.3a1.533 1.533 0 00.059 1.2 1.186 1.186 0 00.813.473c1.029.2 1.268-.527 1.433-1.016a2.347 2.347 0 01.167-.417 3.259 3.259 0 00.319-1.327 4.091 4.091 0 01.1-.676 4.473 4.473 0 00.039-1.564c-.1-1.137-.116-1.849.877-2.168a16.419 16.419 0 002.95-1.381c.64-.352 1.3-.715 1.978-1.006a4.458 4.458 0 015.272 1.042c2.078 2.189 3.091 4.974 4.071 7.669.473 1.3.962 2.639 1.564 3.909.952 2 1 3.583.16 4.982-.049.082-.1.183-.152.3-.316.663-.535.9-1.031.694l-.514-.216c-2.065-.859-4.2-1.746-5.054-3.7a19.693 19.693 0 01-1.162-4.917c-.121-.808-.244-1.643-.411-2.451a1.705 1.705 0 00-.383-.689 3.944 3.944 0 01-.178-.242l-.154-.239-.221.177a2.753 2.753 0 01-.231.154 1.139 1.139 0 00-.553.545c-.792 2.394-2.85 2.657-4.84 2.909-.3.039-.594.075-.877.121-2.387.37-4.853.52-7.237.666-1.445.087-2.94.177-4.405.316a2.9 2.9 0 00-1.911.877 1.365 1.365 0 00-.27 1.09c.178 1.139 1.492 1 2.351.9l2.711-.285c1.7-.177 3.4-.355 5.092-.548a34.63 34.63 0 001.288-.172c2.639-.375 5.36-.769 6.836 1.942 2.4 4.4.61 13.6-3.351 17.522-.1-.113-.211-.226-.322-.339a2.94 2.94 0 01-.849-1.162 1.716 1.716 0 00-.638-1.16 1.423 1.423 0 00-1.173.031 1.576 1.576 0 00-1.227 2.153 2.431 2.431 0 001.065 1.713 1.372 1.372 0 00.633.144 4.112 4.112 0 001.476-.409 11.637 11.637 0 01-2.438 1.247c-.329.136-.658.273-.982.419a.6.6 0 01-.633-.005c-.039-.046 0-.123.039-.18a6.188 6.188 0 00.684-3.482c.015-1.394.028-2.711.856-3.505a4.041 4.041 0 012.978-.795h.008c.28 0 .545-.345.594-.414a.474.474 0 00.121-.437 5.2 5.2 0 01.37-3.48 6.309 6.309 0 00.486-3.487 2.114 2.114 0 00-.723-1.427 2.09 2.09 0 00-1.587-.008 21.468 21.468 0 00-6.5 3.292c-.718.473-1.458.964-2.207 1.412-2.525 1.507-4.606 1.952-6.172 1.335-1.461-.576-2.562-2.114-3.266-4.565-.661-2.3-1.906-5.607-5.038-7.72-.522-.35-1.314-.882-2.135-.105a1.009 1.009 0 00-.378.7 1.157 1.157 0 00.437.787 2.025 2.025 0 01.288.339c.406.694.854 1.373 1.286 2.029a22.871 22.871 0 012.387 4.277c.219.571.409 1.193.594 1.8.792 2.6 1.615 5.285 5.172 5.979a1.572 1.572 0 01.157.039c-.069.044-.149.09-.2.116a.826.826 0 00-.255.177c-5.681 7.09-13.52 12.4-23.969 16.223a34.306 34.306 0 01-6.895 1.494 27.85 27.85 0 00-8.952 2.361c.041-.419.09-.833.141-1.247.291-2.438.566-4.74-.82-7.047l-.185-.306-.231.273a3.684 3.684 0 00-1.265 3.073c.429 6.262-1.957 11.861-4.267 17.275a170.41 170.41 0 00-1.512 3.624c-.368.918-.838 1.836-1.294 2.723-1.288 2.51-2.621 5.105-1.962 8.24a48.232 48.232 0 008.492 18.46 3.576 3.576 0 00.26.3c.111.116.319.337.306.422 0 .015-.033.059-.134.113a2.629 2.629 0 01-2.4-.2 4.865 4.865 0 00-1.8-.471 2.246 2.246 0 00-.751.126c-.028-.054-.059-.105-.087-.159a1.911 1.911 0 01-.28-.692 23.017 23.017 0 00-4.362-11.339 181.01 181.01 0 00-3.238-4.48l-1.178-1.6c.162.067.322.144.478.219.679.324 1.451.7 2.065-.226.728-1.093.01-2.07-.571-2.857-.118-.165-.237-.324-.337-.478a1.241 1.241 0 00-.779-.612c-.558-.118-1.08.239-1.7.648l-.031.021.167-.324c.35-.669.625-1.193.946-1.687a9.471 9.471 0 001.4-5.5c-.023-1.206-.473-1.877-1.337-2-1.057-.147-1.222.833-1.312 1.36-.015.082-.026.159-.041.232a22.988 22.988 0 01-2.322 5.985 39.319 39.319 0 00.613-11.661zm7.6-90.4c-.435 5.666-1.342 11.478-7.039 14.9-6.97 4.182-13.841 4.195-20.435.049-1.844-1.162-2.693-3.441-3.444-5.455l-.267-.71c-.162-.429 1.152-1.744 1.936-2.531.28-.28.55-.55.779-.792 5.424-5.807 12.275-10.465 22.218-15.109a1.088 1.088 0 01.471-.1 2.593 2.593 0 011.116.321 8.836 8.836 0 014.081 5.352c.193.98.314 1.962.435 2.911.055.406.104.796.155 1.167z"/><path d="M247.476 103.055c-.072 0-.142 0-.216.005-6.111.229-10.13 3.85-10 9.012.131 5.3 3.546 8.834 8.518 8.834h.172a9.183 9.183 0 006.262-15.811 6.94 6.94 0 00-4.736-2.04zm2.045 3.958a4.8 4.8 0 011.924 2.425 6.366 6.366 0 01-.018 4.935 6.585 6.585 0 01-3.863 3 6.4 6.4 0 01-4.753.015 5.632 5.632 0 01-2.754-3.49 6.1 6.1 0 01.159-4.092 4.876 4.876 0 002.091 2.757 4.309 4.309 0 003.49.375 5.291 5.291 0 003.723-5.925zm-122.716 31.023a4.4 4.4 0 002.976-2.183 3.053 3.053 0 00.041-2.772c-.882-1.9-2.9-5.144-6.548-5.565a1.688 1.688 0 00-.172-.015 4.857 4.857 0 00-4.4 3.472c-.339 1.083-1.3 4.763.692 6.748 1.283 1.281 1.036 2.214.723 3.395-.059.224-.121.455-.175.694l-.411-.219c-.458-.244-.867-.463-1.281-.669-.993-.5-1.769-.548-2.191-.139-.229.221-.527.769.026 1.967.075.16.144.347.216.543a3.042 3.042 0 001.53 2.021l-.453.149a17.241 17.241 0 00-2.081.784c-.167.08-.352.162-.543.25-1.06.473-2.258 1.011-2.567 1.929a1.555 1.555 0 00.162 1.27 1.311 1.311 0 00.823.72 1.021 1.021 0 00.2.028 3.27 3.27 0 001.772-.782 4.709 4.709 0 011.281-.7 2.778 2.778 0 001.227-.926c.3-.324.6-.656.846-.653a.592.592 0 01.376.237 1.994 1.994 0 001.517.807 1.885 1.885 0 001.366-.746 10.729 10.729 0 013.055-2.333 9.4 9.4 0 003.511-2.932 1.121 1.121 0 01.255-.185c.239-.147.537-.332.581-.666a.924.924 0 00-.327-.741 1.476 1.476 0 00-2.024-.213c-1.134.689-2.268 1.376-3.554 2.153l-.905.545c.214-.453.4-.908.574-1.355.734-1.848 1.369-3.447 3.882-3.918zm-3.865-6.723a2 2 0 00-.826 2.492 1.4 1.4 0 00.671.88 1.256 1.256 0 001.006.105l.249-.077c.82-.252 1.839-.566 2.086-1.656.028-.131.044-.265.059-.393s.041-.363.087-.391c0 0 .077-.036.35.069a1.265 1.265 0 01.723.748.636.636 0 01-.028.548 5.823 5.823 0 01-3.86 2.51 2.231 2.231 0 01-2.7-1.51c-.44-1.88.8-3.086 2.43-4.3l.044.157c.125.422.174.585-.289.818zm21.469-15.124a2.864 2.864 0 00-1.692-.342 29.517 29.517 0 01-8.495.429 38.061 38.061 0 00-6.692.085c-.08.01-.177.033-.275.054-.062.013-.152.036-.213.044-1.564-2.142-3.585-1.782-5.534-1.435a7.935 7.935 0 01-3.174.147c-3.606-.864-6.8 2.248-9.616 4.992l-.378.37a1.673 1.673 0 00.039 2.585 1.844 1.844 0 001.247.514 2.068 2.068 0 001.481-.7c.319-.329.615-.692.9-1.042a8.764 8.764 0 011.6-1.646c.141-.1.3-.239.478-.388.386-.327.97-.826 1.268-.769.028.005.1.021.172.159a2.156 2.156 0 003.667.934 6.448 6.448 0 01.967-.507c.211-.08.453-.2.7-.319.52-.252 1.168-.566 1.466-.455a.241.241 0 01.144.154c.9 2.129 2.186 1.631 3.212 1.227a5.546 5.546 0 01.939-.306 5.767 5.767 0 001.34-.509c1.049-.5 1.726-.756 2.3-.069.869 1.039 2.065 1.515 2.778 1.106a9.7 9.7 0 014.946-.846c2.6.028 5.257.01 7.1-2.875l.185-.291-.334-.093a4.794 4.794 0 01-.526-.208zm59.681 40.483a2.156 2.156 0 001.271.394 2.865 2.865 0 002.207-1.09c2.135-2.826 4.555-6.031 3.9-10.459a5.927 5.927 0 00-3.981-4.776c-1.407-.586-3.431-.676-4.477 1.029a7.367 7.367 0 00-.548 6.993l.211.543 2.142-4.315c.856 3.336-.193 5.923-1.26 8.1-.743 1.508-.548 2.812.535 3.581zm5.845-40.879h.16a7.279 7.279 0 007.137-6.8 8.824 8.824 0 00-2.639-6.049 4.76 4.76 0 00-3.2-1.589h-.111c-2.77.111-4.84.9-6.157 2.345a7 7 0 00-1.571 5.288 6.413 6.413 0 006.381 6.805zm2.567-4.061a3.254 3.254 0 01-2.472.671 3.889 3.889 0 01-3.737-3.768 3.324 3.324 0 01.813-2.577 4.244 4.244 0 013.145-1.157h.013c2.194 0 3.325 1.422 3.372 4.233a3.668 3.668 0 01-1.134 2.598zm-107.413 4.426a2.144 2.144 0 00-1.214-.309 22.9 22.9 0 01-12.386-.61c-2.924-1.013-8.78 2.073-10.094 4.747l-.044.082c-.324.656-.766 1.551.17 2.291a1.337 1.337 0 00.823.327 1.966 1.966 0 001.2-.617c.082-.072.165-.144.252-.211.465-.368.913-.779 1.345-1.178a8.271 8.271 0 013.984-2.477 3.813 3.813 0 01-.121.321c-.216.545-.514 1.291.463 1.813 1.577.838 2.873.211 4.125-.4a9.327 9.327 0 011.543-.643l.018.121c.1.712.216 1.517.751 1.836a1.091 1.091 0 00.962.031 67.036 67.036 0 006.319-2.824 200.71 200.71 0 012.945-1.414l.566-.265-.589-.211c-.409-.14-.74-.287-1.018-.41zm-9.352 22.161c.067.008.134.013.2.018a5.744 5.744 0 001.672-.244c.9-.224 1.679-.414 2.291.206l.059.059.082.015c1.888.3 2.626-.772 3.276-1.723a3.553 3.553 0 011.2-1.283 4.123 4.123 0 002.309-3.289 3.68 3.68 0 00-1.582-3.279c-2.243-1.649-4.91-3.292-8.23-1.916-3.127 1.3-3.77 4.02-4.393 6.648-.147.607-.28 1.183-.448 1.744a1.533 1.533 0 00.211 1.314 5.084 5.084 0 003.353 1.73zm3.945-7.749c-1.031.193-2.173.435-2.384 1.864a1.639 1.639 0 00.406 1.415.769.769 0 00.45.17 1.149 1.149 0 00.465-.085 2.861 2.861 0 001.5-1.211 2.511 2.511 0 00.3-.885c.046-.3-.113-.735.129-.952a2 2 0 01.682-.27 3.891 3.891 0 00.787-.36c.687-.442 1.026-.149 1.646.473a1.216 1.216 0 01.414.869.829.829 0 01-.332.6 6.347 6.347 0 00-1.1 1.36c-.846 1.263-1.577 2.353-3.577 1.119-.771-.468-1.42.355-1.736.751-.329.414-.615.314-1.227-.036a7.162 7.162 0 00-.314-.175c-.422-.208-.455-.391-.19-1.078a12.743 12.743 0 00.489-1.769c.412-1.821.8-3.549 3.323-3.837a2.211 2.211 0 00.27 2.037zm-83.979-12.856a2.18 2.18 0 01.543.2c.985.625 1.962 1.291 2.911 1.937l1.116.756a5.06 5.06 0 002.407 1.093 1.181 1.181 0 00.916-.406c1.042-1.155 2.441-1.132 3.93-1.1 1.715.031 3.472.064 4.624-1.8a1.114 1.114 0 01.4-.1c.352-.049 1.011-.139.923-.846-.1-.772-.856-1.018-1.525-1.234l-.237-.08a3.189 3.189 0 00-2.562.447 2.38 2.38 0 01-1.834.4 11 11 0 00-4.02-.368c-2.009.064-3.912.126-5.542-1.373a.88.88 0 00-.674-.134 1.873 1.873 0 01-.239.005h-.036l-.039.008a3.119 3.119 0 01-.563.052c-.615.021-1.453.049-1.6 1.17-.144 1.036.605 1.239 1.101 1.373zm220.81-14.913a1.386 1.386 0 00.926.7 1.18 1.18 0 00.234.023 1.717 1.717 0 001.029-.391c2.937-2.261 6.5-2.991 9.935-3.7.522-.108 1.044-.216 1.564-.329.249-.052.53-.1.826-.144 1.306-.211 2.934-.471 2.868-1.715a.859.859 0 00-.286-.643 2.136 2.136 0 00-1.561-.177 2.637 2.637 0 01-1.615-.123l-.077-.049-.823.067c-.537.044-1.057.085-1.574.141a22.7 22.7 0 00-10.423 3.449c-1.304.872-1.648 1.844-1.023 2.891zm-199.95-47.05c-.105-.674-.214-1.371-.26-2.052-.087-1.34-.723-2.147-1.7-2.155h-.021c-1.294 0-1.373 1.276-1.422 2.075a54.105 54.105 0 00.579 9.837c.123 1.018.244 2.037.35 3.058.005.051.008.113.013.175a1.186 1.186 0 00.35.97.658.658 0 00.381.113 1.189 1.189 0 00.358-.062c.45-.144 1.147-.764 1.152-1.294a14.638 14.638 0 01.262-2.292 9.214 9.214 0 00.077-3.989 11.557 11.557 0 00-.119-4.384zm-20.754 8.753l.08-.1c.044-.057.09-.118.139-.188a3.529 3.529 0 01.345-.427c2.847-2.829 4.549-6.4 6.2-9.85.46-.962.916-1.924 1.4-2.87a1.748 1.748 0 00-.55-1.754 1.511 1.511 0 00-2 .658 82.594 82.594 0 00-6.692 12.985 1.24 1.24 0 00-.062 1.132 1.158 1.158 0 001.016.411zm36.648 37.473a1.242 1.242 0 00.959-.934c.008-1.124-.021-2.263-.046-3.364-.021-.908-.041-1.816-.044-2.726a1.842 1.842 0 00-.625-1.656 1.539 1.539 0 00-1.394-.044 8.053 8.053 0 01.748-3.853 22 22 0 00.28-.766 1.693 1.693 0 00.067-1.337.923.923 0 00-.628-.445c-.471-.116-1.471.157-1.625.625-.185.555-.411 1.1-.63 1.633a15.44 15.44 0 00-.988 2.942c-.378 1.916.545 3.366 1.438 4.771.88 1.381 1.708 2.685 1.294 4.367l-.008.18.085.1a1.871 1.871 0 001.072.509zm19.944-2.741c.193.005.383.008.574.008 5.918 0 10.832-2.77 16.025-5.7l.6-.34-.68-.134a11.49 11.49 0 01-.838-.2 1.052 1.052 0 00-.622-.057 78.79 78.79 0 01-15.675 3.745 1.2 1.2 0 00-1.034 1.409c.048.459.32 1.228 1.65 1.269zm183.305 5.241a3.1 3.1 0 001.674.478 7.177 7.177 0 002.1-.43 8.729 8.729 0 011.5-.375c3.9-.484 7.453-3.8 7.163-6.689l-.041-.409-.35.216a38.851 38.851 0 01-12.087 4.92 1.651 1.651 0 00-.854.7.341.341 0 00-.031.3 2.6 2.6 0 00.926 1.289zM67.638 17.792a1.337 1.337 0 00.789.226 5.16 5.16 0 00.887-.108l.208-.036c.185-.033.37-.072.553-.113a2.787 2.787 0 012.286.167l.1.062 2.011-.594c1.911-.563 3.889-1.144 5.82-1.772a1.881 1.881 0 001.1-1.24.557.557 0 00-.121-.5c-.231-.262-.671-.224-1-.2q-2.01.17-4.025.327c-2.356.188-4.791.383-7.186.617a2.273 2.273 0 00-1.615.777 1.787 1.787 0 00-.327 1.4 1.4 1.4 0 00.52.987zm168.194 128.907c.391 1 1.216.764 1.88.579l.2-.054a5.847 5.847 0 016.249 1.805 1.759 1.759 0 001.3.7 1.917 1.917 0 001.029-.357 1.465 1.465 0 00.345-2.171c-1.281-2.243-3.477-3.078-5.8-3.8l-.064-.021-.067.015c-.417.093-.826.17-1.232.249a20.071 20.071 0 00-2.744.666 1.8 1.8 0 00-1.07.944 1.834 1.834 0 00-.026 1.445z"/><path d="M104.06 148.511h.023c.383-.005.774.008 1.17.023a7.7 7.7 0 003.223-.329 40.915 40.915 0 004.956-2.628c.679-.4 1.366-.8 2.068-1.2l.311-.172-.262-.242c-1.656-1.51-3.032-.82-4.254-.211-.216.111-.432.219-.651.316a2.06 2.06 0 00-.448.314c-.172.141-.4.365-.527.311-.059-.01-.131-.093-.2-.226a1.764 1.764 0 00-1.1-1.029 2.348 2.348 0 00-1.772.635c-.1.069-.18.131-.255.177-.224.144-.471.278-.717.411-1.1.6-2.343 1.276-2.356 2.968a1.054 1.054 0 00.332.63.762.762 0 00.459.252zm-8.001.58a1.832 1.832 0 00.36.056 1.23 1.23 0 001.294-.869c1.114-3.215 3.42-5.648 5.653-8 .347-.365.694-.73 1.036-1.1a1.21 1.21 0 00.234-.718c.01-.093.021-.185.039-.27l.067-.3-.3-.018a2.593 2.593 0 01-.247-.028 2.079 2.079 0 00-.633-.013c-3.426.646-8.147 5.838-8.42 9.261-.091 1.175.022 1.772.917 1.999zM67.342 28.648c-.584-.021-1.371-.041-1.659.862-.368 1.152.625 1.515 1.157 1.708l.149.054a19.934 19.934 0 007.322 1.129c1.162 0 2.358-.046 3.611-.093q.814-.031 1.649-.059l.638-.021-.473-.427c-.285-.26-.514-.5-.715-.715a2.5 2.5 0 00-1.078-.826 44.948 44.948 0 00-10.4-1.607zM52.217 59.949h.093c.972-.021 1-.715 1.034-1.451.01-.188.018-.4.041-.625l.008-.064-.026-.062c-.239-.568-.486-1.173-.746-1.805-.71-1.738-1.517-3.708-2.392-5.63a1.3 1.3 0 00-.782-.723 1.964 1.964 0 00-1.533.226c-1.057.581-.671 1.61-.463 2.163.877 2.34 1.87 4.694 2.747 6.772a1.982 1.982 0 002.019 1.199zm9.203-16.763a1.863 1.863 0 00.424 2.543 18.48 18.48 0 006.784 3.526l.067.018 1.921-.527-.123-.275c-.082-.185-.149-.393-.219-.6a2.416 2.416 0 00-.733-1.314c-1.772-1.229-3.714-2.428-5.933-3.665a1.5 1.5 0 00-2.188.294zm199.079 55.726a2.117 2.117 0 00-1.137-.538h-.002c-3.3.018-6.255.147-9.068 1.548l-.1.046c-.645.319-1.448.715-1.124 1.759a1.541 1.541 0 001.574 1.1 2.436 2.436 0 00.622-.085c2.325-.628 4.647-1.319 7.1-2.052.908-.27 1.836-.548 2.8-.831l.571-.167-.512-.3a10.231 10.231 0 01-.724-.48zm-8.432-7.903c-.818-.062-1.649-.193-2.453-.319a66.76 66.76 0 00-1.078-.162l-.028-.005-.658.054a22.581 22.581 0 00-2.767.342l-.28.054c-.7.131-1.309.242-1.376 1.342a1.355 1.355 0 00.288 1.088 1.28 1.28 0 00.954.291c.157 0 .321-.008.491-.015 2.5-.136 4.735-.2 6.82-.206.782 0 2.24-.005 2.307-.957.094-1.332-1.41-1.445-2.22-1.507zm-97.831 26.023c-1.728.851-2.86 1.906-3.1 2.893a2 2 0 00.581 1.78 1.906 1.906 0 001.018.252 1.147 1.147 0 00.9-.3 13.785 13.785 0 014.534-3.577c.818-.478 1.664-.975 2.443-1.541l.363-.265-.409-.18c-1.606-.715-4.407-.013-6.33.938z"/><path d="M106.519 141.639l.2-.324-.373-.062c-1.566-.25-3.505.936-4.809 2.127-1.232 1.129-2.513 2.86-2.407 4.331.031.437.09 1.25.985 1.4a1.911 1.911 0 00.257.028 1.223 1.223 0 001.309-.952 12.182 12.182 0 012.628-3.742 17.688 17.688 0 002.21-2.806zm126.036 45.529h-.013a1.778 1.778 0 00-1.327.877c-.525.882.231 1.489.592 1.782a11.714 11.714 0 012.747 3.336 2.382 2.382 0 001.327.833.388.388 0 00.136.021 1.115 1.115 0 00.88-.563 4.217 4.217 0 00-.717-3.439c-.758-1.266-2.105-2.678-3.625-2.847zm3.937 20.692a2.115 2.115 0 01-.347-.067 1 1 0 00-.831.026.753.753 0 00-.3.553 2.163 2.163 0 00.643 1.723c1.142.977 2.345 1.908 3.621 2.893.5.383 1.006.777 1.535 1.191l.491.386-.077-.62c-.502-3.996-2.007-5.93-4.735-6.085z"/></g></svg>