<svg xmlns="http://www.w3.org/2000/svg" width="283.741" height="299.914" viewBox="0 0 283.741 299.914"><g transform="translate(-297.786 -211.628)"><path d="M402.379,283.592a8.133,8.133,0,0,0,.37,2.828,3.515,3.515,0,0,1-1.941,4.353c-1.086-2.413-.6-5.318-2.619-8.1,0,2.348-.006,4.126,0,5.9,0,.919-.073,1.98-1.2,1.949a1.866,1.866,0,0,1-1.684-2.041,14.518,14.518,0,0,0-.877-5.981c-.28-.635-.374-1.337-1.28-1.287-.591.447-.159.817.029,1.232.639,1.423-.09,2.826-.067,4.2.033,2.093-1.558,1.932-2.607,2.509-1.6.881-2.987,2.143-4.913,2.486-1.41.251-.959,1.471-.7,2.373q1.216,4.239,2.53,8.454c1.391,4.481,3.361,8.869,4.052,13.453.587,3.892,2.158,7.443,2.835,11.3.627,3.572,2.135,7.1,3.288,10.632,2.465,7.56,4.449,15.27,6.25,22.99,1.226,5.258,3.286,10.21,4.631,15.412.8,3.073,1.276,6.187,1.989,9.264a46.9,46.9,0,0,0,1.78,5.118c.986,2.77,1.579,5.632,2.31,8.462.886,3.419,2.4,6.647,3.052,10.144.89,4.754,2.837,9.235,3.605,14.048.368,2.31,2.1,4.3,2.335,6.737.449,4.7,2.4,9.022,3.6,13.511,1.425,5.312,2.9,10.672,4.75,15.9a46.79,46.79,0,0,1,2.033,9.231,7.637,7.637,0,0,0,3.8,5.905c1.579.854,3.77.666,5.7.765,1.661.086,3.346-.176,4.936.946-6.2,1.644-13.116-.025-19.412,4.207a190.981,190.981,0,0,1,38.555,4.374c.257.589-.338.645-.562.664-5.155.426-10.33,1.076-15.487.368-3.4-.466-6.768-1.122-10.208-1.312a5.167,5.167,0,0,0-1.619-.113,30.191,30.191,0,0,1-11.955-.226c-1.826-.326-3.493-.971-3.852-3.336-.219-1.448-1.118-2.2-3-1.623-1.615.493-3.488.073-5.237.207-10.929.836-21.877.65-32.817.531-5.51-.061-11.027.389-16.517-.038-5.126-.4-10.309.058-15.389-1a1.948,1.948,0,0,0-.871.023c-4.806,1.262-8.253-1.011-11.879-3.871a26.34,26.34,0,0,1-8.011-11.391c-1.552-3.873-2.35-8.053-3.424-12.111-2.429-9.2-5.343-18.253-7.754-27.458-2.237-8.539-4.972-16.947-7.361-25.449-3.346-11.9-6.565-23.843-9.87-35.758-.973-3.514-2.509-6.941-2.92-10.509-.261-2.246-2.206-4.848.2-7.1-.863-2.248-.142-4.259.658-6.4,1.535-4.113,3.641-7.57,7.861-9.442,2.022-.9,3.48-2.688,5.5-3.729a77.471,77.471,0,0,0,7.474-4.819c.311-.209.389-.656.278-1.218-.163-.491-.735-.4-1.159-.347-4.631.583-9.264-.359-13.879.027a6.123,6.123,0,0,1-5.132-2.129c-3.1-3.071-3.344-6.052-.606-9.277a4.053,4.053,0,0,1,2.028-1c7.086-2.106,14.021-4.692,20.973-7.159,6.2-2.2,12.671-3.6,18.673-6.3,5.193-2.342,10.823-3.227,16.112-5.214q8.958-3.368,17.96-6.618c1.989-.721,4.029-1.3,6.4-2.051a7.079,7.079,0,0,0-4.431-1.368c-2.8-.121-3.411-1.258-2.212-3.956,1.216-.608,1.061,1.251,2.312,1.22,1.579-.042,1.443.255,2.54-1.4a3.662,3.662,0,0,1,2.578-1.429c4.226-.081,8.387-1.418,12.657-.648.556.1,1.232-.13,1.634.363,1.713,2.116,4.23,1.867,6.519,2.507,5.158,1.443,10.591,1.987,15.454,4.46.23.117.57.015,1.038.015.424-1.408.242-2.96.8-4.385.911-2.344,1-2.425,3.434-1.04-1.339,2.277-.62,4.75-.152,6.954.38,1.782,2.768,2.373,4.341,3.066a2.4,2.4,0,0,1,1.717,2.818c-.1,1.744-.5,3.528.426,5.341.553-2.214,2.728-3.566,2.325-6.106-.117-.737,1.333-.836,2.241-.752s1.811.132,2.076,1.207c.111.449.134,1.109-.553,1.105-1.92-.017-1.387,1.435-1.347,2.367a32.128,32.128,0,0,1-.558,6.137c-.123.819.37,1.2.173,2.283l5.761-7.175c-.487-1.836-3.223-.5-3.054-2.947a1.744,1.744,0,0,1,2.07-.368c1.809.689,3.6,1.18,5.531.217,1.863-.93,2.657-2.668,3.6-4.3.483-.836.823-1.753,1.283-2.755-1.228-.687-1.375-2.037-1.924-3.2a40.1,40.1,0,0,1-4.034-20.3,1.741,1.741,0,0,0-1.04-1.588c-3.647-2.3-7.9-1.157-10.4,2.856-.948-1.446-.639-2.519.625-4.029,1.623-1.943,3.887-2.645,6.11-3.131,1.061-.232,1.489-1,2.39-1.111-8.067-9.749-20.753-12.337-29.852-20.39.194-.742.746-1.479,1.556-.808,4.341,3.578,10.01,4.128,14.819,6.641,5.327,2.782,10.712,5.688,14.758,10.029,3.173,3.4,6.651,6.858,8.619,11.265,1.813,4.061,3.781,8.094,3.735,12.738-.029,3.05.426,6.064.071,9.164s-2.018,5.306-3.961,7.326a14.227,14.227,0,0,1-7.65,4.593c-2.383.418-3.5,2.379-4.126,4.042-1.12,3-3.752,4.6-5.371,7.38-1.732-1.989-.815-4.337-1.464-6.413-1.786.46-2.718,2.162-4.278,2.979a1.786,1.786,0,0,0-.263,2.816c1.195,1.017,1.174,2.419,1.6,3.658,1.542,4.529,3.175,9.045,4.362,13.672,1.663,6.486,3.81,12.826,5.373,19.349,1.082,4.527,2.379,9.03,3.572,13.547a15.064,15.064,0,0,0,1.437,2.864c1.452,2.818,1.688,6.006,2.651,8.984,1.732,5.354,3.967,10.605,4.769,16.216a37.6,37.6,0,0,0,1.406,6.121,1.19,1.19,0,0,1-.526,1.64,7.664,7.664,0,0,1-2.152-3.854c-.767-3.71-2.561-7.073-3.566-10.691-2.243-8.069-5.2-15.909-7.662-23.905-.994-3.227-2.235-6.382-3.183-9.619-1.6-5.444-2.835-11-4.629-16.373-1.617-4.844-2.736-9.812-4.086-14.714-1.059-3.858-2.72-7.591-2.876-11.712-.067-1.763-1.308-3.213-2.308-4.637-.833-1.186-1.776-2.3-2.7-3.422a4.121,4.121,0,0,0-3.944-1.464c-.8.623.071,1.813-.873,2.331-2.745-1.067-2.139-4.719-4.852-6.5.366,2.3,1.427,4.123-.292,5.707-.311.288-.292.917-1.032.6-.662-.284-.622-.547-.6-1.241a7.647,7.647,0,0,0-1.481-4.568,9.973,9.973,0,0,1-1.991-4.418c-.219-1.794-1.928-1.8-3.5-1.736,2.718,3.027,4.8,6.273,5.394,10.265.13.879.376,2.21-.961,2.323-1.065.09-1.657-1.007-1.792-1.978-.242-1.757-.549-3.438-1.916-4.717l-.152-.455-.2.2ZM343.8,306.052c-.645-.411-1.349-1.118-2.1-.635-1.918,1.239-4.234,1.207-6.256,2.183-1.93.93-3.9,1.991-6.277,1.895,2.081,2.82,2.7,3.25,5.515,2.229a31.108,31.108,0,0,0,9.187-5.755c-.232-.033-.159-.186-.036-.1C344.149,306.091,343.9,305.674,343.8,306.052Zm-23.753,9.034c.173-.683.1-1.335-.407-1.379-1.485-.123-2.812-1.109-4.5-.368a2.545,2.545,0,0,1-3.662-1.3c-.443-1.147.842-1.97,2.858-2.509,2.321-.618,4.733-.309,7.023-.955,8.245-2.333,16.337-5.13,24.44-7.909,8.143-2.791,16.3-5.588,24.555-7.992,3.029-.882,5.951-2.081,9.02-2.876a54.154,54.154,0,0,0,6.43-1.55c2.793-1.1,3.338-3.307,1.769-5.757-1.184-1.851-2.553-1.222-4.009-.856-5.289,1.326-10.129,3.9-15.4,5.375-6.382,1.784-12.567,4.27-18.867,6.357-3.175,1.053-6.394,1.976-9.621,2.87-4.687,1.3-9.143,3.411-13.76,4.992-7.449,2.551-14.95,4.949-22.428,7.414-1.725.57-2.906,2.308-2.446,3.587.468,1.3,3.209,3,4.639,3.037,2.212.067,4.4-.259,6.643-.054A28.569,28.569,0,0,0,320.045,315.086Zm40.107,82.731c-.3,1.41,1.207,2.252,1.067,3.553-.372,3.493,1.145,6.632,1.836,9.92.558,2.651,1.448,3.016,4.171,2.191,2.645-.8,5.193-1.907,7.79-2.229.6-.925-.056-1.941.721-2.626,1.385-.113,1.479,2.331,3.115,1.6,2.676-1.193,5.661-1.629,8.368-3.311-1.431-4.679-2.893-9.287-4.228-13.931-.4-1.379-1.262-1.773-2.383-1.42-2.36.742-4.865,1.032-7.092,2.066-.288,3.465,1.032,6.641.831,10a21.667,21.667,0,0,1-2.49-4.556,31.565,31.565,0,0,0-1.6-3.915c-1.086-2.045-2.375.539-3.733.451C364.136,395.463,362.086,396.566,360.152,397.817Zm5.909,23.989c2.442,2.91,1.8,6.833,3.887,9.534,1.253.456,2.256-.455,3.428-.526,2.1-.129,4.435-.639,5.774-2.076,1.212-1.3.01-3.3-.811-4.863-.084-.159-.027-.386-.069-.577-.683-3.11-1.374-6.219-2.151-9.734-3.741,2.02-7.783,1.947-11.483,3.547s-7.835,2.037-11.673,3.415c.877,3.317,1.437,6.365,2.49,9.233,2.308,6.277.673,5.914,7.606,4.034a9.363,9.363,0,0,1,1.105-.326c2.024-.28,2.553-1.057,2.2-3.317a12.683,12.683,0,0,0-1.1-3.3A4.065,4.065,0,0,1,366.062,421.806Zm13.663,50.906c-1.3-1.057-2.448-1.8-3.885-1.414-2.127.579-4.247,1.182-6.367,1.784a1.61,1.61,0,0,0-1.209,1.742c-.04,1.138.694,1.251,1.489,1.31,2.156.159,4.311.391,6.469.4,9.068.052,18.136.04,27.206.035.758,0,1.573.2,2.319-.474.14-4.082-2.191-7.681-2.454-11.752-3.417-.537-6.052,1.506-9.22,1.905.063,2.937,2.049,5.588.848,8.623-2.619-.42-2.726-2.58-3.14-4.328-.658-2.793-1.247-3.282-3.946-2.617-1.487.366-2.968.754-4.46,1.1C381.517,469.456,379.9,470.139,379.725,472.712Zm20.11-68.447a8.806,8.806,0,0,0-.067-3.284q-1.676-5.6-3.167-11.249c-.645-2.44-1.155-2.795-3.662-1.984-2.325.752-4.629,1.565-7.261,2.459,1.414,5.421,2.617,10.862,4.673,16.053C393.806,406.526,396.536,404.43,399.835,404.265ZM390,367.505c-3.277.589-6.593,1.709-10.008,2.665,1.742,5.4,3.11,10.722,4.512,16.339,3.077-.689,6.114-1.015,9-2.1.967-.363,1.529-1.191,1.145-2.055-.869-1.951-.894-4.086-1.542-6.045C392.171,373.473,391.667,370.5,390,367.505Zm-28.014,47.366c-.094-1.531.159-3-.318-4.167-1.433-3.505-2.6-7.1-3.9-10.649-.4-1.08-.8-1.308-2.043-1.366-1.792-.084-3.156.925-4.813,1.136-3.338.424-3.53,1.03-2.239,4.307a8.338,8.338,0,0,1,.238,1.13q1.2,5.029,2.409,10.056c.46,1.909,1,2.112,2.78,1.508C356.614,415.976,359.064,414.858,361.988,414.871Zm2.542-39.791a7.217,7.217,0,0,0-1.391.012q-1.955.454-3.887,1c-1.5.424-3.628-.3-4.336,1.5-.637,1.617.549,3.342.771,5.047a4.636,4.636,0,0,0,.293.819c1.157,3.394,2.711,6.661,3.119,10.338,2.081-.382,4.042-.7,5.987-1.105,3.363-.694,4.069-1.763,3.181-5.045C367.144,383.5,365.335,379.564,364.53,375.079Zm-18.3,21.787c3.672.286,6.57-1.377,9.987-2.156-2.078-5.352-2.949-10.82-4.627-16.135-3.5,0-6.471,1.389-9.736,2.285C343.328,386.238,344.755,391.452,346.234,396.867Zm23.648-62.475c1.506,5.189,2.6,10.25,4.646,15.042,2.931-.925,5.5-1.719,8.057-2.553a1.907,1.907,0,0,0,1.441-2.632c-.769-3.127-2.1-6.066-2.569-9.321-.393-2.73-1.928-3.259-4.681-2.663C374.522,332.752,372.4,333.6,369.882,334.392Zm9.216,32.67a60.6,60.6,0,0,0,10.43-2.83c-.959-5.143-3.25-9.757-3.944-14.856l-10.392,3.108C376.212,357.42,377.649,362.1,379.1,367.062Zm2.078,20.584a12.805,12.805,0,0,0-1.253-5.208c-1.36-2.672-1.393-5.663-2.17-8.473-.485-1.748-1.341-2.92-3.1-2.3-2.246.8-4.656,1-6.739,1.851-.641,1.715.115,3.054.662,4.341a7.087,7.087,0,0,1,.9,2.36c.2,2.785,1.157,5.423,1.786,8.126.257,1.1.959,1.832,2.1,1.422C375.873,388.862,378.641,388.9,381.177,387.646Zm20.269,18.817c-2.588,1.556-5.181,1.42-7.493,2.463-2.17.98-2.958,1.45-2.118,3.428.673,1.585.6,3.211,1,4.786.539,2.112,2.166,3.8,2.033,6.212-.061,1.067,1.176,1.115,2.3.731,2.613-.894,5.3-1.59,8.379-2.49Zm-30.228,28.2a19.135,19.135,0,0,0,.4,4.57c.873,2.768,2.362,5.331,2.609,8.326.111,1.354,1.253,2.574,2.638,1.918,2.043-.969,4.2-1.193,6.308-1.746a1.758,1.758,0,0,0,1.383-2.6c-.62-1.8-1.5-3.666-1.5-5.5,0-2.5-1.379-4.334-2.147-6.457-.255-.71-.9-1.656-1.709-1.04C376.855,433.923,373.816,433.355,371.217,434.667Zm25.127-7.238c.959,5.366,2.768,10.234,4.362,15.145,3.591-.388,6.536-2.045,9.9-2.68-1.1-4.153-2.07-8.191-3.5-12.116-.9-2.486-.71-2.344-3.355-2.043C401.345,426.011,399.217,427.206,396.344,427.429Zm24.461,48.4c.8-1.423-.763-1.65-.98-2.6-.76-3.334-2.179-6.5-2.335-9.993-.079-1.759-.794-2.816-2.9-2.551a38.7,38.7,0,0,0-6.442,1.477c-1.6.485-2.012,1.592-1.5,3.415,1.03,3.637,2.9,7.042,2.9,11.224C413.438,475.467,417.244,476.405,420.805,475.831Zm-80.982-55.9c2.467,1.362,4.2-.708,6.319-.857,2.152-.152,2.987-1.721,2.068-3.727-1.922-4.2-2.423-8.775-3.749-13.141a3.133,3.133,0,0,0-2.551,0,8.392,8.392,0,0,1-4.769,1.232,1.715,1.715,0,0,0-1.648,2.429c.8,2.057.969,4.245,1.623,6.313C337.943,414.806,338.925,417.38,339.823,419.932ZM364.259,313.49c3.881.194,7.086-1.4,10.551-2.7-1.974-4.47-2.966-9.183-4.366-13.684-3.674-.242-6.323,1.778-9.237,2.956-.85.345-.756,1.354-.539,2.087A97.632,97.632,0,0,0,364.259,313.49Zm-21.275,84.987a12.025,12.025,0,0,0-1.051-5.433c-1.172-3.092-1.771-6.371-3.012-9.45a1.887,1.887,0,0,0-2.68-1.278c-1.652.487-3.133,1.429-4.9,1.64-1.214.146-1.525,1.109-1.138,2.173,1.431,3.925,1.337,8.236,3.357,12.057,1.189,2.248,1.255,2.663,3.681,1.847A40.4,40.4,0,0,1,342.984,398.477Zm80.4,77.5c2.634-.113,4.9.334,7.19-.5.829-.3,1.479-.566,1.525-1.448a10.9,10.9,0,0,0-.269-4.305c-1.182-3.47-2.985-6.735-3.2-10.543-.115-2.039-.913-2.325-3.006-1.688a27.218,27.218,0,0,1-2.736.856c-3,.568-3.267,1.1-2.636,4.057C421.188,466.819,423.949,470.774,423.379,475.979Zm-74.214-120.31c3.436.685,6.089-1.412,9.076-1.888-.414-5.4-3.338-9.8-3.633-15.234-3.123.687-6.039,1.544-8.943,2.475a1,1,0,0,0-.8,1.293c.345,1.55.228,3.545.833,4.589C347.295,349.655,347.293,352.912,349.165,355.669ZM371,451.245c.932-3.052-1.007-5.3-1.195-7.892a25.182,25.182,0,0,0-1.627-5.778c-.309-.938-.831-1.759-2.087-1.483-2.057.453-4.123.879-6.183,1.324a1.844,1.844,0,0,0-1.558,2.553c1.228,4.4,2.517,8.778,3.808,13.252C365.312,452.987,368.046,451.7,371,451.245ZM375.616,314.1c-2.91.7-5.686,1.37-8.46,2.041-1.638.4-2.337,1.458-1.606,2.977,1.717,3.564,1.945,7.51,3.112,11.361,3.831.15,7.3-1.17,10.628-2.632C377.981,323.212,376.41,318.836,375.616,314.1Zm39.434,142.88c-.044-4.738-3.146-8.512-2.881-13.148-2.542-.476-4.823.28-7.023.673-3.052.543-4.082,2.124-3.292,4.119a59.632,59.632,0,0,1,2.308,8.535c.522,2.237,1.621,3.033,3.8,2.3C410.313,458.671,412.834,458.324,415.05,456.983Zm-51.924-85.177c-.084-1.191.14-2.479-.3-3.476-1.619-3.67-2.329-7.622-3.819-11.57-3.14,1.107-6.707.717-9.454,3.146-.132,1.218.965,1.974,1.2,3.158.618,3.092,1.732,6.081,2.5,9.147.422,1.688,1.471,2.436,2.9,1.765C358.339,372.949,360.785,372.855,363.127,371.806Zm-12.049,3.417c-1.469-2.264-1.372-4.69-2.31-6.739-.81-1.773-1.669-3.4-1.644-5.446.019-1.393-.8-2.2-2.452-2.108a15.39,15.39,0,0,0-7.466,2.277c-.136,5.239,3.681,9.521,3.643,14.9A95.842,95.842,0,0,0,351.078,375.223Zm-10.307-32.443c-3.027.146-5.786,1.619-8.966,2.1.955,5.139,3.075,9.782,3.954,14.9a25.834,25.834,0,0,0,9.755-2.805C343.629,352.473,343.664,347.368,340.771,342.781ZM379.9,467.356c2.755-.867,5.3-1.761,7.892-2.444,1.491-.393,1.815-1,1.377-2.477-.951-3.2-1.728-6.451-2.567-9.678-.47-1.8-1.172-2.066-2.743-2.066-2.688,0-4.673,2.072-7.374,2.035A45.2,45.2,0,0,0,379.9,467.356Zm-24.854-27.588c-3.079-.823-5.536,1.23-8.3,1.832-.754.163-.909.978-.748,1.7a15.337,15.337,0,0,0,1.04,4.029,24.934,24.934,0,0,1,2.705,9.335c2.409.008,4.4-1.1,6.515-1.619,2.858-.7,3.192-1.437,2.306-4.171C357.363,447.186,356.217,443.486,355.043,439.768Zm15.665-89.747c-1.026-4.243-2.072-8.322-2.977-12.433-.32-1.448-1.047-2.055-2.434-1.817a37.362,37.362,0,0,0-7.846,2.093c1.3,4.424,2.513,8.656,3.777,12.876.7,2.329,1.308,2.561,3.466,1.65C366.6,351.583,368.545,350.867,370.707,350.021Zm4.637,18.574a26.6,26.6,0,0,0-.336-4.274c-.558-2.342-1.435-4.573-2-6.9-.982-4.029-.967-4.009-4.93-3.066a12.508,12.508,0,0,1-2.613.209,3.518,3.518,0,0,0-2.72,1.475c-.8.984.292,1.527.608,2.275.372.884.537,1.851.829,2.77.975,3.077,1.042,6.421,2.812,9.4C369.769,370.369,372.324,369.1,375.345,368.6Zm32.589,14.8c-2.759,1.863-5.767,2.033-8.729,3.112a158.16,158.16,0,0,0,4.151,15.3c.161.5.439,1.036.965.842,2.467-.909,5.308-.512,7.668-2.087A88.438,88.438,0,0,1,407.934,383.391Zm-15.4,45.149c-2.348.6-4.512,1.2-6.705,1.682-1.443.313-1.815.859-1.464,2.423.9,4.036,2.423,7.89,3.294,11.926.28,1.293.934,1.755,2.317,1.278a55.463,55.463,0,0,1,5.536-1.519c1.36-.315,1.845-1.067,1.322-2.321-1-2.4-1.214-5.043-2.214-7.388C393.771,432.633,393.861,430.3,392.536,428.54Zm-73.013-79.9c1.335,3.777,2.051,7.708,3.031,11.572.829,3.277.819,3.411,4.151,2.559,2.041-.522,4.437-.286,6.1-2.4-2.285-3.564-1.9-7.8-3.177-11.625-.7-2.1-1.456-2.893-3.505-2.3C323.952,347.078,321.668,347.435,319.523,348.638ZM378.8,413.014c1.09,4.775,3.1,8.872,3.689,13.369.092.7.572,1.865,1.748,1.487,2.7-.867,5.567-1.278,8.251-2.632-1.951-4.765-2.855-9.6-4.573-14.334C384.793,410.987,382.044,412.531,378.8,413.014Zm-34.667-74.747a55.436,55.436,0,0,1,7.432-1.928c1.189-.29,1.836-.953,1.214-2.367a9.186,9.186,0,0,1-1.141-3.814c.163-3.321-1.738-5.939-2.3-9.122a47.477,47.477,0,0,1-7.723,2.438c-1.222.272-1.788.871-1.381,2.022C341.69,329.629,342.1,334.078,344.137,338.267Zm57.791,24.622c-2.16,2.035-4.474,2.275-6.661,2.812-1.435.353-2.154,1.057-1.632,2.442,1.629,4.3,2.457,8.838,3.942,13.183.363,1.063.739,1.136,1.849,1.03,2.321-.221,4.251-1.8,6.687-1.456C404.781,374.975,402.523,369.51,401.928,362.889ZM376.631,468.1a75.183,75.183,0,0,0-4.027-13.72c-2.862-.558-5.124,1.145-7.65,1.579-1.861.32-1.817,1.193-1.422,2.653,1.04,3.835,3.434,7.261,3.108,11.5C370.325,470.308,373.3,468.867,376.631,468.1Zm-23.1-31.618c.322-1.264-.313-2.007-.485-2.851a71.169,71.169,0,0,0-2.868-10.768c-.374-1-.681-1.617-1.771-1.3-2.21.637-4.4,1.331-6.6,2.014-.838.261-1.408.779-.944,1.7,1.661,3.267,2.116,6.849,2.784,10.373.32,1.684,1.5,3,2.657,2.718C348.72,437.78,351.111,437.117,353.534,436.48ZM328.906,381.01c2.064.232,4.009-.783,6.049-1.22,2.83-.608,2.981-1.015,1.876-3.72a7.863,7.863,0,0,1-.192-.844c-.9-3.208-1.842-6.4-2.686-9.628-.48-1.824-1.738-2.166-3.027-1.31-1.819,1.207-3.967,1.36-6.16,2.415C326.254,371.3,326.414,376.268,328.906,381.01Zm-1.652-53.035a9.79,9.79,0,0,0,.234,2.544c.89,2.843,1.794,5.7,2.463,8.587.472,2.028,1.466,2.446,2.968,1.974,2.126-.668,4.332-.861,6.482-1.366a3.433,3.433,0,0,0,.272-.875c.052-4.458-2.016-8.433-2.91-12.675a1.028,1.028,0,0,0-1.535-.815C332.685,326.458,329.851,326.669,327.254,327.975Zm39.1,3.326c-3.288-3.954-2.367-9.135-4.953-13.2-3.064,1.024-6.2,1.391-9.128,2.837,1.813,4.65,2.647,9.31,4.692,13.891Zm-52.051.2c2.949,4.211,2.3,9.448,4.652,13.814,3-1.12,6.166-1.333,8.861-2.889-.746-3.816-2.333-7.194-3.037-10.837-.284-1.464-1.118-2.619-3.081-2.275A30.89,30.89,0,0,0,314.307,331.5Zm77.009-3.453c-2.193.639-4.366,1.356-6.584,1.884a1.385,1.385,0,0,0-1.13,1.959c1.186,4.433,2.452,8.842,3.7,13.313,2.074.079,3.72-.942,5.525-1.151,3.14-.366,3.133-.366,2.053-3.223-.1-.263-.056-.579-.142-.852C393.524,336.073,393.232,331.9,391.316,328.046Zm10.432,132.975c-.315-4.261-2-7.955-2.674-11.882-.315-1.847-1.771-2.256-3.3-1.8a33.1,33.1,0,0,1-4.721,1.2c-1.116.157-1.964.746-1.383,2.45,1.107,3.248,1.786,6.641,2.674,9.964.487,1.817,1.688,2.482,3.478,1.773C397.687,461.986,399.672,461.677,401.748,461.021ZM388.166,348.87c1.8,4.938,2.987,9.761,4.487,14.672l8.028-2.223c-.994-5.312-3.29-10.156-3.877-15.817A80.617,80.617,0,0,1,388.166,348.87ZM359.655,457.7c-2.005.458-3.783.827-5.544,1.274-2.668.679-2.812,1.264-2.392,3.958.326,2.087,1.251,3.956,1.466,6.129.409,4.142,2.116,4.917,5.991,3.674,1.26-.4,2.908-.27,3.7-1.276.994-1.258-.121-2.753-.434-4.13C361.715,464.135,361.834,460.686,359.655,457.7Zm62.176-20.743c-.944-5.32-2.736-10.284-4.059-15.7-2.3.773-4.46,1.4-6.6,2.246-1.243.493-1.483,1.166-1.224,2.149.852,3.24,1.448,6.613,2.81,9.634,1.663,3.689.541,3.706,5.21,2.592C419.161,437.594,420.352,437.312,421.831,436.961Zm-102.6-49.3c-.405,1.214.265,1.828.445,2.571.882,3.647,1.987,7.242,2.849,10.9.453,1.92,1.5,2.569,3.3,2.12,1.659-.414,3.286-.95,4.9-1.425-.52-5.776-3.29-10.722-4.272-16.227C323.757,386.008,321.27,386.217,319.226,387.659Zm85.152,18.092,4.119,14.5c3.029.437,5.586-1.253,8.542-1.387l-4.428-15.034C409.784,403.685,407.516,405.5,404.378,405.751Zm-18.76-97.441c-1.226-5.44-2.072-10.518-4.2-15.414a21.58,21.58,0,0,1-7.482,2.1c.267,5.312,2.657,9.908,3.311,14.773C380.448,310.819,382.372,307.685,385.618,308.31ZM336.343,422.084c-.633-2.358-.666-4.428-1.216-6.177-.919-2.933-1.888-5.861-2.659-8.84-.318-1.228-.854-1.652-2.035-1.31-1.287.374-2.563.788-3.86,1.126-1.5.393-1.961,1.18-1.494,2.745,1.174,3.94,2.317,7.9,3.25,11.9.368,1.569,1.17,1.669,2.465,1.73C332.641,423.339,333.934,421.733,336.343,422.084ZM390.182,323c-1.04-3.541-2.058-7.09-3.135-10.622-.349-1.145-1.143-1.4-2.289-.967a22.328,22.328,0,0,1-3.317.913c-2.7.564-3.129,1.095-2.419,3.685.863,3.146,1.847,6.26,2.793,9.381.449,1.481,1.283,1.995,2.82,1.266a16.38,16.38,0,0,1,3.823-1.32C389.879,325.059,390.176,324.277,390.182,323ZM418.395,455.36c1.876.662,3.509-.2,5.2-.474,2.714-.43,3.334-1.111,2.695-3.559-.982-3.743-2.164-7.434-3.261-11.15-2.068.435-3.938.79-5.788,1.226-1.548.366-2.525,1.431-1.957,2.966C416.609,447.969,417.039,451.817,418.395,455.36Zm-100.267-70.74c1.746-.508,3.238-.867,4.677-1.374,2.918-1.03,2.92-1.07,1.682-4.184a10.585,10.585,0,0,1-.2-1.713c-.813-3.392-2.473-6.494-3.085-10.148a26.279,26.279,0,0,1-7.564,2.314C315.577,374.463,316.63,379.437,318.128,384.619Zm28.806,72.763c-2.413-4.6-3-9.471-4.236-14.156-2.665-.93-4.614,1.468-6.971,1.27a3.1,3.1,0,0,0-.249,2.212c1.08,3.958,2.271,7.886,3.355,11.84.449,1.64,1.765,1.109,2.586.9A50.222,50.222,0,0,0,346.934,457.382ZM330.314,427c-.524,1.42.437,2.636.52,3.971.144,2.283,1.512,4.289,2.216,6.463,1.473,4.556,1.466,4.558,6.029,3.016a2.545,2.545,0,0,1,.537-.192c2.083-.2,2.018-1.721,1.531-3.006a60,60,0,0,1-3.57-12.322A45.282,45.282,0,0,0,330.314,427Zm-13.95-78.077a12.475,12.475,0,0,1-5.765,2.11c-1.381.259-1.746.938-1.354,2.258,1.084,3.651,2.227,7.294,3.1,11,.38,1.6,1.239,1.876,2.463,1.512,1.792-.533,3.727-.656,5.393-1.638C319.22,359.135,316.985,354.527,316.365,348.922Zm44.36-33.951c.015-4.069-1.792-7.593-2.553-11.343a1.1,1.1,0,0,0-1.675-.65c-2.653,1.487-5.586,2.557-7.929,4.867,2.532,2.651.817,6.674,3.271,9.227A70.194,70.194,0,0,0,360.724,314.971Zm-45.843,31.072c-.5-4.842-2.7-8.978-3.108-13.6-1.235-.18-2.59-.562-3.451.161a26.949,26.949,0,0,0-3.871,4.3,1.655,1.655,0,0,0,.278,1.911,7.828,7.828,0,0,1,1.42,4.6c.251,3.488,1.742,4.479,5.093,3.76A30.011,30.011,0,0,0,314.882,346.044ZM340,463.6a20.929,20.929,0,0,1,2.4,7.773c.439,2.739,1.636,4.082,4.422,4.529,3.426.549,4.257-.389,3.712-3.91-.491-3.19-2.622-5.93-2.26-9.329.115-1.078-.852-1.554-1.8-1.233C344.4,462.128,342.119,462.132,340,463.6Zm8.525-145.3c-1.487-2.676-.629-6.012-3.2-8.462a63.759,63.759,0,0,0-9.128,5.713c2.492,1.322,1.558,4.211,3.495,5.751C342.438,319.849,345.67,320,348.521,318.3ZM319.782,404.74a119.015,119.015,0,0,0-3.311-13.546c-.777-2.891-.867-2.866-3.791-1.585,1.063,4.779,3.1,9.281,4.042,14.1C317.037,405.324,318.186,405.2,319.782,404.74Zm5.684,18.911a4.993,4.993,0,0,0-.345-1.627,68.8,68.8,0,0,0-2.695-8.14c-.5-1.462-.061-3.115-1.109-4.42-.528-.658-.99-1.174-1.922-.681-.806.426-1.176,1-.813,1.872a26.617,26.617,0,0,1,1.078,3.555c.871,3.33,1.924,6.609,2.816,9.935.267.99.742,1.27,1.656,1.038C324.908,424.983,325.679,424.78,325.466,423.65ZM302.5,353.106c1.195,4.245,2.352,8.36,3.511,12.473.817,2.9.817,2.9,3.643,1.379-1.232-4.266-2.444-8.567-3.727-12.845C305.362,352.244,303.984,352.759,302.5,353.106ZM331.749,446c-2.34.361-3.146,1-2.365,3.148,1.239,3.4,2.162,6.925,3.092,10.432.282,1.057.485,1.959,1.788,1.671a1.656,1.656,0,0,0,1.172-2.3C334.264,454.654,333.007,450.382,331.749,446ZM323.613,428.9c1.734,4.025,2.365,8.391,3.681,12.569.631,2,1.032,2.074,3.482.967-.633-2.279-1.51-4.527-2.068-6.808-.589-2.4-1.235-4.765-1.8-7.117A5.358,5.358,0,0,0,323.613,428.9Zm-9.327-43.539a3.5,3.5,0,0,0,.05-.961c-1.011-3.986-1.995-7.98-3.1-11.94-.535-1.92-1.855-1.759-3.424-1.026,1.092,4.2,2.168,8.257,3.2,12.327C311.443,385.451,312.287,386.249,314.286,385.365Zm19.448-68.248c-2.444,1.533-4.857,2.684-7.06,4.232-.877.616-1.627,1.105-1.1,2.22.512,1.084,1.581.625,2.329.462a40.335,40.335,0,0,0,6.852-1.93A6.178,6.178,0,0,0,333.734,317.117Zm88.952-31.11c2.233,1.771,2.849,4.571,5.153,5.974,1.084-4.7,1.067-6.377.05-6.334C426.253,285.718,424.457,283.855,422.685,286.007Zm-.984-2.133c-2.668-3.135-5.955-3.152-9.212-3.48C412.807,284.087,415.318,284.455,421.7,283.874ZM300.915,350.5c3.351-.99,4.391-3.367,2.686-5.671-.4-.537-1.207-.819-1.539.215C301.523,346.725,300.773,348.375,300.915,350.5Zm32.269,114.609c1.694,1.567,2.563,3.814,5.095,4.134-1.251-1.473-.769-3.384-1.489-5.068C335.654,464.532,334.429,463.786,333.184,465.107Zm54.6-189.448c1.93.424,3.8,1.3,5.878.7C391.816,275.132,389.808,275.33,387.784,275.658ZM364.271,475.526a.615.615,0,0,0-.679-.666c-.633,0-1.105.224-1.111.936a.646.646,0,0,0,.671.714A.992.992,0,0,0,364.271,475.526ZM396.121,276.8a.975.975,0,0,0,1.347.094A.975.975,0,0,0,396.121,276.8Zm-11.9-1.166c-.355-.173-.689-.332-1.026,0-.025.023.008.165.05.188A.683.683,0,0,0,384.22,275.633Zm6.24,4.769c-.065-.067-.127-.186-.2-.188s-.138.111-.209.171c.065.069.127.188.2.19S390.389,280.465,390.46,280.4Zm39.885,12.909-.178-.211c-.069.063-.186.121-.19.188s.1.138.165.207Z" transform="translate(0 19.072)" fill="#0e62a6"/><path d="M480.451,409.391a67.911,67.911,0,0,0-6.584,10.668,16.248,16.248,0,0,1-4.706,5.431,10.706,10.706,0,0,0-2.538,2.676c3.257-.925,5.063,1.748,7.779,1.753,1.4,0,2.578,4.178,2.016,6.137-.856,2.985-2.943,5.266-5.032,7.261a67.043,67.043,0,0,1-12.456,9.73c-1.18.685-2.131,1.448-3.7,1.088a4.4,4.4,0,0,0-2.5.278c-2.893,1.372-5.7-.529-8.562-.09a1.263,1.263,0,0,1-1.445-1.164c-.013-1.051.871-1.147,1.684-1.136a43.7,43.7,0,0,0,8.861-1.063,13.517,13.517,0,0,0,5.007-2.189c4.332-2.906,8.573-6,11.913-10.058a10.818,10.818,0,0,0,2.584-5.057c.439-2.379-.744-2.542-2.143-2.724a11.427,11.427,0,0,0-7.963,1.686,4.581,4.581,0,0,0-1.738,3.48c-.121,1.09-.585,2.068-.679,3.1-.163,1.821-1.324,2.471-2.82,2.807-5.233,1.17-9.958,3.539-14.6,6.106a4.086,4.086,0,0,0-2.039,4.359,6.917,6.917,0,0,1-1.682,5.091,1.924,1.924,0,0,1-2.565.706c-1.069-.575-.944-1.592-.6-2.578.309-.886,1.038-1.659.585-3.206-1.663,2.454-4.736,3.014-5.617,6.037a1.659,1.659,0,0,1-2.628.829c-1.113-.716-1.905-2.935-1.138-3.81,1.03-1.176,1.5-2.929,3.566-3.173a3.942,3.942,0,0,0,2.686-2c-2.594-.351-4.38,1.22-6.3,2.162a2.618,2.618,0,0,1-2.417.109c-1.026-.4-.81-1.214-.9-1.93-.1-.792.349-1.216,1.088-1.5,3.743-1.408,7.357-3.4,11.6-2.438a2.112,2.112,0,0,0,1.7-.224,53.312,53.312,0,0,1,12.627-6.352c-2.135-2.415-4.734-2.34-7.288-1.594a56.391,56.391,0,0,1-12.446,2.024,11.429,11.429,0,0,0-2.991.683c-1.677.549-3.083,1.949-5.089,1.527a1.526,1.526,0,0,0-1.182.74c-1.032,1.9-2.728,3.246-3.986,4.9a2.646,2.646,0,0,1-3.676.988c-1.126-.529-.679-2.12.825-3.472a3.922,3.922,0,0,0,.522-.844c-2.718.347-5.352.541-7.917,1.074-1.209.251-1.581-.207-1.995-1.059a1.339,1.339,0,0,1,.942-2.043,38.178,38.178,0,0,1,4.339-.735c-1.525-.746-1.5-2.929-3.71-2.617a39.066,39.066,0,0,1-5.17.044c.7-2.126,3.169-1.736,3.718-3.618a4.314,4.314,0,0,0-4.017-.654,20.17,20.17,0,0,1-4.347.418c-5.692.067-9.377-3.635-8.615-10.169a6.459,6.459,0,0,0-.244-2.59c-2.44-8.289-5.13-16.509-7.019-24.948-1.648-7.363-4.013-14.526-5.953-21.806-2.446-9.185-5.559-18.188-7.522-27.5-1.9-9.022-5.659-17.488-7.748-26.468-1.625-7-3.86-13.849-5.832-20.764-2.218-7.773-4.163-15.623-6.735-23.3a49.177,49.177,0,0,1-2.977-13.44,2.3,2.3,0,0,0-.518-1.308c-1.665-2.277-1.322-3.206,1.55-4.435a4.02,4.02,0,0,1,1.834,3.67c-.035,1.83,1,3.474,1.381,5.283,1.832,8.734,4.389,17.284,6.829,25.865,4.568,16.053,9.166,32.1,13.4,48.247.978,3.741,1.8,7.535,3.085,11.178,3.6,10.236,5.778,20.864,8.863,31.235a58.275,58.275,0,0,1,2.358,8.539c.115.836.562,1.276,1.654.965,5.577-1.588,11.222-.942,16.862-.34a11.64,11.64,0,0,0,4.531-.161c-.2-2.041-1.053-3.814-.017-5.891,2.043,2.446,1.746,6.983,6.626,5.937a27.738,27.738,0,0,0-1.335-8.374c1.189-.606,1.7.1,2.143,1.063.549,1.184,1.218,2.319,1.73,3.518,1.26,2.947,3.2,4.758,6.634,4.042a3.542,3.542,0,0,1,3.023.752,2.386,2.386,0,0,1-2.532,1.985c-2.649.033-5.289,1-7.952.146a1.1,1.1,0,0,0-.583.01c-4.8,1.27-9.527-.117-14.282-.412-.953-.058-1.3.568-1.895,1.074-1.995,1.7-2.989,4.176-4.961,5.974a61.005,61.005,0,0,0-4.9,4.343,108.312,108.312,0,0,0,3.01,11.192c.648,2.235,1.4,4.445,1.922,6.707a3.106,3.106,0,0,0,1.615,2.256,78.233,78.233,0,0,0,10.321,4.236c2.885,1.076,5.886,1.832,8.811,2.668a44.166,44.166,0,0,0,9.624,1.878,63.622,63.622,0,0,0,16.962-1.312c4.4-.946,8.224-.242,12.322,1.019,3.835,1.18,4.516,1.105,5.27-3.351.332-1.953,1.266-3.787.574-5.889a1.717,1.717,0,0,1,1.086-1.905c1.145-.478,1.3.9,1.993,1.161a28.264,28.264,0,0,0,10.892-10.244c1.542-2.469,4.023-4.343,6.02-6.542.606-.668,1.3,0,1.88-.349Zm-69.159,29.42c1.964.767,3.656,1.314,5.92.466C415.045,439.118,413.42,437.871,411.292,438.811Zm-18.347-7.729c.466.14.127,1.2,1.251.7C393.912,431.322,393.636,430.963,392.945,431.082Z" transform="translate(49.41 51.843)" fill="#0e62a6"/><path d="M447.367,359.1c-4.646,5.053-10.3,8.8-15.934,12.623a44.859,44.859,0,0,1-8.318,4.387,96.779,96.779,0,0,1-11.769,4.249c-3.292.863-6.576,1.957-9.92,1.88-4.612-.1-9.348.8-13.824-1.535-2.076-1.082-4.69-.675-6.966-1.78a18.752,18.752,0,0,1-7.879-7.51,2.328,2.328,0,0,1,.554-3.472c2.972,4.924,7.192,8.222,12.934,8.832,3.282.347,6.885,1.055,9.92-2.085-3.073-.065-5.891-.318-7.748-2.81.564-1.751,1.955-1.381,2.956-1.055,4.946,1.613,8.633-1.2,12.588-3.369a8.089,8.089,0,0,1-7.775-2.181c-.675-.683.407-1.329.687-1.968,4.533,1.022,10.891.938,15.128-2.592-3.785,1.222-6.9.988-9.538-2.122,3.171-.324,6.44-.272,9.482-1.078,2.983-.794,5.732-2.461,8.972-3.919-.23,2.544-1.038,4.061-2.8,5a6.4,6.4,0,0,0-3.125,3.3,6.384,6.384,0,0,1-3.514,3.3,6.457,6.457,0,0,0-3.359,2.87c-.779,1.186-2.145,1.562-3.192,2.375a28.879,28.879,0,0,0-7.209,8.368c6.375.395,12.379-1.287,18.169-3.451a88.13,88.13,0,0,0,19.057-10.4,13.144,13.144,0,0,0,1.285-1.157c.437-.107,1.067.115,1.111-.656l.451-.159-.276-.228-.125.437c-.574-.092-1.237-.317-1.061.71a11.343,11.343,0,0,0-5.145,1.732c-5.293,3.133-11.161,4.763-16.912,6.7-1.608.541-3.394.142-5.03.863-.865.382-1.682-.223-2.427-1.053,2.06-1.727,4.738-2.005,7.071-2.9,6.716-2.578,13.244-5.527,19.715-8.656a79.369,79.369,0,0,0,14.512-8.9,7.736,7.736,0,0,0,3.248-4.466l.428.056-.081-.355-.288.38c-8,5.588-16.939,9.237-26.057,12.494a29.175,29.175,0,0,1-4.435,1.042c-.315.059-.737-.242-.859-.79.109-.171.219-.566.405-.606,3.831-.823,7.021-3.115,10.52-4.673,5.235-2.327,10.236-5.178,15.341-7.8a23.169,23.169,0,0,0,8.865-8.059c-9.2,3.864-17.35,9.12-27.1,9.945a8.679,8.679,0,0,1,5.506-3.534c4.779-1.226,8.817-3.921,13.147-6.035,2.172-1.061,4.194-2.477,6.44-3.328,2.586-.98,4.017-2.858,5.352-5.239-1.107-.6-1.922-1.408-3.238-.62a6.6,6.6,0,0,1-3.413.673c-6.029.015-11.857,1.542-17.442,3.369q-10.547,3.447-21.085,6.971c-4.334,1.46-8.719,2.768-13.054,4.232-1.122.378-2.25-.148-3.641.9.723-2.25,2.409-2.283,3.478-2.68,4.679-1.734,9.131-3.99,13.822-5.707,4.784-1.753,9.661-3.077,14.553-4.424,3.52-.971,6.9-2.434,10.409-3.449,2.864-.831,5.836-1.28,8.74-1.982,3.672-.886,7.432-.656,11.148-.98,2.085-.182,3.61,2.018,2.979,4.249a10.961,10.961,0,0,1-2.2,3.923,11.843,11.843,0,0,0,4.09-3.781c1.8-2.613,4.3-4.648,6.064-7.342,3.781-5.78,8.276-11.069,11.942-16.933a9.2,9.2,0,0,1,10.279-3.626c2.085.614,3.639,2,5.54,2.847,2.48,1.107,4.09,6.724,1.993,10.246-1.75,2.941-4.533,4.892-6.628,7.505-1.337,1.667-2.968,3.156-4.178,4.974a20.015,20.015,0,0,1-5.417,5.571,21.838,21.838,0,0,0-3.292,3.106,140.408,140.408,0,0,1-14.418,12.851c-3.1,2.475-5.97,5.249-9.7,6.691a29.622,29.622,0,0,0-6.82,3.8c-.13.1-.165.324-.244.491l.061.023c-.882-.639-1.859-1.218-1.565-2.571,1.506-.173,1.905-1.807,3.156-2.365a40.709,40.709,0,0,0,8.759-5.538c2.2-1.755,4.88-2.743,6.883-4.784,3.981-4.055,8.514-7.545,12.231-11.871,1.771-2.064,4.22-3.33,6.012-5.371,2.517-2.866,4.128-6.423,7.046-8.986a38.951,38.951,0,0,0,3.833-4,5.178,5.178,0,0,0,.867-6.2c-1.955,3.461-4.781,6.15-7.1,9.225-2.371,3.144-5.329,5.719-8,8.527a42.729,42.729,0,0,1-8.565,7.422,12.269,12.269,0,0,1,.324-1.491c.518-1.251,1.851-1.663,2.7-2.59,6.2-6.749,10.946-14.6,16.515-21.827.729-.946,1.09-2.058-.215-2.678a1.975,1.975,0,0,0-2.776,1.182c-1.621,3.931-4.8,6.812-6.937,10.39a1.721,1.721,0,0,1-1.916,1.044l.075.075c-.426-2.089,1.316-3.232,2.116-4.777.974-1.884,2.724-3.434,2.442-5.843a1.13,1.13,0,0,0,.24-.065c.042-.021.065-.084.1-.127l-.261.267c-3.008,4.255-5.972,8.541-9.037,12.755A86.785,86.785,0,0,1,464.4,334.593c-2.983,2.728-6.106,5.26-8.464,8.6-.572.808-1.18,1.5-1,2.576.368,2.281-1.078,3.9-2.108,5.678C451.25,354.17,448.654,356.167,447.367,359.1Z" transform="translate(81.052 99.64)" fill="#0e62a6"/><path d="M310.316,221.141a1.773,1.773,0,0,0,.56,1.861c2.686,2.778,4.625,6.131,7.967,8.46,4.464,3.112,8.214,7.2,12.736,10.34a23.3,23.3,0,0,1,6.835,7.031c-2.189-1.18-3.912-1.987-5.508-2.993a93.225,93.225,0,0,1-12.594-9.1c-2.649-2.367-6.24-3.925-8.264-6.684-3.035-4.142-7.6-7.775-6.57-14.056.554-3.361,2.935-5.126,6.169-4.071,3.006.982,5.076,3.15,7.407,5.074,7.027,5.793,12.853,12.989,20.789,17.718,1.113.662,1.819,1.913,3.129,2.348.132,0,.215.476.393.042l-.472.038c.263-2.062-1.8-2.753-2.6-4.211-1.047-1.9-1.911-3.992-3.493-5.628a3.94,3.94,0,0,1-.762-2.753c.008-2.012.5-3.986-.806-5.974-.85-1.293.683-2.991,2.248-2.64a55.449,55.449,0,0,1,13.089,4.485c2.252,1.141,4.441,2.423,6.753,3.422a122.481,122.481,0,0,1,12.719,6.315c.978.564,2.212.666,3.225,1.182,4.815,2.448,9.855,4.431,14.526,7.175,1.5.882,3.158,1.487,4.715,2.279a36.563,36.563,0,0,1,10.008,8.042c-1.308.775-1.686-.234-2.294-.545-6.047-3.085-12.109-6.139-18.251-9.039-4.675-2.208-9.264-4.591-13.9-6.885-2.858-1.412-5.709-2.9-8.64-4.073-3.213-1.285-5.951-3.386-9.208-4.608-1.813-.681-3.6-1.719-5.471-2.459-1.934-.762-3.85-1.573-5.774-2.363a1.22,1.22,0,0,0-.113-.249c-.027-.038-.1-.038-.159-.056l.347.228c.186,2.459,2.239,3.7,3.7,5.166,2.622,2.64,5.65,4.869,8.42,7.37,4.742,4.286,10.194,7.683,14.892,12.017.328.3.769.545.756,1.207-1.483.119-2.574-.909-3.6-1.565-4.522-2.893-9.388-5.279-13.488-8.813-3.215-2.772-7.136-4.765-9.442-8.541l-.5-.1c-.006.069-.042.175-.012.2.269.224.424.05.553-.18-.094.165-.311.4-.263.487,1.627,2.945,2.256,6.279,4.882,8.874,6.037,5.97,13.21,10.557,19.308,16.431a19.426,19.426,0,0,0,4.238,2.714c.6.328,1.23.5,1.533,1.218-1.573.32-1.542.272-5.841-2.684a35.8,35.8,0,0,0-6.166-3.643c-2.133-.9-3.722-2.62-5.981-3.277A97.713,97.713,0,0,0,381.6,268.4c-.077-1.826-.4-3.048.05-4.408a6.918,6.918,0,0,0-.3-4.853c-1.466-3.76-.077-7.927-.687-11.9-.109-.706.5-1.45,1.734-1.671.535,7.861,6.3,10.386,12.79,12.322a6.254,6.254,0,0,1-6.039.309,38.2,38.2,0,0,1-6.212-3.553c-.1-.155.067-.71-.422-.28l.5.2c-.332,2.26,1.755,5.993,4.092,7.023,2.425,1.072,4.669,2.622,7.372,3,.963.134.779.95,1.072,1.533-4.084.925-7.508-.666-10.827-2.693-.134-.115-.015-.727-.458-.232l.541.15c-1.339,3.326.476,5.281,2.973,7.012,3.915,2.713,7.908,5.086,12.953,4.79,3.839-.226,6.96-2.12,10.06-4.08a2.222,2.222,0,0,0,.938-1.744,1.175,1.175,0,0,1,1.46-1.189c-.407,4.067-2.9,6.517-6.227,8.255-6.868,3.591-13.135.89-19.2-2.229a42.745,42.745,0,0,0-4.525-1.606,54.617,54.617,0,0,1-13.156-7.1c-2.465-1.849-4.85-3.814-7.4-5.54-2.028-1.372-3.294-3.44-5.114-5.013-4.04-3.495-6.985-8.023-10.609-11.923a4.818,4.818,0,0,0-1.285-1.172c-6.67-3.125-12.049-8.115-17.889-12.423a42.96,42.96,0,0,1-5.327-5.2c-2.745-2.885-5.987-5.2-8.932-7.848a5.694,5.694,0,0,0-3.1-1.617c2.979,4.738,7.372,7.808,11.044,11.579a137.176,137.176,0,0,0,11.512,11c-2.592.242-3.931-1.241-5.151-2.273-5.571-4.715-11.623-8.828-17.031-13.737-.117-.1-.374-.054-.566-.075-.132-.065.059-.6-.359-.242Z" transform="translate(8.213 0)" fill="#0e62a6"/><path d="M390.363,350.1c-2.81.508-2.208-2.007-3.085-3.555-2.5.948-5.665.15-7.338,3.275a1.153,1.153,0,0,1-1.8.127c-1.107-1.473-2.277-.861-3.608-.516a14.312,14.312,0,0,1-3.192.152,1.038,1.038,0,0,1-1.161-1.03c-.1-.762.391-1.021.986-1.189a8.364,8.364,0,0,1,2.223-.558,3.046,3.046,0,0,0,2.659-1.711c-2.4-3.727-2.751-8.245-4.562-12.4-2.225.148-4.619.7-7.276.32,1.529-2.509,4.458-1.938,6.446-3.568-.215-1.448-1.414-2.853-.881-4.825,3.048-.6,2.858,2.574,4.412,3.929a34.914,34.914,0,0,1,5.9-1.989c-.472-4.178-2.055-7.971-3.163-11.886-6.38,2.551-14.616,3.685-16.9,2.07,2.2-.727,3.747-2.344,6.254-2.515L362.5,303.5a17.581,17.581,0,0,1-3.71.783c-.564,0-1.686.518-1.945-.631-.236-1.036.633-1.157,1.316-1.55,1.166-.668,2.486-.349,3.927-.823-1.575-3.664-2.187-7.535-3.466-11.224-.489-1.406-1.015-1.769-2.266-.927-1,.675-1.974.046-3.006-.061a2.463,2.463,0,0,1,1.742-1.859c2.448-.359,2.131-1.834,1.9-3.566-.33-2.446-1.533-4.648-1.794-7.117-.1-.99-1.166-.783-1.924-.836-1.3-.092-2.7.347-3.887-.4a1.149,1.149,0,0,1,1.072-1.278c3.309-.737,3.29-.75,3.348-4.153a2.98,2.98,0,0,1,.506-2.39,15.942,15.942,0,0,1,2.043,4.218l7.911-1.736c.7-2.864-2.344-5.584-1.345-8.807,3.447.449,3.576,3.451,3.952,5.264.322,1.548.744,3.326,1.178,4.756,1.285,4.217,2.578,8.493,3.628,12.723,1.715,6.912,3.925,13.674,5.678,20.569,1.429,5.613,3.025,11.217,4.662,16.789,1.713,5.822,4.266,11.374,5.5,17.33C388.3,342.388,390.213,345.889,390.363,350.1ZM375.58,331.651a1.73,1.73,0,0,0-.121.443c.441,4.128,2.4,7.869,3.048,11.955.129.829.886,1.1,1.832.568a11.537,11.537,0,0,1,4.061-1.41c1.318-.186,1.65-.585,1.2-2.135-1.04-3.6-3.344-6.643-3.94-10.169C379.455,330.553,377.615,331.211,375.58,331.651Zm-4.094-33.744c-.765-3.4-1.439-6.595-2.241-9.755a1.139,1.139,0,0,0-1.454-1c-2.1.505-4.391.318-6.225,1.8,1.18,3.562,2.367,7.142,3.532,10.662C367.715,300.7,369.012,297.859,371.486,297.907Zm-13.7-22.974c.71,2.705,1.205,5.327,2.1,7.806,1.03,2.866,1.4,2.891,4.142,1.744,1.216-.506,2.457-.946,3.664-1.408-.777-3.2-.84-6.515-2.306-9.2A23.347,23.347,0,0,0,357.789,274.934Zm18.088,36.409c-1.671-3.447-2.124-6.8-3.689-9.757-2.154.8-4.535.28-6.5,1.782.777,3.422,1.032,7,2.237,10.286C370.638,313.037,372.791,311.656,375.876,311.343Z" transform="translate(56.182 53.921)" fill="#0e62a6"/><path d="M385.8,322.8c.934,2.862-.746,4.974-2.477,6.275a17.715,17.715,0,0,1-11.5,3.927,4.338,4.338,0,0,1-1.448-.094c-.94-.4-2.279-.641-2.12-2.014.177-1.529,1.5-1.109,2.517-1.115,4.514-.029,8.307-1.7,11.948-4.832a3,3,0,0,0-2.843-.518c-3.547.512-7.1.8-10.634-.192-1.654-.464-3.328-1.115-3.342-3.062s1.278-3.014,3.2-3.587a14.63,14.63,0,0,1,9.54.349c1.575.6,3.321,1,4.706,2.143a2.04,2.04,0,0,0,2.36.125,18.286,18.286,0,0,0,4.581-2.436c2.083-1.757,1.943-3.342-.449-4.746a15.592,15.592,0,0,0-4.055-1.4A43.337,43.337,0,0,0,371.4,310.6c-1.412.1-2.381,1.337-3.785,1.237-.61-.044-1.412.38-1.776-.539-.393-1,.616-.967.99-1.425,1.675-2.053,4.027-2.411,6.407-2.6A47.724,47.724,0,0,1,390.143,309a6.479,6.479,0,0,1,5.032,5.536c.163,1.75-.138,3.461-1.964,4.477-1.207.673-2.271,1.611-3.495,2.248A39.534,39.534,0,0,1,385.8,322.8Zm-7.023-1.911c-3.549-.315-6.4-1.905-9.534-.008C371.677,322.1,376.588,322.254,378.781,320.886Z" transform="translate(74.007 103.988)" fill="#0e62a6"/><path d="M351.119,267.363c-1.391,1.241-2.868,2.509-4.291,3.833-1.017.948-2.427,1.072-3.135.259-.994-1.145,0-2.076,1.2-2.649a6.465,6.465,0,0,0,1.214-1.088c-14.831-9.149-22.554-22.278-23.371-39.587,1.406-.159,1.788.3,1.976,1.22a63.091,63.091,0,0,0,6.191,16.586,52.562,52.562,0,0,0,7.15,10.079c1.686,1.924,2.943,4.272,5.362,5.657,2.009,1.151,4.57,1.78,5.523,4.439C349.155,266.719,350.622,266.128,351.119,267.363Z" transform="translate(27.167 17.936)" fill="#0e62a6"/><path d="M367.119,257.507c-2.9.305-7.148-1.786-8.291-4.161a3.569,3.569,0,0,1-.313-2.5,11.562,11.562,0,0,1,2.53-4.483c1.339-1.585,3.027-1.168,3.923.723a22.354,22.354,0,0,1,1.876,6.517C367.023,254.892,367.871,256.16,367.119,257.507Z" transform="translate(66.015 36.763)" fill="#0e62a6"/><path d="M373.806,255.538c-.052,2.7-2.791,5.322-5.387,5.16a5.678,5.678,0,0,1-5.151-5.293,5.5,5.5,0,0,1,5.774-5.231C372.137,250.291,373.866,252.24,373.806,255.538Zm-8.032.662c2.016-1.984,4.161-1.845,6.108.4.257-2.933-.526-4.42-2.454-4.667C367.336,251.666,366.183,253.011,365.774,256.2Z" transform="translate(71.302 41.968)" fill="#0e62a6"/><path d="M336.709,253.168c-.852.086-1.725-.069-1.986-.89a1.755,1.755,0,0,1,1.111-2.1c1.9-.892,3.844-1.707,5.772-2.546a2.154,2.154,0,0,1,2.705.988c.9,1.268-.591,1.8-1.218,2.147A23.214,23.214,0,0,1,336.709,253.168Z" transform="translate(40.137 39.005)" fill="#0e62a6"/><path d="M424.859,310.794c.29,1.5-1.354,1.761-1.717,2.839-.464-1.64.027-2.636,1.792-2.764Z" transform="translate(136.32 107.981)" fill="#0e62a6"/></g></svg>